<?xml version="1.0" encoding="UTF-8" standalone="no"?>
<!-- Created with Inkscape (http://www.inkscape.org/) -->

<svg
   xmlns:dc="http://purl.org/dc/elements/1.1/"
   xmlns:cc="http://creativecommons.org/ns#"
   xmlns:rdf="http://www.w3.org/1999/02/22-rdf-syntax-ns#"
   xmlns:svg="http://www.w3.org/2000/svg"
   xmlns="http://www.w3.org/2000/svg"
   xmlns:sodipodi="http://sodipodi.sourceforge.net/DTD/sodipodi-0.dtd"
   xmlns:inkscape="http://www.inkscape.org/namespaces/inkscape"
   version="1.1"
   id="svg2"
   xml:space="preserve"
   width="351.39465"
   height="861.6499"
   viewBox="0 0 351.39465 861.6499"
   sodipodi:docname="man.svg"
   inkscape:version="0.92+devel unknown"><metadata
     id="metadata8"><rdf:RDF><cc:Work
         rdf:about=""><dc:format>image/svg+xml</dc:format><dc:type
           rdf:resource="http://purl.org/dc/dcmitype/StillImage" /><dc:title></dc:title></cc:Work></rdf:RDF></metadata><defs
     id="defs6" /><sodipodi:namedview
     pagecolor="#ffffff"
     bordercolor="#666666"
     inkscape:document-rotation="0"
     borderopacity="1"
     objecttolerance="10"
     gridtolerance="10"
     guidetolerance="10"
     inkscape:pageopacity="0"
     inkscape:pageshadow="2"
     inkscape:window-width="1366"
     inkscape:window-height="704"
     id="namedview4"
     showgrid="false"
     fit-margin-top="0"
     fit-margin-left="0"
     fit-margin-right="0"
     fit-margin-bottom="0"
     inkscape:zoom="0.22627417"
     inkscape:cx="46.077022"
     inkscape:cy="738.0941"
     inkscape:window-x="0"
     inkscape:window-y="27"
     inkscape:window-maximized="1"
     inkscape:current-layer="g10" /><g
     id="g10"
     inkscape:groupmode="layer"
     inkscape:label="ink_ext_XXXXXX"
     transform="matrix(1.3333333,0,0,-1.3333333,1306.8777,1062.397)"><g
       id="g5372"><path
         d="m -873.32232,448.86944 c 0.745,-6.541 -6.296,-12.711 -15.725,-13.787 v 0 c -9.428,-1.076 -17.677,3.355 -18.423,9.896 l -12.336,108.26 c -0.744,6.539 6.295,12.714 15.724,13.787 v 0 c 9.43,1.075 17.678,-3.356 18.424,-9.896 l 12.336,-108.26"
         style="fill:#263354;fill-opacity:1;fill-rule:nonzero;stroke:none;stroke-width:0.1"
         id="path78"
         inkscape:connector-curvature="0" /><path
         d="m -889.89932,365.15044 c -1.963,-10.761 -9.708,-14.672 -18.105,-13.138 -8.394,1.529 -14.26,7.922 -12.298,18.685 1.964,10.762 11.012,21.821 19.408,20.289 8.395,-1.533 12.957,-15.074 10.995,-25.836"
         style="fill:#f5ba83;fill-opacity:1;fill-rule:nonzero;stroke:none;stroke-width:0.1"
         id="path80"
         inkscape:connector-curvature="0" /><path
         d="m -907.59832,350.64444 c -0.318,-1.74 -2.232,-2.851 -4.275,-2.478 v 0 c -2.044,0.373 -3.442,2.088 -3.125,3.83 l 2.637,14.459 c 0.319,1.744 2.232,2.854 4.276,2.482 v 0 c 2.043,-0.375 3.442,-2.087 3.126,-3.832 l -2.639,-14.461"
         style="fill:#f5ba83;fill-opacity:1;fill-rule:nonzero;stroke:none;stroke-width:0.1"
         id="path82"
         inkscape:connector-curvature="0" /><path
         d="m -914.74032,353.40844 c -0.316,-1.742 -2.231,-2.851 -4.275,-2.48 v 0 c -2.042,0.373 -3.442,2.09 -3.124,3.83 l 2.639,14.461 c 0.316,1.742 2.231,2.855 4.274,2.482 v 0 c 2.044,-0.373 3.442,-2.09 3.123,-3.83 l -2.637,-14.463"
         style="fill:#f5ba83;fill-opacity:1;fill-rule:nonzero;stroke:none;stroke-width:0.1"
         id="path84"
         inkscape:connector-curvature="0" /><path
         d="m -888.40332,375.60944 15.053,70.668 c 1.37,6.439 -5.042,13.261 -14.324,15.238 -9.283,1.976 -17.92,-1.64 -19.291,-8.077 l -11.325,-71.504 29.887,-6.325"
         style="fill:#263354;fill-opacity:1;fill-rule:nonzero;stroke:none;stroke-width:0.1"
         id="path86"
         inkscape:connector-curvature="0" /><path
         d="m -900.17032,350.75244 c -0.318,-1.742 -2.233,-2.852 -4.275,-2.481 v 0 c -2.044,0.373 -3.443,2.088 -3.126,3.83 l 2.639,14.459 c 0.317,1.745 2.231,2.856 4.275,2.483 v 0 c 2.042,-0.373 3.442,-2.09 3.123,-3.83 l -2.636,-14.461"
         style="fill:#f5ba83;fill-opacity:1;fill-rule:nonzero;stroke:none;stroke-width:0.1"
         id="path88"
         inkscape:connector-curvature="0" /><path
         d="m -892.58432,350.42644 c -0.319,-1.741 -2.234,-2.852 -4.276,-2.481 v 0 c -2.043,0.373 -3.442,2.088 -3.124,3.83 l 2.637,14.461 c 0.318,1.742 2.231,2.852 4.275,2.481 v 0 c 2.042,-0.371 3.442,-2.088 3.125,-3.83 l -2.637,-14.461"
         style="fill:#f5ba83;fill-opacity:1;fill-rule:nonzero;stroke:none;stroke-width:0.1"
         id="path90"
         inkscape:connector-curvature="0" /><path
         d="m -897.28732,189.23844 h 34.045 l 3.652,204.455 h -47.367 l 9.67,-204.455"
         style="fill:#263354;fill-opacity:1;fill-rule:nonzero;stroke:none;stroke-width:0.1"
         id="path92"
         inkscape:connector-curvature="0" /><path
         d="m -810.78332,189.23844 h -34.047 l -31.604,204.455 h 64.212 l 1.439,-204.455"
         style="fill:#263354;fill-opacity:1;fill-rule:nonzero;stroke:none;stroke-width:0.1"
         id="path94"
         inkscape:connector-curvature="0" /><path
         d="m -851.82732,563.81644 c 0,-9.068 -7.351,-8.874 -16.42,-8.874 v 0 c -9.07,0 -16.42,-0.194 -16.42,8.874 v 66.033 c 0,9.068 7.35,16.42 16.42,16.42 v 0 c 9.069,0 16.42,-7.352 16.42,-16.42 v -66.033"
         style="fill:#f5ba83;fill-opacity:1;fill-rule:nonzero;stroke:none;stroke-width:0.1"
         id="path96"
         inkscape:connector-curvature="0" /><path
         d="m -940.97432,752.56044 c -16.198,-52.193 10.316,-95.387 10.316,-95.387 0,0 -3.6,57.592 17.098,73.79 l -27.414,21.597"
         style="fill:#3a1819;fill-opacity:1;fill-rule:nonzero;stroke:none;stroke-width:0.1"
         id="path100"
         inkscape:connector-curvature="0" /><path
         d="m -771.86332,677.87044 c 0,-12.726 -12.56,-30.407 -22.592,-30.407 -10.03,0 -13.733,17.681 -13.733,30.407 0,12.726 8.132,15.057 18.163,15.057 10.031,0 18.162,-2.331 18.162,-15.057"
         style="fill:#f5ba83;fill-opacity:1;fill-rule:nonzero;stroke:none;stroke-width:0.1"
         id="path102"
         inkscape:connector-curvature="0" /><path
         d="m -791.56832,670.72044 c 0.639,-1.632 -1.812,-4.115 -5.474,-5.548 -3.664,-1.433 -7.149,-1.272 -7.788,0.36 -0.637,1.632 1.812,4.115 5.476,5.548 3.661,1.433 7.146,1.272 7.786,-0.36"
         style="fill:#f5ba83;fill-opacity:1;fill-rule:nonzero;stroke:none;stroke-width:0.1"
         id="path106"
         inkscape:connector-curvature="0" /><path
         d="m -800.01632,663.67544 v 0 c 0,0 -4.92,25.271 -6.291,53.619 -0.859,17.748 -11.369,44.01 -61.94,44.01 -50.571,0 -61.556,-26.265 -61.94,-44.01 -0.467,-21.538 -6.291,-53.619 -6.291,-53.619 v 0 c -2.74,-8.383 -4.393,-16.178 -4.696,-22.486 -1.563,-32.581 31.06,-60.038 72.927,-60.038 41.867,0 74.489,27.456 72.926,60.038 -0.303,6.308 -1.956,14.103 -4.695,22.486"
         style="fill:#f5ba83;fill-opacity:1;fill-rule:nonzero;stroke:none;stroke-width:0.1"
         id="path110"
         inkscape:connector-curvature="0" /><path
         d="m -795.26632,752.56044 c 16.197,-52.193 -10.316,-95.387 -10.316,-95.387 0,0 3.599,57.592 -17.098,73.79 0,0 -72.647,-48.907 -123.282,-15.298 -21.114,14.014 -34.196,57.47 -34.196,57.47 0,0 23.399,12.853 51.293,11.052 0,0 -4.499,7.199 -2.699,12.599 0,0 54.892,1.29 71.989,-23.651 0,0 -2.7,10.632 0,15.342 0,0 15.382,-9.689 19.798,-15.342 5.735,-7.342 28.072,-21.568 44.511,-20.575"
         style="fill:#4d2424;fill-opacity:1;fill-rule:nonzero;stroke:none;stroke-width:0.1"
         id="path112"
         inkscape:connector-curvature="0" /><path
         d="m -885.09232,662.79744 c 0,0 -10.401,-20.776 -25.165,-17.258 0,0 9.393,-20.815 25.165,-14.658 0,0 -9.714,2.5 -12.582,9.088 0,0 10.882,1.387 12.582,22.828"
         style="fill:#d19b6b;fill-opacity:1;fill-rule:nonzero;stroke:none;stroke-width:0.1"
         id="path114"
         inkscape:connector-curvature="0" /><path
         d="m -864.23032,700.75144 c 0,0 0.561,0.372 1.612,0.855 1.046,0.505 2.583,1.109 4.487,1.642 0.954,0.245 1.994,0.521 3.111,0.7 1.115,0.213 2.303,0.363 3.54,0.456 0.617,0.071 1.248,0.1 1.888,0.1 0.64,0.014 1.289,0.023 1.943,0.014 1.309,-0.05 2.64,-0.156 3.967,-0.319 0.66,-0.116 1.32,-0.231 1.977,-0.347 l 0.982,-0.184 0.963,-0.267 c 1.277,-0.356 2.532,-0.7 3.69,-1.235 1.17,-0.485 2.287,-0.966 3.274,-1.6 0.989,-0.613 1.946,-1.12 2.71,-1.806 0.783,-0.644 1.479,-1.244 2.077,-1.785 0.561,-0.597 1,-1.17 1.369,-1.616 0.729,-0.907 1.088,-1.454 1.088,-1.454 0,0 -0.653,0.223 -1.694,0.664 -0.507,0.221 -1.126,0.489 -1.834,0.797 -0.737,0.245 -1.546,0.532 -2.406,0.856 -0.832,0.372 -1.833,0.57 -2.814,0.893 -0.972,0.35 -2.055,0.563 -3.145,0.836 -1.073,0.318 -2.237,0.468 -3.386,0.72 l -0.868,0.179 -0.887,0.125 -1.78,0.273 c -1.191,0.172 -2.396,0.282 -3.58,0.436 -1.193,0.067 -2.363,0.251 -3.513,0.298 -0.573,0.044 -1.138,0.073 -1.693,0.132 -0.557,0.031 -1.102,0.062 -1.633,0.092 -1.066,0.087 -2.078,0.109 -3.021,0.176 -1.912,0.105 -3.506,0.193 -4.62,0.254 -0.567,0.022 -1.019,0.071 -1.326,0.081 -0.312,0.022 -0.478,0.034 -0.478,0.034"
         style="fill:#3a1819;fill-opacity:1;fill-rule:nonzero;stroke:none;stroke-width:0.1"
         id="path116"
         inkscape:connector-curvature="0" /><path
         d="m -894.70832,697.55944 c 0,0 -0.146,-0.017 -0.42,-0.048 -0.27,-0.019 -0.666,-0.08 -1.163,-0.115 -0.993,-0.093 -2.394,-0.224 -4.033,-0.343 -0.813,-0.065 -1.694,-0.136 -2.626,-0.21 -0.925,-0.058 -1.89,-0.153 -2.884,-0.239 -0.995,-0.053 -2.006,-0.223 -3.039,-0.286 -1.022,-0.141 -2.064,-0.237 -3.092,-0.388 l -1.537,-0.233 c -0.256,-0.039 -0.511,-0.078 -0.768,-0.105 l -0.75,-0.151 c -0.992,-0.212 -2.001,-0.33 -2.93,-0.594 -0.944,-0.224 -1.884,-0.392 -2.73,-0.678 -0.855,-0.262 -1.729,-0.415 -2.458,-0.719 -0.753,-0.262 -1.466,-0.492 -2.117,-0.686 -0.629,-0.247 -1.177,-0.463 -1.628,-0.641 -0.927,-0.354 -1.514,-0.527 -1.514,-0.527 0,0 0.294,0.497 0.909,1.317 0.312,0.403 0.682,0.921 1.162,1.46 0.512,0.491 1.111,1.033 1.788,1.615 0.661,0.618 1.492,1.079 2.354,1.633 0.86,0.57 1.836,1.005 2.86,1.442 1.014,0.479 2.113,0.792 3.234,1.109 1.114,0.37 2.285,0.479 3.441,0.71 1.164,0.141 2.332,0.233 3.48,0.269 0.573,0.007 1.142,-0.006 1.703,-0.023 0.561,-0.004 1.114,-0.034 1.654,-0.103 2.169,-0.174 4.153,-0.62 5.812,-1.107 1.661,-0.504 2.995,-1.076 3.901,-1.552 0.91,-0.456 1.391,-0.807 1.391,-0.807"
         style="fill:#3a1819;fill-opacity:1;fill-rule:nonzero;stroke:none;stroke-width:0.1"
         id="path118"
         inkscape:connector-curvature="0" /><path
         d="m -910.25732,662.79744 c 6.079,0 11.751,1.184 16.541,3.227 -0.145,11.447 -7.493,20.671 -16.541,20.671 -9.047,0 -16.396,-9.224 -16.54,-20.671 4.789,-2.043 10.46,-3.227 16.54,-3.227"
         style="fill:#ffffff;fill-opacity:1;fill-rule:nonzero;stroke:none;stroke-width:0.1"
         id="path120"
         inkscape:connector-curvature="0" /><path
         d="m -909.14332,672.05844 c 0,-4.141 -1.978,-7.499 -4.417,-7.499 -2.441,0 -4.42,3.358 -4.42,7.499 0,4.141 1.979,7.498 4.42,7.498 2.439,0 4.417,-3.357 4.417,-7.498"
         style="fill:#3a1819;fill-opacity:1;fill-rule:nonzero;stroke:none;stroke-width:0.1"
         id="path122"
         inkscape:connector-curvature="0" /><path
         d="m -917.98032,678.15744 4.42,-4.797 -4.42,1.387 z"
         style="fill:#ffffff;fill-opacity:1;fill-rule:nonzero;stroke:none;stroke-width:0.1"
         id="path124"
         inkscape:connector-curvature="0" /><path
         d="m -893.71632,666.02444 c 0,0 -0.031,0.227 -0.088,0.654 -0.069,0.423 -0.118,1.057 -0.271,1.839 -0.158,0.781 -0.328,1.72 -0.645,2.777 -0.073,0.264 -0.15,0.536 -0.228,0.817 -0.098,0.274 -0.201,0.555 -0.305,0.844 -0.103,0.29 -0.207,0.585 -0.315,0.889 -0.119,0.298 -0.261,0.595 -0.393,0.902 -0.136,0.305 -0.276,0.617 -0.417,0.934 -0.167,0.304 -0.336,0.615 -0.509,0.93 -0.321,0.644 -0.743,1.253 -1.152,1.891 -0.874,1.235 -1.885,2.477 -3.122,3.538 -1.214,1.077 -2.62,2.02 -4.176,2.647 -1.547,0.644 -3.227,0.997 -4.92,1.01 -1.795,-0.025 -3.333,-0.365 -4.919,-1.011 -1.554,-0.631 -2.961,-1.57 -4.176,-2.647 -1.236,-1.062 -2.245,-2.305 -3.121,-3.538 -0.407,-0.639 -0.831,-1.247 -1.151,-1.891 -0.172,-0.316 -0.341,-0.626 -0.508,-0.93 -0.142,-0.318 -0.282,-0.629 -0.418,-0.934 -0.133,-0.307 -0.275,-0.604 -0.394,-0.902 -0.107,-0.304 -0.212,-0.599 -0.313,-0.888 -0.106,-0.289 -0.207,-0.571 -0.307,-0.844 -0.078,-0.281 -0.154,-0.553 -0.228,-0.818 -0.317,-1.054 -0.488,-2.001 -0.646,-2.782 -0.152,-0.782 -0.202,-1.408 -0.271,-1.832 -0.058,-0.427 -0.088,-0.655 -0.088,-0.655 0,0 -0.007,0.229 -0.021,0.659 0.004,0.428 -0.07,1.065 -0.016,1.87 0.052,0.804 0.084,1.793 0.295,2.906 0.045,0.28 0.091,0.569 0.139,0.867 0.07,0.293 0.143,0.595 0.217,0.904 0.137,0.625 0.319,1.271 0.562,1.931 0.116,0.333 0.233,0.672 0.352,1.019 0.147,0.336 0.297,0.678 0.448,1.027 0.281,0.711 0.698,1.383 1.09,2.097 0.851,1.381 1.853,2.812 3.187,4.029 1.303,1.229 2.82,2.395 4.606,3.127 1.725,0.761 3.814,1.212 5.682,1.235 1.969,-0.035 3.917,-0.474 5.679,-1.236 1.785,-0.735 3.303,-1.898 4.606,-3.127 1.335,-1.217 2.335,-2.649 3.186,-4.029 0.391,-0.714 0.81,-1.386 1.089,-2.098 0.153,-0.348 0.302,-0.69 0.448,-1.027 0.12,-0.346 0.238,-0.685 0.352,-1.018 0.244,-0.66 0.427,-1.306 0.563,-1.93 0.075,-0.31 0.147,-0.611 0.217,-0.905 0.048,-0.297 0.094,-0.586 0.139,-0.867 0.212,-1.11 0.245,-2.106 0.297,-2.911 0.054,-0.805 -0.021,-1.433 -0.017,-1.863 -0.012,-0.431 -0.019,-0.66 -0.019,-0.66"
         style="fill:#3a1819;fill-opacity:1;fill-rule:nonzero;stroke:none;stroke-width:0.1"
         id="path126"
         inkscape:connector-curvature="0" /><path
         d="m -847.93332,660.07144 c 7.468,0 14.432,1.454 20.313,3.964 -0.177,14.057 -9.202,25.387 -20.313,25.387 -11.113,0 -20.137,-11.33 -20.314,-25.387 5.881,-2.51 12.847,-3.964 20.314,-3.964"
         style="fill:#ffffff;fill-opacity:1;fill-rule:nonzero;stroke:none;stroke-width:0.1"
         id="path128"
         inkscape:connector-curvature="0" /><path
         d="m -850.18832,672.05844 c 0,-4.44 -2.122,-8.04 -4.737,-8.04 -2.617,0 -4.739,3.6 -4.739,8.04 0,4.44 2.122,8.04 4.739,8.04 2.615,0 4.737,-3.6 4.737,-8.04"
         style="fill:#3a1819;fill-opacity:1;fill-rule:nonzero;stroke:none;stroke-width:0.1"
         id="path130"
         inkscape:connector-curvature="0" /><path
         d="m -859.93532,678.42844 5.62,-6.1 -5.62,1.763 z"
         style="fill:#ffffff;fill-opacity:1;fill-rule:nonzero;stroke:none;stroke-width:0.1"
         id="path132"
         inkscape:connector-curvature="0" /><path
         d="m -827.62032,664.03544 c 0,0 -0.033,0.279 -0.095,0.803 -0.076,0.52 -0.127,1.299 -0.296,2.262 -0.177,0.961 -0.358,2.125 -0.747,3.427 -0.088,0.326 -0.179,0.663 -0.273,1.009 -0.12,0.338 -0.244,0.686 -0.37,1.043 -0.123,0.357 -0.249,0.723 -0.379,1.097 -0.143,0.369 -0.314,0.737 -0.475,1.117 -0.165,0.378 -0.333,0.764 -0.505,1.157 -0.202,0.378 -0.408,0.762 -0.618,1.153 -0.389,0.799 -0.909,1.554 -1.407,2.347 -1.071,1.532 -2.312,3.08 -3.841,4.401 -1.502,1.339 -3.242,2.522 -5.179,3.306 -0.465,0.243 -0.975,0.371 -1.473,0.534 l -0.749,0.239 c -0.253,0.072 -0.515,0.101 -0.772,0.155 -0.52,0.074 -1.028,0.24 -1.557,0.245 l -0.789,0.045 -0.395,0.023 -0.196,0.012 -0.098,0.006 -0.05,0.003 -0.025,0.002 c 0.02,0.001 -0.08,-10e-4 0.039,0.003 l -1.68,-0.099 c -0.291,-0.004 -0.547,-0.048 -0.79,-0.103 l -0.749,-0.143 c -0.25,-0.052 -0.5,-0.079 -0.75,-0.15 l -0.75,-0.239 c -0.497,-0.163 -1.007,-0.291 -1.473,-0.534 -1.936,-0.787 -3.676,-1.967 -5.178,-3.307 -1.529,-1.32 -2.768,-2.869 -3.84,-4.4 -0.499,-0.794 -1.019,-1.548 -1.406,-2.347 -0.21,-0.391 -0.416,-0.775 -0.618,-1.153 -0.172,-0.393 -0.34,-0.779 -0.505,-1.157 -0.161,-0.379 -0.332,-0.748 -0.476,-1.116 -0.129,-0.375 -0.255,-0.741 -0.377,-1.097 -0.127,-0.357 -0.251,-0.706 -0.372,-1.043 -0.093,-0.347 -0.184,-0.683 -0.273,-1.009 -0.389,-1.301 -0.57,-2.471 -0.748,-3.433 -0.168,-0.964 -0.22,-1.733 -0.296,-2.256 -0.062,-0.524 -0.096,-0.803 -0.096,-0.803 0,0 -0.003,0.28 -0.012,0.807 0.013,0.526 -0.069,1.308 0.017,2.293 0.08,0.985 0.146,2.191 0.408,3.553 0.057,0.342 0.116,0.696 0.176,1.059 0.088,0.359 0.179,0.728 0.272,1.106 0.097,0.378 0.196,0.767 0.299,1.164 0.121,0.392 0.269,0.785 0.408,1.191 0.143,0.406 0.29,0.82 0.439,1.242 0.182,0.409 0.368,0.826 0.557,1.251 0.349,0.865 0.863,1.683 1.345,2.551 1.047,1.68 2.279,3.416 3.906,4.893 1.591,1.492 3.441,2.898 5.608,3.785 0.518,0.272 1.087,0.428 1.645,0.617 l 0.84,0.275 c 0.285,0.083 0.593,0.126 0.889,0.19 0.586,0.096 1.229,0.28 1.774,0.293 l 1.679,0.114 1.846,-0.119 c 0.597,-0.017 1.171,-0.199 1.755,-0.293 0.289,-0.063 0.585,-0.103 0.867,-0.186 l 0.841,-0.275 c 0.558,-0.189 1.126,-0.345 1.645,-0.617 2.165,-0.89 4.016,-2.293 5.606,-3.786 1.628,-1.477 2.857,-3.214 3.906,-4.893 0.482,-0.867 0.996,-1.685 1.344,-2.551 0.189,-0.424 0.375,-0.841 0.558,-1.251 0.149,-0.421 0.295,-0.835 0.439,-1.241 0.139,-0.406 0.287,-0.799 0.408,-1.191 0.103,-0.397 0.201,-0.786 0.298,-1.164 0.094,-0.378 0.185,-0.747 0.273,-1.105 0.06,-0.364 0.119,-0.717 0.176,-1.06 0.262,-1.359 0.329,-2.573 0.41,-3.558 0.085,-0.985 0.003,-1.758 0.017,-2.286 -0.008,-0.527 -0.012,-0.808 -0.012,-0.808"
         style="fill:#3a1819;fill-opacity:1;fill-rule:nonzero;stroke:none;stroke-width:0.1"
         id="path134"
         inkscape:connector-curvature="0" /><path
         d="m -921.85332,620.19744 c 0,0 1.795,-0.233 4.936,-0.642 3.136,-0.398 7.609,-0.96 12.965,-1.57 2.678,-0.31 5.584,-0.576 8.645,-0.907 3.067,-0.284 6.301,-0.554 9.642,-0.788 1.67,-0.107 3.368,-0.216 5.086,-0.327 1.719,-0.065 3.457,-0.179 5.207,-0.224 3.503,-0.138 7.054,-0.151 10.597,-0.101 3.54,0.072 7.069,0.255 10.518,0.58 3.433,0.385 6.819,0.789 9.998,1.527 3.178,0.715 6.232,1.534 8.948,2.701 1.405,0.504 2.622,1.245 3.887,1.838 0.59,0.359 1.169,0.713 1.738,1.061 0.27,0.164 0.538,0.326 0.804,0.487 0.275,0.207 0.548,0.412 0.817,0.615 0.833,0.662 1.544,1.562 1.606,2.211 0.153,0.659 -0.349,1.494 -1.058,2.155 -0.698,0.677 -1.55,1.192 -2.338,1.657 -0.798,0.458 -1.574,0.829 -2.288,1.142 -1.431,0.618 -2.594,1.058 -3.396,1.329 -0.804,0.268 -1.234,0.41 -1.234,0.41 0,0 0.454,-0.023 1.3,-0.13 0.844,-0.117 2.09,-0.276 3.65,-0.667 1.552,-0.416 3.479,-0.87 5.51,-2.255 0.509,-0.343 1.009,-0.803 1.46,-1.39 0.454,-0.578 0.794,-1.425 0.809,-2.314 0.021,-0.886 -0.269,-1.768 -0.684,-2.442 -0.395,-0.711 -0.904,-1.294 -1.479,-1.894 -0.246,-0.234 -0.496,-0.47 -0.748,-0.707 -0.298,-0.237 -0.6,-0.476 -0.905,-0.717 -0.587,-0.455 -1.184,-0.918 -1.792,-1.39 -1.296,-0.8 -2.62,-1.704 -4.088,-2.384 -2.875,-1.519 -6.085,-2.692 -9.456,-3.621 -0.845,-0.22 -1.695,-0.459 -2.558,-0.666 -0.867,-0.176 -1.74,-0.354 -2.618,-0.533 -1.755,-0.36 -3.546,-0.606 -5.35,-0.844 -3.611,-0.456 -7.289,-0.655 -10.959,-0.757 -3.668,-0.023 -7.334,0.007 -10.922,0.261 -3.591,0.21 -7.109,0.555 -10.496,0.989 -3.392,0.399 -6.642,0.972 -9.718,1.504 -3.075,0.549 -5.965,1.152 -8.616,1.774 -2.657,0.589 -5.071,1.226 -7.203,1.81 -2.137,0.566 -3.979,1.143 -5.494,1.611 -3.029,0.951 -4.723,1.608 -4.723,1.608"
         style="fill:#a77a4f;fill-opacity:1;fill-rule:nonzero;stroke:none;stroke-width:0.1"
         id="path136"
         inkscape:connector-curvature="0" /><path
         d="m -908.91732,372.72644 -7.412,184.108 c -0.246,5.696 3.079,10.351 7.428,10.351 h 92.959 c 4.349,0 7.674,-4.655 7.428,-10.351 l -1.75,-184.108 h -98.653"
         style="fill:#3b4972;fill-opacity:1;fill-rule:nonzero;stroke:none;stroke-width:0.1"
         id="path138"
         inkscape:connector-curvature="0" /><path
         d="m -873.37832,372.72644 v 168.792 c 0,1.596 -0.452,2.89 -1.008,2.89 -0.559,0 -1.01,-1.294 -1.01,-2.89 v -168.792 h 2.018"
         style="fill:#1d2947;fill-opacity:1;fill-rule:nonzero;stroke:none;stroke-width:0.1"
         id="path142"
         inkscape:connector-curvature="0" /><path
         d="m -865.29732,189.23844 h -29.266 c 0,0 -26.088,-25.5269 -55.482,-23.205 0,0 -3.868,-8.5102 0,-15.4731 h 88.959 l -4.211,38.6781"
         style="fill:#381514;fill-opacity:1;fill-rule:nonzero;stroke:none;stroke-width:0.1"
         id="path144"
         inkscape:connector-curvature="0" /><path
         d="m -951.63632,155.59044 c 0.204,-1.6738 0.683,-3.3949 1.591,-5.0301 h 88.959 l -0.549,5.0301 h -90.001"
         style="fill:#281010;fill-opacity:1;fill-rule:nonzero;stroke:none;stroke-width:0.1"
         id="path146"
         inkscape:connector-curvature="0" /><path
         d="m -813.54532,189.23844 h -29.266 c 0,0 -26.088,-25.5269 -55.482,-23.205 0,0 -3.868,-8.5102 0,-15.4731 h 88.956 l -4.208,38.6781"
         style="fill:#4d1b18;fill-opacity:1;fill-rule:nonzero;stroke:none;stroke-width:0.1"
         id="path148"
         inkscape:connector-curvature="0" /><path
         d="m -899.88532,155.59044 c 0.205,-1.6738 0.684,-3.3949 1.592,-5.0301 h 88.956 l -0.548,5.0301 h -90"
         style="fill:#301312;fill-opacity:1;fill-rule:nonzero;stroke:none;stroke-width:0.1"
         id="path150"
         inkscape:connector-curvature="0" /><path
         d="m -874.38632,506.39644 28.052,60.789 h -42.823 z"
         style="fill:#ffffff;fill-opacity:1;fill-rule:nonzero;stroke:none;stroke-width:0.1"
         id="path152"
         inkscape:connector-curvature="0" /><path
         d="m -846.33432,567.18544 10.719,-15.424 -15.187,-8.798 6.03,-31.044 -29.614,-15.424 v 9.901 l 28.052,60.789"
         style="fill:#1d2947;fill-opacity:1;fill-rule:nonzero;stroke:none;stroke-width:0.1"
         id="path154"
         inkscape:connector-curvature="0" /><path
         d="m -889.16232,567.18544 -10.72,-15.424 15.186,-8.798 -6.03,-31.044 16.34,-15.424 v 9.901 l -14.776,60.789"
         style="fill:#1d2947;fill-opacity:1;fill-rule:nonzero;stroke:none;stroke-width:0.1"
         id="path156"
         inkscape:connector-curvature="0" /><path
         d="m -817.15732,443.72644 -42.258,-8.322 -2.153,10.947 42.255,8.322 2.156,-10.947"
         style="fill:#1d2947;fill-opacity:1;fill-rule:nonzero;stroke:none;stroke-width:0.1"
         id="path158"
         inkscape:connector-curvature="0" /><path
         d="m -890.64132,437.30744 -19.541,2.779 1.572,11.047 19.541,-2.782 -1.572,-11.044"
         style="fill:#1d2947;fill-opacity:1;fill-rule:nonzero;stroke:none;stroke-width:0.1"
         id="path160"
         inkscape:connector-curvature="0" /><path
         d="m -868.24732,567.18544 5.825,-12.243 17.99,9.509 -7.395,9.508 -16.42,-6.774"
         style="fill:#d9dad7;fill-opacity:1;fill-rule:nonzero;stroke:none;stroke-width:0.1"
         id="path162"
         inkscape:connector-curvature="0" /><path
         d="m -878.84232,567.18544 -7.79,-10.39 -6.253,10.39 8.218,6.774 5.825,-6.774"
         style="fill:#d9dad7;fill-opacity:1;fill-rule:nonzero;stroke:none;stroke-width:0.1"
         id="path164"
         inkscape:connector-curvature="0" /><path
         d="m -768.42432,454.42744 c 1.906,-6.3 -3.912,-13.636 -12.996,-16.386 v 0 c -9.083,-2.748 -17.995,0.131 -19.901,6.432 l -31.56,104.288 c -1.907,6.3 3.912,13.637 12.995,16.385 v 0 c 9.083,2.748 17.994,-0.129 19.9,-6.429 l 31.562,-104.29"
         style="fill:#3b4972;fill-opacity:1;fill-rule:nonzero;stroke:none;stroke-width:0.1"
         id="path166"
         inkscape:connector-curvature="0" /><path
         d="m -799.02032,359.22144 c -0.911,-1.518 -3.094,-1.883 -4.874,-0.815 v 0 c -1.781,1.069 -2.486,3.164 -1.575,4.684 l 7.559,12.605 c 0.911,1.52 3.094,1.887 4.876,0.819 v 0 c 1.781,-1.071 2.486,-3.168 1.575,-4.688 l -7.561,-12.605"
         style="fill:#d1a175;fill-opacity:1;fill-rule:nonzero;stroke:none;stroke-width:0.1"
         id="path168"
         inkscape:connector-curvature="0" /><path
         d="m -781.45832,322.84444 h -7.413 c -10.154,0 -18.385,8.23 -18.385,18.388 0,10.153 8.231,18.387 18.385,18.387 h 7.413 c 10.157,0 18.388,-8.234 18.388,-18.387 0,-10.158 -8.231,-18.388 -18.388,-18.388 z m 1.582,44.615 h -10.575 c -14.483,0 -26.227,-11.744 -26.227,-26.227 0,-14.486 11.744,-26.228 26.227,-26.228 h 10.575 c 14.484,0 26.228,11.742 26.228,26.228 0,14.483 -11.744,26.227 -26.228,26.227"
         style="fill:#4d1b18;fill-opacity:1;fill-rule:nonzero;stroke:none;stroke-width:0.1"
         id="path170"
         inkscape:connector-curvature="0" /><path
         d="m -716.61232,250.84244 h -137.103 v 90.39 h 137.103 v -90.39"
         style="fill:#4d1b18;fill-opacity:1;fill-rule:nonzero;stroke:none;stroke-width:0.1"
         id="path172"
         inkscape:connector-curvature="0" /><path
         d="m -827.38732,323.85144 h -12.49 v 17.381 h 12.49 v -17.381"
         style="fill:#281010;fill-opacity:1;fill-rule:nonzero;stroke:none;stroke-width:0.1"
         id="path178"
         inkscape:connector-curvature="0" /><path
         d="m -730.45032,323.85144 h -12.49 v 17.381 h 12.49 v -17.381"
         style="fill:#281010;fill-opacity:1;fill-rule:nonzero;stroke:none;stroke-width:0.1"
         id="path180"
         inkscape:connector-curvature="0" /><path
         d="m -769.71132,369.09444 c 0,-10.942 -6.917,-16.176 -15.452,-16.176 -8.533,0 -15.451,5.234 -15.451,16.176 0,10.939 6.918,23.441 15.451,23.441 8.535,0 15.452,-12.502 15.452,-23.441"
         style="fill:#f5ba83;fill-opacity:1;fill-rule:nonzero;stroke:none;stroke-width:0.1"
         id="path182"
         inkscape:connector-curvature="0" /><path
         d="m -784.52032,351.64644 c 0,-1.769 -1.685,-3.205 -3.762,-3.205 v 0 c -2.077,0 -3.76,1.436 -3.76,3.205 v 14.7 c 0,1.771 1.683,3.209 3.76,3.209 v 0 c 2.077,0 3.762,-1.438 3.762,-3.209 v -14.7"
         style="fill:#f5ba83;fill-opacity:1;fill-rule:nonzero;stroke:none;stroke-width:0.1"
         id="path184"
         inkscape:connector-curvature="0" /><path
         d="m -792.04232,353.08444 c 0,-1.77 -1.683,-3.207 -3.759,-3.207 v 0 c -2.078,0 -3.763,1.437 -3.763,3.207 v 14.699 c 0,1.772 1.685,3.207 3.763,3.207 v 0 c 2.076,0 3.759,-1.435 3.759,-3.207 v -14.699"
         style="fill:#f5ba83;fill-opacity:1;fill-rule:nonzero;stroke:none;stroke-width:0.1"
         id="path186"
         inkscape:connector-curvature="0" /><path
         d="m -770.11632,379.65044 2.128,72.223 c 0.195,6.579 -7.34,12.139 -16.825,12.419 -9.487,0.28 -17.335,-4.827 -17.528,-11.406 l 1.687,-72.376 30.538,-0.86"
         style="fill:#3b4972;fill-opacity:1;fill-rule:nonzero;stroke:none;stroke-width:0.1"
         id="path188"
         inkscape:connector-curvature="0" /><path
         d="m -777.23232,353.08444 c 0,-1.77 -1.685,-3.207 -3.762,-3.207 v 0 c -2.077,0 -3.76,1.437 -3.76,3.207 v 14.699 c 0,1.772 1.683,3.207 3.76,3.207 v 0 c 2.077,0 3.762,-1.435 3.762,-3.207 v -14.699"
         style="fill:#f5ba83;fill-opacity:1;fill-rule:nonzero;stroke:none;stroke-width:0.1"
         id="path190"
         inkscape:connector-curvature="0" /><path
         d="m -769.71132,354.12544 c 0,-1.772 -1.685,-3.207 -3.761,-3.207 v 0 c -2.078,0 -3.76,1.435 -3.76,3.207 v 14.699 c 0,1.772 1.682,3.207 3.76,3.207 v 0 c 2.076,0 3.761,-1.435 3.761,-3.207 v -14.699"
         style="fill:#f5ba83;fill-opacity:1;fill-rule:nonzero;stroke:none;stroke-width:0.1"
         id="path192"
         inkscape:connector-curvature="0" /></g></g></svg>