<?xml version="1.0" encoding="UTF-8" standalone="no"?>
<!-- Created with Inkscape (http://www.inkscape.org/) -->

<svg
   xmlns:dc="http://purl.org/dc/elements/1.1/"
   xmlns:cc="http://creativecommons.org/ns#"
   xmlns:rdf="http://www.w3.org/1999/02/22-rdf-syntax-ns#"
   xmlns:svg="http://www.w3.org/2000/svg"
   xmlns="http://www.w3.org/2000/svg"
   xmlns:sodipodi="http://sodipodi.sourceforge.net/DTD/sodipodi-0.dtd"
   xmlns:inkscape="http://www.inkscape.org/namespaces/inkscape"
   width="51.264874mm"
   height="71.9077mm"
   viewBox="0 0 51.264874 71.9077"
   version="1.1"
   id="svg8"
   inkscape:version="0.92+devel unknown"
   sodipodi:docname="ninio.svg">
  <defs
     id="defs2">
    <clipPath
       clipPathUnits="userSpaceOnUse"
       id="clipPath202">
      <path
         d="m 5637.88,4538.24 c -131.71,0.01 -254.19,84.79 -216.26,230.77 27.99,132.12 147.43,193.09 260.76,193.09 133.88,0 259.24,-85.1 215.22,-238.56 -36.71,-127.92 -151.33,-185.31 -259.72,-185.3"
         id="path200"
         inkscape:connector-curvature="0" />
    </clipPath>
    <clipPath
       clipPathUnits="userSpaceOnUse"
       id="clipPath214">
      <path
         d="m 4500.63,4743.05 c -8.41,0 -16.89,0.37 -25.39,1.11 -183.05,207.72 -133.92,338.49 -63.15,435.05 3.1,0.1 6.19,0.15 9.31,0.15 130.04,0 276.28,-87.43 277.81,-246.94 7.03,-127.65 -90.17,-189.38 -198.58,-189.37"
         id="path212"
         inkscape:connector-curvature="0" />
    </clipPath>
    <clipPath
       id="clipPath778"
       clipPathUnits="userSpaceOnUse">
      <path
         inkscape:connector-curvature="0"
         id="path776"
         d="m 275.923,275.562 h 49.658 v -54.096 h -49.658 z" />
    </clipPath>
    <clipPath
       id="clipPath858"
       clipPathUnits="userSpaceOnUse">
      <path
         inkscape:connector-curvature="0"
         id="path856"
         d="m 304.667,267.648 h 5.02 V 250.36 h -5.02 z" />
    </clipPath>
    <clipPath
       id="clipPath878"
       clipPathUnits="userSpaceOnUse">
      <path
         inkscape:connector-curvature="0"
         id="path876"
         d="m 295.217,270.049 h 15.984 v -19.065 h -15.984 z" />
    </clipPath>
    <clipPath
       id="clipPath898"
       clipPathUnits="userSpaceOnUse">
      <path
         inkscape:connector-curvature="0"
         id="path896"
         d="M 86.8643,271.213 H 150.99 V 218.717 H 86.8643 Z" />
    </clipPath>
    <clipPath
       id="clipPath930"
       clipPathUnits="userSpaceOnUse">
      <path
         inkscape:connector-curvature="0"
         id="path928"
         d="m 145.804,265.975 h 59.36 v -51.634 h -59.36 z" />
    </clipPath>
    <clipPath
       id="clipPath950"
       clipPathUnits="userSpaceOnUse">
      <path
         inkscape:connector-curvature="0"
         id="path948"
         d="m 248.057,94.8346 h 31.095 V 69.6378 h -31.095 z" />
    </clipPath>
    <clipPath
       id="clipPath970"
       clipPathUnits="userSpaceOnUse">
      <path
         inkscape:connector-curvature="0"
         id="path968"
         d="m 223.242,151.277 h 47.77 V 86.3225 h -47.77 z" />
    </clipPath>
    <clipPath
       id="clipPath990"
       clipPathUnits="userSpaceOnUse">
      <path
         inkscape:connector-curvature="0"
         id="path988"
         d="m 175.374,94.8338 h 42.15 V 71.0525 h -42.15 z" />
    </clipPath>
    <clipPath
       id="clipPath1010"
       clipPathUnits="userSpaceOnUse">
      <path
         inkscape:connector-curvature="0"
         id="path1008"
         d="M 173.308,155.667 H 213.04 V 87.7581 h -39.732 z" />
    </clipPath>
    <clipPath
       id="clipPath1030"
       clipPathUnits="userSpaceOnUse">
      <path
         inkscape:connector-curvature="0"
         id="path1028"
         d="M 167.9,190.132 H 270.067 V 129.528 H 167.9 Z" />
    </clipPath>
    <clipPath
       id="clipPath1050"
       clipPathUnits="userSpaceOnUse">
      <path
         inkscape:connector-curvature="0"
         id="path1048"
         d="M 164.629,269.524 H 284.637 V 168.563 H 164.629 Z" />
    </clipPath>
    <clipPath
       id="clipPath1138"
       clipPathUnits="userSpaceOnUse">
      <path
         inkscape:connector-curvature="0"
         id="path1136"
         d="M 163.783,364.723 H 272.869 V 249.039 H 163.783 Z" />
    </clipPath>
    <clipPath
       id="clipPath1158"
       clipPathUnits="userSpaceOnUse">
      <path
         inkscape:connector-curvature="0"
         id="path1156"
         d="M 127.518,404.473 H 298.484 V 296.247 H 127.518 Z" />
    </clipPath>
    <clipPath
       id="clipPath1182"
       clipPathUnits="userSpaceOnUse">
      <path
         inkscape:connector-curvature="0"
         id="path1180"
         d="m 250.895,386.274 h 14.987 v -38.709 h -14.987 z" />
    </clipPath>
    <clipPath
       id="clipPath1214"
       clipPathUnits="userSpaceOnUse">
      <path
         inkscape:connector-curvature="0"
         id="path1212"
         d="m 211.695,296.399 h 32.894 v -6.532 h -32.894 z" />
    </clipPath>
    <clipPath
       id="clipPath1242"
       clipPathUnits="userSpaceOnUse">
      <path
         inkscape:connector-curvature="0"
         id="path1240"
         d="m 163.601,303.005 h 21.311 v -9.663 h -21.311 z" />
    </clipPath>
    <clipPath
       id="clipPath1262"
       clipPathUnits="userSpaceOnUse">
      <path
         inkscape:connector-curvature="0"
         id="path1260"
         d="m 206.212,326.04 h 44.747 v -45.387 h -44.747 z" />
    </clipPath>
    <clipPath
       id="clipPath1282"
       clipPathUnits="userSpaceOnUse">
      <path
         inkscape:connector-curvature="0"
         id="path1280"
         d="m 151.792,332.851 h 44.747 v -45.387 h -44.747 z" />
    </clipPath>
    <clipPath
       id="clipPath1306"
       clipPathUnits="userSpaceOnUse">
      <path
         inkscape:connector-curvature="0"
         id="path1304"
         d="m 267.704,297.303 h 16.931 v -14.786 h -16.931 z" />
    </clipPath>
    <clipPath
       id="clipPath1322"
       clipPathUnits="userSpaceOnUse">
      <path
         inkscape:connector-curvature="0"
         id="path1320"
         d="m 178.91,275.562 h 54.166 V 249.375 H 178.91 Z" />
    </clipPath>
  </defs>
  <sodipodi:namedview
     id="base"
     pagecolor="#ffffff"
     bordercolor="#666666"
     borderopacity="1.0"
     inkscape:pageopacity="0.0"
     inkscape:pageshadow="2"
     inkscape:zoom="0.7"
     inkscape:cx="1.1368639"
     inkscape:cy="100.05159"
     inkscape:document-units="mm"
     inkscape:current-layer="layer1"
     inkscape:document-rotation="0"
     showgrid="false"
     fit-margin-top="0"
     fit-margin-left="0"
     fit-margin-right="0"
     fit-margin-bottom="0"
     inkscape:window-width="1366"
     inkscape:window-height="704"
     inkscape:window-x="0"
     inkscape:window-y="27"
     inkscape:window-maximized="1" />
  <metadata
     id="metadata5">
    <rdf:RDF>
      <cc:Work
         rdf:about="">
        <dc:format>image/svg+xml</dc:format>
        <dc:type
           rdf:resource="http://purl.org/dc/dcmitype/StillImage" />
        <dc:title></dc:title>
      </cc:Work>
    </rdf:RDF>
  </metadata>
  <g
     inkscape:label="Capa 1"
     inkscape:groupmode="layer"
     id="layer1"
     transform="translate(-146.67799,-106.49171)">
    <g
       id="g2439"
       transform="matrix(0.36394749,0,0,-0.36394749,-109.36035,131.12247)">
      <g
         transform="matrix(0.59006228,0,0,0.59006228,652.24807,-170.9895)"
         style="fill:#f5ba83;fill-opacity:1"
         id="g784"
         opacity="0.5"
         clip-path="url(#clipPath778)">
        <g
           style="fill:#f5ba83;fill-opacity:1"
           id="g782"
           transform="translate(325.3578,262.5646)">
          <path
             inkscape:connector-curvature="0"
             id="path780"
             style="fill:#f5ba83;fill-opacity:1;fill-rule:nonzero;stroke:none"
             d="m 0,0 c -0.12,0.756 -1.185,1.14 -1.791,0.729 -1.389,-0.944 -2.812,-1.535 -4.326,-2.026 1.547,3.146 1.028,7.609 -0.014,10.63 -0.256,0.741 -1.097,1.171 -1.817,0.739 -2.065,-1.239 -4.792,-2.913 -6.681,-4.985 0.197,2.453 -0.486,4.887 -1.771,7.319 -0.449,0.85 -1.622,0.725 -2.101,0 -1.965,-2.98 -3.871,-5.908 -6.053,-8.584 1.345,-3.796 7.364,-4.993 8.111,-8.84 -0.11,-0.579 -0.148,-1.167 -0.153,-1.633 -0.017,-1.536 1.177,-2.604 2.577,-2.898 1.464,-0.309 3.448,-0.278 5.235,0.214 -1.57,-4.623 -3.78,-8.84 -7.91,-12.808 -6.784,-6.519 -15.115,-7.503 -23.807,-7.448 -1.055,2.234 -2.184,4.458 -2.91,6.816 -1.325,4.301 -1.662,8.788 -2.549,13.178 -0.09,0.446 -0.768,0.421 -0.874,0 -0.719,-2.878 -0.85,-6.512 -0.415,-10.225 -3.326,-6.721 -2.638,-14.614 0.588,-21.219 3.428,-0.321 7.173,0.749 10.348,1.744 6.129,1.92 11.866,4.999 17.121,8.655 C -9.74,-24.067 1.991,-12.561 0,0" />
        </g>
      </g>
      <path
         d="m 834.62446,-13.81131 c -0.73463,1.454504 -2.6482,1.942485 -3.89795,0.847919 -1.27041,-1.112267 -2.43755,-3.173354 -2.33311,-4.898697 0.009,-0.151055 0.0631,-0.276739 0.14162,-0.375869 -0.002,-0.04071 -0.0106,-0.08084 -0.0118,-0.121553 -0.0584,-1.7041 1.49344,-2.778013 3.05947,-2.674752 3.45658,0.228944 4.3346,4.664442 3.04177,7.222952"
         style="fill:#efc0a8;fill-opacity:1;fill-rule:nonzero;stroke:none;stroke-width:0.59006226"
         id="path850"
         inkscape:connector-curvature="0" />
      <g
         transform="matrix(0.59006228,0,0,0.59006228,652.24807,-170.9895)"
         id="g864"
         opacity="0.5"
         clip-path="url(#clipPath858)">
        <g
           id="g862"
           transform="translate(306.7823,267.5728)">
          <path
             inkscape:connector-curvature="0"
             id="path860"
             style="fill:#efc0a8;fill-opacity:1;fill-rule:nonzero;stroke:none"
             d="m 0,0 c -0.304,0.188 -0.692,0.003 -0.792,-0.322 -0.699,-2.273 0.292,-4.891 0.236,-7.282 -0.071,-3.029 -1.801,-5.989 -1.531,-8.959 0.045,-0.504 0.519,-0.805 0.987,-0.566 C 3.475,-14.789 4.513,-2.791 0,0" />
        </g>
      </g>
      <path
         d="m 833.62171,-12.15583 c -1.36658,1.272764 -2.72668,-0.09795 -3.56162,-1.170684 -1.09515,-1.407298 -3.76164,-3.753976 -3.60941,-5.611492 0.009,-0.106211 0.0903,-0.162267 0.19295,-0.146925 1.11817,0.171118 1.55246,1.029658 2.26171,1.875218 1.02612,1.223789 1.98674,2.504224 3.03351,3.710311 1.16479,1.342392 2.13485,-4.115684 2.13662,-4.45438 0.007,-1.476336 -0.6237,-2.922578 -1.01904,-4.321616 -0.14515,-0.513354 0.47323,-0.800125 0.83966,-0.488572 2.93025,2.490653 2.41217,8.105686 -0.27438,10.60814"
         style="fill:#efc0a8;fill-opacity:1;fill-rule:nonzero;stroke:none;stroke-width:0.59006226"
         id="path870"
         inkscape:connector-curvature="0" />
      <g
         transform="matrix(0.59006228,0,0,0.59006228,652.24807,-170.9895)"
         style="fill:#f5ba83;fill-opacity:1"
         id="g884"
         opacity="0.699997"
         clip-path="url(#clipPath878)">
        <g
           style="fill:#f5ba83;fill-opacity:1"
           id="g882"
           transform="translate(307.3805,269.1812)">
          <path
             inkscape:connector-curvature="0"
             id="path880"
             style="fill:#f5ba83;fill-opacity:1;fill-rule:nonzero;stroke:none"
             d="m 0,0 c -2.316,2.157 -4.621,-0.166 -6.036,-1.984 -1.856,-2.385 -6.375,-6.362 -6.117,-9.51 0.015,-0.18 0.153,-0.275 0.327,-0.249 1.895,0.29 2.631,1.745 3.833,3.178 1.739,2.074 3.367,4.244 5.141,6.288 1.974,2.275 3.618,-6.975 3.621,-7.549 0.012,-2.502 -1.057,-4.953 -1.727,-7.324 -0.246,-0.87 0.802,-1.356 1.423,-0.828 C 5.431,-13.757 4.553,-4.241 0,0" />
        </g>
      </g>
      <path
         d="m 744.87847,-40.15965 c 2.2204,2.093541 2.78981,5.373697 2.30242,8.356462 -0.37469,2.294752 -2.33074,5.367207 -4.7795,6.051679 -0.0395,0.110341 -0.12509,0.207112 -0.25904,0.253136 -3.21525,1.105777 -6.43758,0.886274 -9.536,2.606306 -1.65335,0.917546 -2.8441,2.434597 -3.71975,4.067889 -1.07922,2.013292 -0.21183,3.900312 -0.7659,5.913014 -0.38236,1.391367 -2.07997,2.154907 -3.42472,1.912392 -2.26348,-0.408913 -3.52975,-2.334287 -4.19534,-4.398914 -4.43196,1.531211 -10.6878,-0.09854 -14.1255,-2.399194 -0.36289,-0.242515 -0.46556,-0.887453 0,-1.104006 0.41422,-0.192951 0.81841,-0.390621 1.2232,-0.585342 -1.88525,-0.616615 -3.55218,-2.582112 -4.06376,-4.236057 -0.14693,-0.47382 0.25018,-0.968882 0.73521,-0.965342 0.83081,0.0065 1.56603,-0.18941 2.22336,-0.583572 -0.50864,-0.256087 -0.9736,-0.57177 -1.37485,-0.988354 -0.62546,-0.0047 -0.63254,-0.918137 -0.0897,-1.125839 3.77699,-1.446242 7.37519,-2.806926 10.91557,-4.801927 3.26894,-1.842174 6.41161,-3.89264 9.72953,-5.649256 5.59969,-2.965063 12.99908,-5.726554 19.17054,-2.952081 0.2608,0.116832 0.22481,0.472639 0.0342,0.629006"
         style="fill:#f5ba83;fill-opacity:1;fill-rule:nonzero;stroke:none;stroke-width:0.59006226"
         id="path890"
         inkscape:connector-curvature="0" />
      <path
         d="m 844.22944,-16.06003 c -0.0708,0.446087 -0.69922,0.672671 -1.0568,0.430155 -0.8196,-0.557018 -1.65926,-0.905745 -2.55261,-1.195466 0.91283,1.856336 0.60658,4.489784 -0.008,6.272362 -0.15106,0.437236 -0.6473,0.6909632 -1.07215,0.436056 -1.21847,-0.731087 -2.82757,-1.718851 -3.9422,-2.94146 0.11624,1.447423 -0.28677,2.883634 -1.045,4.3186656 -0.26494,0.501553 -0.95708,0.4277952 -1.23972,0 -2.29888,-3.4860876 -4.45556,-6.8553436 -8.03075,-9.1754686 -3.60469,-2.339597 -7.88677,-2.702485 -11.8396,-4.094442 -0.16109,-0.05724 -0.2496,-0.195311 -0.27202,-0.339876 -3.09133,-1.872858 -4.69276,-6.593356 -4.18354,-9.897114 0.57059,-3.702641 3.6159,-8.272084 7.5941,-8.023667 2.05401,-0.224814 4.31277,0.424844 6.22162,1.022578 3.61649,1.132919 7.00168,2.949721 10.10245,5.106989 5.57727,3.879659 12.49929,10.668916 11.32448,18.080688"
         style="fill:#f5ba83;fill-opacity:1;fill-rule:nonzero;stroke:none;stroke-width:0.59006226"
         id="path770"
         inkscape:connector-curvature="0" />
      <path
         inkscape:connector-curvature="0"
         id="path900"
         style="fill:#f5ba83;fill-opacity:1;fill-rule:nonzero;stroke:none;stroke-width:0.59006226"
         d="m 720.50081,-15.397394 c -4.43196,1.530622 -10.6878,-0.09913 -14.1255,-2.399193 -0.25137,-0.168758 -0.37292,-0.528106 -0.27143,-0.806025 2.35258,0.451987 4.34463,1.435621 6.85003,1.496398 2.26643,0.05488 4.51752,-0.672671 6.46119,-1.838044 0.97773,-1.456274 2.57149,-2.251088 4.47444,-2.491243 0.53931,-0.06845 1.04441,0.620155 0.85028,1.116398 -0.77593,1.980249 -1.67342,3.916243 -1.20491,6.093573 0.31037,1.445652 1.43916,2.201522 2.30301,3.202268 -0.38472,0.07553 -0.77593,0.09028 -1.14236,0.02419 -2.26289,-0.408323 -3.52975,-2.334286 -4.19475,-4.398324" />
      <path
         inkscape:connector-curvature="0"
         id="path904"
         style="fill:#f5ba83;fill-opacity:1;fill-rule:nonzero;stroke:none;stroke-width:0.59006226"
         d="m 703.53428,-23.722228 c -0.0915,-0.296211 0.0295,-0.600683 0.25137,-0.786553 0.24782,0.03186 0.48739,0.142795 0.65025,0.372329 2.52369,3.557486 6.39096,2.422796 10.04935,2.678883 0.2667,0.01829 0.38885,0.309193 0.21183,0.511584 -1.74128,1.99382 -5.14652,2.160218 -7.90566,1.101056 -1.53829,-0.832578 -2.82049,-2.46528 -3.25714,-3.877299" />
      <path
         inkscape:connector-curvature="0"
         id="path908"
         style="fill:#f5ba83;fill-opacity:1;fill-rule:nonzero;stroke:none;stroke-width:0.59006226"
         d="m 725.67365,-37.836813 c 4.17646,-2.210963 9.35308,-4.306275 14.27538,-4.079101 2.52546,3.924505 1.07863,13.086992 -0.14221,17.033328 -1.02376,0.208882 -2.04456,0.364659 -3.05888,0.570591 -1.26745,-2.54966 -2.31954,-4.876865 -4.89988,-6.758574 -3.29196,-2.399783 -7.62301,-2.604535 -11.39469,-1.445062 -3.10963,0.95531 -5.43447,3.784069 -8.84976,3.912113 -0.96475,0.03658 -1.93894,-0.02301 -2.8559,-0.227174 2.44817,-0.979504 4.83556,-2.026274 7.19699,-3.356865 3.26836,-1.842174 6.41103,-3.892641 9.72895,-5.649256" />
      <path
         inkscape:connector-curvature="0"
         id="path912"
         style="fill:#f5ba83;fill-opacity:1;fill-rule:nonzero;stroke:none;stroke-width:0.59006226"
         d="m 714.57871,-25.367676 c 0.27556,0.03363 0.43488,0.397112 0.15106,0.558199 -1.74187,0.989534 -3.86314,1.13705 -5.8074,0.808975 -0.92344,-0.155776 -2.06699,-0.467329 -3.07304,-0.965932 0.22186,-0.08438 0.43782,-0.181149 0.64376,-0.304472 -0.50864,-0.256087 -0.97361,-0.57236 -1.37485,-0.988354 -0.62546,-0.0053 -0.63196,-0.918137 -0.0897,-1.125839 0.11388,-0.04367 0.22659,-0.08733 0.34047,-0.130404 1.16419,0.351087 2.2682,1.012547 3.45245,1.334131 1.89351,0.514534 3.82597,0.577081 5.75724,0.813696" />
      <path
         d="m 770.60088,-17.15 c -1.35242,1.478696 -3.17631,2.93969 -5.25509,3.084256 -2.99752,0.207701 -5.14181,-1.394318 -7.56696,-2.957393 -2.78982,-1.797919 -5.80976,-3.2241 -8.90286,-4.408355 -3.1946,-1.223199 -6.55205,-1.724162 -9.78914,-2.754411 -0.52043,-0.165807 -0.60068,-0.787733 -0.31273,-1.122298 0.2195,-5.903573 0.40655,-11.686184 -0.47913,-17.560254 -0.0643,-0.427205 0.10031,-0.939969 0.58888,-1.037329 9.59323,-1.913572 19.21479,0.751739 26.69973,7.00699 3.51323,2.936149 7.38758,7.5823 7.70208,12.351773 0.17171,2.599225 -0.66146,5.704722 -2.68478,7.397021"
         style="fill:#386379;fill-opacity:1;fill-rule:nonzero;stroke:none;stroke-width:0.59006226"
         id="path922"
         inkscape:connector-curvature="0" />
      <path
         d="m 811.71382,-115.83337 c -0.10857,0.0631 -0.22658,0.0779 -0.34283,0.0696 -1.6681,1.42677 -4.97717,0.41186 -6.85416,-0.059 -1.37307,-0.34519 -3.62947,-0.83376 -4.20006,-2.28767 -3.61413,-2.09059 -7.36752,-6.50721 -7.47078,-10.24407 -0.0106,-0.39298 0.26317,-0.64553 0.59537,-0.78242 2.9987,-1.23795 7.61594,-0.63373 10.80227,-0.48563 3.43239,0.15932 7.37342,0.41364 10.62938,1.58196 5.12351,1.83805 -0.43723,10.61699 -3.15919,12.20721"
         style="fill:#485e1f;fill-opacity:1;fill-rule:nonzero;stroke:none;stroke-width:0.59006226"
         id="path942"
         inkscape:connector-curvature="0" />
      <g
         transform="matrix(0.59006228,0,0,0.59006228,652.24807,-170.9895)"
         id="g956"
         opacity="0.5"
         clip-path="url(#clipPath950)">
        <g
           id="g954"
           transform="translate(275.6063,72.7871)">
          <path
             inkscape:connector-curvature="0"
             id="path952"
             style="fill:#485e1f;fill-opacity:1;fill-rule:nonzero;stroke:none"
             d="m 0,0 c 8.683,3.115 -0.741,17.993 -5.354,20.688 -0.184,0.107 -0.384,0.132 -0.581,0.118 -2.827,2.417 -8.435,0.699 -11.616,-0.1 -2.327,-0.585 -6.151,-1.413 -7.118,-3.877 -0.058,-0.034 -0.116,-0.073 -0.174,-0.108 0.076,-0.237 0.17,-0.469 0.292,-0.688 -0.129,-0.406 0.017,-0.907 0.551,-1.101 0.233,-0.084 0.467,-0.173 0.701,-0.263 0.437,-0.301 0.932,-0.526 1.466,-0.637 0.031,-0.007 0.059,-0.006 0.089,-0.011 4.819,-2.173 8.806,-5.727 2.998,-11.56 -2.483,-2.494 -5.554,-4.3 -8.803,-5.61 3.351,0.009 6.762,0.339 9.535,0.468 C -12.196,-2.411 -5.518,-1.98 0,0" />
        </g>
      </g>
      <path
         d="m 801.33457,-119.48049 c 2.72845,-0.80603 7.27252,-0.90929 9.17429,0.65851 0.52928,0.43665 0.97065,0.95944 1.39432,1.49286 1.20136,4.81314 -2.126,11.0495 -2.98631,15.46966 -1.17776,6.051089 1.25506,12.776618 -3.50792,17.550812 -3.3846,3.392858 -9.66463,3.329132 -13.81513,2.197392 -3.38755,-0.923447 -7.51857,-4.611927 -7.52447,-8.724071 -0.87801,-7.350405 4.26733,-14.713793 8.2945,-20.001933 2.33193,-3.06183 4.65618,-6.46413 8.02426,-8.22547 0.3086,-0.16167 0.62547,-0.2968 0.94646,-0.41776"
         style="fill:#f5ba83;fill-opacity:1;fill-rule:nonzero;stroke:none;stroke-width:0.59006226"
         id="path962"
         inkscape:connector-curvature="0" />
      <g
         style="fill:#f5ba83;fill-opacity:1"
         transform="matrix(0.59006228,0,0,0.59006228,652.24807,-170.9895)"
         id="g976"
         opacity="0.5"
         clip-path="url(#clipPath970)">
        <g
           style="fill:#f5ba83;fill-opacity:1"
           id="g974"
           transform="translate(259.5675,146.901)">
          <path
             inkscape:connector-curvature="0"
             id="path972"
             style="fill:#f5ba83;fill-opacity:1;fill-rule:nonzero;stroke:none"
             d="m 0,0 c -2.341,2.347 -5.504,3.706 -8.901,4.376 -1.439,-5.098 -1.656,-11.047 -1.54,-15.328 -0.028,-0.146 -0.049,-0.291 -0.074,-0.436 -0.123,-0.016 -0.247,-0.031 -0.37,-0.046 -1.048,-0.129 -1.431,-1.058 -1.147,-1.768 -3.577,0.832 -7.814,0.162 -11.303,0.075 -3.766,-0.094 -8.999,0.312 -12.991,-0.978 0.008,-1.065 0.083,-2.127 0.219,-3.186 3.497,-0.456 7.454,0.381 10.818,0.511 4.431,0.172 9.988,-0.95 14.372,0.313 0.144,-13.543 9.274,-27.375 13.547,-39.811 -2.451,-1.252 -4.934,-2.155 -7.66,-2.772 -0.852,-0.193 -1.707,-0.249 -2.55,-0.283 0.224,-0.095 0.448,-0.188 0.675,-0.274 4.624,-1.366 12.325,-1.541 15.547,1.117 0.898,0.739 1.646,1.625 2.364,2.53 2.036,8.157 -3.603,18.725 -5.061,26.216 C 3.949,-19.489 8.071,-8.091 0,0" />
        </g>
      </g>
      <path
         d="m 775.1784,-115.78782 c -0.11211,0.0596 -0.23366,0.0738 -0.35404,0.0655 -1.0509,0.82136 -2.73199,0.78419 -4.32338,0.53046 -2.10889,-1.04972 -4.59305,-1.52 -6.66181,-2.66236 -0.80543,-0.44432 -1.79556,-1.20432 -2.8264,-1.6445 -2.8317,-2.18677 -5.23385,-5.34125 -5.31764,-8.10628 -0.0112,-0.37056 0.27202,-0.60894 0.61485,-0.73876 3.09665,-1.16832 7.86435,-0.59773 11.15454,-0.45788 3.5445,0.15046 7.61416,0.39062 10.97633,1.49285 5.2905,1.73479 -0.45198,10.01985 -3.26245,11.52097"
         style="fill:#485e1f;fill-opacity:1;fill-rule:nonzero;stroke:none;stroke-width:0.59006226"
         id="path982"
         inkscape:connector-curvature="0" />
      <g
         transform="matrix(0.59006228,0,0,0.59006228,652.24807,-170.9895)"
         id="g996"
         opacity="0.5"
         clip-path="url(#clipPath990)">
        <g
           id="g994"
           transform="translate(208.3345,93.5523)">
          <path
             inkscape:connector-curvature="0"
             id="path992"
             style="fill:#485e1f;fill-opacity:1;fill-rule:nonzero;stroke:none"
             d="m 0,0 c -0.19,0.101 -0.397,0.125 -0.6,0.111 -1.781,1.392 -4.63,1.329 -7.327,0.899 -2.501,-1.245 -5.31,-2.015 -7.975,-3.025 0.094,-0.576 0.258,-1.122 0.492,-1.613 -0.22,-0.277 -0.194,-0.762 0.149,-0.974 0.36,-0.223 0.737,-0.414 1.108,-0.618 0.279,-0.214 0.588,-0.386 0.924,-0.512 2.007,-1.015 4.115,-1.843 6.158,-2.787 3.45,-1.595 3.21,-7.023 0.095,-8.91 -1.736,-1.052 -3.65,-1.782 -5.553,-2.466 -6.416,-2.306 -13.441,-2.234 -19.969,-0.532 -0.163,0.042 -0.315,0.056 -0.463,0.058 0.131,-0.433 0.519,-0.734 0.984,-0.91 5.248,-1.98 13.328,-1.013 18.903,-0.776 6.008,0.255 12.905,0.662 18.603,2.53 C 14.495,-16.585 4.763,-2.544 0,0" />
        </g>
      </g>
      <path
         d="m 771.52981,-119.20204 c 1.58432,0.0626 3.25478,0.26258 4.68155,1.01963 0.23839,0.12686 0.45907,0.25077 0.67268,0.37115 1.95251,4.50158 0.72223,10.93916 0.28441,15.38587 -0.34165,3.474878 -0.74584,6.944444 -1.12171,10.41578 -0.37764,3.479597 -0.44137,7.319133 -1.78022,10.589258 -0.0838,0.205341 -0.36289,0.313323 -0.54227,0.218913 -0.51335,2.092951 -4.30214,2.150187 -5.99562,2.027454 -4.67329,-0.338106 -9.2209,-1.351243 -13.94199,-1.468665 -0.85323,-0.02124 -1.23028,-1.010777 -0.67326,-1.626212 0.0325,-0.0354 0.059,-0.07435 0.0909,-0.110341 0.18469,-8.293916 3.67136,-17.131869 6.90785,-24.640407 1.59966,-3.71091 3.14917,-7.81597 5.72597,-10.97339 1.86224,-0.38944 3.7227,-1.28693 5.69174,-1.20904"
         style="fill:#f5ba83;fill-opacity:1;fill-rule:nonzero;stroke:none;stroke-width:0.59006226"
         id="path1002"
         inkscape:connector-curvature="0" />
      <g
         style="fill:#f5ba83;fill-opacity:1"
         transform="matrix(0.59006228,0,0,0.59006228,652.24807,-170.9895)"
         id="g1016"
         opacity="0.5"
         clip-path="url(#clipPath1010)">
        <g
           style="fill:#f5ba83;fill-opacity:1"
           id="g1014"
           transform="translate(203.0757,106.6443)">
          <path
             inkscape:connector-curvature="0"
             id="path1012"
             style="fill:#f5ba83;fill-opacity:1;fill-rule:nonzero;stroke:none"
             d="m 0,0 c 1.617,-4.532 5.13,-10.749 1.319,-14.998 -2.559,-2.852 -6.746,-2.392 -10.491,-2.172 2.693,-0.733 5.403,-1.82 8.247,-1.708 2.685,0.106 5.517,0.445 7.935,1.728 0.404,0.215 0.777,0.425 1.14,0.629 C 11.458,-8.892 9.374,2.018 8.632,9.554 8.052,15.443 7.368,21.323 6.73,27.206 6.091,33.102 5.982,39.61 3.714,45.151 3.571,45.5 3.098,45.683 2.794,45.523 c -0.869,3.547 -7.291,3.644 -10.161,3.436 -2.986,-0.216 -5.942,-0.595 -8.895,-0.994 -1.211,-1.919 -2.296,-3.886 -3.327,-5.65 -2.955,-5.056 -5.826,-10.19 -10.178,-14.07 0.519,-2.099 1.107,-4.192 1.756,-6.271 0.31,-0.011 0.632,-0.022 0.981,-0.035 4.007,-0.159 7.944,-0.43 11.906,-1.09 3.02,-0.503 5.961,-1.46 8.759,-2.685 C -4.944,11.977 -2.096,5.874 0,0" />
        </g>
      </g>
      <path
         d="m 810.2238,-85.0297 c -1.07273,2.815187 -2.14016,5.662238 -3.00165,8.550592 -0.78301,2.624007 -1.54183,5.382549 -1.98261,8.168823 -0.49978,1.621491 -1.01431,3.240622 -1.62149,4.83615 -0.15813,0.414224 -0.72105,0.341056 -0.76118,-0.102671 -0.003,-0.03717 -0.004,-0.07376 -0.006,-0.110931 -1.45922,2.593323 -5.04326,3.692019 -7.82658,4.250218 -5.55839,1.115218 -11.55696,0.457298 -17.18203,0.320404 -5.97733,-0.145155 -11.95761,-0.251957 -17.93317,-0.467919 -3.03941,-0.109752 -5.07631,-1.201957 -6.10006,-3.583449 -10e-4,0.02537 -0.002,0.05075 -0.003,0.07671 -0.0189,0.352857 -0.55938,0.580621 -0.72991,0.19767 -2.04929,-4.597175 -1.84926,-10.211027 -1.61559,-15.136867 0.0915,-1.931274 0.23012,-4.106244 0.53223,-6.289474 0.21184,-3.394628 1.27218,-6.850033 2.53668,-9.751959 0.0112,-0.02537 0.0319,-0.04189 0.0478,-0.06314 0.036,-0.128634 0.13748,-0.240155 0.29503,-0.240155 2.26584,-0.0024 4.5364,0.175248 6.8046,0.213602 1.7395,0.0295 3.5386,-0.09087 5.2722,0.113882 2.70013,-0.155776 5.46339,-0.523385 8.13873,-0.388851 0.0389,-0.0053 0.0785,-0.01062 0.11683,-0.01711 0.3983,-0.0655 0.83907,-0.118012 1.24208,-0.103261 0.0443,0.0018 0.0832,0.01475 0.11802,0.03304 0.2313,0.03599 0.39652,0.277329 0.40832,0.493882 0.026,0.47854 0.0572,0.955901 0.0873,1.433851 0.33338,1.70233 0.50037,3.447144 0.79363,5.152424 0.15578,0.905746 0.37587,1.816212 0.58003,2.729628 0.56292,-3.145032 1.58904,-6.308946 2.91786,-8.897549 0.70277,-0.348137 1.39432,-0.671491 2.126,-0.895714 3.06183,-0.129224 6.39391,0.830217 9.34481,1.275124 4.5665,0.688013 9.13299,1.376025 13.69948,2.064038 0.97065,0.145745 3.19932,0.09382 4.90047,0.526926 0.66854,1.553044 -0.68153,4.254349 -1.19842,5.612082"
         style="fill:#00ac55;fill-opacity:1;fill-rule:nonzero;stroke:none;stroke-width:0.59006226"
         id="path1022"
         inkscape:connector-curvature="0" />
      <path
         inkscape:connector-curvature="0"
         id="path1032"
         style="fill:#00ac55;fill-opacity:1;fill-rule:nonzero;stroke:none;stroke-width:0.59006226"
         d="m 807.22209,-76.479225 c -0.78301,2.624597 -1.54183,5.382548 -1.98261,8.168822 -0.49978,1.622081 -1.01432,3.240622 -1.62149,4.836741 -0.15814,0.413633 -0.72106,0.340466 -0.76118,-0.103261 -0.003,-0.03658 -0.004,-0.07376 -0.006,-0.110342 -1.45923,2.593324 -5.04326,3.69143 -7.82659,4.249629 -5.55838,1.115217 -11.55696,0.457298 -17.18202,0.320404 -5.97733,-0.145156 -11.95761,-0.251367 -17.93317,-0.46792 -3.03941,-0.109751 -5.07572,-1.201957 -6.10007,-3.583448 -10e-4,0.02537 -0.002,0.05074 -0.003,0.07671 -0.0189,0.352857 -0.55938,0.581211 -0.72991,0.197671 -1.57369,-3.530343 -1.81975,-7.659599 -1.74363,-11.617736 2.28059,0.526335 4.52106,1.262733 6.82702,1.70882 3.40348,0.65851 6.8642,0.865031 10.32373,0.820777 6.48243,-0.08379 12.71289,-1.950156 19.0478,-3.083666 3.10845,-0.556429 6.22044,-0.834348 9.32181,-0.66677 2.54729,-4.902238 8.10686,-13.803917 -0.11094,-15.975346 -2.91136,-0.769442 -6.07823,-0.905746 -9.06335,-1.312889 -1.11699,-0.152236 -2.34255,-0.230714 -3.57165,-0.351677 -0.28205,0.605404 -0.6827,1.151801 -1.10106,1.689348 -0.4272,1.13469 -0.87742,2.26761 -1.39254,3.362765 -0.37528,1.205497 -0.77889,2.405684 -1.48047,3.482548 -1.33118,2.043385 -3.43475,3.562206 -5.83749,4.017144 -0.0968,0.01829 -0.18705,-0.09972 -0.10267,-0.177019 0.97302,-0.892174 1.91181,-1.786709 2.76504,-2.743199 -1.24268,-0.913417 -1.27336,-3.068324 -1.56839,-4.504536 -0.19059,-0.926398 -0.51512,-2.17556 -0.67562,-3.416461 -1.14767,-0.351677 -2.22749,-0.742888 -3.58699,-0.788913 -2.1614,-0.07317 -4.33932,0.01121 -6.50249,0.02065 -2.27351,0.01003 -4.54643,0.0053 -6.82053,-0.01298 -1.40198,-0.0118 -2.62223,0.123323 -3.80354,-0.341646 0.17171,-0.438416 0.34755,-0.869752 0.52929,-1.287516 0.006,-0.01357 0.0165,-0.02301 0.0254,-0.03304 0.4455,-0.120373 0.90634,-0.18233 1.37603,-0.210653 0.0313,-0.01652 0.0667,-0.02596 0.0979,-0.0413 1.88171,0.0413 3.76577,0.164037 5.64807,0.195311 1.73951,0.0295 3.53861,-0.09087 5.27221,0.113882 2.70012,-0.155777 5.46339,-0.523386 8.13873,-0.388261 0.0389,-0.0059 0.0785,-0.01121 0.11742,-0.01711 0.3977,-0.06609 0.83848,-0.118603 1.24149,-0.103851 0.0443,0.0018 0.0832,0.01475 0.11801,0.03304 0.10622,0.01652 0.19649,0.07966 0.26612,0.160497 0.0608,0.241926 0.11329,0.486802 0.1664,0.731678 0.0206,0.345186 0.0413,0.690372 0.0631,1.035559 0.33338,1.702329 0.50037,3.447144 0.79363,5.152424 0.15578,0.905745 0.37587,1.816211 0.58003,2.730218 0.0785,-0.436646 0.16758,-0.873292 0.26317,-1.308758 0.0378,-0.05724 0.0785,-0.112112 0.11447,-0.170528 0.0183,-0.166398 0.0324,-0.342236 0.0454,-0.515715 0.59242,-2.4641 1.44742,-4.862703 2.49478,-6.903138 0.70276,-0.348137 1.39432,-0.671491 2.12599,-0.895715 3.06184,-0.129224 6.39392,0.830218 9.34482,1.275125 4.56649,0.688012 9.13298,1.376025 13.69948,2.064038 0.97065,0.145745 3.19931,0.09441 4.90105,0.526925 0.66795,1.553044 -0.68152,4.254349 -1.199,5.612083 -1.07274,2.815777 -2.14016,5.662237 -3.00165,8.550592" />
      <path
         d="m 820.15767,-42.05818 c -2.35494,6.958604 -2.97804,13.903638 -2.99339,21.204478 0,0.143385 -0.0537,0.260218 -0.12568,0.362888 0.003,0.0053 0.007,0.0089 0.0106,0.01416 0.15283,0.230124 -0.0979,0.510994 -0.344,0.446677 -1.71768,-0.447267 -3.26895,-0.994845 -5.07808,-1.064472 -2.27233,-0.08733 -4.57534,0.883913 -6.64115,1.718851 -2.30065,0.930528 -5.47696,2.874784 -8.12929,2.468821 -4.14401,3.432392 -10.71848,4.761802 -15.68681,4.938231 -5.1058,0.181739 -11.43068,-1.269224 -15.92047,-4.473262 -0.11919,0.183509 -0.34164,0.281459 -0.57767,0.118012 -0.93052,-0.641988 -1.76192,-1.371305 -2.52369,-2.159628 -0.23898,-0.237795 -0.46851,-0.488571 -0.69038,-0.749379 -0.0507,-0.05842 -0.10267,-0.116242 -0.15282,-0.175248 -0.0661,-0.08084 -0.12923,-0.165808 -0.19472,-0.247826 -2.19444,-2.698355 -3.65662,-5.983822 -4.76535,-9.392612 -1.63447,-4.105653 -2.87478,-8.323418 -3.8236,-12.645035 -0.97006,-4.415436 -1.5613,-8.915841 -2.02804,-13.409165 -0.14162,-1.363044 -0.30861,-2.768572 -0.45789,-4.191212 -0.41186,-3.019349 -0.67975,-6.071741 -0.53873,-9.046835 -0.0201,-0.110932 -0.0195,-0.216553 -0.0212,-0.322764 -0.47441,-1.597889 1.09752,-2.790405 2.75913,-2.861212 0.52752,-0.02242 1.09103,0.112112 1.65513,0.297981 6.22338,0.783013 12.19776,2.17615 18.51851,2.395653 6.30069,0.218323 12.52938,-0.588882 18.81119,-0.85382 4.70456,-0.198261 11.84019,-0.233075 15.51863,3.195777 0.37115,0.345777 0.26081,0.772392 -0.0342,1.024939 -0.1363,1.844534 -0.80603,3.574007 -1.2704,5.365436 -0.71811,2.769752 -1.15889,5.605001 -1.4787,8.444971 -0.24783,2.199752 -0.30919,4.414256 -0.32453,6.62581 -0.007,0.963571 0.11801,1.832143 0.0336,2.652329 4.87332,-2.199752 11.25072,-2.18795 15.79833,-0.908105 0.49978,0.140434 0.87034,0.708664 0.69568,1.225559"
         style="fill:#386379;fill-opacity:1;fill-rule:nonzero;stroke:none;stroke-width:0.59006226"
         id="path1042"
         inkscape:connector-curvature="0" />
      <path
         d="m 772.70758,-35.77183 c -1.04441,-0.497423 -1.99854,-1.162423 -2.84469,-1.947206 -3.65603,-3.157423 -5.19963,-9.458698 -2.98926,-13.631618 1.91299,-3.611772 5.44805,-5.953729 9.65755,-5.096368 3.8065,0.775342 7.56814,2.990435 9.05215,6.768014 2.86829,7.300251 -4.69749,17.803949 -12.87575,13.907178"
         style="fill:#83c1df;fill-opacity:1;fill-rule:nonzero;stroke:none;stroke-width:0.59006226"
         id="path1066"
         inkscape:connector-curvature="0" />
      <path
         d="m 792.34998,-37.68045 c -1.26037,2.150777 -5.58494,0.101491 -6.98044,-0.750559 -0.27261,-0.165808 -0.0962,-0.618976 0.2201,-0.522205 1.1872,0.362888 2.34195,0.745838 3.55866,1.000155 1.7159,-0.802484 1.95547,-1.532392 0.71929,-2.188541 -0.49683,-0.411273 -0.99131,-0.826087 -1.48283,-1.243851 -2.39683,-2.025094 -5.11761,-3.674318 -7.87025,-5.163045 -3.04118,-1.644504 -6.25702,-2.951492 -9.48761,-4.16879 -2.13721,-0.805435 -4.54938,-1.310528 -6.50839,-2.516026 -0.38295,-0.06314 -0.76826,-0.111521 -1.15829,-0.129223 -1.3477,-0.104441 -0.86149,1.655124 -0.24311,2.317764 0.58771,0.628417 0.94292,0.934069 1.12584,1.744225 0.0124,0.05369 -0.0324,0.09559 -0.085,0.08497 -1.53239,-0.302111 -5.47164,-4.093852 -2.59273,-5.318231 1.60969,-0.685062 3.70441,-0.516304 5.64336,0.117423 3.01403,0.735807 6.15435,2.344907 8.71935,3.444783 4.04664,1.735373 8.03074,3.736274 11.51211,6.462362 1.47044,1.151802 6.37503,4.328107 4.90991,6.828791"
         style="fill:#352018;fill-opacity:1;fill-rule:nonzero;stroke:none;stroke-width:0.59006226"
         id="path1070"
         inkscape:connector-curvature="0" />
      <path
         d="m 751.65793,21.66695 c -2.28944,-0.604814 -4.27559,-2.622827 -6.16851,-3.990591 -1.63211,-1.178945 -4.58419,-2.389162 -5.20789,-4.393604 -0.082,-0.261988 0.13453,-0.47087 0.37705,-0.495062 2.01624,-0.200031 4.24727,2.08174 5.81801,3.199317 1.92951,1.372485 4.57594,2.846461 5.72774,4.968915 0.2018,0.371739 -0.12746,0.821957 -0.5464,0.711025"
         style="fill:#518c98;fill-opacity:1;fill-rule:nonzero;stroke:none;stroke-width:0.59006226"
         id="path1126"
         inkscape:connector-curvature="0" />
      <path
         d="m 812.09016,11.47906 c 0.56292,2.546709 1.61264,5.070405 0.9618,7.634226 -0.93643,3.688479 -3.98056,6.144908 -6.4423,8.860375 -5.70708,6.294194 -10.88665,12.094507 -19.34224,14.464787 -7.85137,2.201522 -17.52603,2.539038 -25.32075,0.04838 -5.40733,-1.727703 -11.41594,-6.760934 -11.86143,-12.822054 -0.0897,-0.06255 -0.15637,-0.160496 -0.15873,-0.281459 -0.072,-3.154473 0.0513,-5.997393 -0.80013,-9.100531 -0.91046,-3.31851 -2.67003,-6.321927 -4.57652,-9.153046 -2.99397,-4.4461191 -7.05655,-8.2655923 -8.55413,-13.5525503 -1.94426,-6.8659647 2.57267,-11.7959347 8.19242,-14.9256257 1.62326,-1.058571 3.30848,-1.99323 4.89457,-2.838199 4.79603,-2.55615 10.08888,-4.141647 15.45019,-4.934101 8.03311,-1.186615 17.04926,-0.28264 24.75547,3.03115 2.43814,0.557019 4.84796,2.173199 6.88898,3.245342 3.85606,2.025684 7.42593,4.505126 10.38746,7.715065 5.31882,5.7660883 6.97512,14.9917121 5.5513,22.542739 -0.005,0.02537 -0.0165,0.04425 -0.026,0.0655"
         style="fill:#f5ba83;fill-opacity:1;fill-rule:nonzero;stroke:none;stroke-width:0.59006226"
         id="path1130"
         inkscape:connector-curvature="0" />
      <g
         style="fill:#f5ba83;fill-opacity:1"
         transform="matrix(0.59006228,0,0,0.59006228,652.24807,-170.9895)"
         id="g1144"
         opacity="0.5"
         clip-path="url(#clipPath1138)">
        <g
           style="fill:#f5ba83;fill-opacity:1"
           id="g1142"
           transform="translate(245.4053,263.8046)">
          <path
             inkscape:connector-curvature="0"
             id="path1140"
             style="fill:#f5ba83;fill-opacity:1;fill-rule:nonzero;stroke:none"
             d="m 0,0 c -5.842,-5.429 -12.605,-9.782 -19.705,-13.366 -1.01,-0.509 -2.038,-0.965 -3.073,-1.4 3.296,0.88 6.522,1.975 9.62,3.307 4.132,0.944 8.215,3.683 11.675,5.501 6.535,3.432 12.585,7.635 17.604,13.075 9.014,9.771 11.82,25.406 9.408,38.204 -0.008,0.042 -0.028,0.075 -0.044,0.11 0.954,4.317 2.733,8.594 1.63,12.939 -1.587,6.251 -6.746,10.413 -10.918,15.015 -9.672,10.667 -18.45,20.497 -32.78,24.515 -9.398,2.635 -20.335,3.683 -30.604,2.591 -4.173,-1.214 -8.253,-2.697 -12.178,-4.416 -4.772,-2.089 -9.783,-4.472 -14.432,-7.377 -3.205,-3.564 -5.46,-7.826 -5.8,-12.446 -0.152,-0.106 -0.265,-0.273 -0.27,-0.478 -0.121,-5.345 0.088,-10.164 -1.355,-15.422 -0.12,-0.438 -0.263,-0.866 -0.4,-1.297 14.013,-0.189 26.205,7.861 36.921,16.426 7.512,6.004 15.58,11.735 25.571,11.846 4.637,0.051 8.982,-1.84 12.143,-5.17 3.301,-3.479 2.733,-7.442 3.15,-11.629 -0.089,-0.378 -0.18,-0.757 -0.283,-1.134 -0.082,-0.303 -0.034,-0.557 0.075,-0.767 -0.253,-0.797 0.234,-1.685 1.157,-1.689 3.04,-0.013 5.871,-0.093 8.814,-0.696 C 6.258,57.811 9.804,47.537 16.095,40.899 16.081,34.343 16.42,27.915 14.795,21.351 12.672,12.775 6.29,5.846 0,0" />
        </g>
      </g>
      <path
         d="m 829.17589,36.70864 c -1.1636,4.896927 -5.45808,8.52935 -10.41755,9.104071 -3.11789,0.361118 -7.36398,0.01947 -10.52553,-1.652174 1.64568,4.425467 0.89276,10.061742 -1.04323,13.93078 -3.59879,7.190499 -11.57112,9.452208 -19.02656,9.577891 -8.66801,0.145745 -17.72724,-1.846895 -25.62876,-5.364846 -8.02426,-3.572828 -14.65892,-9.904786 -23.0679,-12.413731 -0.76885,0.255497 -1.53298,0.528106 -2.27823,0.862671 -0.58003,0.260218 -1.56661,-0.02537 -1.46158,-0.838478 0.20888,-1.628572 0.724,-3.009908 1.6268,-4.203014 -2.61339,0.223044 -4.89929,1.624442 -7.15451,3.047082 -0.67149,0.423665 -1.52295,-0.132764 -1.53711,-0.882143 -0.0826,-4.426647 2.04339,-7.888543 5.05447,-10.742084 -1.56897,0.374099 -2.9981,1.071553 -4.49745,2.002671 -0.0808,0.05075 -0.16522,0.07199 -0.24901,0.08202 -0.0218,0.01003 -0.0407,0.02242 -0.0631,0.03127 -0.49389,0.196491 -0.98836,-0.179969 -1.25507,-0.549938 -0.1959,-0.272018 -0.19885,-0.616025 -0.11329,-0.931118 0.0289,-5.02497 4.75413,-9.395562 9.12591,-11.132705 6.61105,-2.626957 13.69003,-1.51646 20.17718,0.913416 7.37164,2.761492 13.92665,7.29376 21.31245,10.031649 4.07556,1.51174 8.56358,2.488883 12.70582,0.686243 4.43726,-1.931274 4.74587,-6.588046 4.71754,-10.726743 -0.0962,-0.526925 -0.22009,-1.04795 -0.3741,-1.565435 -0.069,-0.233664 -0.0201,-0.426025 0.0903,-0.56823 0.0684,-0.236025 0.30861,-0.434286 0.55584,-0.444907 1.86814,-0.08084 3.71444,0.395342 5.60028,0.356398 0.18351,-0.0035 0.3623,-0.02006 0.5405,-0.03776 -0.41186,-3.629473 0.0543,-7.546307 1.54065,-10.765686 0.98541,-2.134846 2.23693,-3.887921 3.99354,-5.4509958 2.43224,-2.1643484 5.55662,-3.6973302 5.67109,-7.437735 0.0118,-0.37941 0.44196,-0.5369567 0.71634,-0.2968013 3.60056,3.1509326 6.75621,7.2837288 9.40618,11.2583881 1.72357,2.583883 3.325,5.58494 4.20774,8.703419 2.04161,5.02497 2.82285,10.480686 1.6504,15.416557"
         style="fill:#4d2424;fill-opacity:1;fill-rule:nonzero;stroke:none;stroke-width:0.59006226"
         id="path1150"
         inkscape:connector-curvature="0" />
      <path
         d="m 818.11458,10.11837 c -0.80248,2.526057 -2.85,3.497299 -5.41618,3.261864 -2.84587,-0.261397 -5.82982,-2.605125 -8.06143,-4.2248456 -1.65513,-1.2013668 -4.14932,-3.1338208 -3.78407,-5.409691 0.0183,-0.1150622 0.17525,-0.2029814 0.28323,-0.160497 0.97065,0.3794101 1.33649,0.9252177 2.07761,1.695249 1.16832,1.2137581 2.52015,2.189131 3.93276,3.0954667 1.53711,0.9859941 3.13736,1.9778889 4.8273,2.6747519 2.04988,0.84556 4.24963,-0.464969 4.28621,-2.6936339 0.0218,-1.3240998 -0.81074,-2.6234169 -1.32941,-3.7911502 -0.20239,-0.4561181 0.3505,-0.9936648 0.73876,-0.5700001 1.3837,1.5117395 3.15447,3.8891005 2.44522,6.1224862"
         style="fill:#518c98;fill-opacity:1;fill-rule:nonzero;stroke:none;stroke-width:0.59006226"
         id="path1194"
         inkscape:connector-curvature="0" />
      <path
         d="m 768.95036,10.40184 c -0.12332,-0.445497 0.15165,-0.8018946 0.54522,-0.9606214 0.57413,-0.2313044 0.84438,0.3752796 1.33826,0.4319256 0.4036,0.046025 0.76295,-0.3215839 1.04205,-0.5605592 0.36348,-0.3103727 1.0745,-0.2531367 1.17481,0.3103728 0.43724,2.4487582 -3.47251,3.0459012 -4.10034,0.7788822"
         style="fill:#518c98;fill-opacity:1;fill-rule:nonzero;stroke:none;stroke-width:0.59006226"
         id="path1198"
         inkscape:connector-curvature="0" />
      <path
         d="m 782.28299,7.30637 c -0.80721,-0.5080436 -1.29814,-1.6321123 -1.40789,-2.5437585 -0.0962,-0.7942238 -0.13748,-2.131895 0.75705,-2.5136653 0.21065,-0.089689 0.41541,-0.089099 0.59596,0.051926 0.63491,-0.5487579 1.46218,-0.7092549 2.27764,-0.4171741 1.09811,0.3935716 1.51056,1.4645346 1.48814,2.5526095 -0.0389,1.9035409 -1.65335,4.1640695 -3.7109,2.8700629"
         style="fill:#303030;fill-opacity:1;fill-rule:nonzero;stroke:none;stroke-width:0.59006226"
         id="path1202"
         inkscape:connector-curvature="0" />
      <path
         d="m 782.94333,7.17455 c -1.26568,-0.018292 -2.31422,-2.1549074 -1.49758,-3.1503425 0.17938,-0.2189131 0.49093,-0.1492858 0.68034,0 0.3269,0.2596274 0.47559,0.7116151 0.66795,1.0733233 0.23957,0.4508076 0.66972,0.7322673 0.77417,1.2568326 0.0802,0.4036026 -0.17997,0.8266773 -0.62488,0.8201866"
         style="fill:#ffffff;fill-opacity:1;fill-rule:nonzero;stroke:none;stroke-width:0.59006226"
         id="path1226"
         inkscape:connector-curvature="0" />
      <path
         d="m 758.727,8.59348 c -0.23071,0.9842239 -0.82373,2.406274 -1.92301,2.684193 -2.51072,0.634907 -3.81122,-2.626957 -2.57621,-4.4903736 0.17465,-0.2637579 0.51394,-0.3445964 0.77239,-0.2336647 0.76118,-1.1470811 2.15962,-1.8209322 3.39285,-0.8160561 0.79069,0.644938 0.52929,2.0221434 0.33398,2.8559014"
         style="fill:#303030;fill-opacity:1;fill-rule:nonzero;stroke:none;stroke-width:0.59006226"
         id="path1230"
         inkscape:connector-curvature="0" />
      <path
         d="m 756.3871,10.6715 c -0.65497,0.333975 -1.30463,-0.0118 -1.74717,-0.523975 -0.40774,-0.4720501 -0.76591,-1.2586031 -0.26848,-1.7961499 0.16698,-0.180559 0.44903,-0.2000311 0.65615,-0.084969 0.32099,0.1781989 0.45375,0.5841617 0.67326,0.8201866 0.11034,0.1191926 0.20003,0.1675777 0.35049,0.2578572 0.23249,0.1392547 0.39063,0.2944411 0.54935,0.5127642 0.18351,0.2519569 0.0549,0.6773919 -0.2136,0.8142859"
         style="fill:#ffffff;fill-opacity:1;fill-rule:nonzero;stroke:none;stroke-width:0.59006226"
         id="path1254"
         inkscape:connector-curvature="0" />
      <path
         d="m 799.67997,3.54349 c -1.45804,-4.46559134 -5.76019,-7.5687289 -10.15733,-8.6373317 -4.49687,-1.0933854 -9.02146,1.003696 -12.14053,4.14577762 -0.53401,0.5381368 -1.00075,1.11639784 -1.4132,1.7223918 -1.55305,2.88363438 -2.39684,6.04577808 -1.90118,9.46636928 0.68388,4.716368 4.34286,8.647953 8.68925,10.305438 10.52258,4.011833 20.20256,-6.959785 16.92299,-17.002645 m -17.53134,19.208887 c -4.32339,-1.32823 -7.5823,-4.83969 -9.25041,-8.957145 -0.27261,-0.619565 -0.51276,-1.247982 -0.71397,-1.878758 -0.72991,-2.2894419 -0.7777,-4.6195978 -0.30388,-6.847673 0.29267,-1.6557148 0.88804,-3.2370817 1.81739,-4.65500133 0.60186,-1.04086987 1.30994,-2.02745397 2.11242,-2.93378967 8.10451,-9.158357 22.70265,-4.7600324 26.31029,6.2570204 3.94751,12.0549726 -8.70342,22.4772426 -19.97184,19.0153466"
         style="fill:#386379;fill-opacity:1;fill-rule:nonzero;stroke:none;stroke-width:0.59006226"
         id="path1274"
         inkscape:connector-curvature="0" />
      <g
         style="fill:#f5ba83;fill-opacity:1"
         transform="matrix(0.59006228,0,0,0.59006228,652.24807,-170.9895)"
         id="g1288"
         opacity="0.199997"
         clip-path="url(#clipPath1282)">
        <g
           style="fill:#f5ba83;fill-opacity:1"
           id="g1286"
           transform="translate(195.438,302.5979)">
          <path
             inkscape:connector-curvature="0"
             id="path1284"
             style="fill:#f5ba83;fill-opacity:1;fill-rule:nonzero;stroke:none"
             d="m 40.909118,9.9444948 c -2.471,-7.568 -9.762,-12.827 -17.214,-14.638 -7.621,-1.853 -15.2889999,1.701 -20.5749999,7.026 -0.905,0.912 -1.696,1.892 -2.39500004,2.919 C -1.9068819,10.139495 -3.3368819,15.497495 -2.4968819,21.294495 c 1.158,7.992 7.36,14.656 14.7259999,17.465 17.833,6.799 34.238,-11.795 28.68,-28.8150002" />
        </g>
      </g>
      <path
         d="m 767.56867,7.56211 c -1.45804,-4.4655913 -5.76019,-7.56872887 -10.15733,-8.6373317 -4.49687,-1.0933854 -9.02146,1.00369598 -12.14053,4.1457776 -0.53401,0.5381368 -1.00075,1.1163979 -1.4132,1.7223918 -1.55305,2.8842244 -2.39684,6.0457783 -1.90118,9.4663693 0.68329,4.715778 4.34286,8.647953 8.68925,10.305438 10.52258,4.011833 20.20256,-6.959785 16.92299,-17.002645 m -17.53134,19.208887 c -4.32339,-1.32823 -7.5823,-4.83969 -9.25041,-8.957145 -0.27261,-0.619565 -0.51276,-1.247982 -0.71397,-1.878758 -0.7305,-2.289442 -0.7777,-4.619598 -0.30388,-6.8470829 0.29267,-1.6557148 0.88804,-3.2376718 1.81739,-4.6555914 0.60186,-1.0408699 1.30994,-2.027454 2.11242,-2.9337897 8.10451,-9.1583566 22.70265,-4.7600324 26.31029,6.2570204 3.94751,12.0549726 -8.70342,22.4772426 -19.97184,19.0153466"
         style="fill:#386379;fill-opacity:1;fill-rule:nonzero;stroke:none;stroke-width:0.59006226"
         id="path1294"
         inkscape:connector-curvature="0" />
      <path
         d="m 821.08224,10.2725 c -2.7609,1.656305 -5.92068,0.523975 -8.3718,-1.0821742 -2.02746,-1.3282302 -4.47209,-3.1137587 -5.34951,-5.4486351 -2.30124,-3.38754756 -3.03528,-8.0732321 -1.79497,-11.7587611 2.45525,-7.2973006 12.76187,-1.6598452 16.09867,1.6256216 4.74528,4.6738833 5.65988,12.9200036 -0.58239,16.6639488"
         style="fill:#f5ba83;fill-opacity:1;fill-rule:nonzero;stroke:none;stroke-width:0.59006226"
         id="path1298"
         inkscape:connector-curvature="0" />
      <g
         style="fill:#f5ba83;fill-opacity:1"
         transform="matrix(0.59006228,0,0,0.59006228,652.24807,-170.9895)"
         id="g1312"
         opacity="0.5"
         clip-path="url(#clipPath1306)">
        <g
           style="fill:#f5ba83;fill-opacity:1"
           id="g1310"
           transform="translate(284.2988,297.3033)">
          <path
             inkscape:connector-curvature="0"
             id="path1308"
             style="fill:#f5ba83;fill-opacity:1;fill-rule:nonzero;stroke:none"
             d="m 0,0 c -3.997,-0.033 -7.522,-1.798 -10.525,-4.307 -3.481,-2.909 -4.48,-6.333 -6.064,-10.362 -0.039,-0.099 0.123,-0.166 0.171,-0.072 1.397,2.722 4.073,4.975 6.406,7.037 1.309,-1.558 3.003,-2.921 3.804,-4.821 0.037,-0.09 0.191,-0.091 0.184,0.025 -0.142,2.288 -0.492,4.725 -2.256,6.303 2.61,2.133 5.622,3.774 8.453,5.556 C 0.457,-0.462 0.351,0.003 0,0" />
        </g>
      </g>
      <g
         style="fill:#f5ba83;fill-opacity:1"
         transform="matrix(0.59006228,0,0,0.59006228,652.24807,-170.9895)"
         id="g1328"
         opacity="0.699997"
         clip-path="url(#clipPath1322)">
        <g
           style="fill:#f5ba83;fill-opacity:1"
           id="g1326"
           transform="translate(204.0483,252.5589)">
          <path
             inkscape:connector-curvature="0"
             id="path1324"
             style="fill:#f5ba83;fill-opacity:1;fill-rule:nonzero;stroke:none"
             d="m 0,0 c -11.814,-0.206 -18.305,11.499 -23.36,20.763 5.706,-4.79 13.484,-7.901 20.615,-8.677 C 5.497,11.188 16.46,12.007 23.77,16.905 18.518,7.807 11.435,0.199 0,0 m 28.005,19.995 c -0.823,1.047 -1.907,1.282 -3.187,1.358 -2.062,0.124 -4.557,0.036 -6.519,-0.64 -0.574,-0.199 -0.631,-1.047 0,-1.221 1.099,-0.301 2.213,-0.33 3.345,-0.446 0.202,-0.021 0.521,-0.03 0.892,-0.044 -2.899,-1.053 -5.691,-2.383 -8.73,-3.153 -4.866,-1.233 -9.962,-1.441 -14.948,-1.098 -8.672,0.597 -16.048,4.105 -23.417,8.202 -0.01,0.017 -0.019,0.034 -0.028,0.05 -0.065,-0.008 -0.123,-0.019 -0.183,-0.036 -0.095,-0.028 -0.214,-0.089 -0.161,-0.035 -0.149,-0.152 -0.098,-0.104 -0.145,-0.278 -0.026,-0.095 -0.04,-0.192 -0.062,-0.288 0.002,-0.002 0.005,-0.005 0.008,-0.008 4.205,-11.96 11.238,-24.227 25.13,-25.463 11.51,-1.023 21.228,8.02 26.138,17.819 0.019,-0.254 0.045,-0.503 0.091,-0.739 0.284,-1.429 0.853,-2.862 1.265,-4.262 0.062,-0.209 0.408,-0.238 0.452,0 0.537,2.864 2.106,7.679 0.059,10.282" />
        </g>
      </g>
      <g
         id="g2341">
        <path
           inkscape:connector-curvature="0"
           id="path1334"
           style="fill:#d27487;fill-opacity:1;fill-rule:nonzero;stroke:none;stroke-width:0.59006226"
           d="m 772.64928,-21.96402 c -6.971,-0.121553 -10.80109,6.785126 -13.78385,12.2514631 3.36689,-2.8263981 7.95639,-4.6620821 12.16413,-5.1199701 4.86329,-0.529876 11.33215,-0.04661 15.6455,2.84351 -3.09901,-5.368387 -7.27842,-9.857581 -14.02578,-9.975003" />
        <path
           inkscape:connector-curvature="0"
           id="path1338"
           style="fill:#cd4554;fill-opacity:1;fill-rule:nonzero;stroke:none;stroke-width:0.59006226"
           d="m 766.28563,-19.79236 c 1.79143,-1.361274 3.87671,-2.215094 6.36382,-2.171429 4.90401,0.08497 8.44733,2.485342 11.21,5.848697 -1.19428,0.794224 -2.49655,1.315249 -3.8531,1.583727 -2.22277,-0.418354 -4.52283,-0.541087 -6.65708,-0.464379 -0.0897,-0.02832 -0.17997,-0.05251 -0.26907,-0.08261 -2.11302,-0.707485 -5.24271,-2.46056 -6.79457,-4.714008" />
      </g>
    </g>
  </g>
</svg>
