<?xml version="1.0" encoding="UTF-8" standalone="no"?>
<!-- Created with Inkscape (http://www.inkscape.org/) -->

<svg
   xmlns:dc="http://purl.org/dc/elements/1.1/"
   xmlns:cc="http://creativecommons.org/ns#"
   xmlns:rdf="http://www.w3.org/1999/02/22-rdf-syntax-ns#"
   xmlns:svg="http://www.w3.org/2000/svg"
   xmlns="http://www.w3.org/2000/svg"
   xmlns:sodipodi="http://sodipodi.sourceforge.net/DTD/sodipodi-0.dtd"
   xmlns:inkscape="http://www.inkscape.org/namespaces/inkscape"
   width="107.06893mm"
   height="71.922241mm"
   viewBox="0 0 107.06893 71.922241"
   version="1.1"
   id="svg195598"
   inkscape:version="0.92+devel unknown"
   sodipodi:docname="btnd-trueque.svg">
  <defs
     id="defs195592">
    <filter
       inkscape:collect="always"
       style="color-interpolation-filters:sRGB"
       id="filter196758"
       x="-0.28504318"
       width="1.5700862"
       y="-0.58820319"
       height="2.1764064">
      <feGaussianBlur
         inkscape:collect="always"
         stdDeviation="8.0991483"
         id="feGaussianBlur196760" />
    </filter>
  </defs>
  <sodipodi:namedview
     id="base"
     pagecolor="#ffffff"
     bordercolor="#666666"
     borderopacity="1.0"
     inkscape:pageopacity="0.0"
     inkscape:pageshadow="2"
     inkscape:zoom="0.46986733"
     inkscape:cx="388.578"
     inkscape:cy="39.476097"
     inkscape:document-units="mm"
     inkscape:current-layer="layer1"
     inkscape:document-rotation="0"
     showgrid="false"
     fit-margin-top="0"
     fit-margin-left="0"
     fit-margin-right="0"
     fit-margin-bottom="0"
     inkscape:window-width="1366"
     inkscape:window-height="708"
     inkscape:window-x="0"
     inkscape:window-y="32"
     inkscape:window-maximized="1" />
  <metadata
     id="metadata195595">
    <rdf:RDF>
      <cc:Work
         rdf:about="">
        <dc:format>image/svg+xml</dc:format>
        <dc:type
           rdf:resource="http://purl.org/dc/dcmitype/StillImage" />
        <dc:title></dc:title>
      </cc:Work>
    </rdf:RDF>
  </metadata>
  <g
     inkscape:label="Capa 1"
     inkscape:groupmode="layer"
     id="layer1"
     transform="translate(6.5754952,-66.276229)">
    <ellipse
       style="fill:#ffffff;fill-opacity:1;stroke:none;stroke-width:0.55562496;stroke-linecap:round;stroke-dasharray:3.33374981, 3.33374981;stroke-dashoffset:21;filter:url(#filter196758)"
       id="path196596"
       cx="46.958973"
       cy="102.23735"
       rx="34.096512"
       ry="16.523165" />
    <g
       id="g195563"
       transform="matrix(0.09691192,0,0,-0.09691192,114.6615,150.40471)">
      <path
         inkscape:connector-curvature="0"
         id="path194842"
         d="m -859.40537,366.57714 c -29.00606,4.58253 -55.73799,19.25761 -75.20509,41.28551 -29.11026,32.93956 -41.94751,81.32776 -32.78391,123.57425 5.59055,25.77383 21.91978,54.66289 40.97458,72.49072 26.34675,24.65023 60.41925,33.93516 96.63942,26.33474 15.74455,-3.30383 36.06247,-12.02971 55.75569,-23.94522 14.97421,-9.06025 22.54164,-14.60927 40.47526,-29.67957 17.07266,-14.34678 16.41285,-13.89262 20.18331,-13.89262 1.83466,0 3.22324,-0.28205 3.08574,-0.62678 -0.1375,-0.34473 -1.68918,-3.46661 -3.44816,-6.9375 -4.43169,-8.74476 -5.96238,-15.35876 -4.81762,-20.81649 1.49154,-7.11097 6.45353,-11.78407 13.3809,-12.60186 8.40155,-0.99183 12.65023,2.14263 18.87767,13.92697 2.19603,4.15562 4.25309,7.55566 4.57122,7.55566 1.20233,0 10.37283,-6.34472 14.93419,-10.3324 16.09323,-14.0692 31.63023,-40.46296 29.64935,-50.36736 -0.77437,-3.87182 -4.62698,-6.80024 -8.94638,-6.80024 -1.70265,0 -1.82636,-0.26634 -1.82898,-3.9375 -0.005,-7.54621 -4.69709,-12.03308 -12.18729,-11.65519 l -4.3151,0.21769 -0.4516,-2.625 c -1.21394,-7.05622 -6.34453,-10.78823 -14.27079,-10.38061 -4.81175,0.24745 -4.86128,0.22969 -6.01709,-2.15678 -2.69782,-5.57039 -12.91087,-7.23936 -17.48477,-2.85729 l -2.15933,2.06876 3.91326,3.85046 c 10.36953,10.20311 10.03488,23.05547 -0.7286,27.98316 -3.74521,1.7146 -3.99281,2.00128 -4.46853,5.17362 -0.75515,5.03571 -3.02934,7.86995 -8.37998,10.44368 -3.70318,1.78128 -4.67968,2.60656 -4.6875,3.96159 -0.0274,4.7467 -4.61855,10.97 -9.82511,13.31782 -2.57754,1.16232 -2.93476,1.63359 -2.93476,3.87174 0,3.21584 -1.55879,6.2589 -4.45401,8.69506 -3.41831,2.87633 -7.04302,3.79094 -12.87557,3.24886 l -5.09534,-0.47356 1.08613,2.59947 1.08613,2.59947 -11.43617,11.56473 c -12.90213,13.04718 -23.25434,21.1125 -36.48943,28.4286 -30.64453,16.93971 -55.73984,19.21034 -79.82464,7.22255 -19.2723,-9.59244 -36.25403,-30.77132 -42.80826,-53.3886 -8.6933,-29.99876 0.45015,-64.52667 23.1937,-87.58507 19.35777,-19.62573 41.09929,-28.03467 66.13942,-25.58065 24.81296,2.43176 40.13712,10.12528 67.80839,34.04332 5.86971,5.07357 13.20861,11.34624 16.30865,13.93927 l 5.63644,4.7146 1.54978,-1.83794 c 1.94811,-2.31033 5.13628,-3.8871 9.23728,-4.56849 2.91331,-0.48405 3.1875,-0.72069 3.1875,-2.75094 0,-3.18422 1.84519,-6.30749 4.27713,-7.23969 1.15383,-0.44229 4.46037,-1.03119 7.34787,-1.30869 5.03255,-0.48364 5.3844,-0.64886 8.4949,-3.98899 l 3.2449,-3.48446 -12.2449,-11.90672 c -34.84246,-33.88018 -66.55741,-52.16624 -101.80074,-58.69579 -8.72556,-1.61658 -30.74359,-2.00561 -39.06916,-0.6903 z m 324.75,1.48155 c -39.82136,6.14626 -71.37589,22.21375 -105.75,53.84766 -4.74375,4.36559 -11.79934,11.15235 -15.67909,15.08169 l -7.05409,7.14426 1.61659,3.75786 c 0.88913,2.06682 1.61659,4.28592 1.61659,4.93133 0,0.80661 0.71093,1.17346 2.27409,1.17346 5.50607,0 10.15569,3.91041 12.50088,10.51345 1.09036,3.06998 1.69292,3.77349 3.58051,4.18038 4.00544,0.86343 7.63411,3.15534 8.7969,5.55622 l 1.13161,2.33652 13.0455,-11.77131 c 15.31268,-13.81702 25.3387,-22.12502 35.14695,-29.12432 26.30974,-18.77497 48.89197,-26.313 71.34757,-23.81605 33.79953,3.75833 58.80721,27.96439 67.54012,65.37511 2.18805,9.37337 2.75533,30.99589 1.0527,40.125 -3.66279,19.63897 -13.60754,39.44615 -25.10958,50.01131 -13.14898,12.07796 -30.69189,18.15352 -52.18225,18.07204 -20.20947,-0.0766 -35.44367,-4.89187 -53.625,-16.94986 -9.00028,-5.96904 -15.86363,-11.89843 -32.2756,-27.88349 -8.47032,-8.25 -17.83061,-17.17339 -20.80063,-19.82974 -4.49834,-4.02327 -5.58561,-5.46348 -6.5114,-8.625 -1.15874,-3.95708 -3.02336,-7.17026 -4.16091,-7.17026 -0.36492,0 -1.70307,1.95044 -2.97367,4.33432 -5.81049,10.90159 -18.03369,24.34156 -30.77779,33.84157 -8.22169,6.12881 -9.24819,6.59614 -11.65704,5.30696 -2.17048,-1.1616 -3.98152,-3.88499 -8.21796,-12.35785 -3.52284,-7.04569 -6.33681,-9.375 -11.32562,-9.375 -6.01086,0 -8.61944,2.24431 -10.05523,8.65109 -1.70818,7.62227 2.01539,18.00765 9.00585,25.11817 7.04206,7.16299 15.91981,11.27707 27.72701,12.84909 5.7474,0.76521 7.48249,0.68074 15.47158,-0.75324 14.90641,-2.67558 15.6947,-2.46346 25.88285,6.96492 29.05853,26.89149 64.46941,46.36183 94.26081,51.82843 9.06438,1.66327 28.98185,2.26197 38.14055,1.14646 32.39025,-3.94506 59.86684,-19.25782 79.49897,-44.30492 24.10427,-30.75276 32.21559,-74.83541 22.3594,-121.51681 -11.0108,-52.14992 -43.75531,-87.49322 -90.34117,-97.51115 -9.80584,-2.10867 -33.29093,-2.73402 -43.5,-1.1583 z m -186.96956,80.69799 c -2.40125,1.88883 -3.82115,6.04338 -3.32632,9.73262 l 0.37817,2.81946 -4.76552,-0.38253 c -4.64552,-0.37289 -4.83078,-0.31727 -7.35699,2.20894 -3.13602,3.13602 -4.02189,6.81265 -2.51212,10.42604 l 1.06911,2.55874 h -5.56601 c -5.50544,0 -5.59501,0.0316 -8.22908,2.90591 -2.56204,2.79566 -2.64792,3.07309 -2.2635,7.3125 l 0.39957,4.40659 h -2.57796 c -3.25776,0 -6.96771,1.55247 -8.90479,3.72632 -3.62031,4.0628 -0.48853,13.58535 6.54886,19.91256 7.8187,7.02969 15.1555,8.2734 19.58183,3.31947 2.0596,-2.30508 2.15916,-2.72124 1.81197,-7.57373 l -0.36738,-5.13462 2.33736,-0.001 c 3.33112,-10e-4 7.27879,-2.20669 9.25991,-5.17225 1.85516,-2.777 2.30183,-8.05524 0.9029,-10.66918 -0.74574,-1.39343 -0.62286,-1.46082 1.82611,-1.00139 5.99989,1.12559 12.47344,-3.79515 12.47344,-9.48142 0,-1.66277 -0.34937,-3.67602 -0.77639,-4.4739 -0.72027,-1.34585 -0.50077,-1.4507 3.03725,-1.4507 2.0975,0 4.76386,-0.49138 5.92525,-1.09196 2.18931,-1.13214 4.56389,-5.16042 4.56389,-7.7423 0,-4.55899 -6.29986,-12.8301 -11.625,-15.26248 -4.0937,-1.86988 -9.39116,-1.82137 -11.84456,0.10848 z"
         style="fill:#9e6434;fill-opacity:1;stroke-width:0.75" />
      <g
         transform="matrix(2.1509613,0,0,2.1509613,255.59835,63.634992)"
         id="g195508">
        <g
           id="g1066"
           transform="matrix(0.73245894,0,0,0.73245894,-363.39348,214.44777)">
          <path
             d="m 0,0 c 0,0 1.147,6.023 -2.151,15.773 0,0 3.441,1.721 5.449,0 0,0 0.43,-8.89 -1.147,-15.773 z"
             style="fill:#754a22;fill-opacity:1;fill-rule:nonzero;stroke:none"
             id="path1068"
             inkscape:connector-curvature="0" />
        </g>
        <g
           id="g1070"
           transform="matrix(0.73245894,0,0,0.73245894,-346.06197,218.43887)">
          <path
             d="m 0,0 c -11.394,2.442 -22.227,-3.811 -22.227,-3.811 0,0 -10.834,6.253 -22.227,3.811 -11.394,-2.441 -20.936,-13.336 -11.185,-37.426 6.927,-17.114 15.507,-23.082 23.917,-21.454 8.41,1.628 9.495,1.357 9.495,1.357 0,0 1.085,0.271 9.494,-1.357 8.41,-1.628 16.991,4.34 23.918,21.454 C 20.935,-13.336 11.394,-2.441 0,0"
             style="fill:#ff363c;fill-opacity:1;fill-rule:nonzero;stroke:none"
             id="path1072-6"
             inkscape:connector-curvature="0" />
        </g>
        <g
           id="g1144"
           transform="matrix(0.73245894,0,0,0.73245894,-360.89734,222.57356)">
          <path
             d="M 0,0 C 0,0 5.542,21.612 27.431,10.339 27.431,10.339 21.75,-6.234 0,0"
             style="fill:#7bd917;fill-opacity:1;fill-rule:nonzero;stroke:none"
             id="path1146"
             inkscape:connector-curvature="0" />
        </g>
      </g>
      <g
         inkscape:export-ydpi="90"
         inkscape:export-xdpi="90"
         transform="matrix(1.2285573,0,0,-1.2285573,-1697.9167,1229.6278)"
         id="g15960">
        <path
           d="m 668.37804,551.92967 h 62.01201 v 97.77334 h -62.01201 z"
           style="fill:#39b54a;fill-opacity:1;fill-rule:evenodd;stroke:none"
           id="path2504"
           inkscape:connector-curvature="0" />
        <path
           inkscape:connector-curvature="0"
           id="path2508"
           style="fill:#39b54a;fill-opacity:1;fill-rule:evenodd;stroke:none"
           d="m 717.89418,565.95033 8.4,29.11334 22.27733,-6.04534 -8.504,-29.468 c -4.012,-13.90666 -25.98133,-6.78933 -22.17333,6.4" />
        <path
           inkscape:connector-curvature="0"
           id="path2512"
           style="fill:#39b54a;fill-opacity:1;fill-rule:evenodd;stroke:none"
           d="m 681.59858,565.95033 -8.40267,29.11334 -22.276,-6.04534 8.50533,-29.468 c 4.012,-13.90666 25.97867,-6.78933 22.17334,6.4" />
        <path
           inkscape:connector-curvature="0"
           id="path2516"
           style="fill:#86bf89;fill-opacity:1;fill-rule:evenodd;stroke:none"
           d="m 650.91938,589.01873 1.19466,-4.14266 16.26534,4.36133 v 4.51867 z" />
        <path
           inkscape:connector-curvature="0"
           id="path2520"
           style="fill:#39b54a;fill-opacity:1;fill-rule:evenodd;stroke:none"
           d="m 685.38018,559.32953 14.00533,6.604 14.00133,-6.604 17.00401,34.62267 -62.01201,-0.196 z" />
        <path
           inkscape:connector-curvature="0"
           id="path2524"
           style="fill:#86bf89;fill-opacity:1;fill-rule:evenodd;stroke:none"
           d="m 684.54751,546.6478 -4.576,5.28267 5.63333,22.18 9.50667,-11.26534 z" />
        <path
           inkscape:connector-curvature="0"
           id="path2528"
           style="fill:#86bf89;fill-opacity:1;fill-rule:evenodd;stroke:none"
           d="m 714.47764,546.6478 4.57601,5.28267 -5.63334,22.18 -9.50667,-11.26534 z" />
        <path
           inkscape:connector-curvature="0"
           id="path2532"
           style="fill:#006838;fill-opacity:1;fill-rule:evenodd;stroke:none"
           d="m 699.38484,565.93353 -4.27333,-3.088 -1.33067,1.576 c 1.57734,0.81067 3.74534,1.512 5.604,1.512 m 5.604,-1.81466 c -1.71066,1.09866 -3.48,1.81466 -5.604,1.81466 l 4.528,-3.088 z" />
        <path
           inkscape:connector-curvature="0"
           id="path2536"
           style="fill:#86bf89;fill-opacity:1;fill-rule:evenodd;stroke:none"
           d="m 748.57111,589.01873 -1.196,-4.14266 -16.984,4.55733 v 4.51867 z" />
      </g>
    </g>
  </g>
</svg>
