<?xml version="1.0" encoding="UTF-8" standalone="no"?>
<!-- Created with Inkscape (http://www.inkscape.org/) -->
<svg
   xmlns:dc="http://purl.org/dc/elements/1.1/"
   xmlns:cc="http://creativecommons.org/ns#"
   xmlns:rdf="http://www.w3.org/1999/02/22-rdf-syntax-ns#"
   xmlns:svg="http://www.w3.org/2000/svg"
   xmlns="http://www.w3.org/2000/svg"
   xmlns:sodipodi="http://sodipodi.sourceforge.net/DTD/sodipodi-0.dtd"
   xmlns:inkscape="http://www.inkscape.org/namespaces/inkscape"
   width="600"
   height="400"
   id="svg31316"
   sodipodi:version="0.32"
   inkscape:version="0.46"
   version="1.0"
   sodipodi:docname="Flag of the United States.svg"
   inkscape:output_extension="org.inkscape.output.svg.inkscape">
  <defs
     id="defs31318">
    <inkscape:perspective
       sodipodi:type="inkscape:persp3d"
       inkscape:vp_x="0 : 526.18109 : 1"
       inkscape:vp_y="0 : 1000 : 0"
       inkscape:vp_z="744.09448 : 526.18109 : 1"
       inkscape:persp3d-origin="372.04724 : 350.78739 : 1"
       id="perspective31324" />
    <inkscape:perspective
       id="perspective2516"
       inkscape:persp3d-origin="372.04724 : 350.78739 : 1"
       inkscape:vp_z="744.09448 : 526.18109 : 1"
       inkscape:vp_y="0 : 1000 : 0"
       inkscape:vp_x="0 : 526.18109 : 1"
       sodipodi:type="inkscape:persp3d" />
  </defs>
  <sodipodi:namedview
     id="base"
     pagecolor="#ffffff"
     bordercolor="#666666"
     borderopacity="1.0"
     inkscape:pageopacity="0.0"
     inkscape:pageshadow="2"
     inkscape:zoom="0.6670374"
     inkscape:cx="301.80159"
     inkscape:cy="243.49482"
     inkscape:document-units="px"
     inkscape:current-layer="layer1"
     showgrid="false"
     inkscape:window-width="1280"
     inkscape:window-height="744"
     inkscape:window-x="-4"
     inkscape:window-y="-4" />
  <metadata
     id="metadata31321">
    <rdf:RDF>
      <cc:Work
         rdf:about="">
        <dc:format>image/svg+xml</dc:format>
        <dc:type
           rdf:resource="http://purl.org/dc/dcmitype/StillImage" />
      </cc:Work>
    </rdf:RDF>
  </metadata>
  <g
     inkscape:label="Capa 1"
     inkscape:groupmode="layer"
     id="layer1"
     transform="translate(5048.7279,3689.3805)">
    <g
       id="g34616"
       transform="matrix(1.0041499,0,0,1.0062244,19.706951,21.719291)"
       inkscape:export-filename="C:\Documents and Settings\JAC\Desktop\Lang-EN.png"
       inkscape:export-xdpi="90.000908"
       inkscape:export-ydpi="90.000908">
      <rect
         x="-5047.4883"
         y="-3688.1433"
         width="597.52032"
         height="30.53071"
         id="rect15226"
         style="fill:#bf0a30" />
      <rect
         x="-5047.4883"
         y="-3412.9492"
         width="597.52032"
         height="30.560524"
         id="rect15206"
         style="fill:#ffffff" />
      <rect
         x="-5047.4883"
         y="-3443.5396"
         width="597.52032"
         height="30.59034"
         id="rect15208"
         style="fill:#bf0a30" />
      <rect
         x="-5047.4883"
         y="-3351.7983"
         width="597.52032"
         height="30.560524"
         id="rect15210"
         style="fill:#ffffff" />
      <rect
         x="-5047.4883"
         y="-3321.208"
         width="597.52032"
         height="30.59034"
         id="rect15212"
         style="fill:#bf0a30" />
      <rect
         x="-5047.4883"
         y="-3382.3589"
         width="597.52032"
         height="30.560524"
         id="rect15214"
         style="fill:#bf0a30" />
      <rect
         x="-5047.4883"
         y="-3474.0999"
         width="597.52032"
         height="30.560524"
         id="rect15216"
         style="fill:#ffffff" />
      <rect
         x="-5047.4883"
         y="-3565.8411"
         width="597.52032"
         height="30.560524"
         id="rect15218"
         style="fill:#bf0a30" />
      <rect
         x="-5047.4883"
         y="-3657.6121"
         width="597.52032"
         height="30.560524"
         id="rect15220"
         style="fill:#ffffff" />
      <rect
         x="-5047.4883"
         y="-3627.0217"
         width="597.52032"
         height="30.59034"
         id="rect15222"
         style="fill:#bf0a30" />
      <rect
         x="-5047.4883"
         y="-3504.7202"
         width="597.52032"
         height="30.59034"
         id="rect15224"
         style="fill:#bf0a30" />
      <rect
         x="-5047.4883"
         y="-3596.4314"
         width="597.52032"
         height="30.560524"
         id="rect15228"
         style="fill:#ffffff" />
      <rect
         x="-5047.4883"
         y="-3535.2805"
         width="597.52032"
         height="30.560524"
         id="rect15230"
         style="fill:#ffffff" />
      <rect
         x="-5047.4883"
         y="-3688.1433"
         width="239.00812"
         height="214.31128"
         id="rect15232"
         style="fill:#002868" />
      <polygon
         transform="matrix(29.876015,0,0,29.815146,-6932.8441,-14908.626)"
         points="69.115,376.719 69.169,376.889 69.348,376.889 69.204,376.994 69.259,377.164 69.115,377.059 68.969,377.164 69.025,376.994 68.88,376.889 69.059,376.889 69.115,376.719 "
         id="polygon15234"
         style="fill:#ffffff" />
      <polygon
         transform="matrix(29.876015,0,0,29.815146,-6932.8441,-14908.626)"
         points="69.115,378.212 69.169,378.382 69.348,378.382 69.204,378.487 69.259,378.657 69.115,378.553 68.969,378.657 69.025,378.487 68.88,378.382 69.059,378.382 69.115,378.212 "
         id="polygon15236"
         style="fill:#ffffff" />
      <polygon
         transform="matrix(29.876015,0,0,29.815146,-6932.8441,-14908.626)"
         points="69.115,379.706 69.169,379.876 69.348,379.876 69.204,379.981 69.259,380.151 69.115,380.046 68.969,380.151 69.025,379.981 68.88,379.876 69.059,379.876 69.115,379.706 "
         id="polygon15238"
         style="fill:#ffffff" />
      <polygon
         transform="matrix(29.876015,0,0,29.815146,-6932.8441,-14908.626)"
         points="69.115,381.233 69.169,381.404 69.348,381.404 69.204,381.509 69.259,381.68 69.115,381.574 68.969,381.68 69.025,381.509 68.88,381.404 69.059,381.404 69.115,381.233 "
         id="polygon15240"
         style="fill:#ffffff" />
      <polygon
         transform="matrix(29.876015,0,0,29.815146,-6932.8441,-14908.626)"
         points="69.115,382.692 69.169,382.862 69.348,382.862 69.204,382.968 69.259,383.138 69.115,383.032 68.969,383.138 69.025,382.968 68.88,382.862 69.059,382.862 69.115,382.692 "
         id="polygon15242"
         style="fill:#ffffff" />
      <polygon
         transform="matrix(29.876015,0,0,29.815146,-6932.8441,-14908.626)"
         points="67.775,376.719 67.831,376.889 68.01,376.889 67.865,376.994 67.92,377.164 67.775,377.059 67.63,377.164 67.686,376.994 67.541,376.889 67.72,376.889 67.775,376.719 "
         id="polygon15244"
         style="fill:#ffffff" />
      <polygon
         transform="matrix(29.876015,0,0,29.815146,-6932.8441,-14908.626)"
         points="67.775,378.212 67.831,378.382 68.01,378.382 67.865,378.487 67.92,378.657 67.775,378.553 67.63,378.657 67.686,378.487 67.541,378.382 67.72,378.382 67.775,378.212 "
         id="polygon15246"
         style="fill:#ffffff" />
      <polygon
         transform="matrix(29.876015,0,0,29.815146,-6932.8441,-14908.626)"
         points="67.775,379.706 67.831,379.876 68.01,379.876 67.865,379.981 67.92,380.151 67.775,380.046 67.63,380.151 67.686,379.981 67.541,379.876 67.72,379.876 67.775,379.706 "
         id="polygon15248"
         style="fill:#ffffff" />
      <polygon
         transform="matrix(29.876015,0,0,29.815146,-6932.8441,-14908.626)"
         points="67.775,381.233 67.831,381.404 68.01,381.404 67.865,381.509 67.92,381.68 67.775,381.574 67.63,381.68 67.686,381.509 67.541,381.404 67.72,381.404 67.775,381.233 "
         id="polygon15250"
         style="fill:#ffffff" />
      <polygon
         transform="matrix(29.876015,0,0,29.815146,-6932.8441,-14908.626)"
         points="67.775,382.692 67.831,382.862 68.01,382.862 67.865,382.968 67.92,383.138 67.775,383.032 67.63,383.138 67.686,382.968 67.541,382.862 67.72,382.862 67.775,382.692 "
         id="polygon15252"
         style="fill:#ffffff" />
      <polygon
         transform="matrix(29.876015,0,0,29.815146,-6932.8441,-14908.626)"
         points="66.437,376.719 66.492,376.889 66.67,376.889 66.526,376.994 66.582,377.164 66.437,377.059 66.292,377.164 66.347,376.994 66.203,376.889 66.381,376.889 66.437,376.719 "
         id="polygon15254"
         style="fill:#ffffff" />
      <polygon
         transform="matrix(29.876015,0,0,29.815146,-6932.8441,-14908.626)"
         points="66.437,378.212 66.492,378.382 66.67,378.382 66.526,378.487 66.582,378.657 66.437,378.553 66.292,378.657 66.347,378.487 66.203,378.382 66.381,378.382 66.437,378.212 "
         id="polygon15256"
         style="fill:#ffffff" />
      <polygon
         transform="matrix(29.876015,0,0,29.815146,-6932.8441,-14908.626)"
         points="66.437,379.706 66.492,379.876 66.67,379.876 66.526,379.981 66.582,380.151 66.437,380.046 66.292,380.151 66.347,379.981 66.203,379.876 66.381,379.876 66.437,379.706 "
         id="polygon15258"
         style="fill:#ffffff" />
      <polygon
         transform="matrix(29.876015,0,0,29.815146,-6932.8441,-14908.626)"
         points="66.437,381.233 66.492,381.404 66.67,381.404 66.526,381.509 66.582,381.68 66.437,381.574 66.292,381.68 66.347,381.509 66.203,381.404 66.381,381.404 66.437,381.233 "
         id="polygon15260"
         style="fill:#ffffff" />
      <polygon
         transform="matrix(29.876015,0,0,29.815146,-6932.8441,-14908.626)"
         points="66.437,382.692 66.492,382.862 66.67,382.862 66.526,382.968 66.582,383.138 66.437,383.032 66.292,383.138 66.347,382.968 66.203,382.862 66.381,382.862 66.437,382.692 "
         id="polygon15262"
         style="fill:#ffffff" />
      <polygon
         transform="matrix(29.876015,0,0,29.815146,-6932.8441,-14908.626)"
         points="65.097,376.719 65.152,376.889 65.332,376.889 65.187,376.994 65.242,377.164 65.097,377.059 64.953,377.164 65.008,376.994 64.863,376.889 65.042,376.889 65.097,376.719 "
         id="polygon15264"
         style="fill:#ffffff" />
      <polygon
         transform="matrix(29.876015,0,0,29.815146,-6932.8441,-14908.626)"
         points="65.097,378.212 65.152,378.382 65.332,378.382 65.187,378.487 65.242,378.657 65.097,378.553 64.953,378.657 65.008,378.487 64.863,378.382 65.042,378.382 65.097,378.212 "
         id="polygon15266"
         style="fill:#ffffff" />
      <polygon
         transform="matrix(29.876015,0,0,29.815146,-6932.8441,-14908.626)"
         points="65.097,379.706 65.152,379.876 65.332,379.876 65.187,379.981 65.242,380.151 65.097,380.046 64.953,380.151 65.008,379.981 64.863,379.876 65.042,379.876 65.097,379.706 "
         id="polygon15268"
         style="fill:#ffffff" />
      <polygon
         transform="matrix(29.876015,0,0,29.815146,-6932.8441,-14908.626)"
         points="65.097,381.233 65.152,381.404 65.332,381.404 65.187,381.509 65.242,381.68 65.097,381.574 64.953,381.68 65.008,381.509 64.863,381.404 65.042,381.404 65.097,381.233 "
         id="polygon15270"
         style="fill:#ffffff" />
      <polygon
         transform="matrix(29.876015,0,0,29.815146,-6932.8441,-14908.626)"
         points="65.097,382.692 65.152,382.862 65.332,382.862 65.187,382.968 65.242,383.138 65.097,383.032 64.953,383.138 65.008,382.968 64.863,382.862 65.042,382.862 65.097,382.692 "
         id="polygon15272"
         style="fill:#ffffff" />
      <polygon
         transform="matrix(29.876015,0,0,29.815146,-6932.8441,-14908.626)"
         points="63.758,376.719 63.814,376.889 63.992,376.889 63.848,376.994 63.903,377.164 63.758,377.059 63.613,377.164 63.668,376.994 63.524,376.889 63.703,376.889 63.758,376.719 "
         id="polygon15274"
         style="fill:#ffffff" />
      <polygon
         transform="matrix(29.876015,0,0,29.815146,-6932.8441,-14908.626)"
         points="63.758,378.212 63.814,378.382 63.992,378.382 63.848,378.487 63.903,378.657 63.758,378.553 63.613,378.657 63.668,378.487 63.524,378.382 63.703,378.382 63.758,378.212 "
         id="polygon15276"
         style="fill:#ffffff" />
      <polygon
         transform="matrix(29.876015,0,0,29.815146,-6932.8441,-14908.626)"
         points="63.758,379.706 63.814,379.876 63.992,379.876 63.848,379.981 63.903,380.151 63.758,380.046 63.613,380.151 63.668,379.981 63.524,379.876 63.703,379.876 63.758,379.706 "
         id="polygon15278"
         style="fill:#ffffff" />
      <polygon
         transform="matrix(29.876015,0,0,29.815146,-6932.8441,-14908.626)"
         points="63.758,381.233 63.814,381.404 63.992,381.404 63.848,381.509 63.903,381.68 63.758,381.574 63.613,381.68 63.668,381.509 63.524,381.404 63.703,381.404 63.758,381.233 "
         id="polygon15280"
         style="fill:#ffffff" />
      <polygon
         transform="matrix(29.876015,0,0,29.815146,-6932.8441,-14908.626)"
         points="63.758,382.692 63.814,382.862 63.992,382.862 63.848,382.968 63.903,383.138 63.758,383.032 63.613,383.138 63.668,382.968 63.524,382.862 63.703,382.862 63.758,382.692 "
         id="polygon15282"
         style="fill:#ffffff" />
      <polygon
         transform="matrix(29.876015,0,0,29.815146,-6932.8441,-14908.626)"
         points="69.797,377.465 69.853,377.636 70.032,377.636 69.887,377.74 69.942,377.911 69.797,377.806 69.652,377.911 69.708,377.74 69.563,377.636 69.742,377.636 69.797,377.465 "
         id="polygon15284"
         style="fill:#ffffff" />
      <polygon
         transform="matrix(29.876015,0,0,29.815146,-6932.8441,-14908.626)"
         points="69.797,379.007 69.853,379.177 70.032,379.177 69.887,379.282 69.942,379.452 69.797,379.347 69.652,379.452 69.708,379.282 69.563,379.177 69.742,379.177 69.797,379.007 "
         id="polygon15286"
         style="fill:#ffffff" />
      <polygon
         transform="matrix(29.876015,0,0,29.815146,-6932.8441,-14908.626)"
         points="69.784,380.518 69.839,380.688 70.018,380.688 69.874,380.793 69.929,380.963 69.784,380.857 69.639,380.963 69.694,380.793 69.549,380.688 69.729,380.688 69.784,380.518 "
         id="polygon15288"
         style="fill:#ffffff" />
      <polygon
         transform="matrix(29.876015,0,0,29.815146,-6932.8441,-14908.626)"
         points="69.771,382.011 69.826,382.181 70.005,382.181 69.86,382.286 69.916,382.456 69.771,382.351 69.626,382.456 69.681,382.286 69.536,382.181 69.715,382.181 69.771,382.011 "
         id="polygon15290"
         style="fill:#ffffff" />
      <polygon
         transform="matrix(29.876015,0,0,29.815146,-6932.8441,-14908.626)"
         points="68.458,377.465 68.513,377.636 68.692,377.636 68.547,377.74 68.603,377.911 68.458,377.806 68.313,377.911 68.369,377.74 68.224,377.636 68.403,377.636 68.458,377.465 "
         id="polygon15292"
         style="fill:#ffffff" />
      <polygon
         transform="matrix(29.876015,0,0,29.815146,-6932.8441,-14908.626)"
         points="68.458,379.007 68.513,379.177 68.692,379.177 68.547,379.282 68.603,379.452 68.458,379.347 68.313,379.452 68.369,379.282 68.224,379.177 68.403,379.177 68.458,379.007 "
         id="polygon15294"
         style="fill:#ffffff" />
      <polygon
         transform="matrix(29.876015,0,0,29.815146,-6932.8441,-14908.626)"
         points="68.445,380.518 68.5,380.688 68.679,380.688 68.535,380.793 68.59,380.963 68.445,380.857 68.3,380.963 68.355,380.793 68.21,380.688 68.389,380.688 68.445,380.518 "
         id="polygon15296"
         style="fill:#ffffff" />
      <polygon
         transform="matrix(29.876015,0,0,29.815146,-6932.8441,-14908.626)"
         points="68.432,382.011 68.487,382.181 68.666,382.181 68.521,382.286 68.576,382.456 68.432,382.351 68.287,382.456 68.342,382.286 68.197,382.181 68.376,382.181 68.432,382.011 "
         id="polygon15298"
         style="fill:#ffffff" />
      <polygon
         transform="matrix(29.876015,0,0,29.815146,-6932.8441,-14908.626)"
         points="67.119,377.412 67.174,377.582 67.353,377.582 67.208,377.687 67.264,377.857 67.119,377.752 66.974,377.857 67.03,377.687 66.885,377.582 67.063,377.582 67.119,377.412 "
         id="polygon15300"
         style="fill:#ffffff" />
      <polygon
         transform="matrix(29.876015,0,0,29.815146,-6932.8441,-14908.626)"
         points="67.119,378.953 67.174,379.123 67.353,379.123 67.208,379.229 67.264,379.398 67.119,379.294 66.974,379.398 67.03,379.229 66.885,379.123 67.063,379.123 67.119,378.953 "
         id="polygon15302"
         style="fill:#ffffff" />
      <polygon
         transform="matrix(29.876015,0,0,29.815146,-6932.8441,-14908.626)"
         points="67.106,380.464 67.161,380.634 67.34,380.634 67.195,380.739 67.25,380.909 67.106,380.804 66.96,380.909 67.016,380.739 66.872,380.634 67.05,380.634 67.106,380.464 "
         id="polygon15304"
         style="fill:#ffffff" />
      <polygon
         transform="matrix(29.876015,0,0,29.815146,-6932.8441,-14908.626)"
         points="67.092,381.958 67.147,382.128 67.327,382.128 67.182,382.232 67.237,382.403 67.092,382.298 66.948,382.403 67.003,382.232 66.858,382.128 67.037,382.128 67.092,381.958 "
         id="polygon15306"
         style="fill:#ffffff" />
      <polygon
         transform="matrix(29.876015,0,0,29.815146,-6932.8441,-14908.626)"
         points="65.78,377.397 65.835,377.567 66.015,377.567 65.87,377.673 65.925,377.843 65.78,377.737 65.635,377.843 65.691,377.673 65.546,377.567 65.725,377.567 65.78,377.397 "
         id="polygon15308"
         style="fill:#ffffff" />
      <polygon
         transform="matrix(29.876015,0,0,29.815146,-6932.8441,-14908.626)"
         points="65.78,378.938 65.835,379.108 66.015,379.108 65.87,379.214 65.925,379.384 65.78,379.278 65.635,379.384 65.691,379.214 65.546,379.108 65.725,379.108 65.78,378.938 "
         id="polygon15310"
         style="fill:#ffffff" />
      <polygon
         transform="matrix(29.876015,0,0,29.815146,-6932.8441,-14908.626)"
         points="65.767,380.449 65.822,380.619 66.001,380.619 65.856,380.725 65.912,380.895 65.767,380.789 65.622,380.895 65.677,380.725 65.533,380.619 65.711,380.619 65.767,380.449 "
         id="polygon15312"
         style="fill:#ffffff" />
      <polygon
         transform="matrix(29.876015,0,0,29.815146,-6932.8441,-14908.626)"
         points="65.753,381.942 65.809,382.112 65.988,382.112 65.843,382.218 65.898,382.388 65.753,382.282 65.609,382.388 65.664,382.218 65.519,382.112 65.698,382.112 65.753,381.942 "
         id="polygon15314"
         style="fill:#ffffff" />
      <polygon
         transform="matrix(29.876015,0,0,29.815146,-6932.8441,-14908.626)"
         points="64.441,377.37 64.496,377.54 64.675,377.54 64.53,377.646 64.585,377.815 64.441,377.71 64.296,377.815 64.351,377.646 64.207,377.54 64.385,377.54 64.441,377.37 "
         id="polygon15316"
         style="fill:#ffffff" />
      <polygon
         transform="matrix(29.876015,0,0,29.815146,-6932.8441,-14908.626)"
         points="64.441,378.911 64.496,379.081 64.675,379.081 64.53,379.187 64.585,379.356 64.441,379.252 64.296,379.356 64.351,379.187 64.207,379.081 64.385,379.081 64.441,378.911 "
         id="polygon15318"
         style="fill:#ffffff" />
      <polygon
         transform="matrix(29.876015,0,0,29.815146,-6932.8441,-14908.626)"
         points="64.427,380.423 64.483,380.593 64.662,380.593 64.517,380.698 64.572,380.868 64.427,380.763 64.283,380.868 64.338,380.698 64.193,380.593 64.372,380.593 64.427,380.423 "
         id="polygon15320"
         style="fill:#ffffff" />
      <polygon
         transform="matrix(29.876015,0,0,29.815146,-6932.8441,-14908.626)"
         points="64.415,381.916 64.469,382.086 64.648,382.086 64.503,382.191 64.559,382.361 64.415,382.256 64.269,382.361 64.325,382.191 64.18,382.086 64.359,382.086 64.415,381.916 "
         id="polygon15322"
         style="fill:#ffffff" />
      <polygon
         transform="matrix(29.876015,0,0,29.815146,-6932.8441,-14908.626)"
         points="70.454,376.719 70.508,376.889 70.688,376.889 70.543,376.994 70.598,377.164 70.454,377.059 70.309,377.164 70.364,376.994 70.219,376.889 70.398,376.889 70.454,376.719 "
         id="polygon15324"
         style="fill:#ffffff" />
      <polygon
         transform="matrix(29.876015,0,0,29.815146,-6932.8441,-14908.626)"
         points="70.454,378.212 70.508,378.382 70.688,378.382 70.543,378.487 70.598,378.657 70.454,378.553 70.309,378.657 70.364,378.487 70.219,378.382 70.398,378.382 70.454,378.212 "
         id="polygon15326"
         style="fill:#ffffff" />
      <polygon
         transform="matrix(29.876015,0,0,29.815146,-6932.8441,-14908.626)"
         points="70.454,379.706 70.508,379.876 70.688,379.876 70.543,379.981 70.598,380.151 70.454,380.046 70.309,380.151 70.364,379.981 70.219,379.876 70.398,379.876 70.454,379.706 "
         id="polygon15328"
         style="fill:#ffffff" />
      <polygon
         transform="matrix(29.876015,0,0,29.815146,-6932.8441,-14908.626)"
         points="70.454,381.233 70.508,381.404 70.688,381.404 70.543,381.509 70.598,381.68 70.454,381.574 70.309,381.68 70.364,381.509 70.219,381.404 70.398,381.404 70.454,381.233 "
         id="polygon15330"
         style="fill:#ffffff" />
      <polygon
         transform="matrix(29.876015,0,0,29.815146,-6932.8441,-14908.626)"
         points="70.454,382.692 70.508,382.862 70.688,382.862 70.543,382.968 70.598,383.138 70.454,383.032 70.309,383.138 70.364,382.968 70.219,382.862 70.398,382.862 70.454,382.692 "
         id="polygon15332"
         style="fill:#ffffff" />
    </g>
  </g>
</svg>
