<?xml version="1.0" encoding="UTF-8" standalone="no"?>
<!-- Created with Inkscape (http://www.inkscape.org/) -->

<svg
   xmlns:dc="http://purl.org/dc/elements/1.1/"
   xmlns:cc="http://creativecommons.org/ns#"
   xmlns:rdf="http://www.w3.org/1999/02/22-rdf-syntax-ns#"
   xmlns:svg="http://www.w3.org/2000/svg"
   xmlns="http://www.w3.org/2000/svg"
   xmlns:sodipodi="http://sodipodi.sourceforge.net/DTD/sodipodi-0.dtd"
   xmlns:inkscape="http://www.inkscape.org/namespaces/inkscape"
   version="1.1"
   id="svg2"
   xml:space="preserve"
   width="63.582996"
   height="102.61115"
   viewBox="0 0 63.582997 102.61114"
   sodipodi:docname="flecha.svg"
   inkscape:version="0.92+devel unknown"><metadata
     id="metadata8"><rdf:RDF><cc:Work
         rdf:about=""><dc:format>image/svg+xml</dc:format><dc:type
           rdf:resource="http://purl.org/dc/dcmitype/StillImage" /><dc:title></dc:title></cc:Work></rdf:RDF></metadata><defs
     id="defs6"><clipPath
       clipPathUnits="userSpaceOnUse"
       id="clipPath202"><path
         d="m 5637.88,4538.24 c -131.71,0.01 -254.19,84.79 -216.26,230.77 27.99,132.12 147.43,193.09 260.76,193.09 133.88,0 259.24,-85.1 215.22,-238.56 -36.71,-127.92 -151.33,-185.31 -259.72,-185.3"
         id="path200"
         inkscape:connector-curvature="0" /></clipPath><clipPath
       clipPathUnits="userSpaceOnUse"
       id="clipPath214"><path
         d="m 4500.63,4743.05 c -8.41,0 -16.89,0.37 -25.39,1.11 -183.05,207.72 -133.92,338.49 -63.15,435.05 3.1,0.1 6.19,0.15 9.31,0.15 130.04,0 276.28,-87.43 277.81,-246.94 7.03,-127.65 -90.17,-189.38 -198.58,-189.37"
         id="path212"
         inkscape:connector-curvature="0" /></clipPath><clipPath
       id="clipPath778"
       clipPathUnits="userSpaceOnUse"><path
         inkscape:connector-curvature="0"
         id="path776"
         d="m 275.923,275.562 h 49.658 v -54.096 h -49.658 z" /></clipPath><clipPath
       id="clipPath858"
       clipPathUnits="userSpaceOnUse"><path
         inkscape:connector-curvature="0"
         id="path856"
         d="m 304.667,267.648 h 5.02 V 250.36 h -5.02 z" /></clipPath><clipPath
       id="clipPath878"
       clipPathUnits="userSpaceOnUse"><path
         inkscape:connector-curvature="0"
         id="path876"
         d="m 295.217,270.049 h 15.984 v -19.065 h -15.984 z" /></clipPath><clipPath
       id="clipPath898"
       clipPathUnits="userSpaceOnUse"><path
         inkscape:connector-curvature="0"
         id="path896"
         d="M 86.8643,271.213 H 150.99 V 218.717 H 86.8643 Z" /></clipPath><clipPath
       id="clipPath930"
       clipPathUnits="userSpaceOnUse"><path
         inkscape:connector-curvature="0"
         id="path928"
         d="m 145.804,265.975 h 59.36 v -51.634 h -59.36 z" /></clipPath><clipPath
       id="clipPath950"
       clipPathUnits="userSpaceOnUse"><path
         inkscape:connector-curvature="0"
         id="path948"
         d="m 248.057,94.8346 h 31.095 V 69.6378 h -31.095 z" /></clipPath><clipPath
       id="clipPath970"
       clipPathUnits="userSpaceOnUse"><path
         inkscape:connector-curvature="0"
         id="path968"
         d="m 223.242,151.277 h 47.77 V 86.3225 h -47.77 z" /></clipPath><clipPath
       id="clipPath990"
       clipPathUnits="userSpaceOnUse"><path
         inkscape:connector-curvature="0"
         id="path988"
         d="m 175.374,94.8338 h 42.15 V 71.0525 h -42.15 z" /></clipPath><clipPath
       id="clipPath1010"
       clipPathUnits="userSpaceOnUse"><path
         inkscape:connector-curvature="0"
         id="path1008"
         d="M 173.308,155.667 H 213.04 V 87.7581 h -39.732 z" /></clipPath><clipPath
       id="clipPath1030"
       clipPathUnits="userSpaceOnUse"><path
         inkscape:connector-curvature="0"
         id="path1028"
         d="M 167.9,190.132 H 270.067 V 129.528 H 167.9 Z" /></clipPath><clipPath
       id="clipPath1050"
       clipPathUnits="userSpaceOnUse"><path
         inkscape:connector-curvature="0"
         id="path1048"
         d="M 164.629,269.524 H 284.637 V 168.563 H 164.629 Z" /></clipPath><clipPath
       id="clipPath1138"
       clipPathUnits="userSpaceOnUse"><path
         inkscape:connector-curvature="0"
         id="path1136"
         d="M 163.783,364.723 H 272.869 V 249.039 H 163.783 Z" /></clipPath><clipPath
       id="clipPath1158"
       clipPathUnits="userSpaceOnUse"><path
         inkscape:connector-curvature="0"
         id="path1156"
         d="M 127.518,404.473 H 298.484 V 296.247 H 127.518 Z" /></clipPath><clipPath
       id="clipPath1182"
       clipPathUnits="userSpaceOnUse"><path
         inkscape:connector-curvature="0"
         id="path1180"
         d="m 250.895,386.274 h 14.987 v -38.709 h -14.987 z" /></clipPath><clipPath
       id="clipPath1214"
       clipPathUnits="userSpaceOnUse"><path
         inkscape:connector-curvature="0"
         id="path1212"
         d="m 211.695,296.399 h 32.894 v -6.532 h -32.894 z" /></clipPath><clipPath
       id="clipPath1242"
       clipPathUnits="userSpaceOnUse"><path
         inkscape:connector-curvature="0"
         id="path1240"
         d="m 163.601,303.005 h 21.311 v -9.663 h -21.311 z" /></clipPath><clipPath
       id="clipPath1262"
       clipPathUnits="userSpaceOnUse"><path
         inkscape:connector-curvature="0"
         id="path1260"
         d="m 206.212,326.04 h 44.747 v -45.387 h -44.747 z" /></clipPath><clipPath
       id="clipPath1282"
       clipPathUnits="userSpaceOnUse"><path
         inkscape:connector-curvature="0"
         id="path1280"
         d="m 151.792,332.851 h 44.747 v -45.387 h -44.747 z" /></clipPath><clipPath
       id="clipPath1306"
       clipPathUnits="userSpaceOnUse"><path
         inkscape:connector-curvature="0"
         id="path1304"
         d="m 267.704,297.303 h 16.931 v -14.786 h -16.931 z" /></clipPath><clipPath
       id="clipPath1322"
       clipPathUnits="userSpaceOnUse"><path
         inkscape:connector-curvature="0"
         id="path1320"
         d="m 178.91,275.562 h 54.166 V 249.375 H 178.91 Z" /></clipPath></defs><sodipodi:namedview
     pagecolor="#ffffff"
     bordercolor="#666666"
     inkscape:document-rotation="0"
     borderopacity="1"
     objecttolerance="10"
     gridtolerance="10"
     guidetolerance="10"
     inkscape:pageopacity="0"
     inkscape:pageshadow="2"
     inkscape:window-width="1920"
     inkscape:window-height="1011"
     id="namedview4"
     showgrid="false"
     fit-margin-top="0"
     fit-margin-left="0"
     fit-margin-right="0"
     fit-margin-bottom="0"
     inkscape:zoom="0.68836843"
     inkscape:cx="-23.033693"
     inkscape:cy="-45.824043"
     inkscape:window-x="0"
     inkscape:window-y="36"
     inkscape:window-maximized="1"
     inkscape:current-layer="g10" /><g
     id="g10"
     inkscape:groupmode="layer"
     inkscape:label="ink_ext_XXXXXX"
     transform="matrix(1.3333333,0,0,-1.3333333,743.39007,798.86261)"><g
       id="g4485"
       transform="matrix(0,-1.168447,1.8715558,0,-739.50676,685.22853)"
       style="fill:#ff0000"><path
         d="m 73.671769,97.226167 12.7403,12.740203 -12.7403,12.7398 h 21.0301 L 107.44207,109.96637 94.701869,97.226167 h -21.0301"
         style="fill:#ff0000;fill-opacity:1;fill-rule:nonzero;stroke:none;stroke-width:0.1"
         id="path52"
         inkscape:connector-curvature="0" /><path
         d="m 102.07417,97.226167 12.7414,12.740203 -12.7414,12.7398 h 9.1308 l 12.7403,-12.7398 -12.7403,-12.740203 h -9.1308"
         style="fill:#ff0000;fill-opacity:1;fill-rule:nonzero;stroke:none;stroke-width:0.1"
         id="path54"
         inkscape:connector-curvature="0" /><path
         d="m 117.66397,97.226167 12.7406,12.740203 -12.7406,12.7398 h 9.1297 l 12.7419,-12.7398 -12.7419,-12.740203 h -9.1297"
         style="fill:#ff0000;fill-opacity:1;fill-rule:nonzero;stroke:none;stroke-width:0.1"
         id="path56"
         inkscape:connector-curvature="0" /></g></g></svg>