<?xml version="1.0" encoding="UTF-8" standalone="no"?>
<!-- Created with Inkscape (http://www.inkscape.org/) -->

<svg
   xmlns:dc="http://purl.org/dc/elements/1.1/"
   xmlns:cc="http://creativecommons.org/ns#"
   xmlns:rdf="http://www.w3.org/1999/02/22-rdf-syntax-ns#"
   xmlns:svg="http://www.w3.org/2000/svg"
   xmlns="http://www.w3.org/2000/svg"
   xmlns:sodipodi="http://sodipodi.sourceforge.net/DTD/sodipodi-0.dtd"
   xmlns:inkscape="http://www.inkscape.org/namespaces/inkscape"
   version="1.1"
   id="svg2"
   xml:space="preserve"
   width="402.61368"
   height="308.11105"
   viewBox="0 0 402.61368 308.11105"
   sodipodi:docname="vaca.svg"
   inkscape:version="0.92+devel unknown"><metadata
     id="metadata8"><rdf:RDF><cc:Work
         rdf:about=""><dc:format>image/svg+xml</dc:format><dc:type
           rdf:resource="http://purl.org/dc/dcmitype/StillImage" /><dc:title></dc:title></cc:Work></rdf:RDF></metadata><defs
     id="defs6"><clipPath
       clipPathUnits="userSpaceOnUse"
       id="clipPath188"><path
         d="m 2145.52,6484.39 c 0,0 -386.63,-156.04 -542.99,-206.62 -156.36,-50.58 -710.323,139.38 -862.217,80.14 -151.891,-59.24 -196.567,-557.36 -156.36,-833.23 40.207,-275.86 254.645,-459.03 482.487,-463.5 227.84,-4.46 571.83,93.82 571.83,93.82 0,0 511.54,-116.15 680.18,460.15 168.64,576.3 70.73,920.94 -172.93,869.24 z"
         id="path186"
         inkscape:connector-curvature="0" /></clipPath><clipPath
       clipPathUnits="userSpaceOnUse"
       id="clipPath224"><path
         d="m 1995.67,6602.46 c 0,0 -17.83,24.57 -41.31,0 -23.47,-24.58 0,-35.75 0,-35.75 0,0 -5.6,-51.37 41.31,-62.54 0,0 -11.17,-46.91 17.87,-75.95 29.04,-29.03 55.84,-136.25 75.95,-194.33 20.1,-58.08 62.54,-265.81 71.48,-285.92 8.93,-20.1 612.04,151.9 623.21,205.51 11.16,53.61 -22.34,129.55 -60.31,192.1 -37.98,62.54 -136.26,218.4 -160.83,267.8 0,0 28.86,41.76 -2.24,58.32 0,0 20.11,18.3 -8.93,25.9 0,0 31.27,29.94 15.63,47.81 -15.63,17.88 -84.88,8.94 -100.51,0 -15.64,-8.93 -131.79,49.68 -232.31,10.32 -100.52,-39.35 -199.49,-95.21 -239.01,-153.27 z"
         id="path222"
         inkscape:connector-curvature="0" /></clipPath><clipPath
       clipPathUnits="userSpaceOnUse"
       id="clipPath248"><path
         d="m 2180.32,6828.8 c -109.94,-36.64 -107.21,-74.45 -169.76,-95.3 -62.54,-20.85 -86.37,-86.37 0,-86.37 0,0 -80.41,-80.42 -11.91,-122.11 68.5,-41.7 169.76,23.83 181.67,151.89 0,0 35.74,-142.96 128.07,-110.2 92.33,32.77 23.83,142.97 23.83,142.97 0,0 134.02,-119.73 187.63,-39.02 53.61,80.71 -26.8,119.43 -110.2,110.49 0,0 110.2,17.87 68.31,85.9 -29.63,48.12 -108.16,-30.09 -161.77,-30.09 -53.61,0 -46.52,21.63 -135.87,-8.16 z"
         id="path246"
         inkscape:connector-curvature="0" /></clipPath><clipPath
       clipPathUnits="userSpaceOnUse"
       id="clipPath260"><path
         d="m 2422.31,6253.99 c 206.83,62.82 495.89,24.57 598.64,-147.42 102.75,-172 20.1,-444.51 -279.22,-560.67 -299.31,-116.15 -527.16,22.34 -598.63,187.63 -71.48,165.3 -22.34,428.88 279.21,520.46 z"
         id="path258"
         inkscape:connector-curvature="0" /></clipPath><clipPath
       clipPathUnits="userSpaceOnUse"
       id="clipPath380"><path
         d="m 6117.66,6673.38 c 0,0 139.5,-14.93 252.9,-185.32 113.4,-170.38 119.45,-295.31 264.76,-305.5 145.31,-10.19 411.71,211.14 30.27,506.13 0,0 -41.62,-85.69 -132.44,-17.58 -90.82,68.11 -70.77,108.98 -43.33,118.06 27.44,9.08 95.55,-38.6 95.55,-38.6 0,0 -52.22,183.91 54.49,222.51 106.71,38.6 70.38,-131.69 70.38,-131.69 0,0 84.01,118.07 133.96,65.85 49.95,-52.22 -90.82,-186.18 -90.82,-186.18 0,0 338.3,-301.19 124.88,-538.84 -213.43,-237.65 -486.34,-44.78 -570.12,107.4 -83.77,152.17 -190.48,383.76 -190.48,383.76 z"
         id="path378"
         inkscape:connector-curvature="0" /></clipPath><clipPath
       clipPathUnits="userSpaceOnUse"
       id="clipPath402"><path
         d="m 4611.65,6706.37 c 0,0 443.44,1.21 602.37,0 158.93,-1.2 544.91,-97.3 613.02,-87.85 68.11,9.45 186.18,73.02 290.62,54.86 104.44,-18.17 304.24,-401.05 240.66,-863.49 -63.57,-462.45 -286.07,-285.36 -431.38,-312.6 -145.31,-27.25 -376.9,-60.4 -535.83,-168.7 -158.93,-108.3 -719.16,-140.28 -879.51,23.29 -160.35,163.57 -146.85,788.42 -106.01,1001.38 40.83,212.96 116.8,352.9 206.06,353.11 z"
         id="path400"
         inkscape:connector-curvature="0" /></clipPath><clipPath
       clipPathUnits="userSpaceOnUse"
       id="clipPath422"><path
         d="m 4221.54,6720.65 c 0,0 -105.75,69.1 -133.95,26.8 -28.2,-42.3 21.15,-91.65 21.15,-91.65 0,0 -72.15,-88.12 41.47,-162.14 0,0 9.75,-345.44 0,-415.94 0,0 -175.42,-123.37 -189.52,-232.64 -14.09,-109.27 172.72,-210.32 408.89,-237.34 81.67,-9.35 393.98,-7.95 419.46,207.99 15.55,131.83 -84.6,195.02 -84.6,195.02 0,0 200.92,432.55 229.12,505.32 0,0 59.92,30.46 74.02,74.52 14.1,44.06 -35.25,68.73 -35.25,68.73 0,0 21.15,66.98 0,81.07 -21.15,14.11 -158.62,-18.34 -169.19,-19.74 -10.58,-1.4 -422.99,93.05 -581.6,0 z"
         id="path420"
         inkscape:connector-curvature="0" /></clipPath><clipPath
       clipPathUnits="userSpaceOnUse"
       id="clipPath588"><path
         d="m 6209.22,2972.38 c 0,0 -386.62,-156.04 -542.98,-206.62 -156.36,-50.58 -710.32,139.38 -862.22,80.14 -151.89,-59.24 -196.57,-557.36 -156.36,-833.23 40.21,-275.87 254.65,-459.03 482.49,-463.5 227.84,-4.47 571.83,93.82 571.83,93.82 0,0 511.54,-116.16 680.18,460.14 168.64,576.31 70.73,920.94 -172.94,869.25 z"
         id="path586"
         inkscape:connector-curvature="0" /></clipPath><clipPath
       clipPathUnits="userSpaceOnUse"
       id="clipPath616"><path
         d="m 6062.88,3001.7 c 0,0 -17.83,24.58 -41.3,0 -23.47,-24.57 0,-35.74 0,-35.74 0,0 -5.6,-51.37 41.3,-62.54 0,0 -11.16,-46.91 17.87,-75.95 29.04,-29.04 55.85,-136.25 75.95,-194.33 20.1,-58.08 62.55,-265.81 71.48,-285.92 8.94,-20.1 612.04,151.9 623.21,205.5 11.17,53.61 -22.34,129.56 -60.31,192.11 -37.97,62.54 -136.26,218.4 -160.83,267.79 0,0 28.86,41.76 -2.23,58.33 0,0 20.1,18.3 -8.94,25.9 0,0 31.28,29.94 15.64,47.81 -15.64,17.87 -84.88,8.94 -100.52,0 -15.63,-8.93 -131.79,49.68 -232.31,10.32 -100.51,-39.36 -199.48,-95.21 -239.01,-153.28 z"
         id="path614"
         inkscape:connector-curvature="0" /></clipPath><clipPath
       clipPathUnits="userSpaceOnUse"
       id="clipPath632"><path
         d="M 0,0 H 7130 V 7301 H 0 Z"
         id="path630"
         inkscape:connector-curvature="0" /></clipPath><clipPath
       clipPathUnits="userSpaceOnUse"
       id="clipPath638"><path
         d="m 6489.53,2653.24 c 206.82,62.82 495.88,24.57 598.64,-147.42 102.75,-172 20.1,-444.52 -279.22,-560.67 -299.32,-116.15 -527.16,22.34 -598.64,187.63 -71.48,165.3 -22.34,428.88 279.22,520.46 z"
         id="path636"
         inkscape:connector-curvature="0" /></clipPath><clipPath
       clipPathUnits="userSpaceOnUse"
       id="clipPath662"><path
         d="m 6247.54,3228.06 c -109.94,-36.65 -107.22,-74.46 -169.76,-95.31 -62.55,-20.85 -86.37,-86.37 0,-86.37 0,0 -80.42,-80.42 -11.92,-122.11 68.5,-41.7 169.77,23.82 181.68,151.89 0,0 35.74,-142.96 128.07,-110.2 92.32,32.77 23.82,142.96 23.82,142.96 0,0 134.03,-119.73 187.64,-39.01 53.61,80.71 -26.81,119.43 -110.2,110.49 0,0 110.2,17.87 68.31,85.9 -29.63,48.12 -108.17,-30.09 -161.78,-30.09 -53.61,0 -46.51,21.63 -135.86,-8.15 z"
         id="path660"
         inkscape:connector-curvature="0" /></clipPath><clipPath
       clipPathUnits="userSpaceOnUse"
       id="clipPath714"><path
         d="m 5210.57,1840.25 c 0,0 -125.33,-33.38 -166.98,-55.12 -41.65,-21.74 -115.59,-48.15 -247.63,-52.11 -132.05,-3.97 -217.87,91.1 -291.15,84.5 -73.29,-6.6 -131.02,-62.14 -181.38,-161.13 -50.36,-98.99 14.58,-254.77 159.05,-318.16 144.46,-63.4 284.92,-5.3 374.46,10.55 89.54,15.84 263.84,-30.63 353.63,127.29 89.78,157.91 160.43,204.84 116.19,256.95 -44.23,52.11 -59.3,123.36 -116.19,107.23 z"
         id="path712"
         inkscape:connector-curvature="0" /></clipPath><clipPath
       clipPathUnits="userSpaceOnUse"
       id="clipPath730"><path
         d="m 5196.54,1586.9 c 0,0 -150.63,160.15 -139.76,224.53 10.87,64.38 292.01,169.14 332.44,159.4 40.43,-9.74 101.53,-270.97 101.53,-270.97 0,0 -51.76,-64.22 -117.73,-100.7 -65.98,-36.47 -137.37,-56.72 -176.48,-12.26 z"
         id="path728"
         inkscape:connector-curvature="0" /></clipPath><clipPath
       clipPathUnits="userSpaceOnUse"
       id="clipPath748"><path
         d="m 5345.97,1677.1 c -84.38,-36.32 -173.1,-92.05 -191.82,-185.04 -21.12,-104.95 133.24,-197.9 325.04,-134.25 191.79,63.64 211.35,196.55 168.65,275.06 -42.7,78.5 -129.29,118.53 -301.87,44.23 z"
         id="path746"
         inkscape:connector-curvature="0" /></clipPath><clipPath
       clipPathUnits="userSpaceOnUse"
       id="clipPath786"><path
         d="m 4504.81,1817.52 c 0,0 -127.97,-7.63 -220.79,-65.21 -92.82,-57.59 -209.46,-118.74 -264.03,30.68 0,0 80.42,90.3 40.49,125.64 -39.93,35.34 -80.95,-77.1 -84.05,-95.99 0,0 -42.71,143.53 -94.2,119.76 -51.5,-23.77 63.38,-138.47 63.38,-138.47 0,0 -93.9,-13.68 -76.66,-40.6 17.24,-26.92 107.48,-7.73 107.48,-7.73 0,0 95.17,-151.1 239.84,-88.42 144.67,62.69 192.8,58.77 192.8,58.77 0,0 203.36,42.15 95.74,101.57 z"
         id="path784"
         inkscape:connector-curvature="0" /></clipPath><clipPath
       clipPathUnits="userSpaceOnUse"
       id="clipPath914"><path
         d="m 1033.92,2952.9 c 0,0 391.4,-143.64 549.3,-189.21 157.89,-45.58 705.52,161.94 859.22,107.57 153.71,-54.37 214.23,-550.81 182.84,-827.82 -31.4,-277.01 -239.89,-466.91 -467.47,-478.64 -227.58,-11.72 -574.54,75.55 -574.54,75.55 0,0 -507.57,-132.4 -694.493,438.24 -186.918,570.63 -100.039,918.21 145.143,874.31 z"
         id="path912"
         inkscape:connector-curvature="0" /></clipPath><clipPath
       clipPathUnits="userSpaceOnUse"
       id="clipPath946"><path
         d="m 1046.17,3102.48 c 0,0 17.04,25.12 41.29,1.31 24.24,-23.81 1.14,-35.72 1.14,-35.72 0,0 7.24,-51.17 -39.29,-63.83 0,0 12.65,-46.53 -15.44,-76.48 -28.1,-29.95 -51.475,-137.96 -69.718,-196.65 -18.246,-58.69 -54.043,-267.67 -62.332,-288.05 -8.289,-20.38 -616.574,132.31 -629.441,185.54 -12.875,53.22 18.195,130.2 54.156,193.92 35.961,63.72 129.227,222.64 152.211,272.79 0,0 -30.18,40.82 0.375,58.37 0,0 -20.676,17.65 8.106,26.17 0,0 11.425,40.58 26.488,58.94 15.055,18.36 40.914,-0.02 56.828,-8.45 15.91,-8.43 130.141,53.85 231.859,17.72 101.719,-36.14 202.418,-88.81 243.768,-145.58 z"
         id="path944"
         inkscape:connector-curvature="0" /></clipPath><clipPath
       clipPathUnits="userSpaceOnUse"
       id="clipPath960"><path
         d="M 630.855,2740.59 C 422.133,2796.79 134.434,2749.35 37.2188,2574.17 -60,2398.98 31.2891,2129.24 334.156,2022.68 c 302.871,-106.55 526.184,39.13 592.36,206.62 66.172,167.49 8.656,429.37 -295.661,511.29 z"
         id="path958"
         inkscape:connector-curvature="0" /></clipPath></defs><sodipodi:namedview
     pagecolor="#ffffff"
     bordercolor="#666666"
     inkscape:document-rotation="0"
     borderopacity="1"
     objecttolerance="10"
     gridtolerance="10"
     guidetolerance="10"
     inkscape:pageopacity="0"
     inkscape:pageshadow="2"
     inkscape:window-width="1366"
     inkscape:window-height="699"
     id="namedview4"
     showgrid="false"
     fit-margin-top="0"
     fit-margin-left="0"
     fit-margin-right="0"
     fit-margin-bottom="0"
     inkscape:zoom="0.74527617"
     inkscape:cx="142.34678"
     inkscape:cy="58.046644"
     inkscape:window-x="0"
     inkscape:window-y="36"
     inkscape:window-maximized="1"
     inkscape:current-layer="g10" /><g
     id="g10"
     inkscape:groupmode="layer"
     inkscape:label="ink_ext_XXXXXX"
     transform="matrix(1.3333333,0,0,-1.3333333,-5.7883732,920.23598)"><g
       id="g1525"
       inkscape:export-xdpi="96"
       inkscape:export-ydpi="96"><path
         d="m 97.1809,592.921 c -2.1516,-0.536 -4.0399,-1.462 -5.6993,-2.671 9.6064,-2.855 16.9224,-10.258 15.7584,-19.724 0,0 -8.3396,-34.476 -8.9353,-42.517 -0.4324,-5.836 -4.7867,-12.29 -9.1918,-16.876 -1.4926,-4.04 -1.6395,-6.951 2.5988,-11.068 3.5852,-3.482 6.2309,-15.292 7.5649,-22.545 4.6864,-0.141 10.3844,0.039 14.9344,2.134 -3.21,11.703 -8.969,29.456 -8.969,29.456 5.414,3.796 13.584,12.916 14.292,20.948 0.708,8.032 9.529,42.388 9.529,42.388 1.99,14.495 -16.04,24.424 -31.8821,20.475"
         style="fill:#efeded;fill-opacity:1;fill-rule:nonzero;stroke:none;stroke-width:0.1"
         id="path150"
         inkscape:connector-curvature="0" /><path
         d="m 99.2766,477.52 c 0.6343,-3.448 0.9734,-5.871 0.9734,-5.871 8.88,-3.996 15.932,-0.223 15.932,-0.223 -0.283,1.783 -1.015,4.739 -1.971,8.228 -4.55,-2.095 -10.248,-2.275 -14.9344,-2.134"
         style="fill:#1f1718;fill-opacity:1;fill-rule:nonzero;stroke:none;stroke-width:0.1"
         id="path152"
         inkscape:connector-curvature="0" /><path
         d="m 195.874,475.975 c -0.283,-4.892 -0.525,-8.198 -0.525,-8.198 6.253,-3.295 17.291,-0.217 17.291,-0.217 l -1.959,9.867 c -4.638,-1.123 -10.29,-2.524 -14.807,-1.452"
         style="fill:#1f1718;fill-opacity:1;fill-rule:nonzero;stroke:none;stroke-width:0.1"
         id="path154"
         inkscape:connector-curvature="0" /><path
         d="m 229.944,556.846 c 0,0 1.039,3.818 -15.413,5.092 -16.453,1.275 -34.794,-19.123 -31.546,-23.528 3.248,-4.406 8.934,-17.985 12.314,-22.396 2.457,-3.206 1.415,-27.465 0.662,-40.48 4.517,-1.072 10.169,0.329 14.807,1.452 l -0.087,0.441 c 0.273,15.231 19.222,78.751 19.263,79.419"
         style="fill:#ffffff;fill-opacity:1;fill-rule:nonzero;stroke:none;stroke-width:0.1"
         id="path156"
         inkscape:connector-curvature="0" /><path
         d="m 95.3262,522.771 c 0,0 -6.5524,-17.695 2.3828,-29.013 8.935,-11.317 26.805,-11.615 36.931,-3.276 10.126,8.339 8.332,25.018 -2.535,33.953 -10.867,8.935 -31.12,5.012 -36.7788,-1.664"
         style="fill:#e7bd81;fill-opacity:1;fill-rule:nonzero;stroke:none;stroke-width:0.1"
         id="path158"
         inkscape:connector-curvature="0" /><path
         d="m 134.044,496.588 c 0,0 13.254,-9.68 9.978,-13.432 -4.653,-5.329 -10.038,6.615 -10.871,8.666 -1.936,4.766 0.893,4.766 0.893,4.766"
         style="fill:#e7bd81;fill-opacity:1;fill-rule:nonzero;stroke:none;stroke-width:0.1"
         id="path160"
         inkscape:connector-curvature="0" /><path
         d="m 124.216,489.291 c 0,0 8.257,-11.616 2.234,-13.7 -4.417,-1.529 -5.361,6.701 -5.51,12.657 -0.149,5.957 2.176,3.176 3.276,1.043"
         style="fill:#e7bd81;fill-opacity:1;fill-rule:nonzero;stroke:none;stroke-width:0.1"
         id="path162"
         inkscape:connector-curvature="0" /><path
         d="m 110.368,491.213 c 0.202,2.392 -11.0196,-6.269 -10.8707,-11.332 0.1492,-5.063 9.8287,-1.013 10.8707,11.332"
         style="fill:#e7bd81;fill-opacity:1;fill-rule:nonzero;stroke:none;stroke-width:0.1"
         id="path164"
         inkscape:connector-curvature="0" /><path
         d="m 100.386,496.988 c -0.7442,1.638 -11.168,-2.8 -11.168,-7.431 0,-4.631 9.8281,1.326 11.168,4.602 1.341,3.276 0,2.829 0,2.829"
         style="fill:#e7bd81;fill-opacity:1;fill-rule:nonzero;stroke:none;stroke-width:0.1"
         id="path166"
         inkscape:connector-curvature="0" /><path
         d="m 139.965,484.331 c -0.013,0.004 -0.022,0.013 -0.035,0.017 -0.091,0.021 -0.118,0.025 0.035,-0.017"
         style="fill:#fccfa5;fill-opacity:1;fill-rule:nonzero;stroke:none;stroke-width:0.1"
         id="path178"
         inkscape:connector-curvature="0" /><path
         d="m 214.552,648.439 c 0,0 -38.663,-15.604 -54.299,-20.662 -15.636,-5.058 -71.0323,13.938 -86.2217,8.014 -15.1891,-5.924 -19.6567,-55.736 -15.636,-83.323 4.0207,-27.586 25.4645,-45.903 48.2487,-46.35 22.784,-0.446 57.183,9.382 57.183,9.382 0,0 51.154,-11.615 68.018,46.015 16.864,57.63 7.073,92.094 -17.293,86.924"
         style="fill:#ffffff;fill-opacity:1;fill-rule:nonzero;stroke:none;stroke-width:0.1"
         id="path180"
         inkscape:connector-curvature="0" /><g
         transform="scale(0.1)"
         id="g182"><g
           id="g184"
           clip-path="url(#clipPath188)"><path
             d="m 1394.05,6357.91 c -185.42,12.21 -238.26,-11.44 -276.98,-75.55 -38.72,-64.11 -89.35,-64.11 -139.98,-84.95 -50.633,-20.85 -86.371,-122.11 0,-217.42 86.37,-95.31 187.63,-131.05 211.46,-181.68 23.83,-50.63 80.41,-160.6 190.61,-104.13 110.2,56.48 128.07,173.67 208.48,198.47 80.42,24.8 169.77,137.97 110.2,236.25 -59.57,98.29 -147.45,218.72 -303.79,229.01"
             style="fill:#1f1718;fill-opacity:1;fill-rule:nonzero;stroke:none"
             id="path190"
             inkscape:connector-curvature="0" /><path
             d="m 1548.92,5625.57 c -45.06,6.01 2.98,171.13 107.22,210.65 104.24,39.53 163.81,-73.4 131.05,-133.09 -32.76,-59.69 -79.7,-59.69 -121.75,-62.67 -42.06,-2.98 -71.84,-20.85 -116.52,-14.89"
             style="fill:#1f1718;fill-opacity:1;fill-rule:nonzero;stroke:none"
             id="path192"
             inkscape:connector-curvature="0" /><path
             d="m 570.93,5970.79 c 0,0 -13.047,-311.15 160.449,-467.85 173.496,-156.71 297.951,-192.83 430.441,-186.41 132.5,6.42 369.23,61.84 384.13,79.71 14.89,17.87 243.8,17.05 347.72,-29.78 103.92,-46.83 321.91,56.81 403.62,184.87 81.72,128.06 -18.52,-358.54 -504.17,-515.46 -485.64,-156.92 -1064.944,-105.06 -1222.19,122.11 -157.242,227.17 -130.211,732.07 0,812.81"
             style="fill:#ffffff;fill-opacity:1;fill-rule:nonzero;stroke:none"
             id="path194"
             inkscape:connector-curvature="0" /><path
             d="m 2002.35,5202.34 c 0,0 168.27,51.44 265.53,279.03 0,0 -84.62,-162.44 -265.53,-279.03"
             style="fill:#c2c2bf;fill-opacity:1;fill-rule:nonzero;stroke:none"
             id="path196"
             inkscape:connector-curvature="0" /></g></g><path
         d="m 209.395,637.802 c 0,0 -15.002,-40.101 4.021,-57.971 l 6.478,26.805 -10.499,31.166"
         style="fill:#ed202c;fill-opacity:1;fill-rule:nonzero;stroke:none;stroke-width:0.1"
         id="path198"
         inkscape:connector-curvature="0" /><path
         d="m 211.835,602.932 c 0,0 -3.773,16.131 -4.672,20.085 0,0 -5.155,-20.7 2.336,-35.144 0,0 -0.865,9.232 2.336,15.059"
         style="fill:#f25438;fill-opacity:1;fill-rule:nonzero;stroke:none;stroke-width:0.1"
         id="path200"
         inkscape:connector-curvature="0" /><path
         d="m 228.159,535.518 c 0,0 -6.255,-11.307 0,-12.647 6.254,-1.34 9.381,11.222 0,12.647"
         style="fill:#ebd128;fill-opacity:1;fill-rule:nonzero;stroke:none;stroke-width:0.1"
         id="path202"
         inkscape:connector-curvature="0" /><path
         d="m 226.148,570.896 c -5.361,-0.67 -10.275,-31.495 -9.158,-34.846 0,0 4.467,-3.797 9.158,-3.574 4.691,0.224 18.54,5.808 20.104,7.372 1.563,1.563 -8.306,29.261 -9.738,31.048 -1.431,1.787 -10.366,0 -10.366,0"
         style="fill:#eeae1d;fill-opacity:1;fill-rule:nonzero;stroke:none;stroke-width:0.1"
         id="path204"
         inkscape:connector-curvature="0" /><path
         d="m 225.925,535.827 c 0,0 0.223,29.708 1.564,33.282 0,0 4.526,0.695 7.371,0 0,0 9.575,-23.486 9.828,-26.804 0.253,-3.319 -12.509,-8.042 -18.763,-6.478"
         style="fill:#ebd128;fill-opacity:1;fill-rule:nonzero;stroke:none;stroke-width:0.1"
         id="path206"
         inkscape:connector-curvature="0" /><path
         d="m 196.023,659.088 c 0,0 -17.305,-10.24 -28.408,0.962 0,0 4.03,-30.183 37.09,-19.461 0,0 2.44,20.565 -8.682,18.499"
         style="fill:#fabb8a;fill-opacity:1;fill-rule:nonzero;stroke:none;stroke-width:0.1"
         id="path208"
         inkscape:connector-curvature="0" /><path
         d="m 193.164,656.076 c 0,0 -14.445,-7.446 -23.38,0 0,0 7.148,-15.636 27.102,-12.509 0,0 -1.638,3.468 0,5.382 0,0 -4.648,5.11 -3.722,7.127"
         style="fill:#fabb8a;fill-opacity:1;fill-rule:nonzero;stroke:none;stroke-width:0.1"
         id="path210"
         inkscape:connector-curvature="0" /><path
         d="m 253.183,674.109 c 0,0 20.097,0.656 23.448,16.068 0,0 10.838,-27.192 -17.03,-34.705 0,0 -16.91,14.408 -6.418,18.637"
         style="fill:#fabb8a;fill-opacity:1;fill-rule:nonzero;stroke:none;stroke-width:0.1"
         id="path212"
         inkscape:connector-curvature="0" /><path
         d="m 258.857,672.825 c 0,0 11.296,1.419 16.955,12.885 0,0 4.169,-14.892 -14.42,-23.231 0,0 -0.578,3.574 -2.535,4.766 0,0 1.765,1.755 -0.469,2.515 0,0 1.279,1.137 0.469,3.065"
         style="fill:#fabb8a;fill-opacity:1;fill-rule:nonzero;stroke:none;stroke-width:0.1"
         id="path214"
         inkscape:connector-curvature="0" /><path
         d="m 199.567,660.246 c 0,0 -1.783,2.457 -4.131,0 -2.347,-2.458 0,-3.575 0,-3.575 0,0 -0.56,-5.137 4.131,-6.254 0,0 -1.117,-4.691 1.787,-7.595 2.904,-2.903 5.584,-13.625 7.595,-19.433 2.01,-5.808 6.254,-26.581 7.148,-28.592 0.893,-2.01 61.204,15.19 62.321,20.551 1.116,5.361 -2.234,12.955 -6.031,19.21 -3.798,6.254 -13.626,21.84 -16.083,26.78 0,0 2.886,4.176 -0.224,5.832 0,0 2.011,1.83 -0.893,2.59 0,0 3.127,2.994 1.563,4.781 -1.563,1.788 -8.488,0.894 -10.051,0 -1.564,-0.893 -13.179,4.968 -23.231,1.032 -10.052,-3.935 -19.949,-9.521 -23.901,-15.327"
         style="fill:#ffffff;fill-opacity:1;fill-rule:nonzero;stroke:none;stroke-width:0.1"
         id="path216"
         inkscape:connector-curvature="0" /><g
         transform="scale(0.1)"
         id="g218"><g
           id="g220"
           clip-path="url(#clipPath224)"><path
             d="m 2037.77,6512.75 c 0,0 117.24,-7.82 151.49,58.07 0,0 43.18,-70.82 116.15,-58.31 72.97,12.51 87.86,88.45 77.44,137.6 0,0 89.35,-54.21 137,20.55 47.65,74.75 -183.16,79.22 -229.33,80.71 -46.16,1.49 -226.1,-77.01 -252.75,-238.62"
             style="fill:#d2d0ce;fill-opacity:1;fill-rule:nonzero;stroke:none"
             id="path226"
             inkscape:connector-curvature="0" /><path
             d="m 2411.14,6755.61 c -13.65,-16.15 -15.63,-88.38 -11.17,-137.52 4.47,-49.14 6.71,-79.38 -13.4,-111.17 -20.1,-31.79 3.51,-117.19 24.57,-149.01 53.05,-80.14 216.92,-125.3 357.4,-134.92 140.48,-9.63 64.57,51.2 17.76,134.92 -46.8,83.72 -145.39,358.47 -197.73,423.24 -52.34,64.78 -122.48,39.46 -177.43,-25.54"
             style="fill:#1f1718;fill-opacity:1;fill-rule:nonzero;stroke:none"
             id="path228"
             inkscape:connector-curvature="0" /><path
             d="m 1993.42,6626.38 c 55.35,-5.86 131.81,19.07 142.97,-25.88 11.17,-44.95 24.29,-109.09 82.51,-116.11 58.22,-7.02 139,-56.07 160.04,-126.48 21.03,-70.41 -12.46,-141.89 -60.49,-186.56 -48.03,-44.68 -145.94,-163.25 -172.93,-164.28 -27,-1.02 -89.54,278.29 -138.68,350.84 -49.14,72.55 -183.56,286.47 -13.42,268.47"
             style="fill:#1f1718;fill-opacity:1;fill-rule:nonzero;stroke:none"
             id="path230"
             inkscape:connector-curvature="0" /></g></g><path
         d="m 234.602,632.324 c 0,-5.537 -4.488,-10.025 -10.025,-10.025 -5.537,0 -10.025,4.488 -10.025,10.025 0,5.537 4.488,10.025 10.025,10.025 5.537,0 10.025,-4.488 10.025,-10.025"
         style="fill:#ffffff;fill-opacity:1;fill-rule:nonzero;stroke:none;stroke-width:0.1"
         id="path232"
         inkscape:connector-curvature="0" /><path
         d="m 227.335,634.222 c 0,-3.559 -2.886,-6.445 -6.445,-6.445 -3.559,0 -6.445,2.886 -6.445,6.445 0,3.559 2.886,6.444 6.445,6.444 3.559,0 6.445,-2.885 6.445,-6.444"
         style="fill:#1f1718;fill-opacity:1;fill-rule:nonzero;stroke:none;stroke-width:0.1"
         id="path234"
         inkscape:connector-curvature="0" /><path
         d="m 262.572,642.349 c 0,-5.536 -4.488,-10.025 -10.025,-10.025 -5.537,0 -10.025,4.489 -10.025,10.025 0,5.537 4.488,10.026 10.025,10.026 5.537,0 10.025,-4.489 10.025,-10.026"
         style="fill:#ffffff;fill-opacity:1;fill-rule:nonzero;stroke:none;stroke-width:0.1"
         id="path236"
         inkscape:connector-curvature="0" /><path
         d="m 255.305,644.247 c 0,-3.559 -2.886,-6.445 -6.445,-6.445 -3.559,0 -6.445,2.886 -6.445,6.445 0,3.56 2.886,6.445 6.445,6.445 3.559,0 6.445,-2.885 6.445,-6.445"
         style="fill:#1f1718;fill-opacity:1;fill-rule:nonzero;stroke:none;stroke-width:0.1"
         id="path238"
         inkscape:connector-curvature="0" /><path
         d="m 218.032,682.88 c -10.994,-3.664 -10.721,-7.445 -16.976,-9.53 -6.254,-2.085 -8.637,-8.637 0,-8.637 0,0 -8.041,-8.042 -1.191,-12.211 6.85,-4.17 16.976,2.383 18.167,15.189 0,0 3.574,-14.296 12.807,-11.02 9.233,3.277 2.383,14.297 2.383,14.297 0,0 13.402,-11.973 18.763,-3.902 5.361,8.071 -2.68,11.943 -11.02,11.049 0,0 11.02,1.787 6.831,8.59 -2.963,4.812 -10.816,-3.009 -16.177,-3.009 -5.361,0 -4.652,2.163 -13.587,-0.816"
         style="fill:#ffffff;fill-opacity:1;fill-rule:nonzero;stroke:none;stroke-width:0.1"
         id="path240"
         inkscape:connector-curvature="0" /><path
         d="m 242.231,625.399 c 20.683,6.282 49.589,2.457 59.864,-14.742 10.275,-17.2 2.01,-44.451 -27.922,-56.067 -29.931,-11.615 -52.716,2.234 -59.863,18.763 -7.148,16.53 -2.234,42.888 27.921,52.046"
         style="fill:#fccfa5;fill-opacity:1;fill-rule:nonzero;stroke:none;stroke-width:0.1"
         id="path252"
         inkscape:connector-curvature="0" /><path
         d="m 237.726,578.078 c 0,0 21.131,4.168 40.207,14.21 0,0 6.601,-16.065 -12.285,-24.124 -16.489,-7.036 -27.922,9.914 -27.922,9.914"
         style="fill:#932126;fill-opacity:1;fill-rule:nonzero;stroke:none;stroke-width:0.1"
         id="path266"
         inkscape:connector-curvature="0" /><path
         d="m 241.114,597.924 c 0,0 -7.537,12.318 -16.537,2.458 -7.747,-8.489 4.489,-15.115 5.152,-14.892 0,0 -6.984,8.087 -1.394,12.956 5.589,4.868 12.779,-0.522 12.779,-0.522"
         style="fill:#b27c46;fill-opacity:1;fill-rule:nonzero;stroke:none;stroke-width:0.1"
         id="path270"
         inkscape:connector-curvature="0" /><path
         d="m 262.614,602.932 c 0,0 -5.663,14.826 7.396,14.724 12.229,-0.096 8.05,-14.105 7.463,-14.4 0,0 -1.041,10.257 -7.98,9.745 -6.938,-0.513 -6.879,-10.069 -6.879,-10.069"
         style="fill:#b27c46;fill-opacity:1;fill-rule:nonzero;stroke:none;stroke-width:0.1"
         id="path274"
         inkscape:connector-curvature="0" /><path
         d="m 257.644,655.472 c 0,0 15.413,17.729 31.049,6.56 0,0 -2.196,-21.021 -27.699,-10.781 l -3.35,4.221"
         style="fill:#1f1718;fill-opacity:1;fill-rule:nonzero;stroke:none;stroke-width:0.1"
         id="path276"
         inkscape:connector-curvature="0" /><path
         d="m 263.452,654.736 c 0,0 5.956,9.381 21.294,6.254 0,0 -15.933,5.808 -21.294,-6.254"
         style="fill:#ffffff;fill-opacity:1;fill-rule:nonzero;stroke:none;stroke-width:0.1"
         id="path278"
         inkscape:connector-curvature="0" /><path
         d="m 207.162,639.737 c 0,0 -21.221,6.436 -26.582,-14.561 0,0 10.737,-7.159 18.764,-2.01 8.026,5.148 7.818,16.571 7.818,16.571"
         style="fill:#1f1718;fill-opacity:1;fill-rule:nonzero;stroke:none;stroke-width:0.1"
         id="path280"
         inkscape:connector-curvature="0" /><path
         d="m 183.335,626.591 c 0,0 5.329,10.093 19.476,9.2 0,0 -14.115,4.875 -19.476,-9.2"
         style="fill:#ffffff;fill-opacity:1;fill-rule:nonzero;stroke:none;stroke-width:0.1"
         id="path282"
         inkscape:connector-curvature="0" /><path
         d="m 70.3922,633.364 c 0,0 -19.1449,-24.48 -22.4207,-44.516 -3.2766,-20.036 -2.0852,-48.485 -15.4875,-59.725 0,0 -2.0848,-6.363 2.6805,-4.93 4.7652,1.433 16.9765,25.283 17.2742,49.247 0.2976,23.963 10.7218,33.196 13.998,38.259 3.2762,5.063 14.7606,29.033 3.9555,21.665"
         style="fill:#ffffff;fill-opacity:1;fill-rule:nonzero;stroke:none;stroke-width:0.1"
         id="path284"
         inkscape:connector-curvature="0" /><path
         d="m 35.1645,529.123 c -4.6704,3.858 -28.8895,-3.497 -29.4852,-8.56 -0.59571,-5.063 8.9348,-3.872 8.9348,-3.872 0,0 -14.6473031,-19.061 -8.96176,-21.444 5.68596,-2.382 14.10076,8.34 14.10076,8.34 0,0 1.4133,-13.803 7.9657,-11.965 6.5523,1.838 4.3113,18.416 4.3113,18.416 0,0 4.0277,-4.27 6.7086,0 2.6804,4.271 -0.5957,16.624 -3.5742,19.085"
         style="fill:#1f1718;fill-opacity:1;fill-rule:nonzero;stroke:none;stroke-width:0.1"
         id="path286"
         inkscape:connector-curvature="0" /><path
         d="m 186.273,560.472 c -17.166,-0.595 -37.635,-19.647 -33.763,-23.826 3.872,-4.179 15.204,-21.742 19.213,-25.911 2.99,-3.111 4.749,-29.585 5.45,-42.838 5.089,0.142 11.464,0.72 15.389,3.33 l -0.441,1.385 c -1.489,15.785 10.722,83.691 10.687,84.386 0,0 0.631,4.07 -16.535,3.474"
         style="fill:#ffffff;fill-opacity:1;fill-rule:nonzero;stroke:none;stroke-width:0.1"
         id="path288"
         inkscape:connector-curvature="0" /><path
         d="m 177.527,459.95 c 6.851,-2.68 17.909,1.787 17.909,1.787 l -2.874,9.039 c -3.925,-2.61 -10.3,-3.188 -15.389,-3.33 0.238,-4.513 0.354,-7.496 0.354,-7.496"
         style="fill:#1f1718;fill-opacity:1;fill-rule:nonzero;stroke:none;stroke-width:0.1"
         id="path290"
         inkscape:connector-curvature="0" /><path
         d="m 200.091,540.578 c 0,0 -4.694,2.322 -7.672,-1.847 -2.978,-4.17 2.011,-6.41 1.452,-9.608 -0.558,-3.199 -5.618,-7.69 -4.279,-12.741 1.338,-5.052 5.844,-9.219 5.844,-9.219 0,0 5.775,26.924 4.655,33.415"
         style="fill:#1f1718;fill-opacity:1;fill-rule:nonzero;stroke:none;stroke-width:0.1"
         id="path292"
         inkscape:connector-curvature="0" /><path
         d="m 91.4816,587.57 c -5.1304,1.524 -10.9125,1.754 -16.4078,0.303 -15.7851,-4.17 -17.4527,-28.691 -12.8066,-39.612 4.6461,-10.921 9.5305,-33.059 7.1476,-39.016 -2.3824,-5.956 -3.8714,-9.232 1.4895,-14.295 3.3223,-3.138 5.957,-13.251 7.4816,-20.49 5.0969,0.119 10.2125,0.383 15.2899,0.431 -3.3746,11.658 -9.3692,29.291 -9.3692,29.291 1.4704,1.062 3.1418,2.537 4.8063,4.27 4.4051,4.587 8.7594,11.04 9.1918,16.876 0.5957,8.042 8.9353,42.518 8.9353,42.518 1.164,9.466 -6.152,16.869 -15.7584,19.724"
         style="fill:#ffffff;fill-opacity:1;fill-rule:nonzero;stroke:none;stroke-width:0.1"
         id="path294"
         inkscape:connector-curvature="0" /><path
         d="m 61.3734,609.058 c 5.9254,-1.962 -1.7867,-21.195 4.17,-24.615 5.9566,-3.42 17.5718,-13.989 16.3804,-16.597 -1.1914,-2.608 -7.1476,-5.686 -6.5519,-10.848 0.5953,-5.163 3.5738,-9.928 -2.6809,-12.311 -6.2543,-2.382 -9.375,-2.962 -13.3359,2.697 -3.961,5.659 -2.3598,63.124 2.0183,61.674"
         style="fill:#1f1718;fill-opacity:1;fill-rule:nonzero;stroke:none;stroke-width:0.1"
         id="path296"
         inkscape:connector-curvature="0" /><path
         d="m 79.8391,466.656 c 8.9347,-3.872 15.9339,0 15.9339,0 -0.3089,1.784 -1.0871,4.745 -2.0972,8.235 -5.0774,-0.048 -10.193,-0.312 -15.2899,-0.431 0.9352,-4.442 1.4532,-7.804 1.4532,-7.804"
         style="fill:#1f1718;fill-opacity:1;fill-rule:nonzero;stroke:none;stroke-width:0.1"
         id="path298"
         inkscape:connector-curvature="0" /></g></g></svg>