<?xml version="1.0" encoding="UTF-8" standalone="no"?>
<!-- Created with Inkscape (http://www.inkscape.org/) -->

<svg
   xmlns:dc="http://purl.org/dc/elements/1.1/"
   xmlns:cc="http://creativecommons.org/ns#"
   xmlns:rdf="http://www.w3.org/1999/02/22-rdf-syntax-ns#"
   xmlns:svg="http://www.w3.org/2000/svg"
   xmlns="http://www.w3.org/2000/svg"
   xmlns:sodipodi="http://sodipodi.sourceforge.net/DTD/sodipodi-0.dtd"
   xmlns:inkscape="http://www.inkscape.org/namespaces/inkscape"
   width="31.044445mm"
   height="29.129848mm"
   viewBox="0 0 110 103.21599"
   id="svg25244"
   version="1.1"
   inkscape:version="0.91 r13725"
   sodipodi:docname="banano.svg"
   inkscape:export-filename="/home/piccolina/Escritorio/fundacion/megamente-web/Megamente/img/deduccion/alimentos/banano.png"
   inkscape:export-xdpi="90"
   inkscape:export-ydpi="90">
  <defs
     id="defs25246" />
  <sodipodi:namedview
     id="base"
     pagecolor="#ffffff"
     bordercolor="#666666"
     borderopacity="1.0"
     inkscape:pageopacity="0.0"
     inkscape:pageshadow="2"
     inkscape:zoom="1.979899"
     inkscape:cx="-34.080843"
     inkscape:cy="42.177737"
     inkscape:document-units="px"
     inkscape:current-layer="layer1"
     showgrid="false"
     fit-margin-top="0"
     fit-margin-left="0"
     fit-margin-right="0"
     fit-margin-bottom="0"
     inkscape:window-width="1366"
     inkscape:window-height="710"
     inkscape:window-x="0"
     inkscape:window-y="25"
     inkscape:window-maximized="1" />
  <metadata
     id="metadata25249">
    <rdf:RDF>
      <cc:Work
         rdf:about="">
        <dc:format>image/svg+xml</dc:format>
        <dc:type
           rdf:resource="http://purl.org/dc/dcmitype/StillImage" />
        <dc:title></dc:title>
      </cc:Work>
    </rdf:RDF>
  </metadata>
  <g
     inkscape:label="Capa 1"
     inkscape:groupmode="layer"
     id="layer1"
     transform="translate(-259.70618,-422.50183)">
    <g
       id="g4136"
       transform="matrix(0.80334511,0,0,0.80334511,51.072488,103.38498)">
      <path
         sodipodi:nodetypes="cscssscc"
         inkscape:connector-curvature="0"
         id="path25832"
         d="m 284.86302,416.47118 c 4.16009,25.26387 16.67341,40.92985 24.7995,50.20125 20.82345,23.75834 55.44478,17.7685 86.82236,20.00435 3.06549,21.98644 -41.87475,45.19948 -77.2937,37.55184 -21.25164,-4.58864 -41.71609,-24.19495 -52.00583,-39.57214 -6.19751,-9.26168 -9.51548,-29.90472 -6.12336,-44.33409 3.62553,-15.4222 14.20458,-24.35629 14.20458,-24.35629 0,0 6.92105,-1.25646 9.59645,0.50508 z"
         style="fill:#552200;fill-opacity:1;fill-rule:evenodd;stroke:none;stroke-width:1px;stroke-linecap:butt;stroke-linejoin:miter;stroke-opacity:1" />
      <path
         inkscape:connector-curvature="0"
         id="path35284"
         style="fill:#ffcb2d;fill-opacity:1;stroke:none;stroke-width:1.33333325;stroke-opacity:1"
         d="m 394.44265,492.78569 c 10e-4,0 0,0 0,-0.0133 0.15066,-0.164 0.27733,-0.36533 0.37466,-0.604 0,-0.0133 0.0133,-0.0267 0.0147,-0.0387 0.092,-0.23467 0.15867,-0.492 0.19067,-0.772 0.001,-0.02 0.001,-0.0413 0,-0.0613 0.028,-0.28533 0.028,-0.58667 -0.016,-0.89867 0,0 0,-10e-4 0,-10e-4 -0.024,-0.16666 -0.0587,-0.32666 -0.1,-0.48133 -0.0147,-0.052 -0.032,-0.0987 -0.048,-0.148 -0.032,-0.10133 -0.064,-0.20133 -0.10267,-0.29467 -0.0227,-0.056 -0.0493,-0.10666 -0.0733,-0.15866 -0.0387,-0.0813 -0.0787,-0.16134 -0.12267,-0.23734 -0.0293,-0.0507 -0.06,-0.0987 -0.092,-0.14666 -0.0453,-0.0693 -0.092,-0.13334 -0.14133,-0.19467 -0.0347,-0.044 -0.0707,-0.0853 -0.10667,-0.12533 -0.052,-0.056 -0.10533,-0.10534 -0.16,-0.15334 -0.0387,-0.0347 -0.076,-0.0693 -0.116,-0.1 -0.0587,-0.044 -0.12,-0.0787 -0.18,-0.112 -0.04,-0.0227 -0.0773,-0.048 -0.11733,-0.0653 -0.0787,-0.036 -0.15867,-0.0587 -0.24,-0.076 -0.024,0 -0.0467,-0.0173 -0.0707,-0.0213 l 0,0 -10e-4,0 c -0.0347,-0.0213 -0.076,-0.04 -0.112,-0.06 -0.108,-0.0573 -0.22534,-0.112 -0.344,-0.16533 -0.11734,-0.0533 -0.24134,-0.10533 -0.372,-0.15467 -0.128,-0.0493 -0.25734,-0.0973 -0.396,-0.14266 -0.15334,-0.0493 -0.32,-0.096 -0.48667,-0.14134 l -0.001,0 0,0 c -0.13734,-0.0373 -0.268,-0.0773 -0.416,-0.112 -0.308,-0.072 -0.63467,-0.13733 -0.98267,-0.19466 l 0,0 0,0 c -0.13867,-0.024 -0.29333,-0.0413 -0.43733,-0.0627 l 0,0 0,0 c -0.24534,-0.036 -0.49334,-0.0693 -0.75734,-0.0987 l -10e-4,0 0,0 c -0.17733,-0.02 -0.36533,-0.0347 -0.55067,-0.052 -0.26266,-0.0227 -0.53333,-0.044 -0.81333,-0.06 l -0.001,0 0,0 c -0.19334,-0.0133 -0.38934,-0.024 -0.59067,-0.032 -0.316,-0.0147 -0.64667,-0.024 -0.98267,-0.0307 -0.184,0 -0.36133,-0.0133 -0.55066,-0.0133 -0.52667,0 -1.072,-0.001 -1.644,0.0133 -0.112,0.001 -0.23334,0.0133 -0.34534,0.0133 -0.484,0.0133 -0.98,0.032 -1.496,0.0587 -0.21733,0.0133 -0.44533,0.0253 -0.668,0.0387 -0.43866,0.0253 -0.88533,0.0547 -1.344,0.0893 -0.24533,0.0187 -0.49333,0.0387 -0.744,0.0587 -0.48666,0.0413 -0.98666,0.0867 -1.496,0.13733 -0.23333,0.0227 -0.46133,0.044 -0.7,0.068 -0.74933,0.0787 -1.51733,0.164 -2.316,0.26267 -2.61066,0.32133 -5.67733,0.7 -9.11999,0.928 0,10e-4 -0.0133,10e-4 -0.0147,10e-4 -1.14667,0.076 -2.33467,0.136 -3.56133,0.17066 -0.69734,0.02 -1.412,0.0307 -2.13467,0.0333 -0.22533,10e-4 -0.456,0 -0.684,0 -0.51333,0 -1.032,-0.0133 -1.55733,-0.0213 -0.26267,0 -0.52667,-0.0133 -0.79334,-0.0213 -0.53066,-0.0187 -1.06933,-0.0427 -1.61066,-0.072 -0.244,-0.0133 -0.48534,-0.024 -0.732,-0.04 -0.784,-0.0493 -1.576,-0.108 -2.38,-0.18533 -1.404,-0.13333 -2.83734,-0.31067 -4.3,-0.53867 -0.73067,-0.11333 -1.46934,-0.24 -2.21334,-0.38 -1.48933,-0.28133 -3.00533,-0.61733 -4.54533,-1.016 -0.724,-0.18666 -1.45467,-0.39066 -2.18933,-0.60666 -0.23734,-0.0693 -0.476,-0.14667 -0.71467,-0.22 -0.50133,-0.15334 -1.00267,-0.30934 -1.50933,-0.476 -0.28534,-0.0947 -0.572,-0.196 -0.85867,-0.29467 -0.464,-0.16 -0.92933,-0.324 -1.39733,-0.496 -0.30534,-0.11333 -0.61067,-0.22933 -0.916,-0.348 -0.46,-0.176 -0.92,-0.36 -1.38267,-0.548 -0.308,-0.12667 -0.616,-0.25333 -0.924,-0.38533 -0.47467,-0.20134 -0.952,-0.41334 -1.42933,-0.62934 -0.296,-0.13333 -0.59334,-0.26533 -0.89067,-0.404 -0.52133,-0.244 -1.044,-0.50266 -1.56933,-0.76266 -0.256,-0.12667 -0.50934,-0.248 -0.76667,-0.38 -1.55867,-0.79734 -3.12933,-1.67067 -4.71067,-2.62667 -0.25466,-0.15333 -0.512,-0.32 -0.76666,-0.47867 -0.53734,-0.33333 -1.076,-0.67066 -1.61467,-1.02266 -0.30533,-0.2 -0.612,-0.40934 -0.91867,-0.61467 -0.49333,-0.33333 -0.988,-0.67067 -1.48266,-1.02 -0.324,-0.22667 -0.648,-0.46133 -0.97067,-0.69733 -0.48533,-0.352 -0.972,-0.712 -1.45867,-1.08134 -0.32533,-0.248 -0.65066,-0.496 -0.97733,-0.75066 -0.496,-0.388 -0.99333,-0.78934 -1.49067,-1.19467 -0.31333,-0.25467 -0.62533,-0.50667 -0.93866,-0.76933 -0.54267,-0.45467 -1.08534,-0.92667 -1.62934,-1.404 -0.26666,-0.23334 -0.53333,-0.45867 -0.8,-0.69867 -0.80933,-0.72533 -1.62,-1.47067 -2.43066,-2.24667 -0.78267,-0.75066 -1.532,-1.5 -2.24934,-2.24933 -1.43466,-1.49733 -2.74266,-2.99333 -3.936,-4.48267 -0.596,-0.744 -1.164,-1.48666 -1.70533,-2.22666 -4.32667,-5.92267 -6.92267,-11.688 -8.59867,-16.96667 -0.59066,-1.86 -1.06133,-3.656 -1.46,-5.38 -0.16666,-0.724 -0.324,-1.43867 -0.46533,-2.13467 -0.36,-1.76666 -0.648,-3.44266 -0.90667,-5.00933 -0.0853,-0.52133 -0.16933,-1.032 -0.25066,-1.52933 -0.104,-0.63734 -0.20534,-1.24534 -0.30667,-1.84 -0.028,-0.16 -0.056,-0.32267 -0.084,-0.48134 -0.10933,-0.62 -0.22,-1.22533 -0.33733,-1.792 -0.17067,-0.83066 -0.35334,-1.60266 -0.56134,-2.30933 -0.11733,-0.39733 -0.244,-0.76933 -0.37866,-1.12533 -0.0293,-0.076 -0.0627,-0.14667 -0.092,-0.22134 -0.11467,-0.284 -0.236,-0.55466 -0.36534,-0.81066 -0.0307,-0.06 -0.064,-0.11733 -0.0947,-0.176 -0.144,-0.26667 -0.29866,-0.516 -0.464,-0.748 -0.0227,-0.032 -0.0453,-0.064 -0.068,-0.096 -0.19333,-0.26 -0.40133,-0.49867 -0.628,-0.71067 3.71467,-6.72666 10.92,-15.05733 10.92,-15.05733 -0.844,-0.624 -1.66933,-1.12267 -2.46933,-1.51867 -5.6,-2.77066 -9.92133,-0.484 -9.92133,-0.484 l -2.76265,16.408 c -0.58934,0.26933 -1.216,0.656 -1.86934,1.14933 0,0 -0.0133,0.0133 -0.0147,0.0133 -0.65333,0.496 -1.33066,1.1 -2.02266,1.80533 l 0,0 -10e-4,0 c -0.0133,0.0133 -0.0253,0.0267 -0.0387,0.04 -0.18134,0.18534 -0.364,0.38 -0.54667,0.57867 -0.032,0.036 -0.064,0.0693 -0.0973,0.10533 l 0,0 0,0 c -0.172,0.188 -0.34267,0.384 -0.51467,0.58267 l 0,0.001 0,0 c -0.0453,0.052 -0.0893,0.10267 -0.13466,0.156 -0.164,0.19333 -0.328,0.392 -0.492,0.596 -0.0533,0.0653 -0.10667,0.13067 -0.16,0.19733 l 0,0 0,0.001 c -0.15867,0.19867 -0.31734,0.40267 -0.476,0.612 l 0,0 c -0.0587,0.0773 -0.11734,0.15467 -0.176,0.232 l 0,10e-4 c 0,0.001 0,0 0,0 -0.15467,0.20667 -0.308,0.41467 -0.46134,0.62934 -0.064,0.0893 -0.12666,0.17866 -0.19066,0.268 -0.15067,0.21333 -0.3,0.42933 -0.45067,0.65066 l 0,0.001 0,0 c -0.0653,0.0973 -0.13067,0.196 -0.196,0.29467 -0.14667,0.22133 -0.29467,0.44267 -0.44,0.672 -10e-4,0 -10e-4,0.001 -10e-4,0.001 -10e-4,10e-4 -10e-4,10e-4 -10e-4,0 -0.068,0.10533 -0.136,0.21467 -0.20267,0.32267 -0.144,0.228 -0.288,0.45733 -0.43066,0.69333 l -0.001,0 c 0,0 0,0 0,0 -0.068,0.11067 -0.13334,0.22533 -0.2,0.33733 l 0,0 0,0 c -0.14267,0.24134 -0.28667,0.48267 -0.428,0.73067 l 0,10e-4 0,0 c -0.06,0.104 -0.11867,0.21067 -0.17734,0.316 -0.14933,0.264 -0.29733,0.528 -0.444,0.79867 -0.0253,0.0467 -0.0493,0.0947 -0.0747,0.14133 -0.32267,0.604 -0.64134,1.22667 -0.95334,1.86667 l 0,0 c 0,0 0,0.0133 -0.0133,0.016 -0.0467,0.096 -0.0947,0.18933 -0.14133,0.28533 -0.104,0.21733 -0.20667,0.44267 -0.30934,0.664 0,0 0,0 0,0.0133 -10e-4,0 0,0.0133 0,0.0133 -0.088,0.18933 -0.17733,0.37733 -0.264,0.56933 0,0 0,0 0,0 l 0,0.001 c -0.0947,0.20934 -0.18666,0.424 -0.27866,0.636 0,0 -0.001,0.001 -0.001,0 l -10e-4,0 c -0.096,0.21734 -0.192,0.43467 -0.28534,0.656 -0.088,0.208 -0.17333,0.42 -0.26,0.632 -0.096,0.23334 -0.192,0.468 -0.28666,0.70534 -0.0813,0.20666 -0.16134,0.41733 -0.24134,0.62666 l 0,0.001 -10e-4,0 c -0.0947,0.24934 -0.18933,0.49734 -0.28266,0.74934 -0.076,0.20666 -0.14934,0.416 -0.224,0.62533 -0.0933,0.26133 -0.18534,0.52267 -0.27467,0.78667 l 0,10e-4 0,0.001 c -0.072,0.20933 -0.14133,0.42 -0.21067,0.63066 -0.088,0.27067 -0.176,0.54267 -0.26266,0.81734 -0.0653,0.21066 -0.12934,0.42133 -0.19334,0.63333 l -10e-4,10e-4 0,0 c -0.084,0.28 -0.16666,0.56267 -0.248,0.84667 0,10e-4 -0.001,0 -0.001,0 0,0 0,10e-4 0,0 -0.06,0.208 -0.11866,0.41733 -0.17733,0.628 -0.0813,0.296 -0.15867,0.59333 -0.236,0.89333 l 0,0 0,0 c -0.0533,0.20533 -0.10667,0.41067 -0.15733,0.61867 l 0,0 0,0.001 c -0.0773,0.31066 -0.15067,0.624 -0.224,0.93866 l 0,0 c 0,0 -0.001,0 -0.001,0.0133 -0.0453,0.19867 -0.092,0.39733 -0.136,0.59867 -0.001,10e-4 -0.001,0 -0.001,0 l 0,0 c -0.0733,0.32933 -0.14134,0.66266 -0.20934,0.996 0,0 0,10e-4 0,0 0,0 0,0 0,0 -0.0387,0.19066 -0.0787,0.37866 -0.11466,0.56933 -0.0707,0.36267 -0.136,0.72933 -0.2,1.09733 0,0.001 0,0 0,0.0133 0,10e-4 0,0 0,0 -0.0293,0.164 -0.06,0.32667 -0.0867,0.49067 l 0,0 0,0 c -0.0733,0.44 -0.13867,0.88267 -0.20267,1.328 -0.0147,0.1 -0.0307,0.19867 -0.0453,0.29867 -0.15333,1.11066 -0.27733,2.23866 -0.36933,3.38 0,0.076 -0.0133,0.15333 -0.016,0.22933 0,0 0,0 0,0 0,0 0,0 0,0.0133 -0.0373,0.48267 -0.0707,0.96933 -0.0947,1.45733 l 0,0 0,0.001 c -0.0133,0.152 -0.0133,0.308 -0.0187,0.46134 -0.0187,0.41733 -0.0347,0.836 -0.044,1.25733 0,0.18533 0,0.37333 0,0.56 0,0.39067 -0.0133,0.78267 0,1.17733 0,0.20534 0.0133,0.41067 0.0133,0.616 0.0133,0.38 0.016,0.76 0.0307,1.14134 0.0133,0.216 0.02,0.432 0.0307,0.648 0.0187,0.37333 0.04,0.748 0.0653,1.12266 l 0,0 0,0 c 0.016,0.22534 0.0347,0.45067 0.0533,0.676 0.0293,0.37067 0.064,0.74134 0.10133,1.112 0.024,0.23067 0.0493,0.46 0.0747,0.69067 l 0,0 0,0 c 0.0427,0.37067 0.0893,0.74133 0.14,1.112 l 0,0.001 0,10e-4 c 0.0307,0.232 0.0627,0.464 0.0973,0.69733 l 0,0 0,0 c 0.056,0.37334 0.116,0.74667 0.17867,1.12134 l 0,0 0,10e-4 c 0.0387,0.23066 0.0773,0.46133 0.12,0.69333 0.0693,0.38133 0.14533,0.764 0.22266,1.14667 0.0467,0.22666 0.0907,0.45333 0.14,0.68 0.0853,0.392 0.17867,0.78533 0.27334,1.17866 0.052,0.21867 0.10133,0.436 0.15733,0.65467 l 0,0 0,0 c 0.10533,0.41867 0.22133,0.83733 0.33733,1.25467 0.0533,0.19333 0.104,0.38666 0.16,0.58 l 0,10e-4 0,0 c 0.13734,0.47466 0.28667,0.95066 0.43867,1.42666 0.044,0.13867 0.084,0.27734 0.12933,0.416 0.40667,1.23867 0.86267,2.47867 1.37067,3.72 0.0573,0.14 0.12133,0.28 0.18,0.41867 0,0 0,0 0.001,0 0,0 10e-4,0 10e-4,0 0.19733,0.47067 0.39867,0.94267 0.61067,1.41333 0.0947,0.208 0.196,0.416 0.292,0.62267 0,0 0,0 0,0 0,0 0,0 0,0 0.188,0.404 0.376,0.80667 0.576,1.20933 l 0,0 0,0.001 c 0.11733,0.23467 0.24,0.46933 0.36133,0.704 0.19333,0.37867 0.388,0.75733 0.592,1.13467 0.13467,0.25066 0.27733,0.5 0.416,0.75066 0.204,0.36267 0.408,0.72534 0.62,1.088 0.152,0.25734 0.308,0.51467 0.464,0.772 0,0 0,0 0,0 10e-4,0 10e-4,0 0,0 0.21333,0.35334 0.43067,0.70534 0.65467,1.05867 l 0,0 10e-4,0 c 0.16666,0.26267 0.33733,0.524 0.51066,0.78667 l 0,0 0,0 c 0.228,0.34666 0.46,0.69333 0.69734,1.03866 0.18266,0.26667 0.368,0.53334 0.55733,0.79867 0.24267,0.34267 0.492,0.68533 0.744,1.02667 l 0,0 c 0,0 0,0 0,0 0.196,0.26533 0.39333,0.52933 0.59467,0.79333 l 0,0 0,0 c 0.26,0.34133 0.528,0.68133 0.79866,1.02133 l 10e-4,0 c 0,0.001 0,0 0,0 0.20934,0.26267 0.41734,0.52534 0.632,0.78667 0.28,0.34133 0.56934,0.68267 0.86,1.024 l 0,0 10e-4,10e-4 c 0.22,0.25733 0.43734,0.516 0.664,0.77333 l 0,0 0,10e-4 c 0.304,0.344 0.61734,0.68667 0.93067,1.03067 0,0 0,0 0,0 0,0 0,0 0,0 0.22667,0.248 0.45067,0.49733 0.68267,0.74533 l 10e-4,0 10e-4,0 c 0.336,0.35867 0.68667,0.716 1.036,1.072 0.22667,0.232 0.448,0.46534 0.68,0.696 l 0,0 0,0 c 0.39867,0.396 0.812,0.78933 1.224,1.184 0.19867,0.18933 0.39067,0.38 0.59333,0.56933 l 0,0 0,0 c 0.62267,0.58267 1.26134,1.16267 1.92,1.73867 0.844,0.74 1.688,1.45733 2.53067,2.156 l 10e-4,0 0,10e-4 c 0.28266,0.23334 0.56266,0.452 0.844,0.68134 0.56266,0.45733 1.124,0.916 1.68533,1.35466 0.33333,0.26134 0.66667,0.508 1,0.764 0.50667,0.38667 1.01333,0.77734 1.51867,1.15067 l 0,0.001 0,0 c 0.356,0.26267 0.71066,0.512 1.06666,0.76667 10e-4,0 0,0 0,0 0,0 0,0 0,0 0.48,0.34533 0.96,0.69333 1.43867,1.02533 l 0,0 0,0 c 0.36533,0.25334 0.72933,0.49467 1.09467,0.74134 0.47066,0.31866 0.94266,0.63866 1.41333,0.94533 l 0.001,0 0,0 c 0.37067,0.24133 0.74,0.472 1.11067,0.70667 0.46266,0.292 0.924,0.58533 1.38533,0.86666 l 10e-4,0 0,0 c 0.372,0.22667 0.744,0.444 1.11467,0.66267 0,0 0,0 0,0 0,10e-4 0,10e-4 0,0 0.45733,0.26933 0.91333,0.54 1.37066,0.79867 0.37067,0.212 0.74134,0.41333 1.112,0.61733 0,0 0,0 0,0 0,0 0.001,10e-4 0,10e-4 0.45334,0.24934 0.908,0.49867 1.36,0.73734 0.372,0.196 0.74267,0.38533 1.11467,0.57466 0.452,0.23067 0.90267,0.45867 1.35333,0.67867 l 0,0 10e-4,0 c 0.368,0.18 0.73734,0.35333 1.104,0.52667 10e-4,0 0,0 0,0 l 0,0 c 0.44934,0.21066 0.89734,0.41866 1.34534,0.62 l 0,0 0,0 c 0.368,0.16533 0.73333,0.32533 1.09866,0.48266 l 0.001,0 0,0.001 c 0.448,0.19333 0.89467,0.38133 1.34134,0.56533 l 0,0 10e-4,0 c 0.36266,0.14933 0.72533,0.29467 1.088,0.43733 l 0,0 10e-4,0 c 0.44666,0.176 0.89333,0.34667 1.33866,0.51334 l 0,0 10e-4,0 c 0.35734,0.13333 0.71334,0.264 1.06934,0.39066 0.44933,0.16 0.896,0.31467 1.34266,0.464 l 10e-4,10e-4 0.001,0 c 0.35067,0.11733 0.70267,0.23466 1.05334,0.34666 0.45066,0.144 0.9,0.28134 1.348,0.416 0.344,0.10267 0.688,0.20534 1.03066,0.30267 0.452,0.12933 0.904,0.24933 1.35467,0.368 0.336,0.0893 0.672,0.17867 1.008,0.26133 l 0,0 0,0 c 0.45467,0.112 0.90533,0.216 1.35733,0.32 l 0,0 c 0,0 10e-4,0 0,10e-4 0.32667,0.0733 0.65334,0.14933 0.97867,0.21866 l 0,0 c 0,0 0,0 0,0 0.45867,0.0973 0.91467,0.18667 1.36933,0.27467 0.31734,0.0613 0.63467,0.12533 0.95067,0.18133 l 0,0 10e-4,0 c 0.46667,0.084 0.93067,0.15734 1.39467,0.23067 0.30133,0.048 0.604,0.0987 0.904,0.14267 0.48133,0.0693 0.95866,0.128 1.436,0.188 0.28,0.0333 0.56133,0.072 0.84,0.104 0.50133,0.056 1,0.1 1.49866,0.144 0.252,0.0227 0.50667,0.0507 0.75867,0.0707 l 0,0 c 0.53733,0.0413 1.072,0.072 1.60533,0.1 0.208,0.0133 0.41734,0.028 0.62534,0.0373 l 0,0 10e-4,0 c 0.63466,0.0293 1.264,0.0453 1.89333,0.056 0.10267,0 0.20667,0 0.30933,0.0133 l 0,0 c 1.47734,0.0187 2.93734,-0.0133 4.37734,-0.0867 0.108,0 0.21466,-0.016 0.32266,-0.0213 0.0133,0 0.02,0 0.0307,0 0,0 0.0133,0 0.0133,0 0.588,-0.0347 1.17334,-0.0733 1.75334,-0.12133 l 0.001,0 10e-4,0 c 0.20266,-0.0173 0.40133,-0.0413 0.60266,-0.0587 0,-0.001 0.0133,-0.001 0.0147,0 10e-4,0 0,0 0,0 0.492,-0.0453 0.98267,-0.092 1.47067,-0.14933 0.24,-0.028 0.47867,-0.0613 0.71867,-0.092 0,0 0.0133,0 0.0147,0 0,0 0,0 0.0133,0 0.44,-0.056 0.88133,-0.112 1.31733,-0.176 0.26533,-0.0387 0.52667,-0.084 0.79067,-0.12667 0.41466,-0.0653 0.82933,-0.132 1.24,-0.20533 0.272,-0.048 0.54133,-0.10267 0.812,-0.15334 0,0 0.0133,0 0.0133,0 0,0 0,0 0.0133,0 0.38933,-0.0747 0.77866,-0.14933 1.164,-0.22933 l 0,0 0,0 c 0.27866,-0.0587 0.556,-0.12133 0.832,-0.18267 l 0,0 0.001,-10e-4 c 0.37466,-0.0827 0.75066,-0.168 1.12266,-0.25733 l 0,0 0,0 c 0.28134,-0.068 0.56,-0.14 0.84,-0.212 0,0 0,0 0.0133,-10e-4 0.001,0 0,0 0,-10e-4 0.35867,-0.0907 0.716,-0.18267 1.07067,-0.27867 l 0,0 c 10e-4,0 0,0 0,0 0.28667,-0.0773 0.57067,-0.15866 0.85467,-0.24 0,-10e-4 0,-10e-4 0,0 l 10e-4,0 c 0.344,-0.0987 0.68666,-0.19733 1.02533,-0.3 l 0.001,-10e-4 0,0 c 0.28933,-0.088 0.57467,-0.17733 0.86,-0.268 0,-10e-4 0,-10e-4 0,-10e-4 10e-4,0 0,0 0,0 0.33067,-0.10534 0.66,-0.21067 0.98533,-0.32 l 10e-4,0 c 0.001,-10e-4 0,-10e-4 0,-10e-4 0.28934,-0.0973 0.57467,-0.196 0.86,-0.296 0.001,0 0,0 0,0 l 0,-10e-4 c 0.31733,-0.11067 0.63333,-0.22267 0.94667,-0.33733 l 10e-4,0 c 0,0 0,0 0,0 0.288,-0.10534 0.57333,-0.21334 0.85733,-0.32134 0.001,0 0,0 0,0 l 0,0 c 0.30667,-0.11733 0.60934,-0.236 0.912,-0.356 0.288,-0.11466 0.57467,-0.22933 0.85867,-0.348 0.001,0 0,0 0,0 0,0 0,-10e-4 0,-10e-4 0.292,-0.12 0.58133,-0.24267 0.86933,-0.36667 0.28934,-0.124 0.57734,-0.24933 0.86267,-0.37733 0.27733,-0.124 0.552,-0.24933 0.82667,-0.37733 0.28933,-0.13334 0.57866,-0.268 0.86533,-0.40534 0.26133,-0.12533 0.52133,-0.25333 0.78,-0.38133 l 10e-4,0 c 0,0 0,0 0,0 0.288,-0.14267 0.576,-0.28533 0.86,-0.43067 0,0 0,0 0,0 l 0,0 c 0.24267,-0.12533 0.48267,-0.252 0.72267,-0.37866 0.001,0 0,0 0,0 0,0 0.0133,0 0.0133,0 0.29067,-0.15334 0.58134,-0.30667 0.868,-0.464 0.22667,-0.124 0.45067,-0.25067 0.676,-0.37734 0.296,-0.16666 0.59334,-0.33333 0.88534,-0.504 0.20133,-0.11733 0.39866,-0.236 0.59733,-0.35466 0,0 10e-4,-10e-4 10e-4,-10e-4 0,0 0.0133,0 0.0133,0 0.30534,-0.18266 0.61067,-0.364 0.91067,-0.54933 0,0 0.001,0 0.001,0 l 10e-4,0 c 0.17333,-0.10667 0.344,-0.21733 0.51466,-0.32533 0.32,-0.20134 0.63867,-0.40267 0.952,-0.608 0.13734,-0.0893 0.27067,-0.18134 0.40667,-0.272 0.34267,-0.228 0.684,-0.456 1.01733,-0.68667 0.0747,-0.052 0.14534,-0.104 0.22,-0.156 3.54134,-2.47733 6.61467,-5.15467 9.14667,-7.86 0,0 10e-4,0 10e-4,0 l 0,-10e-4 0,0 c 0.0133,-0.0133 0.016,-0.016 0.024,-0.024 0.304,-0.32534 0.59867,-0.652 0.888,-0.97867 0.02,-0.0227 0.0413,-0.0453 0.0613,-0.068 l 0,0 10e-4,0 c 0.28267,-0.32133 0.55467,-0.64 0.82,-0.96 10e-4,0 0,0 0,0 l 0,0 c 0.0227,-0.028 0.0467,-0.056 0.0693,-0.0827 0.26134,-0.316 0.51334,-0.63066 0.76,-0.94533 0,0 10e-4,0 10e-4,0 0,0 0.001,0 0.001,0 0.024,-0.0307 0.0493,-0.0627 0.0733,-0.0933 0.244,-0.31334 0.47867,-0.62667 0.708,-0.93867 0.024,-0.0333 0.048,-0.0653 0.072,-0.0987 0.22534,-0.31066 0.44267,-0.62133 0.65334,-0.93066 10e-4,0 0,0 0,0 l 10e-4,0 c 0.02,-0.0293 0.04,-0.0587 0.0587,-0.088 l 0,0 c 0,0 0,0 0,0 0.21066,-0.312 0.412,-0.62134 0.60533,-0.92934 l 0,0 c 0.001,-0.001 0.001,-0.001 0.001,-0.001 0.0173,-0.028 0.0347,-0.0547 0.0507,-0.0827 l 10e-4,0 c 0,0 0.001,0 0.001,0 0.19466,-0.31066 0.37866,-0.61999 0.556,-0.92666 l 0,0 0,-10e-4 c 0.0147,-0.0253 0.0293,-0.0507 0.044,-0.076 0.17733,-0.31067 0.34666,-0.62 0.508,-0.92667 l 0,0 0,0 c 0.0133,-0.0213 0.0213,-0.0427 0.032,-0.0627 0.16133,-0.31066 0.31333,-0.61866 0.45733,-0.924 l 0,0 0,-10e-4 c 0.0133,-0.016 0.0147,-0.032 0.0227,-0.048 l 0,-0.001 0,0 c 0.14533,-0.31066 0.28,-0.61733 0.40666,-0.92266 l 0,0 0,0 c 0,-0.0133 0,-0.016 0.0133,-0.024 l 0,0 c 10e-4,-10e-4 10e-4,0 0,0 0.0933,-0.22934 0.188,-0.45867 0.27066,-0.684 0.2,-0.0667 0.37867,-0.18534 0.53334,-0.352" />
      <path
         sodipodi:nodetypes="ccccc"
         inkscape:connector-curvature="0"
         id="path25242"
         d="m 281.04852,398.36769 c 3.51586,-2.41666 11.66013,-0.73653 14.4428,2.8708 -6.218,5.59334 -11.68547,15.04707 -11.68547,15.04707 l -5.10293,-0.7276 c 0,0 1.46906,-11.2572 2.3456,-17.19027 z"
         style="fill:#552200;fill-rule:evenodd;stroke:none;stroke-width:0.75px;stroke-linecap:butt;stroke-linejoin:miter;stroke-opacity:1" />
    </g>
  </g>
</svg>
