<?xml version="1.0" encoding="UTF-8" standalone="no"?>
<!-- Created with Inkscape (http://www.inkscape.org/) -->

<svg
   xmlns:dc="http://purl.org/dc/elements/1.1/"
   xmlns:cc="http://creativecommons.org/ns#"
   xmlns:rdf="http://www.w3.org/1999/02/22-rdf-syntax-ns#"
   xmlns:svg="http://www.w3.org/2000/svg"
   xmlns="http://www.w3.org/2000/svg"
   xmlns:sodipodi="http://sodipodi.sourceforge.net/DTD/sodipodi-0.dtd"
   xmlns:inkscape="http://www.inkscape.org/namespaces/inkscape"
   width="33.302223mm"
   height="40.421444mm"
   viewBox="0 0 118 143.22559"
   id="svg14277"
   version="1.1"
   inkscape:version="0.91 r13725"
   sodipodi:docname="chaqueta-rosa.svg">
  <defs
     id="defs14279" />
  <sodipodi:namedview
     id="base"
     pagecolor="#ffffff"
     bordercolor="#666666"
     borderopacity="1.0"
     inkscape:pageopacity="0.0"
     inkscape:pageshadow="2"
     inkscape:zoom="0.35"
     inkscape:cx="-323.30915"
     inkscape:cy="-23.288725"
     inkscape:document-units="px"
     inkscape:current-layer="layer1"
     showgrid="false"
     fit-margin-top="0"
     fit-margin-left="0"
     fit-margin-right="0"
     fit-margin-bottom="0"
     inkscape:window-width="1366"
     inkscape:window-height="710"
     inkscape:window-x="0"
     inkscape:window-y="25"
     inkscape:window-maximized="1" />
  <metadata
     id="metadata14282">
    <rdf:RDF>
      <cc:Work
         rdf:about="">
        <dc:format>image/svg+xml</dc:format>
        <dc:type
           rdf:resource="http://purl.org/dc/dcmitype/StillImage" />
        <dc:title></dc:title>
      </cc:Work>
    </rdf:RDF>
  </metadata>
  <g
     inkscape:label="Capa 1"
     inkscape:groupmode="layer"
     id="layer1"
     transform="translate(-86.880581,-365.84789)">
    <g
       transform="matrix(1.1196147,0,0,-1.1196147,-2150.3364,2303.9652)"
       id="g14005">
      <path
         d="m 2077.6062,1636.1449 c -0.074,-0.047 -0.156,-0.111 -0.244,-0.111 l 0,0 c -0.408,0 -1.256,0.044 -5.257,11.495 -1.948,5.572 -3.711,11.237 -3.729,11.293 l 0.516,0.229 c 2.391,-4.399 4.974,-9.825 6.74,-14.16 3.229,-7.927 2.318,-8.531 1.974,-8.746 m 7.268,43.048 c -2.062,2.676 -5.65,9.709 -6.01,19.098 -0.098,2.518 0.245,4.932 1.011,7.179 -2.567,3.88 -12.688,8.116 -16.29,9.53 -1.447,-2.565 -3.562,-4.942 -6.621,-5.944 -3.859,-1.263 -5.386,-1.831 -6.119,-2.104 -0.165,-0.061 -0.4,-0.109 -0.512,-0.149 0.298,-0.276 0.383,-0.667 0.383,-1.104 l 0,-3.17 c 0,-0.451 -0.097,-0.652 -0.411,-0.929 0.255,-27.218 1.172,-70.227 2.712,-76.227 l -0.01,0 0.185,-0.314 c 0.153,-0.09 1.063,-0.482 6.321,-0.482 1.401,0 2.934,-0.029 4.503,0 l -0.751,6.917 0.328,-0.027 c 6.652,-0.309 15.267,1.126 17.943,1.613 0.149,0.108 0.281,0.189 0.386,0.25 0.333,1.945 1.253,11.311 2.07,19.624 0.371,3.78 0.722,7.35 0.995,9.988 0.146,1.414 0.258,2.448 0.342,3.163 0.137,1.161 0.184,1.55 0.512,1.646 0.129,2.29 0.424,9.628 -0.97,11.437"
         style="fill:#ff73cd;fill-opacity:1;fill-rule:nonzero;stroke:none"
         id="path5144"
         inkscape:connector-curvature="0" />
      <path
         d="m 2081.7827,1631.7087 0.039,0.162 c -0.089,-0.077 -0.181,-0.165 -0.276,-0.262 z"
         style="fill:#d3e0af;fill-opacity:1;fill-rule:nonzero;stroke:none"
         id="path5148"
         inkscape:connector-curvature="0" />
      <path
         d="m 2087.1855,1614.8544 c 0.614,-2.408 0.717,-6.452 0.724,-8.655 1.391,-1.294 3.359,-1.949 5.855,-1.949 1.589,0 2.979,0.279 3.66,0.443 0,0.159 0,0.316 0,0.471 -0.101,4.063 1.118,6.901 1.749,8.088 -0.252,0 -0.551,-0.01 -0.892,-0.01 -2.804,0 -8.282,0.195 -11.099,1.609"
         style="fill:#f49dd9;fill-opacity:1;fill-rule:nonzero;stroke:none"
         id="path5152"
         inkscape:connector-curvature="0" />
      <path
         d="m 2034.8596,1630.7727 c -3.978,-0.161 -8.752,-0.354 -11.361,0.014 0.807,-1.172 1.083,-2.515 1.317,-3.675 0.201,-0.992 0.374,-1.848 0.809,-2.37 0.094,-0.113 0.78,-0.675 5.076,-0.675 3.584,0 7.728,0.391 8.292,0.446 0.723,2.327 1.667,5.51 1.795,6.334 -0.642,0.139 -3.326,0.032 -5.928,-0.074"
         style="fill:#f49dd9;fill-opacity:1;fill-rule:nonzero;stroke:none"
         id="path5156"
         inkscape:connector-curvature="0" />
      <path
         d="m 2049.7092,1706.2366 c 0.011,-1.46 0.078,-2.836 0.092,-4.356 0.298,0.066 0.915,0.331 0.915,0.648 l 0,3.17 c 0,0.33 -0.545,0.455 -1.007,0.538"
         style="fill:#f49dd9;fill-opacity:1;fill-rule:nonzero;stroke:none"
         id="path5160"
         inkscape:connector-curvature="0" />
      <path
         d="m 2048.7161,1705.6985 0,-3.17 c 0,-0.078 0,-0.152 0.021,-0.222 -0.014,1.508 -0.015,2.691 -0.022,3.482 0,-0.03 0,-0.059 0,-0.09"
         style="fill:#d3e0af;fill-opacity:1;fill-rule:nonzero;stroke:none"
         id="path5164"
         inkscape:connector-curvature="0" />
      <path
         d="m 2084.8442,1712.2445 c -1.004,-0.962 -3.286,-3.369 -4.494,-6.825 -0.775,-2.218 -1.12,-4.609 -1.024,-7.108 0.356,-9.246 3.873,-16.152 5.895,-18.775 1.538,-1.996 1.219,-9.57 1.084,-11.859 0.132,-0.098 0.24,-0.281 0.24,-0.629 0,-1.319 0.03,-3.499 0.061,-5.807 0.037,-2.726 0.08,-5.816 0.08,-8.033 0,-1.303 0.056,-3.24 0.122,-5.483 0.136,-4.627 0.306,-10.385 0.015,-13 -0.158,-1.418 -0.547,-2.774 -0.89,-3.971 -0.583,-2.031 -1.086,-3.784 -0.309,-5.104 1.333,-2.267 0.921,-7.899 0.803,-9.215 0.159,-0.202 0.301,-0.482 0.426,-0.82 2.783,-1.858 10.535,-1.834 12.554,-1.794 0.015,0.024 0.027,0.041 0.032,0.048 l 0.061,0.091 0.092,0.061 c 1.016,0.677 1.156,2.233 1.157,2.249 l 0,0.038 c 0.409,2.725 1.258,17.188 1.541,26.23 0.034,1.094 0.06,2.167 0.069,3.256 -0.014,7.123 -0.613,15.649 -4.891,34.837 -4.481,20.1 -11.256,29.839 -12.629,31.613"
         style="fill:#ff73cd;fill-opacity:1;fill-rule:nonzero;stroke:none"
         id="path5168"
         inkscape:connector-curvature="0" />
      <path
         d="m 2006.9677,1606.7196 c 0.361,-0.06 0.752,-0.09 1.168,-0.09 3.205,0 7.113,1.755 8.446,2.403 -0.219,1.613 -0.297,3.596 -0.29,5.14 -0.017,1.17 0.015,2.224 0.087,2.923 -2.225,-0.793 -8.712,-3.026 -11.767,-3.284 1.154,-1.709 2.01,-5.405 2.356,-7.092"
         style="fill:#f49dd9;fill-opacity:1;fill-rule:nonzero;stroke:none"
         id="path5172"
         inkscape:connector-curvature="0" />
      <path
         d="m 2049.0288,1707.3419 c 0.804,0.134 0.804,0.134 1.522,0.401 0.349,0.13 0.882,0.328 1.752,0.634 2.745,2.759 4.464,8.992 5.463,14.135 -2.441,-0.306 -4.935,-0.413 -7.202,-0.413 -3.837,0 -7.019,0.298 -8.195,0.425 0.558,-8.998 5.16,-14.133 6.128,-15.116 0.25,-0.06 0.433,-0.082 0.532,-0.066"
         style="fill:#b55d9e;fill-opacity:1;fill-rule:nonzero;stroke:none"
         id="path5176"
         inkscape:connector-curvature="0" />
      <path
         d="m 2033.4797,1658.047 c -0.013,-0.048 -1.33,-4.873 -2.768,-9.658 -2.956,-9.843 -3.504,-9.934 -3.832,-9.989 l -0.07,-0.01 c -0.156,0 -0.293,0.086 -0.376,0.238 -0.769,1.41 2.39,13.192 6.538,19.64 l 0.988,1.536 z m 15.387,43.162 c -0.527,0.235 -1.151,0.706 -1.151,1.32 l 0,3.169 c 0,0.353 0.389,0.511 0.592,0.768 -0.01,0 0,0 -0.197,0.167 l 0.192,-0.167 c 0,0 -0.22,0.158 -0.251,0.188 -1.739,0.473 -4.822,2.01 -7.634,4.33 -1.27,1.046 -2.652,2.397 -3.807,4.023 -1.869,-0.928 -10.975,-5.544 -15.561,-9.57 1.027,-3.074 1.726,-7.204 1.377,-12.591 -0.888,-13.663 -4.148,-22.873 -5.34,-25.47 l 0.047,-0.109 c 1.704,-4.06 2.404,-15.102 2.433,-15.57 0.367,-16.723 1.917,-19.015 2.104,-19.231 l 0.01,0 c 0.514,-0.301 0.932,-0.644 1.283,-1.013 2.293,-0.5 7.769,-0.279 11.874,-0.113 4.844,0.196 6.106,0.205 6.419,-0.096 0.07,-0.067 0.109,-0.155 0.109,-0.248 0,-0.653 -1.274,-4.831 -1.789,-6.494 1.683,-0.097 3.333,-0.149 4.907,-0.149 3.206,0 5.526,0.205 6.885,0.372 -0.552,2.029 -1.442,9.708 -2.133,41.698 -0.295,13.647 -0.292,27.34 -0.368,34.791"
         style="fill:#ff73cd;fill-opacity:1;fill-rule:nonzero;stroke:none"
         id="path5180"
         inkscape:connector-curvature="0" />
      <path
         d="m 2040.9576,1711.6343 c 2.183,-1.8 4.364,-2.995 5.922,-3.659 -2.188,2.729 -6.404,9.496 -5.201,19.995 -2.049,-2.146 -5.06,-3.73 -5.902,-4.15 l -0.33,-0.988 c -0.046,-0.293 -0.228,-0.588 -0.559,-0.904 0.277,-4.587 3.432,-8.119 6.07,-10.294"
         style="fill:#f49dd9;fill-opacity:1;fill-rule:nonzero;stroke:none"
         id="path5184"
         inkscape:connector-curvature="0" />
      <path
         d="m 2049.5698,1701.0353 c 0.289,-30.732 1.168,-71.933 2.627,-76.202 0.296,0.045 0.481,0.079 0.552,0.092 -1.784,7.192 -2.442,58.746 -2.616,76.283 -0.171,-0.093 -0.361,-0.152 -0.563,-0.173"
         style="fill:#f49dd9;fill-opacity:1;fill-rule:nonzero;stroke:none"
         id="path5188"
         inkscape:connector-curvature="0" />
      <path
         d="m 2020.8496,1705.9084 c 4.633,3.988 13.559,8.512 15.563,9.51 -1.11,1.678 -2.078,3.688 -2.319,5.889 -1.297,-0.87 -3.574,-1.951 -7.075,-3.55 -3.713,-1.696 -7.895,-3.607 -10.043,-5.274 0.826,-0.821 2.562,-2.956 3.874,-6.575"
         style="fill:#b55d9e;fill-opacity:1;fill-rule:nonzero;stroke:none"
         id="path5192"
         inkscape:connector-curvature="0" />
      <path
         d="m 2016.5342,1712.118 c -3.075,-2.66 -3.914,-5.699 -5.165,-10.26 -0.389,-1.42 -0.831,-3.029 -1.39,-4.804 -2.358,-7.493 -7.672,-28.03 -7.726,-28.237 -1.989,-7.958 -3.375,-24.868 -2.795,-34.135 0.512,-8.201 4.024,-18.678 4.545,-20.194 0.057,-0.042 0.114,-0.092 0.17,-0.145 2.398,0.029 8.704,2.083 12.307,3.385 0.01,0.029 0.015,0.057 0.023,0.081 0.079,0.237 0.564,1.747 0.652,3.298 -0.026,0.569 -0.111,1.129 -0.292,1.635 -0.415,1.163 -0.744,4.356 -1.093,7.737 -0.217,2.105 -0.441,4.283 -0.708,6.195 -0.129,0.93 -0.175,2.549 -0.165,4.566 -0.032,8.42 1.099,25.009 1.157,25.847 l 0.162,2.364 0.572,-1.361 c 1.305,3.072 4.242,11.928 5.077,24.792 0.787,12.121 -3.944,17.835 -5.331,19.236"
         style="fill:#ff73cd;fill-opacity:1;fill-rule:nonzero;stroke:none"
         id="path5196"
         inkscape:connector-curvature="0" />
      <path
         d="m 2026.8746,1639.09 c 0.93,1.355 3.619,10.32 5.496,17.053 -3.433,-6.344 -5.702,-15.453 -5.496,-17.053"
         style="fill:#b55d9e;fill-opacity:1;fill-rule:nonzero;stroke:none"
         id="path5200"
         inkscape:connector-curvature="0" />
      <path
         d="m 2063.8975,1630.8833 0.685,-6.338 c 5.706,0.132 11.732,0.423 13.502,0.512 0.186,3.969 1.53,6.16 2.635,7.305 -3.341,-0.577 -10.804,-1.706 -16.822,-1.479"
         style="fill:#f49dd9;fill-opacity:1;fill-rule:nonzero;stroke:none"
         id="path5204"
         inkscape:connector-curvature="0" />
      <path
         d="m 2042.3373,1723.0928 c 1.713,-0.188 8.856,-0.867 15.539,0 0.545,2.916 0.855,5.408 0.988,6.603 0,0 0,0 -0.01,0.01 -2.827,-0.711 -6.003,-1.074 -9.458,-1.074 -3.236,0 -5.75,0.316 -6.718,0.459 -0.326,-2.151 -0.423,-4.15 -0.346,-5.992"
         style="fill:#f49dd9;fill-opacity:1;fill-rule:nonzero;stroke:none"
         id="path5208"
         inkscape:connector-curvature="0" />
      <path
         d="m 2069.8596,1656.0233 c 3.052,-9.501 6.448,-18.782 7.478,-19.326 0.126,0.183 0.482,1.342 -2.227,7.991 -1.402,3.444 -3.323,7.578 -5.251,11.335"
         style="fill:#b55d9e;fill-opacity:1;fill-rule:nonzero;stroke:none"
         id="path5212"
         inkscape:connector-curvature="0" />
      <path
         d="m 2059.6194,1728.8392 c -0.477,-4.025 -2.062,-14.83 -5.767,-19.929 0.775,0.263 1.709,0.575 2.849,0.948 2.753,0.901 4.701,3.078 6.063,5.46 l 0.278,0.506 c 1.625,3.055 2.33,6.319 2.561,7.605 -0.073,0.034 -0.136,0.064 -0.188,0.089 l -0.717,1.578 c -0.077,0.027 -0.154,0.059 -0.232,0.092 l -0.111,0.014 c -1.289,0.161 -3.386,2.166 -4.736,3.637"
         style="fill:#f49dd9;fill-opacity:1;fill-rule:nonzero;stroke:none"
         id="path5216"
         inkscape:connector-curvature="0" />
      <path
         d="m 2063.5847,1715.4974 c 3.596,-1.417 13.554,-5.493 16.521,-9.384 1.269,3.32 3.73,5.632 4.726,6.576 -5.402,4.345 -15.193,9.342 -18.435,10.919 -0.268,-1.464 -1.247,-5.142 -2.812,-8.111"
         style="fill:#b55d9e;fill-opacity:1;fill-rule:nonzero;stroke:none"
         id="path5220"
         inkscape:connector-curvature="0" />
      <path
         d="m 2102.4636,1645.7944 c -0.01,-1.089 -0.035,-2.162 -0.07,-3.255 -0.282,-9.043 -1.132,-23.506 -1.54,-26.231 l -0.01,-0.038 c 0,-0.016 -0.141,-1.571 -1.157,-2.249 l -0.092,-0.061 -0.062,-0.091 c 0,-0.01 -0.016,-0.024 -0.031,-0.048 0.297,0.01 0.472,0.013 0.486,0.013 l 0.022,-0.562 c -0.072,0 -0.373,-0.013 -0.838,-0.02 -0.631,-1.187 -1.85,-4.025 -1.749,-8.088 0.01,-0.154 0.01,-0.309 0.017,-0.466 -0.01,0 -0.014,0 -0.02,0 -0.681,-0.164 -2.071,-0.443 -3.66,-0.443 -2.496,0 -4.464,0.655 -5.855,1.949 -0.01,2.203 -0.11,6.247 -0.724,8.655 -0.668,0.335 -1.187,0.738 -1.484,1.224 l 0.479,0.294 c 0.172,-0.282 0.436,-0.533 0.771,-0.757 -0.125,0.338 -0.266,0.618 -0.426,0.82 0.118,1.316 0.531,6.948 -0.803,9.215 -0.776,1.32 -0.273,3.073 0.309,5.104 0.344,1.197 0.733,2.553 0.89,3.971 0.291,2.615 0.122,8.373 -0.014,13 -0.066,2.243 -0.123,4.18 -0.123,5.483 0,2.217 -0.042,5.307 -0.079,8.033 -0.032,2.308 -0.062,4.488 -0.062,5.807 0,0.348 -0.107,0.531 -0.239,0.629 -0.021,-0.359 -0.038,-0.593 -0.043,-0.649 l -0.56,0.041 c 0,0.016 0.019,0.267 0.043,0.686 -0.328,-0.096 -0.376,-0.485 -0.513,-1.646 -0.084,-0.714 -0.196,-1.749 -0.342,-3.163 -0.273,-2.639 -0.623,-6.209 -0.995,-9.989 -0.816,-8.313 -1.737,-17.681 -2.069,-19.625 -0.106,-0.062 -0.238,-0.146 -0.387,-0.254 0.516,0.094 0.814,0.153 0.832,0.157 l 0.11,-0.552 c -0.026,0 -0.679,-0.134 -1.761,-0.321 -1.105,-1.145 -2.449,-3.337 -2.636,-7.305 -1.769,-0.089 -7.796,-0.38 -13.501,-0.512 l 0.029,-0.274 -0.559,-0.061 -0.035,0.322 c -1.569,-0.034 -3.103,-0.055 -4.504,-0.055 -5.258,0 -6.17,0.492 -6.324,0.581 l -0.19,0.315 0,0 c 0.087,-1 0.175,-0.746 0.266,-0.832 l -0.194,-0.303 c -0.11,0.105 -0.217,0.323 -0.319,0.737 -0.071,-0.014 -0.256,-0.072 -0.551,-0.117 0.046,-0.136 0.093,-0.248 0.141,-0.308 l -0.59,-0.608 c -0.096,0.091 -0.227,0.213 -0.381,0.781 -1.359,-0.167 -3.679,-0.374 -6.885,-0.374 -1.574,0 -3.224,0.051 -4.906,0.149 -0.094,-0.303 -0.163,-0.523 -0.194,-0.623 l -0.537,0.168 c 0.048,0.152 0.097,0.308 0.147,0.469 -0.564,-0.055 -4.708,-0.446 -8.292,-0.446 -4.296,0 -4.982,0.562 -5.076,0.675 -0.435,0.522 -0.608,1.379 -0.809,2.37 -0.234,1.16 -0.51,2.503 -1.317,3.675 -0.571,0.08 -1.04,0.187 -1.373,0.328 l 0.219,0.518 c 0.166,-0.071 0.374,-0.132 0.618,-0.185 -0.351,0.37 -0.769,0.713 -1.283,1.013 l -0.01,0.01 c -0.187,0.216 -1.737,2.509 -2.104,19.231 -0.029,0.468 -0.728,11.51 -2.433,15.57 l -0.046,0.11 c -0.086,-0.187 -0.162,-0.342 -0.224,-0.46 l -0.497,0.265 c 0.107,0.2 0.25,0.507 0.421,0.908 l -0.572,1.362 -0.162,-2.364 c -0.058,-0.838 -1.189,-17.427 -1.156,-25.848 0.01,-1.68 0.059,-3.038 0.176,-3.877 0.264,-1.892 0.487,-4.059 0.703,-6.155 0.371,-3.6 0.691,-6.709 1.152,-8 0.222,-0.621 0.269,-1.365 0.227,-2.1 -0.088,-1.551 -0.573,-3.061 -0.653,-3.298 -0.01,-0.024 -0.015,-0.052 -0.023,-0.081 0.158,0.057 0.313,0.113 0.46,0.167 l 0.194,-0.528 c -0.064,-0.023 -0.335,-0.122 -0.755,-0.272 -0.072,-0.699 -0.104,-1.753 -0.087,-2.922 0.025,-1.693 0.15,-3.63 0.397,-5.089 -0.033,-0.017 -0.07,-0.034 -0.107,-0.052 -1.333,-0.648 -5.241,-2.403 -8.446,-2.403 -0.416,0 -0.807,0.031 -1.168,0.09 -0.346,1.688 -1.202,5.383 -2.356,7.092 -0.19,-0.016 -0.37,-0.027 -0.53,-0.027 -0.238,0 -0.443,0.019 -0.609,0.058 l 0.129,0.547 c 0.151,-0.035 0.346,-0.049 0.571,-0.046 -0.056,0.053 -0.112,0.103 -0.169,0.145 -0.521,1.515 -4.033,11.993 -4.546,20.193 -0.579,9.267 0.806,26.178 2.796,34.136 0.053,0.207 5.367,20.744 7.726,28.237 0.559,1.775 1,3.384 1.39,4.803 1.251,4.562 2.09,7.601 5.165,10.261 -0.227,0.228 -0.367,0.346 -0.377,0.354 l 0.352,0.439 c 0.04,-0.032 0.21,-0.174 0.466,-0.428 2.148,1.667 6.33,3.578 10.043,5.274 3.501,1.599 5.778,2.68 7.075,3.55 -0.035,0.316 -0.058,0.637 -0.067,0.963 l 0.844,0.022 c 0,-0.122 0.01,-0.244 0.017,-0.364 0.331,0.316 0.513,0.611 0.559,0.903 l 0.33,0.989 c 0.842,0.419 3.853,2.004 5.902,4.15 0.067,0.59 0.151,1.192 0.254,1.806 l 0.832,-0.14 c -0.031,-0.187 -0.053,-0.367 -0.082,-0.552 0.968,-0.142 3.482,-0.459 6.719,-0.459 3.455,0 6.631,0.363 9.458,1.074 0,10e-4 0,10e-4 0.01,0 0.051,0.459 0.076,0.726 0.078,0.746 l 0.84,-0.076 c -0.01,-0.1 -0.048,-0.515 -0.122,-1.171 1.075,-1.205 3.086,-3.275 4.805,-4.012 0.078,-0.033 0.155,-0.065 0.231,-0.093 0.108,-0.039 0.216,-0.077 0.32,-0.103 l 0.62,-1.364 c 0.038,0.225 0.056,0.355 0.058,0.367 l 0.836,-0.108 c -0.01,-0.065 -0.043,-0.318 -0.113,-0.714 2.409,-1.155 12.268,-5.996 18.018,-10.534 0.281,0.256 0.462,0.395 0.491,0.417 l 0.339,-0.449 c -0.01,-0.01 -0.164,-0.126 -0.422,-0.363 1.188,-1.552 8.072,-11.169 12.5,-31.034 4.449,-19.956 5.18,-28.049 5.119,-35.416 m -4.021,35.661 c -4.895,21.958 -12.589,31.348 -12.914,31.737 l -0.077,0.077 c -6.14,4.964 -17.321,10.339 -18.912,11.093 l -0.747,1.645 -0.312,0.039 c -1.661,0.207 -4.664,3.477 -5.682,4.72 l -0.232,0.283 -0.353,-0.098 c -2.889,-0.797 -6.191,-1.201 -9.812,-1.201 -3.981,0 -6.927,0.505 -6.956,0.51 l -0.37,0.065 -0.202,-0.317 c -0.131,-0.206 -0.279,-0.41 -0.439,-0.61 -0.802,-1.01 -1.92,-1.93 -2.996,-2.681 -1.721,-1.203 -3.334,-1.973 -3.361,-1.986 l -0.218,-0.103 -0.11,-0.33 -0.388,-1.164 -0.02,-0.05 0,-0.071 c -0.069,-0.239 -0.526,-0.591 -1.216,-1.005 -1.57,-0.944 -4.353,-2.216 -6.569,-3.228 -3.944,-1.801 -8.414,-3.842 -10.579,-5.658 -0.021,-0.017 -0.039,-0.035 -0.059,-0.052 -3.43,-2.905 -4.308,-6.097 -5.629,-10.915 -0.387,-1.41 -0.826,-3.008 -1.378,-4.763 -2.368,-7.521 -7.689,-28.087 -7.743,-28.298 -2.049,-8.196 -3.424,-24.955 -2.828,-34.483 0.56,-8.974 4.63,-20.567 4.671,-20.683 l 0.08,-0.225 0.218,-0.099 c 0.792,-0.361 1.984,-4.159 2.633,-7.471 l 0.071,-0.357 0.354,-0.083 c 0.536,-0.125 1.133,-0.189 1.773,-0.189 3.252,0 7.02,1.602 8.642,2.371 0.466,0.222 0.757,0.375 0.805,0.4 l 0.369,0.197 -0.082,0.41 c -0.568,2.842 -0.521,7.907 -0.299,8.571 0.21,0.631 1.218,3.891 0.418,6.133 -0.416,1.162 -0.745,4.355 -1.093,7.736 -0.217,2.106 -0.441,4.284 -0.708,6.195 -0.414,2.968 0.023,12.966 0.44,20.505 0.122,2.205 0.242,4.2 0.339,5.747 1.017,-4.861 1.472,-12.048 1.477,-12.12 0.269,-12.317 1.223,-19.444 2.692,-20.174 1.874,-1.106 2.232,-2.875 2.578,-4.587 0.221,-1.093 0.43,-2.126 1.047,-2.867 0.419,-0.503 1.473,-1.08 5.94,-1.08 3.68,0 7.934,0.406 8.424,0.454 1.839,-0.114 3.642,-0.172 5.358,-0.172 4.796,0 7.609,0.441 8.339,0.572 0.601,-0.233 2.088,-0.443 6.692,-0.443 6.603,10e-4 16.13,0.456 18.562,0.578 0.362,0.018 0.568,0.029 0.583,0.03 l 0.522,0.027 0.011,0.523 c 0.082,4.018 1.373,6.095 2.354,7.098 0.095,0.097 0.188,0.185 0.276,0.263 0.446,0.396 0.782,0.552 0.823,0.57 l 0.263,0.111 0.066,0.278 c 0.245,1.045 0.919,7.641 1.653,15.063 0.161,1.628 0.325,3.296 0.488,4.954 0.171,1.743 0.344,3.5 0.508,5.158 0.021,-1.738 0.037,-3.434 0.037,-4.797 0,-1.319 0.056,-3.264 0.123,-5.517 0.134,-4.591 0.301,-10.305 0.019,-12.842 -0.147,-1.323 -0.508,-2.575 -0.855,-3.785 -0.627,-2.185 -1.223,-4.248 -0.202,-5.984 1.075,-1.829 0.809,-6.97 0.62,-8.797 l -0.057,-0.355 0.308,-0.184 c 0.679,-0.483 1.1,-5.449 1.1,-9.784 l 0,-0.233 0.2,-0.165 c 1.616,-1.617 3.961,-2.437 6.866,-2.437 1.558,0 2.903,0.242 3.693,0.422 0.437,0.098 0.7,0.178 0.729,0.187 l 0.427,0.132 -0.034,0.447 c -0.367,5.016 1.488,8.298 1.822,8.844 1.318,0.961 1.528,2.765 1.55,3.002 0.422,2.851 1.261,17.102 1.55,26.344 0.26,8.312 0.048,15.971 -5.076,38.952"
         style="fill:#000000;fill-opacity:1;fill-rule:nonzero;stroke:none"
         id="path5224"
         inkscape:connector-curvature="0" />
      <path
         d="m 2063.0427,1715.824 c 0.106,-0.037 0.202,-0.094 0.343,-0.143 l 0.019,-0.01 c 0.136,-0.053 0.286,-0.119 0.448,-0.183 1.565,2.969 2.276,6.091 2.544,7.555 0.01,0.044 0.015,0.086 0.022,0.127 0.07,0.396 0.105,0.65 0.113,0.714 l -0.836,0.109 c 0,-0.012 -0.02,-0.143 -0.058,-0.367 -0.01,-0.06 -0.022,-0.127 -0.035,-0.2 -0.23,-1.286 -0.935,-4.55 -2.56,-7.605"
         style="fill:#000000;fill-opacity:1;fill-rule:nonzero;stroke:none"
         id="path5228"
         inkscape:connector-curvature="0" />
      <path
         d="m 2056.7012,1709.8583 c -1.14,-0.373 -2.074,-0.685 -2.848,-0.948 -0.324,-0.446 -0.664,-0.85 -1.022,-1.2 l -0.59,0.603 c 0.021,0.02 0.041,0.043 0.062,0.063 -0.87,-0.305 -1.403,-0.503 -1.752,-0.633 -0.718,-0.267 -0.718,-0.267 -1.522,-0.401 -0.099,-0.016 -0.282,0.01 -0.533,0.066 0.108,-0.11 0.175,-0.173 0.182,-0.179 l -0.538,-0.596 c 0.01,0 0.014,-0.42 0.022,-0.422 0.277,0.35 0.699,0.162 1.179,0.162 l 0.077,0 c 0.325,0 0.8,0.312 1.046,0.136 l 0.252,0.362 0,-0.035 c 0,-0.021 -0.126,-0.025 -0.102,-0.047 0.112,0.04 0.154,0.095 0.319,0.156 0.733,0.273 2.216,0.844 6.075,2.107 3.059,1.002 5.152,3.381 6.599,5.946 -0.333,0.131 -0.622,0.239 -0.832,0.319 -1.362,-2.382 -3.321,-4.558 -6.074,-5.459"
         style="fill:#000000;fill-opacity:1;fill-rule:nonzero;stroke:none"
         id="path5232"
         inkscape:connector-curvature="0" />
      <path
         d="m 2036.7097,1715.6819 0.245,-0.506 c -0.011,0 -0.133,-0.065 -0.342,-0.169 1.155,-1.626 2.539,-2.977 3.808,-4.023 2.813,-2.32 5.899,-3.857 7.639,-4.33 -0.147,0.141 -0.589,0.583 -1.18,1.321 -1.558,0.664 -3.739,1.86 -5.922,3.659 -2.638,2.176 -5.793,5.708 -6.07,10.294 -0.01,0.121 -0.014,0.242 -0.017,0.365 l -0.844,-0.023 c 0.01,-0.325 0.032,-0.646 0.066,-0.962 0.242,-2.201 1.089,-4.153 2.199,-5.832 0.255,0.126 0.406,0.2 0.418,0.206"
         style="fill:#000000;fill-opacity:1;fill-rule:nonzero;stroke:none"
         id="path5236"
         inkscape:connector-curvature="0" />
      <path
         d="m 2057.802,1723.0912 c 0.117,0.015 0.272,0.029 0.389,0.046 l 0.096,-0.557 c -0.18,-0.025 -0.35,-0.046 -0.53,-0.069 -1,-5.142 -2.714,-11.375 -5.459,-14.134 -0.02,-0.021 -0.038,-0.044 -0.059,-0.064 l 0.592,-0.603 c 0.357,0.35 0.697,0.755 1.021,1.2 3.705,5.099 5.29,15.904 5.767,19.929 0.015,0.127 0.029,0.249 0.042,0.361 0.075,0.656 0.114,1.072 0.123,1.171 l -0.915,0.077 c 0,-0.021 -0.153,-0.288 -0.153,-0.747 l 0,-0.01 c 0,-1.195 -0.369,-3.688 -0.914,-6.603"
         style="fill:#000000;fill-opacity:1;fill-rule:nonzero;stroke:none"
         id="path5240"
         inkscape:connector-curvature="0" />
      <path
         d="m 2046.8793,1707.9751 c 0.592,-0.738 1.033,-1.18 1.18,-1.321 0.031,-0.03 0.05,-0.048 0.054,-0.051 l 0.065,-0.058 0.5,0.684 c -0.01,0.01 -0.074,0.069 -0.182,0.179 -0.967,0.983 -5.569,6.118 -6.128,15.115 -0.304,0.033 -0.476,0.055 -0.488,0.056 l 0.071,0.558 c 0.011,-10e-4 0.146,-0.018 0.386,-0.044 -0.077,1.841 0.02,3.841 0.346,5.992 0.028,0.184 0.05,0.365 0.081,0.551 l -0.832,0.141 c -0.103,-0.615 -0.186,-1.216 -0.254,-1.807 -1.203,-10.499 3.014,-17.266 5.201,-19.995"
         style="fill:#000000;fill-opacity:1;fill-rule:nonzero;stroke:none"
         id="path5244"
         inkscape:connector-curvature="0" />
      <path
         d="m 2049.4177,1700.3732 -0.076,0 c -0.219,0 -0.425,0.372 -0.613,0.456 0.076,-7.451 0.24,-20.926 0.535,-34.573 0.692,-31.99 1.552,-39.588 2.104,-41.617 0.154,-0.568 0.285,-0.652 0.381,-0.744 l 0.59,0.623 c -0.048,0.059 -0.095,0.17 -0.141,0.305 -1.46,4.269 -2.339,45.151 -2.628,75.884 -0.051,-0.01 -0.1,-0.334 -0.152,-0.334"
         style="fill:#000000;fill-opacity:1;fill-rule:nonzero;stroke:none"
         id="path5248"
         inkscape:connector-curvature="0" />
      <path
         d="m 2049.4177,1706.3732 -0.076,0 c -0.336,0 -0.611,-0.256 -0.656,-0.579 0.01,-0.792 0.017,-1.723 0.032,-3.231 0.092,-0.257 0.335,-0.19 0.624,-0.19 l 0.076,0 c 0.05,0 0.098,-0.248 0.144,-0.238 -0.014,1.52 -0.026,2.89 -0.037,4.35 -0.035,0.01 -0.07,-0.112 -0.107,-0.112"
         style="fill:#000000;fill-opacity:1;fill-rule:nonzero;stroke:none"
         id="path5252"
         inkscape:connector-curvature="0" />
      <path
         d="m 2050.1333,1701.2086 c 0.174,-17.537 0.832,-69.091 2.615,-76.283 0.103,-0.414 0.209,-0.681 0.319,-0.786 l 0.195,0.203 c -0.091,0.087 -0.18,0.303 -0.266,0.634 -1.539,5.908 -2.331,49.207 -2.586,76.425 -0.085,-0.075 -0.177,-0.139 -0.277,-0.193"
         style="fill:#000000;fill-opacity:1;fill-rule:nonzero;stroke:none"
         id="path5256"
         inkscape:connector-curvature="0" />
      <path
         d="m 2050.5132,1706.7583 -0.225,0.168 c 0.027,-0.019 -0.039,-0.272 -0.014,-0.293 0,0.022 0.239,0.104 0.239,0.125"
         style="fill:#000000;fill-opacity:1;fill-rule:nonzero;stroke:none"
         id="path5260"
         inkscape:connector-curvature="0" />
      <path
         d="m 2021.0504,1705.4369 c -0.051,-0.045 -0.105,-0.09 -0.155,-0.135 l -0.375,0.42 c 0.106,0.095 0.218,0.19 0.329,0.286 -1.312,3.619 -3.048,5.654 -3.873,6.475 -0.256,0.255 -0.427,0.397 -0.467,0.428 l -0.352,-0.439 c 0.01,-0.01 0.15,-0.125 0.377,-0.354 1.387,-1.401 6.118,-7.115 5.331,-19.236 -0.835,-12.864 -3.772,-21.72 -5.078,-24.792 -0.17,-0.402 -0.314,-0.709 -0.421,-0.909 l 0.497,-0.264 c 0.062,0.117 0.138,0.273 0.224,0.459 1.192,2.597 4.452,11.807 5.339,25.47 0.35,5.387 -0.349,9.517 -1.376,12.591"
         style="fill:#000000;fill-opacity:1;fill-rule:nonzero;stroke:none"
         id="path5264"
         inkscape:connector-curvature="0" />
      <path
         d="m 2085.3201,1679.536 c -2.022,2.623 -5.539,9.529 -5.895,18.776 -0.095,2.498 0.249,4.889 1.025,7.107 1.208,3.456 3.186,5.671 4.19,6.634 0.073,0.07 0.142,0.135 0.204,0.191 0.259,0.237 0.416,0.359 0.423,0.364 l -0.339,0.449 c -0.03,-0.023 -0.21,-0.162 -0.492,-0.417 -0.054,-0.05 -0.113,-0.105 -0.174,-0.163 -0.997,-0.944 -2.887,-3.044 -4.157,-6.363 0.116,-0.151 0.223,-0.302 0.318,-0.453 l -0.477,-0.298 c -0.023,0.035 -0.048,0.071 -0.071,0.106 -0.766,-2.246 -1.108,-4.66 -1.011,-7.178 0.361,-9.389 3.948,-16.422 6.01,-19.098 1.394,-1.809 1.1,-9.147 0.97,-11.437 -0.024,-0.42 -0.042,-0.671 -0.043,-0.686 l 0.561,-0.042 c 0,0.056 0.021,0.29 0.042,0.65 0.135,2.289 0.454,9.863 -1.084,11.858"
         style="fill:#000000;fill-opacity:1;fill-rule:nonzero;stroke:none"
         id="path5268"
         inkscape:connector-curvature="0" />
      <path
         d="m 2064.6643,1715.1661 c -0.154,0.062 -0.3,0.12 -0.429,0.171 l -0.029,0.011 -0.316,0.134 c -0.312,0.112 -0.819,0.331 -0.848,0.342 l -0.278,-0.506 c 0.048,-0.019 0.632,-0.245 0.856,-0.332 0.2,-0.077 0.47,-0.186 0.787,-0.313 3.426,-1.368 12.971,-5.458 15.474,-9.213 0.023,-0.034 0.043,-0.063 0.064,-0.097 l 0.477,0.288 c -0.089,0.146 -0.192,0.292 -0.301,0.438 -2.822,3.763 -12.036,7.707 -15.457,9.077"
         style="fill:#000000;fill-opacity:1;fill-rule:nonzero;stroke:none"
         id="path5272"
         inkscape:connector-curvature="0" />
      <path
         d="m 2036.7097,1715.6819 c -0.012,-0.01 -0.163,-0.08 -0.418,-0.206 -2.004,-0.998 -10.809,-5.481 -15.442,-9.468 -0.111,-0.096 -0.223,-0.191 -0.329,-0.286 l 0.375,-0.42 c 0.05,0.045 0.104,0.09 0.155,0.135 4.586,4.026 13.693,8.642 15.562,9.57 0.209,0.104 0.331,0.164 0.342,0.169 z"
         style="fill:#000000;fill-opacity:1;fill-rule:nonzero;stroke:none"
         id="path5276"
         inkscape:connector-curvature="0" />
      <path
         d="m 2057.7659,1722.5116 c 0.18,0.022 0.36,0.043 0.54,0.068 l -0.077,0.557 c -0.117,-0.016 -0.235,-0.03 -0.353,-0.045 -6.683,-0.865 -13.826,-0.186 -15.539,10e-4 -0.24,0.027 -0.375,0.043 -0.385,0.045 l -0.071,-0.558 c 0.011,0 0.183,-0.023 0.488,-0.056 1.176,-0.126 4.358,-0.424 8.195,-0.424 2.267,0 4.761,0.106 7.202,0.412"
         style="fill:#000000;fill-opacity:1;fill-rule:nonzero;stroke:none"
         id="path5280"
         inkscape:connector-curvature="0" />
      <path
         d="m 2063.5957,1631.459 -0.328,0.015 0.75,-6.942 0.035,-0.321 0.559,0.06 -0.029,0.274 -0.685,6.338 c 6.018,-0.227 13.481,0.903 16.822,1.48 1.082,0.186 1.735,0.315 1.761,0.32 l -0.11,0.552 c -0.018,0 -0.316,-0.062 -0.832,-0.156 -2.676,-0.487 -11.291,-1.928 -17.943,-1.62"
         style="fill:#000000;fill-opacity:1;fill-rule:nonzero;stroke:none"
         id="path5284"
         inkscape:connector-curvature="0" />
      <path
         d="m 2041.256,1631.239 c -0.313,0.301 -1.575,0.292 -6.419,0.096 -4.105,-0.166 -9.581,-0.387 -11.875,0.113 -0.243,0.053 -0.451,0.114 -0.617,0.184 l -0.219,-0.518 c 0.332,-0.14 0.801,-0.247 1.373,-0.328 2.608,-0.367 7.383,-0.174 11.361,-0.013 2.602,0.105 5.286,0.213 5.927,0.074 -0.127,-0.824 -1.071,-4.007 -1.795,-6.334 -0.05,-0.161 -0.099,-0.318 -0.146,-0.47 l 0.537,-0.168 c 0.031,0.1 0.1,0.32 0.193,0.622 0.515,1.663 1.788,5.841 1.788,6.494 0,0.093 -0.038,0.181 -0.108,0.248"
         style="fill:#000000;fill-opacity:1;fill-rule:nonzero;stroke:none"
         id="path5288"
         inkscape:connector-curvature="0" />
      <path
         d="m 2086.9519,1615.6156 c -0.335,0.224 -0.599,0.475 -0.771,0.756 l -0.48,-0.293 c 0.298,-0.486 0.817,-0.889 1.485,-1.224 2.817,-1.414 8.295,-1.61 11.099,-1.61 0.341,0 0.639,0 0.891,0.01 0.466,0.01 0.767,0.018 0.839,0.021 l -0.022,0.562 c -0.014,-10e-4 -0.189,-0.01 -0.487,-0.013 -2.018,-0.04 -9.77,-0.064 -12.554,1.794"
         style="fill:#000000;fill-opacity:1;fill-rule:nonzero;stroke:none"
         id="path5292"
         inkscape:connector-curvature="0" />
      <path
         d="m 2003.6016,1614.3898 -0.129,-0.548 c 0.166,-0.039 0.371,-0.057 0.609,-0.057 0.161,0 0.34,0.011 0.53,0.027 3.055,0.258 9.542,2.491 11.767,3.284 0.42,0.149 0.691,0.248 0.755,0.272 l -0.194,0.528 c -0.147,-0.054 -0.302,-0.11 -0.46,-0.167 -3.603,-1.303 -9.908,-3.357 -12.306,-3.385 -0.226,0 -0.421,0.01 -0.572,0.046"
         style="fill:#000000;fill-opacity:1;fill-rule:nonzero;stroke:none"
         id="path5296"
         inkscape:connector-curvature="0" />
      <path
         d="m 2026.8746,1639.09 c -0.206,1.6 2.063,10.709 5.496,17.053 -1.877,-6.733 -4.566,-15.698 -5.496,-17.053 m -0.441,-0.457 c 0.083,-0.152 0.22,-0.238 0.376,-0.238 l 0.07,0.01 c 0.328,0.055 0.876,0.146 3.833,9.989 1.437,4.785 2.754,9.61 2.767,9.658 l 0.48,1.762 -0.988,-1.536 c -4.148,-6.448 -7.307,-18.23 -6.538,-19.64"
         style="fill:#000000;fill-opacity:1;fill-rule:nonzero;stroke:none"
         id="path5300"
         inkscape:connector-curvature="0" />
      <path
         d="m 2077.3372,1636.6974 c -1.029,0.544 -4.426,9.825 -7.478,19.326 1.929,-3.757 3.849,-7.891 5.252,-11.335 2.708,-6.649 2.352,-7.808 2.226,-7.991 m -8.445,22.356 -0.516,-0.227 c 0.018,-0.056 1.781,-5.725 3.729,-11.297 4.002,-11.452 4.849,-11.495 5.257,-11.495 l 0,0 c 0.088,0 0.17,0.064 0.244,0.111 0.344,0.214 1.255,0.82 -1.974,8.747 -1.766,4.334 -4.349,9.761 -6.74,14.161"
         style="fill:#000000;fill-opacity:1;fill-rule:nonzero;stroke:none"
         id="path5304"
         inkscape:connector-curvature="0" />
      <path
         d="m 2050.7161,1702.5286 c 0,-0.317 -0.54,-0.328 -0.838,-0.393 -0.046,-0.011 -0.411,0.238 -0.46,0.238 l -0.077,0 c -0.288,0 -0.512,-0.07 -0.604,0.188 -0.025,0.069 -0.021,-0.111 -0.021,-0.033 l 0,3.17 c 0,0.031 -0.015,0.065 -0.011,0.095 0.045,0.324 0.301,0.58 0.636,0.58 l 0.077,0 c 0.036,0 0.388,-0.01 0.423,-0.016 0.316,-0.052 0.875,-0.329 0.875,-0.659 z m -0.428,3.981 c -0.246,0.175 -0.545,-0.136 -0.87,-0.136 l -0.077,0 c -0.479,0 -0.961,0.187 -1.237,-0.163 -0.203,-0.257 -0.388,-0.16 -0.388,-0.512 l 0,-3.17 c 0,-0.614 0.428,-1.464 0.955,-1.699 0.187,-0.084 0.452,-0.456 0.67,-0.456 l 0.077,0 c 0.052,0 0.101,0.333 0.152,0.338 0.202,0.021 0.392,0.242 0.563,0.335 0.1,0.055 0.087,0.199 0.172,0.274 0.314,0.277 0.411,0.758 0.411,1.208 l 0,3.17 c 0,0.438 -0.085,0.829 -0.383,1.104 -0.024,0.022 0,-0.167 -0.021,-0.148 -0.026,0.021 0,-0.164 -0.024,-0.145"
         style="fill:#000000;fill-opacity:1;fill-rule:nonzero;stroke:none"
         id="path5308"
         inkscape:connector-curvature="0" />
    </g>
  </g>
</svg>
