<?xml version="1.0" encoding="UTF-8" standalone="no"?>
<!-- Created with Inkscape (http://www.inkscape.org/) -->

<svg
   xmlns:dc="http://purl.org/dc/elements/1.1/"
   xmlns:cc="http://creativecommons.org/ns#"
   xmlns:rdf="http://www.w3.org/1999/02/22-rdf-syntax-ns#"
   xmlns:svg="http://www.w3.org/2000/svg"
   xmlns="http://www.w3.org/2000/svg"
   xmlns:sodipodi="http://sodipodi.sourceforge.net/DTD/sodipodi-0.dtd"
   xmlns:inkscape="http://www.inkscape.org/namespaces/inkscape"
   width="30.03216mm"
   height="39.511112mm"
   viewBox="0 0 106.41316 140"
   id="svg15320"
   version="1.1"
   inkscape:version="0.91 r13725"
   sodipodi:docname="silla-amarilla.svg">
  <defs
     id="defs15322">
    <linearGradient
       x1="0"
       y1="0"
       x2="1"
       y2="0"
       gradientUnits="userSpaceOnUse"
       gradientTransform="matrix(1.0697984,-61.335106,-59.47485,0.0772632,2219.7317,186.66328)"
       spreadMethod="pad"
       id="linearGradient14940">
      <stop
         style="stop-opacity:1;stop-color:#707072"
         offset="0"
         id="stop14934" />
      <stop
         style="stop-opacity:1;stop-color:#a9a9ad"
         offset="0.990124"
         id="stop14936" />
      <stop
         style="stop-opacity:1;stop-color:#a9a9ad"
         offset="1"
         id="stop14938" />
    </linearGradient>
    <linearGradient
       x1="0"
       y1="0"
       x2="1"
       y2="0"
       gradientUnits="userSpaceOnUse"
       gradientTransform="matrix(8.2672358,1.0877827,1.0877827,-8.2672358,2216.2878,147.08833)"
       spreadMethod="pad"
       id="linearGradient14962">
      <stop
         style="stop-opacity:1;stop-color:#ffffff"
         offset="0"
         id="stop14956" />
      <stop
         style="stop-opacity:1;stop-color:#a9a9ad"
         offset="0.990124"
         id="stop14958" />
      <stop
         style="stop-opacity:1;stop-color:#a9a9ad"
         offset="1"
         id="stop14960" />
    </linearGradient>
    <linearGradient
       x1="0"
       y1="0"
       x2="1"
       y2="0"
       gradientUnits="userSpaceOnUse"
       gradientTransform="matrix(-25.133907,-0.8665836,-0.8665836,25.133907,2229.5349,148.59203)"
       spreadMethod="pad"
       id="linearGradient14984">
      <stop
         style="stop-opacity:1;stop-color:#707072"
         offset="0"
         id="stop14978" />
      <stop
         style="stop-opacity:1;stop-color:#000000"
         offset="0.990124"
         id="stop14980" />
      <stop
         style="stop-opacity:1;stop-color:#000000"
         offset="1"
         id="stop14982" />
    </linearGradient>
    <linearGradient
       x1="0"
       y1="0"
       x2="1"
       y2="0"
       gradientUnits="userSpaceOnUse"
       gradientTransform="matrix(-1.0697984,-61.335106,59.47485,0.0772632,2129.9839,186.66328)"
       spreadMethod="pad"
       id="linearGradient15006">
      <stop
         style="stop-opacity:1;stop-color:#707072"
         offset="0"
         id="stop15000" />
      <stop
         style="stop-opacity:1;stop-color:#a9a9ad"
         offset="0.990124"
         id="stop15002" />
      <stop
         style="stop-opacity:1;stop-color:#a9a9ad"
         offset="1"
         id="stop15004" />
    </linearGradient>
    <linearGradient
       x1="0"
       y1="0"
       x2="1"
       y2="0"
       gradientUnits="userSpaceOnUse"
       gradientTransform="matrix(-8.2699165,1.0881355,-1.0881355,-8.2699165,2133.4285,147.08829)"
       spreadMethod="pad"
       id="linearGradient15028">
      <stop
         style="stop-opacity:1;stop-color:#ffffff"
         offset="0"
         id="stop15022" />
      <stop
         style="stop-opacity:1;stop-color:#a9a9ad"
         offset="0.990124"
         id="stop15024" />
      <stop
         style="stop-opacity:1;stop-color:#a9a9ad"
         offset="1"
         id="stop15026" />
    </linearGradient>
    <linearGradient
       x1="0"
       y1="0"
       x2="1"
       y2="0"
       gradientUnits="userSpaceOnUse"
       gradientTransform="matrix(25.131104,-0.866487,0.866487,25.131104,2120.1812,148.592)"
       spreadMethod="pad"
       id="linearGradient15050">
      <stop
         style="stop-opacity:1;stop-color:#707072"
         offset="0"
         id="stop15044" />
      <stop
         style="stop-opacity:1;stop-color:#000000"
         offset="0.990124"
         id="stop15046" />
      <stop
         style="stop-opacity:1;stop-color:#000000"
         offset="1"
         id="stop15048" />
    </linearGradient>
    <linearGradient
       x1="0"
       y1="0"
       x2="1"
       y2="0"
       gradientUnits="userSpaceOnUse"
       gradientTransform="matrix(0,-55.016155,-55.016155,0,2174.8589,184.96825)"
       spreadMethod="pad"
       id="linearGradient15070">
      <stop
         style="stop-opacity:1;stop-color:#313134"
         offset="0"
         id="stop15066" />
      <stop
         style="stop-opacity:1;stop-color:#858589"
         offset="1"
         id="stop15068" />
    </linearGradient>
    <radialGradient
       fx="0"
       fy="0"
       cx="0"
       cy="0"
       r="1"
       gradientUnits="userSpaceOnUse"
       gradientTransform="matrix(8.1806345,0,0,-6.4643373,2223.9788,125.53836)"
       spreadMethod="pad"
       id="radialGradient15096">
      <stop
         style="stop-opacity:1;stop-color:#000000"
         offset="0"
         id="stop15086" />
      <stop
         style="stop-opacity:1;stop-color:#000000"
         offset="0.00987602"
         id="stop15088" />
      <stop
         style="stop-opacity:1;stop-color:#070707"
         offset="0.34061938"
         id="stop15090" />
      <stop
         style="stop-opacity:1;stop-color:#070707"
         offset="0.50485"
         id="stop15092" />
      <stop
         style="stop-opacity:1;stop-color:#707072"
         offset="1"
         id="stop15094" />
    </radialGradient>
    <radialGradient
       fx="0"
       fy="0"
       cx="0"
       cy="0"
       r="1"
       gradientUnits="userSpaceOnUse"
       gradientTransform="matrix(5.4786763,0,0,-4.3292499,2224.4202,125.10266)"
       spreadMethod="pad"
       id="radialGradient15120">
      <stop
         style="stop-opacity:1;stop-color:#707072"
         offset="0"
         id="stop15112" />
      <stop
         style="stop-opacity:1;stop-color:#707072"
         offset="0.32851964"
         id="stop15114" />
      <stop
         style="stop-opacity:1;stop-color:#000000"
         offset="0.990124"
         id="stop15116" />
      <stop
         style="stop-opacity:1;stop-color:#000000"
         offset="1"
         id="stop15118" />
    </radialGradient>
    <radialGradient
       fx="0"
       fy="0"
       cx="0"
       cy="0"
       r="1"
       gradientUnits="userSpaceOnUse"
       gradientTransform="matrix(-8.1805124,0,0,-6.464241,2125.8008,125.53836)"
       spreadMethod="pad"
       id="radialGradient15146">
      <stop
         style="stop-opacity:1;stop-color:#000000"
         offset="0"
         id="stop15136" />
      <stop
         style="stop-opacity:1;stop-color:#000000"
         offset="0.00987602"
         id="stop15138" />
      <stop
         style="stop-opacity:1;stop-color:#070707"
         offset="0.34061938"
         id="stop15140" />
      <stop
         style="stop-opacity:1;stop-color:#070707"
         offset="0.50485"
         id="stop15142" />
      <stop
         style="stop-opacity:1;stop-color:#707072"
         offset="1"
         id="stop15144" />
    </radialGradient>
    <radialGradient
       fx="0"
       fy="0"
       cx="0"
       cy="0"
       r="1"
       gradientUnits="userSpaceOnUse"
       gradientTransform="matrix(-5.4791107,0,0,-4.3295932,2125.3599,125.10266)"
       spreadMethod="pad"
       id="radialGradient15170">
      <stop
         style="stop-opacity:1;stop-color:#707072"
         offset="0"
         id="stop15162" />
      <stop
         style="stop-opacity:1;stop-color:#707072"
         offset="0.32851964"
         id="stop15164" />
      <stop
         style="stop-opacity:1;stop-color:#000000"
         offset="0.990124"
         id="stop15166" />
      <stop
         style="stop-opacity:1;stop-color:#000000"
         offset="1"
         id="stop15168" />
    </radialGradient>
    <radialGradient
       fx="0"
       fy="0"
       cx="0"
       cy="0"
       r="1"
       gradientUnits="userSpaceOnUse"
       gradientTransform="matrix(8.5392122,0,0,-6.7476854,2213.2361,130.08165)"
       spreadMethod="pad"
       id="radialGradient15196">
      <stop
         style="stop-opacity:1;stop-color:#000000"
         offset="0"
         id="stop15186" />
      <stop
         style="stop-opacity:1;stop-color:#000000"
         offset="0.00987602"
         id="stop15188" />
      <stop
         style="stop-opacity:1;stop-color:#070707"
         offset="0.2889766"
         id="stop15190" />
      <stop
         style="stop-opacity:1;stop-color:#070707"
         offset="0.427564"
         id="stop15192" />
      <stop
         style="stop-opacity:1;stop-color:#707072"
         offset="1"
         id="stop15194" />
    </radialGradient>
    <radialGradient
       fx="0"
       fy="0"
       cx="0"
       cy="0"
       r="1"
       gradientUnits="userSpaceOnUse"
       gradientTransform="matrix(-8.5388851,0,0,-6.747427,2136.4561,130.08165)"
       spreadMethod="pad"
       id="radialGradient15222">
      <stop
         style="stop-opacity:1;stop-color:#000000"
         offset="0"
         id="stop15212" />
      <stop
         style="stop-opacity:1;stop-color:#000000"
         offset="0.00987602"
         id="stop15214" />
      <stop
         style="stop-opacity:1;stop-color:#070707"
         offset="0.2889766"
         id="stop15216" />
      <stop
         style="stop-opacity:1;stop-color:#070707"
         offset="0.427564"
         id="stop15218" />
      <stop
         style="stop-opacity:1;stop-color:#707072"
         offset="1"
         id="stop15220" />
    </radialGradient>
    <linearGradient
       x1="0"
       y1="0"
       x2="1"
       y2="0"
       gradientUnits="userSpaceOnUse"
       gradientTransform="matrix(0,-66.551819,-66.551819,0,2174.8372,265.98514)"
       spreadMethod="pad"
       id="linearGradient15250">
      <stop
         style="stop-opacity:1;stop-color:#fff2a1"
         offset="0"
         id="stop15238" />
      <stop
         style="stop-opacity:1;stop-color:#fff2a1"
         offset="0.245849"
         id="stop15240" />
      <stop
         style="stop-opacity:1;stop-color:#fff2a1"
         offset="0.38813157"
         id="stop15242" />
      <stop
         style="stop-opacity:1;stop-color:#fff25c"
         offset="0.558857"
         id="stop15244" />
      <stop
         style="stop-opacity:1;stop-color:#fff200"
         offset="0.877005"
         id="stop15246" />
      <stop
         style="stop-opacity:1;stop-color:#fff200"
         offset="1"
         id="stop15248" />
    </linearGradient>
    <linearGradient
       x1="0"
       y1="0"
       x2="1"
       y2="0"
       gradientUnits="userSpaceOnUse"
       gradientTransform="matrix(1.2948436,74.237694,-71.986107,-0.0935165,2211.6001,185.3873)"
       spreadMethod="pad"
       id="linearGradient15272">
      <stop
         style="stop-opacity:1;stop-color:#333333"
         offset="0"
         id="stop15266" />
      <stop
         style="stop-opacity:1;stop-color:#a9a9ad"
         offset="0.990124"
         id="stop15268" />
      <stop
         style="stop-opacity:1;stop-color:#a9a9ad"
         offset="1"
         id="stop15270" />
    </linearGradient>
    <linearGradient
       x1="0"
       y1="0"
       x2="1"
       y2="0"
       gradientUnits="userSpaceOnUse"
       gradientTransform="matrix(9.9874926,-1.3141301,1.3141301,9.9874926,2206.5457,225.34819)"
       spreadMethod="pad"
       id="linearGradient15294">
      <stop
         style="stop-opacity:1;stop-color:#ffffff"
         offset="0"
         id="stop15288" />
      <stop
         style="stop-opacity:1;stop-color:#a9a9ad"
         offset="0.990124"
         id="stop15290" />
      <stop
         style="stop-opacity:1;stop-color:#a9a9ad"
         offset="1"
         id="stop15292" />
    </linearGradient>
    <linearGradient
       x1="0"
       y1="0"
       x2="1"
       y2="0"
       gradientUnits="userSpaceOnUse"
       gradientTransform="matrix(-21.399532,0.7378274,-0.7378274,-21.399532,2219.3318,223.76682)"
       spreadMethod="pad"
       id="linearGradient15316">
      <stop
         style="stop-opacity:1;stop-color:#707072"
         offset="0"
         id="stop15310" />
      <stop
         style="stop-opacity:1;stop-color:#000000"
         offset="0.990124"
         id="stop15312" />
      <stop
         style="stop-opacity:1;stop-color:#000000"
         offset="1"
         id="stop15314" />
    </linearGradient>
    <linearGradient
       x1="0"
       y1="0"
       x2="1"
       y2="0"
       gradientUnits="userSpaceOnUse"
       gradientTransform="matrix(-1.2948436,74.237694,71.986107,-0.0935165,2138.3335,185.3873)"
       spreadMethod="pad"
       id="linearGradient15338">
      <stop
         style="stop-opacity:1;stop-color:#707072"
         offset="0"
         id="stop15332" />
      <stop
         style="stop-opacity:1;stop-color:#a9a9ad"
         offset="0.990124"
         id="stop15334" />
      <stop
         style="stop-opacity:1;stop-color:#a9a9ad"
         offset="1"
         id="stop15336" />
    </linearGradient>
    <linearGradient
       x1="0"
       y1="0"
       x2="1"
       y2="0"
       gradientUnits="userSpaceOnUse"
       gradientTransform="matrix(-9.9885941,-1.314275,-1.314275,9.9885941,2143.1748,225.3483)"
       spreadMethod="pad"
       id="linearGradient15360">
      <stop
         style="stop-opacity:1;stop-color:#ffffff"
         offset="0"
         id="stop15354" />
      <stop
         style="stop-opacity:1;stop-color:#a9a9ad"
         offset="0.990124"
         id="stop15356" />
      <stop
         style="stop-opacity:1;stop-color:#a9a9ad"
         offset="1"
         id="stop15358" />
    </linearGradient>
    <linearGradient
       x1="0"
       y1="0"
       x2="1"
       y2="0"
       gradientUnits="userSpaceOnUse"
       gradientTransform="matrix(21.394817,0.7376648,0.7376648,-21.394817,2130.3892,223.76686)"
       spreadMethod="pad"
       id="linearGradient15382">
      <stop
         style="stop-opacity:1;stop-color:#707072"
         offset="0"
         id="stop15376" />
      <stop
         style="stop-opacity:1;stop-color:#000000"
         offset="0.990124"
         id="stop15378" />
      <stop
         style="stop-opacity:1;stop-color:#000000"
         offset="1"
         id="stop15380" />
    </linearGradient>
    <linearGradient
       x1="0"
       y1="0"
       x2="1"
       y2="0"
       gradientUnits="userSpaceOnUse"
       gradientTransform="matrix(0,36.485432,36.485432,0,2174.8601,149.44688)"
       spreadMethod="pad"
       id="linearGradient15408">
      <stop
         style="stop-opacity:1;stop-color:#fff200"
         offset="0"
         id="stop15398" />
      <stop
         style="stop-opacity:1;stop-color:#fff200"
         offset="0.28862"
         id="stop15400" />
      <stop
         style="stop-opacity:1;stop-color:#fff200"
         offset="0.58662453"
         id="stop15402" />
      <stop
         style="stop-opacity:1;stop-color:#fff2a1"
         offset="0.990124"
         id="stop15404" />
      <stop
         style="stop-opacity:1;stop-color:#fff2a1"
         offset="1"
         id="stop15406" />
    </linearGradient>
    <linearGradient
       x1="0"
       y1="0"
       x2="1"
       y2="0"
       gradientUnits="userSpaceOnUse"
       gradientTransform="matrix(-4.0204296,-5.8070173,5.8070173,-4.0204296,2133.5105,177.72719)"
       spreadMethod="pad"
       id="linearGradient15442">
      <stop
         style="stop-opacity:1;stop-color:#fff200"
         offset="0"
         id="stop15436" />
      <stop
         style="stop-opacity:1;stop-color:#fff2a1"
         offset="0.98757629"
         id="stop15438" />
      <stop
         style="stop-opacity:1;stop-color:#fff2a1"
         offset="1"
         id="stop15440" />
    </linearGradient>
    <linearGradient
       x1="0"
       y1="0"
       x2="1"
       y2="0"
       gradientUnits="userSpaceOnUse"
       gradientTransform="matrix(21.617403,-31.223684,-31.223684,-21.617403,2166.8276,261.39471)"
       spreadMethod="pad"
       id="linearGradient15464">
      <stop
         style="stop-opacity:1;stop-color:#fff200"
         offset="0"
         id="stop15458" />
      <stop
         style="stop-opacity:1;stop-color:#fff2a1"
         offset="0.98757629"
         id="stop15460" />
      <stop
         style="stop-opacity:1;stop-color:#fff2a1"
         offset="1"
         id="stop15462" />
    </linearGradient>
    <linearGradient
       x1="0"
       y1="0"
       x2="1"
       y2="0"
       gradientUnits="userSpaceOnUse"
       gradientTransform="matrix(4.9095316,-5.8070173,-7.0912161,-4.0204296,2214.0601,176.95175)"
       spreadMethod="pad"
       id="linearGradient15486">
      <stop
         style="stop-opacity:1;stop-color:#fff200"
         offset="0"
         id="stop15480" />
      <stop
         style="stop-opacity:1;stop-color:#fff2a1"
         offset="0.98757629"
         id="stop15482" />
      <stop
         style="stop-opacity:1;stop-color:#fff2a1"
         offset="1"
         id="stop15484" />
    </linearGradient>
  </defs>
  <sodipodi:namedview
     id="base"
     pagecolor="#ffffff"
     bordercolor="#666666"
     borderopacity="1.0"
     inkscape:pageopacity="0.0"
     inkscape:pageshadow="2"
     inkscape:zoom="0.35"
     inkscape:cx="-517.16895"
     inkscape:cy="-320.38475"
     inkscape:document-units="px"
     inkscape:current-layer="layer1"
     showgrid="false"
     fit-margin-top="0"
     fit-margin-left="0"
     fit-margin-right="0"
     fit-margin-bottom="0"
     inkscape:window-width="1366"
     inkscape:window-height="710"
     inkscape:window-x="0"
     inkscape:window-y="25"
     inkscape:window-maximized="1" />
  <metadata
     id="metadata15325">
    <rdf:RDF>
      <cc:Work
         rdf:about="">
        <dc:format>image/svg+xml</dc:format>
        <dc:type
           rdf:resource="http://purl.org/dc/dcmitype/StillImage" />
        <dc:title></dc:title>
      </cc:Work>
    </rdf:RDF>
  </metadata>
  <g
     inkscape:label="Capa 1"
     inkscape:groupmode="layer"
     id="layer1"
     transform="translate(-280.74038,-71.977455)">
    <g
       transform="matrix(0.96460479,0,0,-0.96460479,-1763.962,328.54786)"
       id="g15149">
      <path
         inkscape:connector-curvature="0"
         id="path14942"
         style="fill:url(#linearGradient14940);stroke:none"
         d="m 2218.632,185.753 -4.085,-0.118 c -1.214,-0.033 -2.229,-1.34 -2.241,-2.243 l 0,0 c -0.164,-14.808 3.121,-40.404 7.483,-57.345 l 0,0 c 0.228,-0.89 0.548,-1.426 2.004,-1.529 l 0,0 4.355,-0.004 c 1.208,0.034 2.352,0.292 2.15,1.185 l 0,0 c -6.532,28.952 -7.955,48.421 -7.511,59.253 l 0,0 c 0.028,0.703 -0.562,0.818 -1.396,0.818 l 0,0 c -0.236,0 -0.492,-0.009 -0.759,-0.017" />
      <path
         inkscape:connector-curvature="0"
         id="path14964"
         style="fill:url(#linearGradient14962);stroke:none"
         d="m 2215.667,167.539 c 1.009,-11.34 2.942,-28.279 6.161,-40.424 l 0,0 c 0.33,-1.422 0,-1.54 1.643,-1.54 l 0,0 c 1.641,0 1.728,0.211 1.298,2.114 l 0,0 c -2.745,12.151 -4.911,23.354 -6.387,40.885 l 0,0 c -0.091,0.821 -0.537,1.17 -1.043,1.17 l 0,0 c -0.817,0 -1.788,-0.908 -1.672,-2.205" />
      <path
         inkscape:connector-curvature="0"
         id="path14986"
         style="fill:url(#linearGradient14984);stroke:none"
         d="m 2218.673,168.084 c 1.155,-12.709 3.32,-30.67 6.447,-39.761 l 0,0 c 0.56,-1.614 1.818,-3.025 0.98,0.203 l 0,0 c -0.838,3.228 -4.334,21.483 -5.453,34.495 l 0,0 c -0.192,2.235 -0.359,4.278 -0.505,6.131 l 0,0 c -0.052,0.653 -0.351,0.989 -0.667,0.989 l 0,0 c -0.447,0 -0.929,-0.668 -0.802,-2.057" />
      <path
         inkscape:connector-curvature="0"
         id="path15008"
         style="fill:url(#linearGradient15006);stroke:none"
         d="m 2128.928,184.952 c 0.446,-10.832 -0.978,-30.301 -7.511,-59.253 l 0,0 c -0.202,-0.893 0.941,-1.151 2.151,-1.185 l 0,0 4.353,0.004 c 1.457,0.103 1.777,0.639 2.007,1.529 l 0,0 c 4.36,16.941 7.645,42.537 7.481,57.345 l 0,0 c -0.012,0.903 -1.027,2.21 -2.239,2.243 l 0,0 -4.086,0.118 c -0.267,0.008 -0.524,0.017 -0.761,0.017 l 0,0 c -0.834,0 -1.423,-0.115 -1.395,-0.818" />
      <path
         inkscape:connector-curvature="0"
         id="path15030"
         style="fill:url(#linearGradient15028);stroke:none"
         d="m 2131.334,168.574 c -1.479,-17.531 -3.643,-28.734 -6.389,-40.885 l 0,0 c -0.43,-1.903 -0.343,-2.114 1.3,-2.114 l 0,0 c 1.641,0 1.311,0.118 1.641,1.54 l 0,0 c 3.223,12.145 5.153,29.084 6.163,40.424 l 0,0 c 0.114,1.297 -0.857,2.205 -1.672,2.205 l 0,0 c -0.506,0 -0.952,-0.349 -1.043,-1.17" />
      <path
         inkscape:connector-curvature="0"
         id="path15052"
         style="fill:url(#linearGradient15050);stroke:none"
         d="m 2129.572,169.152 c -0.145,-1.853 -0.312,-3.896 -0.503,-6.131 l 0,0 c -1.119,-13.012 -4.615,-31.267 -5.454,-34.495 l 0,0 c -0.837,-3.228 0.42,-1.817 0.978,-0.203 l 0,0 c 3.128,9.091 5.294,27.052 6.449,39.761 l 0,0 c 0.127,1.389 -0.355,2.057 -0.802,2.057 l 0,0 c -0.317,0 -0.616,-0.336 -0.668,-0.989" />
      <path
         inkscape:connector-curvature="0"
         id="path15072"
         style="fill:url(#linearGradient15070);stroke:none"
         d="m 2211.161,184.151 -3.393,-0.112 c -1.005,-0.032 -1.887,-1.27 -1.922,-2.123 l 0,0 c -0.572,-13.785 1.145,-36.975 4.052,-51.405 l 0,0 c 0.152,-0.745 0.38,-1.195 1.515,-1.281 l 0,0 3.39,-0.003 c 0.943,0.029 1.841,0.244 1.718,0.992 l 0,0 c -4.105,24.923 -4.359,43.021 -3.602,53.173 l 0,0 c 0.051,0.667 -0.436,0.775 -1.13,0.775 l 0,0 c -0.195,0 -0.407,-0.009 -0.628,-0.016 m -74.362,-0.759 c 0.76,-10.152 0.501,-28.25 -3.602,-53.173 l 0,0 c -0.123,-0.748 0.776,-0.963 1.72,-0.992 l 0,0 3.39,0.003 c 1.132,0.086 1.363,0.536 1.514,1.281 l 0,0 c 2.907,14.43 4.623,37.62 4.052,51.405 l 0,0 c -0.035,0.853 -0.916,2.091 -1.923,2.123 l 0,0 -3.393,0.112 c -0.221,0.007 -0.432,0.015 -0.627,0.016 l 0,0 c -0.694,0 -1.181,-0.108 -1.131,-0.775" />
      <path
         inkscape:connector-curvature="0"
         id="path15098"
         style="fill:url(#radialGradient15096);stroke:none"
         d="m 2223.98,125.233 c -3.745,-0.13 -4.191,0.814 -4.191,0.814 l 0,0 c -0.998,-0.448 -1.911,-1.857 -0.874,-3.859 l 0,0 c 0.99,-1.915 9.952,-1.746 10.846,0.304 l 0,0 c 1.155,2.655 -1.542,3.743 -1.542,3.743 l 0,0 c 0,0 -0.495,-0.872 -4.239,-1.002" />
      <path
         inkscape:connector-curvature="0"
         id="path15122"
         style="fill:url(#radialGradient15120);stroke:none"
         d="m 2224.31,124.32 c -0.821,-0.061 -1.502,-0.027 -2.05,0.006 l 0,0 c -1.037,0.063 -1.605,0.127 -1.748,-0.441 l 0,0 c -0.22,-0.872 1.595,-1.992 3.687,-1.871 l 0,0 c 2.258,0.13 3.689,0.913 3.689,1.914 l 0,0 c 0,0.45 -0.226,0.589 -0.87,0.589 l 0,0 c -0.553,0 -1.415,-0.103 -2.708,-0.197" />
      <path
         inkscape:connector-curvature="0"
         id="path15148"
         style="fill:url(#radialGradient15146);stroke:none"
         d="m 2120.019,122.492 c 0.893,-2.05 9.856,-2.219 10.844,-0.304 l 0,0 c 1.038,2.002 0.126,3.411 -0.872,3.859 l 0,0 c 0,0 -0.447,-0.944 -4.189,-0.814 l 0,0 c -3.745,0.13 -4.241,1.002 -4.241,1.002 l 0,0 c 0,0 -2.699,-1.088 -1.542,-3.743" />
      <path
         inkscape:connector-curvature="0"
         id="path15172"
         style="fill:url(#radialGradient15170);stroke:none"
         d="m 2121.891,123.928 c 0,-1.001 1.431,-1.784 3.688,-1.914 l 0,0 c 2.094,-0.121 3.91,0.999 3.69,1.871 l 0,0 c -0.145,0.568 -0.713,0.504 -1.75,0.441 l 0,0 c -0.55,-0.033 -1.231,-0.067 -2.05,-0.006 l 0,0 c -1.293,0.094 -2.156,0.197 -2.709,0.197 l 0,0 c -0.644,0 -0.869,-0.139 -0.869,-0.589" />
      <path
         inkscape:connector-curvature="0"
         id="path15198"
         style="fill:url(#radialGradient15196);stroke:none"
         d="m 2213.137,129.902 c -2.925,-0.101 -3.275,0.636 -3.275,0.636 l 0,0 c -1.068,-0.433 -1.787,-1.859 -0.977,-3.423 l 0,0 c 0.774,-1.498 8.358,-1.454 9.197,0.104 l 0,0 c 1.262,2.352 -1.63,3.466 -1.63,3.466 l 0,0 c 0,0 -0.388,-0.681 -3.315,-0.783" />
      <path
         inkscape:connector-curvature="0"
         id="path15224"
         style="fill:url(#radialGradient15222);stroke:none"
         d="m 2131.611,127.219 c 0.835,-1.558 8.423,-1.602 9.196,-0.104 l 0,0 c 0.808,1.564 0.089,2.99 -0.978,3.423 l 0,0 c 0,0 -0.352,-0.737 -3.274,-0.636 l 0,0 c -2.928,0.102 -3.316,0.783 -3.316,0.783 l 0,0 c 0,0 -2.89,-1.114 -1.628,-3.466" />
      <path
         inkscape:connector-curvature="0"
         id="path15252"
         style="fill:url(#linearGradient15250);stroke:none"
         d="m 2138.149,257.238 c 0,0 6.695,-53.318 6.08,-57.805 l 0,0 c 0,0 33.117,3.707 61.262,0 l 0,0 c 0,0 5.167,54.758 6.035,57.898 l 0,0 c 0,0 -16.458,8.653 -38.147,8.654 l 0,0 c -10.897,0 -23.113,-2.184 -35.23,-8.747" />
      <path
         inkscape:connector-curvature="0"
         id="path15274"
         style="fill:url(#linearGradient15272);stroke:none"
         d="m 2213.549,260.604 c -1.226,-0.107 -1.496,-0.666 -1.688,-1.592 l 0,0 c -3.671,-17.643 -6.434,-54.647 -6.295,-70.066 l 0,0 c 0.01,-0.942 0.863,-2.303 1.882,-2.338 l 0,0 3.439,-0.122 c 1.018,-0.035 1.846,-0.105 1.814,0.834 l 0,0 c -0.374,11.28 0.822,41.905 6.32,72.055 l 0,0 c 0.17,0.93 -0.793,1.196 -1.811,1.232 l 0,0 z" />
      <path
         inkscape:connector-curvature="0"
         id="path15296"
         style="fill:url(#linearGradient15294);stroke:none"
         d="m 2213.363,257.899 c -4.282,-19.982 -6.376,-58.03 -6.237,-66.342 l 0,0 c 0.038,-2.132 1.985,-2.158 2.111,-0.76 l 0,0 c 0.086,0.949 0.121,12.806 1.226,25.14 l 0,0 c 1.243,18.256 3.065,28.711 5.374,41.365 l 0,0 c 0.363,1.982 0.289,2.202 -1.093,2.202 l 0,0 c -1.381,0 -1.103,-0.125 -1.381,-1.605" />
      <path
         inkscape:connector-curvature="0"
         id="path15318"
         style="fill:url(#linearGradient15316);stroke:none"
         d="m 2216.134,256.642 c -3.226,-11.606 -5.324,-36.707 -6.006,-48.613 l 0,0 c -0.186,-3.289 -0.539,-16.974 -0.501,-17.449 l 0,0 c 0.115,-1.576 1.131,-1.249 1.248,-0.407 l 0,0 c 0.035,0.245 0.28,11.428 0.35,12.709 l 0,0 c 0.166,3.089 0.48,9.256 1.144,18.838 l 0,0 c 0.941,13.548 3.883,31.352 4.588,34.71 l 0,0 c 0.311,1.482 0.28,2.025 0.106,2.025 l 0,0 c -0.219,0 -0.666,-0.874 -0.929,-1.813" />
      <path
         inkscape:connector-curvature="0"
         id="path15340"
         style="fill:url(#linearGradient15338);stroke:none"
         d="m 2130.913,259.375 c 5.495,-30.15 6.694,-60.775 6.32,-72.055 l 0,0 c -0.031,-0.939 0.795,-0.869 1.814,-0.834 l 0,0 3.439,0.122 c 1.019,0.035 1.873,1.396 1.88,2.338 l 0,0 c 0.141,15.419 -2.624,52.423 -6.292,70.066 l 0,0 c -0.193,0.926 -0.462,1.485 -1.689,1.592 l 0,0 -3.662,0.003 c -1.018,-0.036 -1.979,-0.302 -1.81,-1.232" />
      <path
         inkscape:connector-curvature="0"
         id="path15362"
         style="fill:url(#linearGradient15360);stroke:none"
         d="m 2133.883,257.302 c 2.31,-12.654 4.13,-23.109 5.373,-41.365 l 0,0 c 1.106,-12.334 1.14,-24.191 1.227,-25.14 l 0,0 c 0.127,-1.398 2.074,-1.372 2.111,0.76 l 0,0 c 0.142,8.312 -1.955,46.36 -6.237,66.342 l 0,0 c -0.279,1.48 0,1.605 -1.383,1.605 l 0,0 c -1.382,0 -1.453,-0.22 -1.091,-2.202" />
      <path
         inkscape:connector-curvature="0"
         id="path15384"
         style="fill:url(#linearGradient15382);stroke:none"
         d="m 2132.764,256.43 c 0.705,-3.358 3.644,-21.162 4.586,-34.71 l 0,0 c 0.666,-9.582 0.978,-15.749 1.146,-18.838 l 0,0 c 0.07,-1.281 0.315,-12.464 0.347,-12.709 l 0,0 c 0.118,-0.842 1.132,-1.169 1.251,0.407 l 0,0 c 0.036,0.475 -0.317,14.16 -0.505,17.449 l 0,0 c -0.678,11.906 -2.776,37.007 -6.002,48.613 l 0,0 c -0.264,0.939 -0.711,1.813 -0.93,1.813 l 0,0 c -0.173,0 -0.204,-0.543 0.107,-2.025" />
      <path
         inkscape:connector-curvature="0"
         id="path15410"
         style="fill:url(#linearGradient15408);stroke:none"
         d="m 2134.893,187.932 c -11.26,-1.899 -13.387,-4.437 -13.387,-8.104 l 0,0 0,-4.501 c 0,-3.669 3.292,-6.146 14.125,-8.153 l 0,0 c 22.702,-4.206 51.501,-4.415 78.459,0 l 0,0 c 10.957,1.795 14.123,4.484 14.123,8.153 l 0,0 0,4.501 c 0,3.667 -0.947,5.566 -13.05,8.164 l 0,0 c -5.475,1.176 -21.844,1.776 -38.684,1.776 l 0,0 c -16.903,0 -34.281,-0.604 -41.586,-1.836" />
      <path
         d="m 2225.929,184.0519 c -3.854,2.142 -10.222,3.745 -16.783,4.379 -5.25,0.509 -23.072,0.971 -33.809,0.912 -10.734,0.059 -31.712,-0.393 -37.732,-1.411 -5.554,-0.939 -8.65,-1.018 -13.673,-3.88 -3.044,-1.734 1.73,-12.919 48.893,-13.39 0.01,-0.007 0.014,-0.014 0.021,-0.022 l 4.17,0 c 0.01,0.008 0.015,0.015 0.02,0.022 47.164,0.471 52.086,11.619 48.893,13.39"
         style="fill:#fff2a1;fill-opacity:1;fill-rule:nonzero;stroke:none"
         id="path15422"
         inkscape:connector-curvature="0" />
      <path
         inkscape:connector-curvature="0"
         id="path15444"
         style="fill:url(#linearGradient15442);stroke:none"
         d="m 2124.866,177.463 c 0.84,-1.705 1.605,-3.119 8.621,-4.141 l 0,0 c 7.017,-1.025 11.57,-0.903 5.518,0.316 l 0,0 c -5.604,1.128 -11.673,2.956 -13.963,6.048 l 0,0 c -0.564,0.761 -0.92,1.083 -1.101,1.084 l 0,0 c -0.39,0 0.029,-1.495 0.925,-3.307" />
      <path
         inkscape:connector-curvature="0"
         id="path15466"
         style="fill:url(#linearGradient15464);stroke:none"
         d="m 2143.437,249.865 c 25.407,4.212 62.747,0 62.747,0 l 0,0 c -11.647,5.461 -22.499,7.281 -31.796,7.28 l 0,0 c -18.59,-10e-4 -30.951,-7.28 -30.951,-7.28" />
      <path
         inkscape:connector-curvature="0"
         id="path15488"
         style="fill:url(#linearGradient15486);stroke:none"
         d="m 2224.401,178.911 c -2.797,-3.092 -10.207,-4.921 -17.051,-6.048 l 0,0 c -7.391,-1.219 -1.83,-1.343 6.738,-0.316 l 0,0 c 8.567,1.022 9.501,2.434 10.529,4.141 l 0,0 c 1.092,1.812 1.605,3.306 1.128,3.306 l 0,0 c -0.222,0 -0.656,-0.322 -1.344,-1.083" />
    </g>
  </g>
</svg>
