<?xml version="1.0" encoding="UTF-8" standalone="no"?>
<!-- Created with Inkscape (http://www.inkscape.org/) -->

<svg
   xmlns:dc="http://purl.org/dc/elements/1.1/"
   xmlns:cc="http://creativecommons.org/ns#"
   xmlns:rdf="http://www.w3.org/1999/02/22-rdf-syntax-ns#"
   xmlns:svg="http://www.w3.org/2000/svg"
   xmlns="http://www.w3.org/2000/svg"
   xmlns:sodipodi="http://sodipodi.sourceforge.net/DTD/sodipodi-0.dtd"
   xmlns:inkscape="http://www.inkscape.org/namespaces/inkscape"
   id="svg2"
   version="1.1"
   inkscape:version="0.91 r13725"
   xml:space="preserve"
   width="110"
   height="44.250122"
   viewBox="0 0 110 44.250122"
   sodipodi:docname="zapato-azul.svg"
   inkscape:export-filename="/home/piccolina/Escritorio/fundacion/megamente-web/Megamente/img/deduccion/objetos/zapato-azul.png"
   inkscape:export-xdpi="90"
   inkscape:export-ydpi="90"><metadata
     id="metadata8"><rdf:RDF><cc:Work
         rdf:about=""><dc:format>image/svg+xml</dc:format><dc:type
           rdf:resource="http://purl.org/dc/dcmitype/StillImage" /><dc:title></dc:title></cc:Work></rdf:RDF></metadata><defs
     id="defs6"><clipPath
       clipPathUnits="userSpaceOnUse"
       id="clipPath18"><path
         d="M 0,900 1200,900 1200,0 0,0 0,900 Z"
         id="path20"
         inkscape:connector-curvature="0" /></clipPath><clipPath
       clipPathUnits="userSpaceOnUse"
       id="clipPath74"><path
         d="m 39.2181,443.349 1121.5619,0 0,-410.4253 -1121.5619,0 0,410.4253 z"
         id="path76"
         inkscape:connector-curvature="0" /></clipPath><clipPath
       clipPathUnits="userSpaceOnUse"
       id="clipPath258"><path
         d="m 39.2181,619.513 1121.5619,0 0,-151.979 -1121.5619,0 0,151.979 z"
         id="path260"
         inkscape:connector-curvature="0" /></clipPath></defs><sodipodi:namedview
     pagecolor="#ffffff"
     bordercolor="#666666"
     borderopacity="1"
     objecttolerance="10"
     gridtolerance="10"
     guidetolerance="10"
     inkscape:pageopacity="0"
     inkscape:pageshadow="2"
     inkscape:window-width="1366"
     inkscape:window-height="710"
     id="namedview4"
     showgrid="false"
     inkscape:zoom="0.20977778"
     inkscape:cx="-1143.3171"
     inkscape:cy="-990.28744"
     inkscape:window-x="0"
     inkscape:window-y="25"
     inkscape:window-maximized="1"
     inkscape:current-layer="g10"
     fit-margin-top="0"
     fit-margin-left="0"
     fit-margin-right="0"
     fit-margin-bottom="0" /><g
     id="g10"
     inkscape:groupmode="layer"
     inkscape:label="Mega Mente"
     transform="matrix(1.25,0,0,-1.25,84.966796,1597.0376)"><g
       id="g5040"
       transform="matrix(0.4985355,0,0,0.4985355,-560.71718,881.49671)"><g
         transform="translate(1157.5245,761.9149)"
         id="g566"><path
           inkscape:connector-curvature="0"
           id="path568"
           style="fill:#21409a;fill-opacity:1;fill-rule:evenodd;stroke:none"
           d="m 0,0 c -6.137,2.495 -12.63,4.501 -19.159,5.617 -6.691,1.146 -13.319,2.461 -19.847,4.092 -0.386,0.087 -0.773,0.186 -1.151,0.285 -2.444,0.62 -4.87,1.287 -7.278,2.005 -1.502,0.45 -2.992,0.912 -4.477,1.409 -2.291,0.748 -4.558,1.554 -6.809,2.419 -1.385,0.533 -2.765,1.088 -4.132,1.666 -2.022,0.847 -4.021,1.753 -6.008,2.724 l -0.005,0 c -1.263,0.602 -2.514,1.239 -3.759,1.899 -0.76,0.392 -1.514,0.801 -2.267,1.221 -1.263,0.702 -2.514,1.421 -3.759,2.157 -0.322,0.188 -0.648,0.38 -0.97,0.573 -3.197,1.906 -6.36,3.869 -9.579,5.739 -1.941,1.128 -4.092,1.526 -5.062,-1.069 -1.409,-3.735 -2.641,-7.533 -2.607,-11.484 0,-0.135 0,-0.263 0.006,-0.398 0.041,-1.321 0.228,-2.659 0.602,-4.021 0.211,-0.76 0.304,-1.432 0.282,-2.023 -0.054,-1.969 -1.352,-3.033 -3.906,-3.296 -3.523,-0.368 -7.036,-0.795 -10.549,-1.239 -15.576,-1.987 -29.684,1.444 -41.899,11.537 -3.35,2.765 -6.371,3.402 -8.592,2.017 l -0.007,0 c -0.14,-0.088 -0.274,-0.181 -0.403,-0.287 -1.438,-1.104 -2.484,-3.144 -2.998,-6.073 -0.351,-1.98 -0.602,-3.985 -0.829,-5.99 l 0,-0.011 c -0.042,-0.328 -0.077,-0.661 -0.112,-0.995 -0.059,-0.513 -0.11,-1.027 -0.164,-1.542 -0.04,-0.333 -0.076,-0.672 -0.11,-1.011 -0.088,-0.824 -0.181,-1.654 -0.281,-2.478 -0.62,-5.208 -0.772,-10.521 -1.958,-15.594 -1.187,-5.096 -6.072,-24.086 15.559,-24.086 13.88,0 98.51,-2.092 98.51,-2.092 0,0 37.844,0.538 53.624,9.878 5.681,2.221 7.096,14.155 7.096,14.155 C 8.605,-3.674 4.812,-1.66 0,0" /></g><g
         transform="translate(1077.6874,787.8304)"
         id="g570"><path
           inkscape:connector-curvature="0"
           id="path572"
           style="fill:#21409a;fill-opacity:1;fill-rule:evenodd;stroke:none"
           d="m 0,0 c -3.127,1.858 -6.224,3.775 -9.363,5.604 -1.941,1.129 -4.092,1.526 -5.062,-1.069 -1.372,-3.646 -2.583,-7.353 -2.607,-11.197 0,-0.135 0,-0.264 0.006,-0.399 0.018,-1.414 0.205,-2.846 0.602,-4.301 0.176,-0.638 0.27,-1.222 0.282,-1.742 0.069,-2.157 -1.234,-3.308 -3.906,-3.583 -3.523,-0.362 -7.036,-0.795 -10.549,-1.239 -15.576,-1.987 -29.684,1.444 -41.899,11.537 -3.063,2.537 -5.868,3.279 -8.02,2.315 -0.187,-0.082 -0.368,-0.175 -0.543,-0.287 0,0 7.061,-20.479 42.058,-20.479 34.991,0 33.489,2.303 33.595,11 0.046,3.979 1.285,10.228 6.102,13.425 C 0.462,-0.28 0.234,-0.141 0,0" /></g><g
         transform="translate(1157.5245,761.903)"
         id="g574"><path
           inkscape:connector-curvature="0"
           id="path576"
           style="fill:#21409a;fill-opacity:1;fill-rule:evenodd;stroke:none"
           d="m 0,0 c -6.16,2.449 -12.63,4.501 -19.159,5.612 -6.691,1.151 -13.319,2.466 -19.847,4.097 -0.194,0.04 -0.386,0.093 -0.58,0.14 1.21,-4.273 1.549,-11.994 -11.759,-11.994 -18.031,0 -45.506,0.205 -46.593,-16.399 -0.023,-0.334 -0.035,-0.673 -0.035,-1.023 l 0,-0.012 0,-11.905 c 22.969,-0.521 44.255,0.677 44.255,0.677 0,0 37.844,-0.87 53.624,8.463 L 3.01,-6.248 c 0,0 1.601,4.413 -3.01,6.248" /></g><g
         transform="translate(990.8317,733.2773)"
         id="g578"><path
           inkscape:connector-curvature="0"
           id="path580"
           style="fill:#ffffff;fill-opacity:1;fill-rule:evenodd;stroke:none"
           d="m 0,0 c 1.308,-1.308 6.401,-2.893 10.88,-2.893 23.557,-0.233 51.449,-0.995 74.995,-1.592 18.708,-0.476 37.442,-2.197 56.029,0.905 7.902,1.318 18.592,4.536 26.257,6.963 5.941,2.142 6.513,18.221 5.39,19.679 C 168.578,21.031 163.355,18.959 158.818,17.52 143.362,12.616 124.35,10.453 108.31,10.11 87.303,9.66 66.267,10.088 45.252,10.522 31.107,10.814 12.542,11.418 -1.421,14.988 -1.637,13.761 -4.338,4.338 0,0" /></g><g
         transform="translate(1062.7134,742.1017)"
         id="g582"><path
           inkscape:connector-curvature="0"
           id="path584"
           style="fill:#ffffff;fill-opacity:1;fill-rule:nonzero;stroke:none"
           d="M 0,0 -0.077,-0.502 0.426,-0.578 0.502,-0.076 0,0 Z M 1.846,4.769 1.707,4.56 1.578,4.343 2.011,4.074 2.139,4.29 2.274,4.506 1.846,4.769 Z m 3.548,3.7 -0.402,-0.31 0.309,-0.403 0.404,0.31 -0.311,0.403 z m 4.465,2.501 -0.467,-0.204 0.204,-0.462 0.469,0.205 -0.206,0.461 z m 4.84,1.649 -0.491,-0.135 0.135,-0.491 0.485,0.134 -0.129,0.492 z m 4.98,1.075 -0.503,-0.088 0.094,-0.496 0.496,0.087 -0.087,0.497 z m 5.049,0.69 -0.508,-0.053 0.058,-0.502 0.503,0.052 -0.053,0.503 z m 5.068,0.421 -0.509,-0.03 0.035,-0.508 0.509,0.029 -0.035,0.509 z m 5.085,0.228 -0.509,-0.013 0.018,-0.507 0.513,0.017 -0.022,0.503 z m 5.084,0.099 -0.508,-0.007 0.006,-0.507 0.508,0.006 -0.006,0.508 z m 4.577,-0.485 0.509,0 0,0.503 -0.509,0 0,-0.503 z m 5.599,0.198 -0.059,0.497 -0.502,-0.052 0.058,-0.503 0.251,0.029 0,-0.005 0.252,0.034 z m 4.711,1.865 -0.456,-0.222 0.222,-0.456 0.456,0.222 -0.222,0.456 z m 3.308,3.471 -0.217,-0.461 0.462,-0.216 0.111,0.228 0.106,0.234 -0.462,0.215 z m 0.929,4.916 -0.503,-0.065 0.036,-0.256 0.035,-0.246 0.502,0.064 -0.07,0.503 z" /></g><g
         transform="translate(1018.9008,744.1258)"
         id="g586"><path
           inkscape:connector-curvature="0"
           id="path588"
           style="fill:#ffffff;fill-opacity:1;fill-rule:nonzero;stroke:none"
           d="m 0,0 c -1.851,23.186 -26.405,26.235 -26.653,26.263 l 0.114,1.008 C -26.283,27.242 -0.904,24.092 1.011,0.08 L 0,0 Z" /></g><g
         transform="translate(1017.7039,741.9967)"
         id="g590"><path
           inkscape:connector-curvature="0"
           id="path592"
           style="fill:#ffffff;fill-opacity:1;fill-rule:nonzero;stroke:none"
           d="m 0,0 -1.011,-0.076 c -1.537,19.316 -18.849,24.653 -24.716,25.915 0.034,0.339 0.07,0.678 0.109,1.012 C -19.615,25.576 -1.601,20.083 0,0" /></g><g
         transform="translate(1078.8738,787.409)"
         id="g594"><path
           inkscape:connector-curvature="0"
           id="path596"
           style="fill:#ffffff;fill-opacity:1;fill-rule:nonzero;stroke:none"
           d="m 0,0 c -0.047,-0.029 -0.1,-0.065 -0.146,-0.093 -5.407,-3.536 -5.909,-10.883 -5.938,-13.046 -0.006,-0.362 -0.006,-0.707 -0.012,-1.046 -0.041,-8.633 -1.193,-10.456 -34.098,-10.456 -18.229,0 -28.807,5.629 -34.477,10.357 -5.699,4.758 -7.679,9.468 -8.013,10.333 -0.023,0.07 -0.04,0.117 -0.047,0.135 l 0.45,0.152 0.006,0 0.509,0.175 c 0,-0.006 0.023,-0.058 0.064,-0.164 0.357,-0.899 2.355,-5.429 7.738,-9.895 5.535,-4.599 15.892,-10.082 33.77,-10.082 33.04,0 33.052,2.006 33.087,9.451 0,0.34 0.006,0.69 0.006,1.053 0.029,2.226 0.544,9.631 5.915,13.547 0.069,0.059 0.14,0.105 0.216,0.152 C -0.649,0.38 -0.322,0.187 0,0" /></g><g
         transform="translate(1117.8748,763.7905)"
         id="g598"><path
           inkscape:connector-curvature="0"
           id="path600"
           style="fill:#ffffff;fill-opacity:1;fill-rule:nonzero;stroke:none"
           d="m 0,0 c -1.823,-3.003 -5.757,-4.524 -11.695,-4.524 l -0.643,0 c -9.193,-0.005 -20.637,0 -29.778,-2.162 -10.07,-2.39 -15.208,-6.891 -15.664,-13.752 -0.023,-0.333 -0.035,-0.672 -0.035,-1.017 l -1.017,0 c 0,0.35 0.012,0.696 0.035,1.034 0.451,7.388 5.845,12.21 16.448,14.723 9.251,2.192 20.782,2.181 30.011,2.186 l 0.643,0 c 5.558,0 9.199,1.356 10.824,4.033 1.473,2.431 0.993,5.505 0.363,7.598 0.379,-0.1 0.765,-0.199 1.151,-0.286 l 0,-0.012 C 1.24,5.583 1.543,2.542 0,0" /></g><g
         transform="translate(1082.7411,780.4174)"
         id="g602"><path
           inkscape:connector-curvature="0"
           id="path604"
           style="fill:#21894b;fill-opacity:1;fill-rule:nonzero;stroke:none"
           d="m 0,0 c 0,-1.363 -1.105,-2.468 -2.468,-2.468 -1.363,0 -2.467,1.105 -2.467,2.468 0,1.363 1.104,2.468 2.467,2.468 C -1.105,2.468 0,1.363 0,0" /></g><g
         transform="translate(1093.6639,776.181)"
         id="g606"><path
           inkscape:connector-curvature="0"
           id="path608"
           style="fill:#21894b;fill-opacity:1;fill-rule:nonzero;stroke:none"
           d="m 0,0 c 0,-1.362 -1.105,-2.466 -2.468,-2.466 -1.363,0 -2.467,1.104 -2.467,2.466 0,1.364 1.104,2.469 2.467,2.469 C -1.105,2.469 0,1.364 0,0" /></g><g
         transform="translate(1105.7814,772.5498)"
         id="g610"><path
           inkscape:connector-curvature="0"
           id="path612"
           style="fill:#21894b;fill-opacity:1;fill-rule:nonzero;stroke:none"
           d="m 0,0 c 0,-1.363 -1.105,-2.467 -2.47,-2.467 -1.361,0 -2.465,1.104 -2.465,2.467 0,1.363 1.104,2.467 2.465,2.467 C -1.105,2.467 0,1.363 0,0" /></g><g
         transform="translate(1088.6595,782.1295)"
         id="g614"><path
           inkscape:connector-curvature="0"
           id="path616"
           style="fill:#ffffff;fill-opacity:1;fill-rule:nonzero;stroke:none"
           d="m 0,0 c -2.588,-0.456 -4.709,-1.293 -5.921,-1.846 l -0.005,-0.006 c -0.685,-0.309 -1.081,-0.528 -1.101,-0.542 -0.651,-0.371 -1.482,-0.148 -1.851,0.497 -0.377,0.65 -0.159,1.476 0.491,1.852 0.081,0.045 0.452,0.259 1.071,0.558 l 0.004,0 c 0.808,0.385 2.03,0.913 3.553,1.39 C -2.517,1.238 -1.263,0.604 0,0" /></g><g
         transform="translate(1098.8018,777.7416)"
         id="g618"><path
           inkscape:connector-curvature="0"
           id="path620"
           style="fill:#ffffff;fill-opacity:1;fill-rule:nonzero;stroke:none"
           d="m 0,0 c -2.233,-0.472 -4.049,-1.198 -5.14,-1.696 l -0.004,0 c -0.691,-0.313 -1.082,-0.532 -1.101,-0.547 -0.65,-0.37 -1.482,-0.148 -1.857,0.497 -0.376,0.65 -0.153,1.477 0.496,1.852 0.077,0.05 0.452,0.258 1.066,0.552 0,0.006 0.006,0.006 0.006,0.006 0.593,0.284 1.41,0.645 2.405,1.005 C -2.76,1.086 -1.385,0.533 0,0" /></g><g
         transform="translate(1110.0912,773.9154)"
         id="g622"><path
           inkscape:connector-curvature="0"
           id="path624"
           style="fill:#ffffff;fill-opacity:1;fill-rule:nonzero;stroke:none"
           d="m 0,0 c -1.852,-0.462 -3.364,-1.071 -4.312,-1.502 l -0.006,-0.005 c -0.686,-0.304 -1.081,-0.528 -1.101,-0.543 -0.649,-0.37 -1.481,-0.147 -1.852,0.498 -0.376,0.649 -0.157,1.482 0.492,1.852 0.081,0.05 0.452,0.258 1.066,0.552 0,0.006 0.005,0.006 0.005,0.006 0.339,0.162 0.75,0.35 1.228,0.548 C -2.994,0.913 -1.501,0.447 0,0" /></g></g></g></svg>