<?xml version="1.0" encoding="UTF-8" standalone="no"?>
<!-- Created with Inkscape (http://www.inkscape.org/) -->

<svg
   xmlns:dc="http://purl.org/dc/elements/1.1/"
   xmlns:cc="http://creativecommons.org/ns#"
   xmlns:rdf="http://www.w3.org/1999/02/22-rdf-syntax-ns#"
   xmlns:svg="http://www.w3.org/2000/svg"
   xmlns="http://www.w3.org/2000/svg"
   xmlns:xlink="http://www.w3.org/1999/xlink"
   xmlns:sodipodi="http://sodipodi.sourceforge.net/DTD/sodipodi-0.dtd"
   xmlns:inkscape="http://www.inkscape.org/namespaces/inkscape"
   version="1.1"
   id="svg2"
   xml:space="preserve"
   width="1031.9767"
   height="624.20514"
   viewBox="0 0 1031.9766 624.20511"
   sodipodi:docname="historia.svg"
   inkscape:version="0.92.1 r15371"><metadata
     id="metadata8"><rdf:RDF><cc:Work
         rdf:about=""><dc:format>image/svg+xml</dc:format><dc:type
           rdf:resource="http://purl.org/dc/dcmitype/StillImage" /><dc:title></dc:title></cc:Work></rdf:RDF></metadata><defs
     id="defs6"><clipPath
       id="SVGID_2_"><use
         xlink:href="#SVGID_1_"
         overflow="visible"
         id="use65"
         style="overflow:visible"
         x="0"
         y="0"
         width="100%"
         height="100%" /></clipPath><clipPath
       id="SVGID_2_-3"><use
         xlink:href="#SVGID_1_"
         overflow="visible"
         id="use65-6"
         style="overflow:visible"
         x="0"
         y="0"
         width="100%"
         height="100%" /></clipPath><clipPath
       id="SVGID_2_-3-6"><use
         xlink:href="#SVGID_1_"
         overflow="visible"
         id="use65-6-2"
         style="overflow:visible"
         x="0"
         y="0"
         width="100%"
         height="100%" /></clipPath><clipPath
       id="SVGID_2_-4"><use
         xlink:href="#SVGID_1_"
         overflow="visible"
         id="use65-9"
         style="overflow:visible"
         x="0"
         y="0"
         width="100%"
         height="100%" /></clipPath><defs
       id="defs63"><path
         inkscape:connector-curvature="0"
         d="m 635.3,320.4 c 0,0 -13.1,-6.9 6.9,-25.6 20,-18.7 114.5,-61.3 140.8,-64.4 26.3,-3.1 58.8,6.9 58.8,6.9 0,0 -1.3,14.4 -15,31.3 -13.7,16.9 -115.7,62.6 -142,66.9 -26.3,4.3 -49.5,-15.1 -49.5,-15.1 z"
         id="SVGID_1_" /></defs><clipPath
       id="SVGID_2_-8"><use
         height="100%"
         width="100%"
         y="0"
         x="0"
         style="overflow:visible"
         id="use65-7"
         overflow="visible"
         xlink:href="#SVGID_1_" /></clipPath><defs
       id="defs357"><path
         inkscape:connector-curvature="0"
         d="m 1050.6,565.5 c 0,0 -6.8,14.3 12.4,14.3 19.3,0 77.8,13.1 150.6,-28.6 72.8,-41.7 73.4,-63.5 69.7,-79.7 -3.7,-16.2 -28.6,-41.1 -80.3,-23.7 -51.7,17.4 -73.4,37.3 -94.6,64.1 -21,26.9 -52.8,43.1 -57.8,53.6 z"
         id="SVGID_3_" /></defs><clipPath
       id="SVGID_4_"><use
         height="100%"
         width="100%"
         y="0"
         x="0"
         style="overflow:visible"
         id="use359"
         overflow="visible"
         xlink:href="#SVGID_3_" /></clipPath><defs
       id="defs675"><path
         inkscape:connector-curvature="0"
         d="m 319.4,829.4 c 0,0 36.8,-0.8 31,-20.1 -5.9,-19.3 -24.3,-29.3 -60.3,-54.4 -36,-25.1 -117.2,-54.4 -152.4,-52.8 -35.2,1.6 -70.4,10.9 -61.2,43.6 9.2,32.7 86.2,61.1 110.5,72.8 24.3,11.7 53.7,25.2 132.4,10.9 z"
         id="SVGID_5_" /></defs><clipPath
       id="SVGID_6_"><use
         height="100%"
         width="100%"
         y="0"
         x="0"
         style="overflow:visible"
         id="use677"
         overflow="visible"
         xlink:href="#SVGID_5_" /></clipPath><clipPath
       id="SVGID_2_-3-1"><use
         height="100%"
         width="100%"
         y="0"
         x="0"
         style="overflow:visible"
         id="use65-6-7"
         overflow="visible"
         xlink:href="#SVGID_1_" /></clipPath><path
       inkscape:connector-curvature="0"
       d="m 635.3,320.4 c 0,0 -13.1,-6.9 6.9,-25.6 20,-18.7 114.5,-61.3 140.8,-64.4 26.3,-3.1 58.8,6.9 58.8,6.9 0,0 -1.3,14.4 -15,31.3 -13.7,16.9 -115.7,62.6 -142,66.9 -26.3,4.3 -49.5,-15.1 -49.5,-15.1 z"
       id="path3290" /><path
       inkscape:connector-curvature="0"
       d="m 1050.6,565.5 c 0,0 -6.8,14.3 12.4,14.3 19.3,0 77.8,13.1 150.6,-28.6 72.8,-41.7 73.4,-63.5 69.7,-79.7 -3.7,-16.2 -28.6,-41.1 -80.3,-23.7 -51.7,17.4 -73.4,37.3 -94.6,64.1 -21,26.9 -52.8,43.1 -57.8,53.6 z"
       id="path3292" /><path
       inkscape:connector-curvature="0"
       d="m 319.4,829.4 c 0,0 36.8,-0.8 31,-20.1 -5.9,-19.3 -24.3,-29.3 -60.3,-54.4 -36,-25.1 -117.2,-54.4 -152.4,-52.8 -35.2,1.6 -70.4,10.9 -61.2,43.6 9.2,32.7 86.2,61.1 110.5,72.8 24.3,11.7 53.7,25.2 132.4,10.9 z"
       id="path3294" /></defs><sodipodi:namedview
     pagecolor="#ffffff"
     bordercolor="#666666"
     inkscape:document-rotation="0"
     borderopacity="1"
     objecttolerance="10"
     gridtolerance="10"
     guidetolerance="10"
     inkscape:pageopacity="0"
     inkscape:pageshadow="2"
     inkscape:window-width="1366"
     inkscape:window-height="697"
     id="namedview4"
     showgrid="false"
     inkscape:zoom="0.40540572"
     inkscape:cx="661.84024"
     inkscape:cy="365.66957"
     inkscape:window-x="0"
     inkscape:window-y="0"
     inkscape:window-maximized="1"
     inkscape:current-layer="g10"
     fit-margin-top="0"
     fit-margin-left="0"
     fit-margin-right="0"
     fit-margin-bottom="0" /><g
     id="g10"
     inkscape:groupmode="layer"
     inkscape:label="ink_ext_XXXXXX"
     transform="matrix(1.3333333,0,0,-1.3333333,-1543.0841,897.3592)"><g
       id="g4565"><path
         d="m 1422.1512,236.30624 c 37.1024,17.33835 78.4956,27.02763 122.1536,27.02763 43.6581,0 85.0522,-9.68928 122.1538,-27.02763 h 126.0684 c 25.8161,43.24893 40.6514,93.80876 40.6514,147.83879 0,159.53908 -129.3329,288.87439 -288.8736,288.87439 -159.5406,0 -288.8744,-129.33531 -288.8744,-288.87439 0,-54.03003 14.8364,-104.58986 40.6521,-147.83879 h 126.0687"
         style="fill:#e0f5fb;fill-opacity:1;fill-rule:nonzero;stroke:none;stroke-width:0.07883223"
         id="path16"
         inkscape:connector-curvature="0" /><g
         transform="rotate(2.3350373,1156.983,335.82839)"
         id="g2874"><path
           inkscape:connector-curvature="0"
           id="path272-3"
           style="fill:#a2e00a;fill-opacity:1;fill-rule:nonzero;stroke:none;stroke-width:1.10218287"
           d="m 1750.6337,317.62694 -164.546,82.89958 39.1793,77.76672 164.5471,-82.89848 z" /><g
           id="g278"
           transform="matrix(1.1021829,0,0,1.1021829,1751.7865,347.82091)"><path
             d="m 0,0 c -6.696,1.763 -13.856,-0.6 -18.188,-6.001 l -104.754,52.775 c 1.762,6.696 -0.601,13.856 -6.002,18.189 l 13.109,26.02 c 6.696,-1.763 13.856,0.6 18.189,6.001 L 7.107,44.209 C 5.345,37.513 7.708,30.353 13.109,26.021 Z m 8.415,47.664 -104.062,52.428 -15.723,7.921 -7.921,-15.722 -12.761,-25.329 -7.921,-15.723 15.723,-7.921 104.063,-52.427 15.722,-7.921 7.921,15.722 12.761,25.329 7.921,15.722 z"
             style="fill:#3b9c0d;fill-opacity:1;fill-rule:nonzero;stroke:none"
             id="path280-7"
             inkscape:connector-curvature="0" /></g><g
           id="g282"
           transform="matrix(1.1021829,0,0,1.1021829,1717.4294,383.10905)"><path
             d="m 0,0 c 7.442,14.771 1.5,32.779 -13.271,40.221 -14.771,7.442 -32.779,1.5 -40.22,-13.271 -7.443,-14.771 -1.501,-32.779 13.27,-40.221 C -25.449,-20.713 -7.441,-14.771 0,0"
             style="fill:#3b9c0d;fill-opacity:1;fill-rule:nonzero;stroke:none"
             id="path284-5"
             inkscape:connector-curvature="0" /></g><g
           id="g286"
           transform="matrix(1.1021829,0,0,1.1021829,1683.4253,385.68045)"><path
             d="M 0,0 3.779,7.502 C 3.78,7.499 3.781,7.497 3.783,7.495 4.741,5.729 4.94,4.087 4.033,2.286 3.089,0.411 1.742,-0.383 0,0 m 5.405,22.232 c 0.734,1.455 1.746,1.958 2.942,1.811 L 5.392,18.178 c -0.571,1.261 -0.766,2.507 0.013,4.054 m 4.834,-22.303 c 1.341,2.662 1.655,4.814 0.658,7.728 -0.645,1.875 -2.239,4.8 -3.513,7 l 3.956,7.851 c 1.389,-1.63 0.436,-3.917 -0.724,-6.135 l 5.529,-2.785 c 1.397,2.871 4.833,9.167 -2.38,13.734 l 1.949,3.868 -3.004,1.514 -1.947,-3.866 C 5.491,30.931 1.612,29.377 -0.8,24.589 -1.625,22.951 -1.938,21.004 -1.698,19.138 -1.161,16.242 0.348,13.668 1.829,11.105 L -2.896,1.728 c -1.088,1.478 -0.682,3.513 0.547,5.724 l 0.908,1.801 -5.732,2.888 -1.135,-2.251 c -2.515,-4.994 -2.296,-9.65 2.945,-13.061 l -1.963,-3.895 3.004,-1.513 1.941,3.853 c 5.13,-2.045 9.917,-0.71 12.62,4.655"
             style="fill:#ffffff;fill-opacity:1;fill-rule:nonzero;stroke:none"
             id="path288"
             inkscape:connector-curvature="0" /></g></g><g
         transform="rotate(26.739452,150.32634,3037.5233)"
         id="g1012"><g
           id="g330"
           transform="translate(308.0186,213.5361)"><path
             d="m 0,0 -81.441,-62.143 c -5.432,-4.145 -6.476,-11.909 -2.33,-17.341 l 32.173,-42.165 c 4.145,-5.433 11.91,-6.476 17.342,-2.331 l 81.441,62.143 c 5.432,4.146 6.476,11.909 2.331,17.342 L 17.342,-2.33 C 13.196,3.103 5.433,4.146 0,0"
             style="fill:#29abe2;fill-opacity:1;fill-rule:nonzero;stroke:none"
             id="path332"
             inkscape:connector-curvature="0" /></g><g
           id="g338"
           transform="translate(235.8325,118.8682)"><path
             d="M 0,0 101.114,77.154 91.204,90.141 -9.91,12.986 Z"
             style="fill:#333333;fill-opacity:1;fill-rule:nonzero;stroke:none"
             id="path340"
             inkscape:connector-curvature="0" /></g><g
           id="g342"
           transform="translate(302.1006,148.1143)"><path
             d="m 0,0 -52.648,-40.174 -7.334,9.612 52.648,40.173 z"
             style="fill:#ffffff;fill-opacity:1;fill-rule:nonzero;stroke:none"
             id="path344"
             inkscape:connector-curvature="0" /></g><g
           id="g346"
           transform="translate(344.8906,168.666)"><path
             d="m 0,0 c 3.9,-5.112 2.919,-12.42 -2.194,-16.321 -5.113,-3.902 -12.42,-2.919 -16.322,2.193 -3.901,5.113 -2.919,12.421 2.195,16.321 C -11.209,6.095 -3.901,5.113 0,0"
             style="fill:#0071bc;fill-opacity:1;fill-rule:nonzero;stroke:none"
             id="path348"
             inkscape:connector-curvature="0" /></g><g
           id="g350"
           transform="translate(332.4404,159.167)"><path
             d="m 0,0 c 3.901,-5.113 2.92,-12.42 -2.193,-16.321 -5.113,-3.902 -12.42,-2.919 -16.322,2.193 -3.901,5.112 -2.919,12.42 2.194,16.321 C -11.208,6.095 -3.9,5.112 0,0"
             style="fill:#c1272d;fill-opacity:1;fill-rule:nonzero;stroke:none"
             id="path352"
             inkscape:connector-curvature="0" /></g></g><g
         id="g1272"
         transform="matrix(2.9713469,-1.1899924,1.1899924,2.9713469,1413.2122,-231.4279)"><path
           inkscape:connector-curvature="0"
           id="path508"
           style="fill:#ffdc00;fill-opacity:1;fill-rule:nonzero;stroke:none"
           d="m -29.562923,187.00239 c 1.398,-10.044 -5.61,-19.319 -15.653,-20.717 -10.044,-1.398 -19.319,5.61 -20.717,15.654 -1.399,10.042 5.61,19.318 15.653,20.716 10.044,1.399 19.319,-5.61 20.717,-15.653" /><path
           inkscape:connector-curvature="0"
           id="path512"
           style="fill:#feef00;fill-opacity:1;fill-rule:nonzero;stroke:none"
           d="m -34.436923,186.32369 c 1.023,-7.352 -4.106,-14.141 -11.458,-15.164 -7.352,-1.023 -14.141,4.106 -15.165,11.458 -1.023,7.352 4.107,14.141 11.458,15.164 7.352,1.023 14.142,-4.106 15.165,-11.458" /><path
           inkscape:connector-curvature="0"
           id="path520"
           style="fill:#ff9f24;fill-opacity:1;fill-rule:nonzero;stroke:none"
           d="m -45.661023,178.86659 -0.534,3.837 c 10e-4,-0.001 0.002,-0.001 0.003,-0.002 0.827,-0.418 1.333,-0.988 1.461,-1.909 0.134,-0.959 -0.168,-1.614 -0.93,-1.926 m -3.781,9.851 c -0.103,0.744 0.149,1.2 0.641,1.458 l 0.417,-2.999 c -0.547,0.328 -0.948,0.749 -1.058,1.541 m 7.683,-7.192 c -0.19,1.362 -0.635,2.26 -1.777,3.105 -0.737,0.541 -2.108,1.232 -3.168,1.732 l -0.56,4.016 c 0.956,-0.254 1.193,-1.371 1.335,-2.517 l 2.828,0.394 c -0.224,1.456 -0.572,4.745 -4.505,4.585 l -0.276,1.978 -1.536,-0.214 0.275,-1.976 c -2.548,-0.589 -3.612,-2.197 -3.271,-4.645 0.117,-0.838 0.509,-1.659 1.089,-2.304 0.964,-0.957 2.211,-1.538 3.445,-2.121 l 0.668,-4.796 c -0.801,0.275 -1.181,1.154 -1.294,2.315 l -0.129,0.921 -2.931,-0.408 0.16,-1.152 c 0.356,-2.552 1.661,-4.261 4.542,-4.18 l 0.278,-1.994 1.536,0.214 -0.275,1.971 c 2.483,0.57 3.948,2.332 3.566,5.076" /></g><g
         transform="translate(-542.97137,101.87785)"
         id="g2865"><path
           inkscape:connector-curvature="0"
           id="path508-5"
           style="fill:#ffdc00;fill-opacity:1;fill-rule:nonzero;stroke:none;stroke-width:3.20077872"
           d="m 2037.3209,393.71346 c -7.7983,-31.50782 -39.6587,-50.7276 -71.1635,-42.93045 -31.5079,7.79834 -50.7276,39.65872 -42.9293,71.16654 7.793,31.50306 39.6575,50.72462 71.1624,42.92747 31.509,-7.79537 50.7276,-39.65872 42.9304,-71.16356" /><path
           inkscape:connector-curvature="0"
           id="path512-6"
           style="fill:#feef00;fill-opacity:1;fill-rule:nonzero;stroke:none;stroke-width:3.20077872"
           d="m 2022.0309,397.49683 c -5.7091,-23.06271 -29.028,-37.13171 -52.0907,-31.42258 -23.0627,5.70914 -37.1317,29.02804 -31.4255,52.09193 5.7091,23.06271 29.031,37.13052 52.0907,31.42257 23.0627,-5.70913 37.1347,-29.02922 31.4255,-52.09192" /><g
           transform="matrix(2.0094412,0,0,-2.0094412,1950.9746,437.12796)"
           id="g4"
           style="fill:#ff9f24;fill-opacity:1"><path
             inkscape:connector-curvature="0"
             d="m 24.465,16.674 c -0.457,-0.789 -1.08,-1.408 -1.869,-1.846 -0.543,-0.312 -1.332,-0.604 -2.361,-0.865 0.959,-0.326 1.732,-0.732 2.314,-1.232 0.588,-0.504 1.031,-1.08 1.338,-1.727 0.314,-0.65 0.477,-1.336 0.477,-2.062 0,-0.993 -0.295,-1.909 -0.883,-2.745 C 22.889,5.361 22.053,4.723 20.961,4.281 20.541,4.108 20.039,3.977 19.484,3.871 V 0 h -3.711 v 3.611 h -2.39 V 0 H 9.67 V 3.611 H 4.002 v 3.032 h 0.856 c 0.578,0 0.975,0.054 1.176,0.16 0.202,0.104 0.351,0.245 0.436,0.426 0.086,0.177 0.126,0.593 0.126,1.244 V 20.71 c 0,0.643 -0.04,1.047 -0.126,1.229 -0.085,0.186 -0.232,0.324 -0.436,0.432 -0.201,0.098 -0.598,0.146 -1.176,0.146 H 4.002 v 3.029 H 9.67 v 3.613 h 3.713 v -3.613 h 2.113 c 0.093,0 0.185,0 0.275,0 v 3.613 h 3.711 v -3.92 c 0.629,-0.119 1.178,-0.275 1.645,-0.463 1.281,-0.512 2.273,-1.258 2.975,-2.238 0.709,-0.982 1.057,-2.057 1.057,-3.221 -10e-4,-0.969 -0.231,-1.85 -0.694,-2.643 z M 12.025,7.146 h 2.404 c 1.404,0 2.385,0.088 2.93,0.266 0.541,0.17 0.961,0.461 1.246,0.868 0.291,0.413 0.434,0.909 0.434,1.483 0,0.553 -0.154,1.041 -0.453,1.467 -0.309,0.428 -0.762,0.744 -1.363,0.949 -0.604,0.213 -1.533,0.32 -2.791,0.32 h -2.404 z m 6.793,13.567 c -0.432,0.541 -0.943,0.904 -1.562,1.074 -0.607,0.172 -1.379,0.26 -2.312,0.26 h -1.602 c -0.532,0 -0.859,-0.031 -0.982,-0.088 -0.123,-0.051 -0.205,-0.156 -0.26,-0.301 -0.037,-0.119 -0.068,-0.51 -0.074,-1.188 v -4.75 h 2.838 c 1.254,0 2.17,0.115 2.78,0.348 0.605,0.23 1.066,0.57 1.361,1.025 0.307,0.447 0.463,0.992 0.463,1.648 0.001,0.769 -0.216,1.421 -0.65,1.972 z"
             id="path2"
             style="fill:#ff9f24;fill-opacity:1" /></g></g><g
         transform="matrix(0.58169637,0.31866556,-0.31866556,0.58169637,-675.7238,-921.38759)"
         id="g4413"><path
           d="m 3548.38,250.02529 c 2.625,-3.225 7.125,-0.675 7.125,-0.675 0,0 9.75,-26.7 57.9,-28.65 48.15,-1.95 116.475,44.25 132.075,53.325 15.6,9.075 34.5,36.45 39.675,52.05 5.175,15.6 5.85,29.925 5.85,29.925 l -249.75,-96.225 c 0,0 4.5,-6.45 7.125,-9.75 z"
           id="path54"
           inkscape:connector-curvature="0"
           style="fill:#813028;stroke-width:0.75" /><path
           d="m 3541.255,259.77529 c 4.575,-11.7 12.975,-1.95 12.975,-1.95 0,0 32.55,-35.775 89.775,-8.475 57.225,27.3 119.025,55.275 129.45,71.55 10.425,16.275 17.55,35.1 17.55,35.1 0,0 -42.975,20.175 -95.625,3.9 -52.725,-16.275 -148.35,-57.9 -144.45,-89.1 0.075,0.075 -14.25,0.75 -9.675,-11.025 z"
           id="path56"
           inkscape:connector-curvature="0"
           style="fill:#9f4b33;stroke-width:0.75" /><path
           d="m 3562.03,267.57529 c 0,0 24.075,-20.175 51.375,-15.6 27.3,4.575 133.35,52.05 147.675,69.6 14.325,17.55 15.6,32.55 15.6,32.55 0,0 -33.825,10.425 -61.125,7.125 -27.3,-3.225 -125.55,-47.475 -146.4,-66.975 -20.85,-19.5 -7.125,-26.7 -7.125,-26.7 z"
           id="path58"
           inkscape:connector-curvature="0"
           style="fill:#c77359;stroke-width:0.75" /><g
           clip-path="url(#SVGID_2_-8)"
           id="g246"
           transform="matrix(0.75000002,0,0,-0.75000002,3114.88,518.8253)"><g
             id="g72"><path
               d="m 734.7,274.7 c 1.4,3 4.2,7.6 5.6,10.5 l 22.6,-5.3 c 3.2,-14.3 -11.5,-26.4 -20.2,-31.1 -8.7,-4.7 -14.8,1.3 -14.8,1.3 -3.8,1.9 -6.1,7.4 -3.9,11.2 0.3,0.6 0.7,1.1 1.2,1.6 3,3.8 7.5,7.5 9.5,11.8 z"
               id="path68"
               inkscape:connector-curvature="0"
               style="fill:#e6ba9f" /><path
               d="m 731,263.5 c 2.9,1.4 6.2,-3 3.3,-5.9 -1.5,-1.5 -3.4,-3.9 -5.8,-4.2 -1.4,-0.2 -2.3,0.6 -2.6,1.6 -0.2,0.8 -0.2,1.7 0.3,2.5 0.5,1.1 1.5,1.9 2.2,2.9 0.7,1.3 1.4,2.5 2.6,3.1 z"
               id="path70"
               inkscape:connector-curvature="0"
               style="fill:#f8d9c7" /></g><g
             id="g78"><path
               d="m 761.1,265.3 c 1.4,3 4.2,7.6 5.6,10.5 l 22.6,-5.3 c 3.2,-14.3 -11.5,-26.4 -20.2,-31.1 -8.7,-4.7 -14.8,1.3 -14.8,1.3 -3.8,1.9 -6.1,7.4 -3.9,11.2 0.3,0.6 0.8,1.1 1.2,1.6 3,3.7 7.5,7.4 9.5,11.8 z"
               id="path74"
               inkscape:connector-curvature="0"
               style="fill:#e6ba9f" /><path
               d="m 755.2,249.3 c 1.6,0.8 3.4,-1.6 1.8,-3.2 -0.8,-0.8 -1.9,-2.1 -3.1,-2.2 -0.8,-0.1 -1.2,0.3 -1.4,0.9 -0.1,0.4 -0.1,0.9 0.1,1.4 0.3,0.6 0.8,1 1.2,1.6 0.4,0.5 0.7,1.2 1.4,1.5 z"
               id="path76"
               inkscape:connector-curvature="0"
               style="fill:#f8d9c7" /></g><g
             id="g84"><path
               d="m 711.3,283.6 c 1.3,2.8 3.9,7.1 5.3,9.9 l 21.2,-5 c 3,-13.4 -10.8,-24.8 -19,-29.2 -8.2,-4.4 -13.9,1.2 -13.9,1.2 -3.5,1.8 -5.7,6.9 -3.7,10.5 0.3,0.5 0.7,1 1.1,1.5 2.9,3.5 7.1,7 9,11.1 z"
               id="path80"
               inkscape:connector-curvature="0"
               style="fill:#e6ba9f" /><path
               d="m 710.2,275.6 c 3.4,1.6 7.3,-3.5 3.8,-6.9 -1.8,-1.8 -4,-4.6 -6.7,-4.9 -1.6,-0.2 -2.7,0.7 -3,1.9 -0.3,0.9 -0.2,2 0.3,3 0.6,1.2 1.8,2.2 2.5,3.4 0.8,1.4 1.5,2.8 3.1,3.5 z"
               id="path82"
               inkscape:connector-curvature="0"
               style="fill:#f8d9c7" /></g><g
             id="g90"><path
               d="m 688,296 c 1.3,2.9 4,7.3 5.5,10.2 l 21.9,-5.2 c 3.1,-13.8 -11.2,-25.5 -19.6,-30.1 -8.4,-4.6 -14.3,1.3 -14.3,1.3 -3.6,1.9 -5.9,7.1 -3.8,10.8 0.3,0.6 0.7,1.1 1.1,1.6 3,3.6 7.3,7.2 9.2,11.4 z"
               id="path86"
               inkscape:connector-curvature="0"
               style="fill:#e6ba9f" /><path
               d="m 685.1,287 c 3.3,1.6 7,-3.4 3.7,-6.7 -1.7,-1.7 -3.9,-4.4 -6.5,-4.7 -1.6,-0.2 -2.6,0.7 -2.9,1.8 -0.3,0.9 -0.2,1.9 0.3,2.9 0.6,1.2 1.7,2.1 2.5,3.3 0.7,1.4 1.4,2.7 2.9,3.4 z"
               id="path88"
               inkscape:connector-curvature="0"
               style="fill:#f8d9c7" /></g><g
             id="g96"><path
               d="m 666.7,300.9 c 1,2.3 3.1,5.7 4.2,7.9 l 17,-4 c 2.4,-10.7 -8.7,-19.8 -15.2,-23.3 -6.5,-3.5 -11.1,1 -11.1,1 -2.8,1.4 -4.6,5.5 -2.9,8.4 0.3,0.4 0.6,0.8 0.9,1.2 2.2,2.7 5.6,5.5 7.1,8.8 z"
               id="path92"
               inkscape:connector-curvature="0"
               style="fill:#e6ba9f" /><path
               d="m 666.2,295.6 c 3,1.4 6.4,-3.1 3.4,-6.1 -1.6,-1.6 -3.5,-4 -5.9,-4.3 -1.4,-0.2 -2.3,0.6 -2.7,1.7 -0.2,0.8 -0.2,1.8 0.3,2.6 0.5,1.1 1.6,1.9 2.2,3 0.7,1.2 1.4,2.4 2.7,3.1 z"
               id="path94"
               inkscape:connector-curvature="0"
               style="fill:#f8d9c7" /></g><g
             id="g102"><path
               d="m 650.5,309 c 0.9,2 2.8,5.1 3.8,7.1 l 15.2,-3.6 c 2.1,-9.6 -7.8,-17.8 -13.6,-21 -5.9,-3.2 -10,0.9 -10,0.9 -2.5,1.3 -4.1,5 -2.6,7.5 0.2,0.4 0.5,0.7 0.8,1.1 2,2.5 5,5 6.4,8 z"
               id="path98"
               inkscape:connector-curvature="0"
               style="fill:#e6ba9f" /><path
               d="m 650.1,304.2 c 2.7,1.3 5.8,-2.8 3,-5.5 -1.4,-1.4 -3.2,-3.6 -5.3,-3.9 -1.3,-0.1 -2.1,0.6 -2.4,1.5 -0.2,0.7 -0.1,1.6 0.2,2.4 0.5,1 1.4,1.7 2,2.7 0.7,1.1 1.3,2.2 2.5,2.8 z"
               id="path100"
               inkscape:connector-curvature="0"
               style="fill:#f8d9c7" /></g><g
             id="g108"><path
               d="m 641.2,319.1 c 1.2,1.6 3.3,3.8 4.6,5.4 l 12.3,-5.8 c 0,-8.6 -10,-13.8 -15.6,-15.4 -5.6,-1.6 -8.4,2.6 -8.4,2.6 -1.9,1.6 -2.6,5 -0.8,6.9 0.3,0.3 0.6,0.5 0.9,0.8 2.3,1.7 5.3,3.2 7,5.5 z"
               id="path104"
               inkscape:connector-curvature="0"
               style="fill:#e6ba9f" /><path
               d="m 636.8,310.6 c 1,0.2 1.8,-1.4 0.6,-2.1 -0.6,-0.4 -1.4,-1 -2.2,-0.9 -0.5,0 -0.7,0.3 -0.7,0.7 0,0.3 0.1,0.6 0.3,0.8 0.2,0.3 0.6,0.5 0.9,0.8 0.4,0.2 0.7,0.6 1.1,0.7 z"
               id="path106"
               inkscape:connector-curvature="0"
               style="fill:#f8d9c7" /></g><g
             id="g114"><path
               d="m 782.3,253.4 c 0.6,2.8 2.2,7.1 3,9.9 l 20.1,-0.8 c 5.1,-11.6 -5.3,-24.3 -11.9,-29.8 -6.6,-5.4 -12.8,-1.3 -12.8,-1.3 -3.5,1 -6.4,5.3 -5.2,8.8 0.2,0.5 0.4,1.1 0.7,1.6 1.9,3.6 5.1,7.5 6.1,11.6 z"
               id="path110"
               inkscape:connector-curvature="0"
               style="fill:#e6ba9f" /><path
               d="m 780,238.8 c 1.2,0.9 3.1,-0.8 2,-2.4 -0.6,-0.8 -1.2,-2.1 -2.3,-2.4 -0.6,-0.2 -1.1,0.1 -1.3,0.5 -0.2,0.3 -0.2,0.8 -0.1,1.2 0.1,0.5 0.5,1 0.7,1.5 0.3,0.6 0.5,1.2 1,1.6 z"
               id="path112"
               inkscape:connector-curvature="0"
               style="fill:#f8d9c7" /></g><g
             id="g120"><path
               d="m 803.2,246.8 c 0.4,1.7 1.4,4.4 1.8,6.1 l 12.4,-0.5 c 3.1,-7.2 -3.3,-15 -7.3,-18.3 -4,-3.3 -7.9,-0.8 -7.9,-0.8 -2.2,0.6 -4,3.2 -3.2,5.4 0.1,0.3 0.3,0.7 0.4,1 1.3,2.2 3.2,4.6 3.8,7.1 z"
               id="path116"
               inkscape:connector-curvature="0"
               style="fill:#e6ba9f" /><path
               d="m 801.8,237.9 c 0.7,0.6 1.9,-0.5 1.3,-1.5 -0.4,-0.5 -0.7,-1.3 -1.4,-1.5 -0.4,-0.1 -0.7,0 -0.8,0.3 -0.1,0.2 -0.1,0.5 -0.1,0.7 0.1,0.3 0.3,0.6 0.4,0.9 0.2,0.5 0.3,0.8 0.6,1.1 z"
               id="path118"
               inkscape:connector-curvature="0"
               style="fill:#f8d9c7" /></g><path
             d="m 641.5,307.4 c -1.4,-0.1 -2.6,0.5 -3.9,1.1 -2.6,1.3 -4.4,4 -5,6.7 -0.1,0.5 -0.2,1 -0.2,1.6 -0.1,2.2 1.2,4.3 3,5.7 1.8,1.4 4,2.1 6.2,2.6 2.3,0.5 5,0.5 6.9,2 1.2,0.9 3,2.6 4.5,3 l 25.6,9.1 50,-1.9 c 0,0 41.1,-2.9 42.5,-2.3 1.4,0.6 69.5,-62.5 69.5,-62.5 0.1,-0.1 -2.6,-4.4 -2.8,-5 -0.4,-1.3 0.1,-2.6 0.5,-3.9 1.1,-3.7 3.2,-7.4 3.3,-11.3 0,-1.1 -0.1,-2.1 -0.2,-3.2 -0.3,-2.3 -0.6,-4.7 -1.6,-6.8 -1.6,-3.4 -4.9,-5.8 -8.3,-7.6 -2.4,-1.3 -4.9,-2.4 -7.7,-2.5 -4,-0.1 -9.1,1.3 -11.6,4.6 -0.9,1.2 -0.7,1.9 -2.3,1.2 -1.2,-0.6 -2.4,-1.2 -3.6,-1.9 -0.4,-0.3 -0.8,-0.5 -1.3,-0.7 -3.8,-1.2 -7.4,-0.8 -11.3,-0.8 -6.9,0.7 -12.1,9.8 -12.1,9.8 -6.7,-4.5 -17.3,-1.3 -21.9,2.6 -4.6,4 -4.4,9.7 -4.4,9.7 -6,-4 -13.5,-2.5 -19.5,2.5 -6,5 -3.6,11.9 -3.6,11.9 -4.1,-2.9 -9.2,-0.9 -15.3,2.6 -6.1,3.5 -4.8,9.4 -4.8,9.4 -1.2,-1.2 -6.7,-1.9 -12,1.5 -5.3,3.4 -5.8,7.1 -5.8,7.1 -3.5,-1.4 -6.6,-0.2 -10,1 -3.4,1.2 -6,6 -6,6 -3.8,-0.8 -7.7,-0.2 -10.7,2.4 -0.9,0.8 -1.8,1.8 -2.4,2.9 -0.2,0.3 -0.4,1 -0.6,1.1 -0.7,0.5 -2.3,-0.9 -3.1,-1.3 -2.6,-1.5 -5.6,-3.1 -8.6,-2.5 -1.7,0.4 -3.2,1.5 -4.6,2.5 -0.3,0.2 -0.6,0.5 -0.9,0.8 -0.9,1.1 -0.7,2.4 -0.7,3.7 0,0 -4.7,-0.8 -5.2,-0.9 z"
             id="path122"
             inkscape:connector-curvature="0"
             style="fill:#b87f61" /><g
             id="g128"><path
               d="m 744.4,283.5 c 1.4,3 4.2,7.6 5.6,10.5 l 22.6,-5.3 c 3.2,-14.3 -11.5,-26.4 -20.2,-31.1 -8.7,-4.7 -14.8,1.3 -14.8,1.3 -3.8,1.9 -6.1,7.4 -3.9,11.2 0.3,0.6 0.8,1.1 1.2,1.6 3,3.7 7.6,7.4 9.5,11.8 z"
               id="path124"
               inkscape:connector-curvature="0"
               style="fill:#e6ba9f" /><path
               d="m 746.2,278.1 c 4.7,2.2 9.9,-4.8 5.2,-9.4 -2.5,-2.4 -5.5,-6.2 -9.2,-6.6 -2.2,-0.2 -3.6,1 -4.1,2.6 -0.4,1.2 -0.2,2.7 0.4,4.1 0.8,1.7 2.5,3 3.5,4.6 1.1,1.8 2.1,3.7 4.2,4.7 z"
               id="path126"
               inkscape:connector-curvature="0"
               style="fill:#f8d9c7" /></g><g
             id="g134"><path
               d="m 724.7,296 c 1.4,2.6 4.3,6.4 5.8,8.9 l 19.6,-6.4 c 1.7,-12.9 -12.3,-22.4 -20.3,-25.9 -8,-3.5 -13,2.3 -13,2.3 -3.2,2 -4.8,7 -2.6,10.2 0.3,0.5 0.7,0.9 1.2,1.3 2.9,3 7.2,5.9 9.3,9.6 z"
               id="path130"
               inkscape:connector-curvature="0"
               style="fill:#e6ba9f" /><path
               d="m 721.7,287.2 c 1.1,1.6 2.2,3.2 4.1,3.9 4.3,1.6 8.4,-5 3.9,-8.7 -2.4,-1.9 -5.3,-5.1 -8.6,-5.1 -2,0 -3.1,1.1 -3.4,2.6 -0.2,1.1 0,2.4 0.7,3.6 0.8,1.3 2.3,2.3 3.3,3.7 z"
               id="path132"
               inkscape:connector-curvature="0"
               style="fill:#f8d9c7" /></g><g
             id="g140"><path
               d="m 705.1,304.4 c 1.1,2.3 3.2,5.7 4.3,7.9 l 17.1,-4.2 c 2.3,-10.8 -8.9,-19.9 -15.5,-23.4 -6.6,-3.5 -11.2,1.1 -11.2,1.1 -2.8,1.5 -4.6,5.6 -2.9,8.5 0.3,0.4 0.6,0.8 0.9,1.2 2.4,2.9 5.8,5.7 7.3,8.9 z"
               id="path136"
               inkscape:connector-curvature="0"
               style="fill:#e6ba9f" /><path
               d="m 706.4,300.3 c 3.5,1.7 7.5,-3.7 3.9,-7.2 -1.9,-1.8 -4.2,-4.7 -7,-5 -1.7,-0.2 -2.7,0.7 -3.1,2 -0.3,0.9 -0.2,2.1 0.3,3.1 0.6,1.3 1.9,2.2 2.6,3.5 1,1.5 1.8,2.9 3.3,3.6 z"
               id="path138"
               inkscape:connector-curvature="0"
               style="fill:#f8d9c7" /></g><g
             id="g146"><path
               d="m 687.7,309.5 c 0.9,1.9 2.6,4.7 3.6,6.6 l 14.1,-3.4 c 1.9,-9 -7.3,-16.4 -12.8,-19.3 -5.4,-2.9 -9.3,0.9 -9.3,0.9 -2.3,1.2 -3.8,4.6 -2.4,7 0.2,0.4 0.5,0.7 0.7,1 2,2.2 4.8,4.5 6.1,7.2 z"
               id="path142"
               inkscape:connector-curvature="0"
               style="fill:#e6ba9f" /><path
               d="m 688.7,306.1 c 2.9,1.4 6.2,-3.1 3.2,-5.9 -1.5,-1.5 -3.5,-3.9 -5.8,-4.1 -1.4,-0.1 -2.3,0.6 -2.6,1.6 -0.2,0.8 -0.1,1.7 0.3,2.5 0.5,1 1.5,1.8 2.2,2.9 0.8,1.2 1.4,2.4 2.7,3 z"
               id="path144"
               inkscape:connector-curvature="0"
               style="fill:#f8d9c7" /></g><g
             id="g152"><path
               d="m 672.6,316.7 c 0.8,1.9 2.5,4.8 3.4,6.7 l 14.2,-3 c 2.2,-8.9 -6.9,-16.6 -12.2,-19.7 -5.4,-3.1 -9.3,0.6 -9.3,0.6 -2.4,1.2 -3.9,4.5 -2.6,6.9 0.2,0.4 0.5,0.7 0.7,1 1.8,2.4 4.6,4.8 5.8,7.5 z"
               id="path148"
               inkscape:connector-curvature="0"
               style="fill:#e6ba9f" /><path
               d="m 673.7,313.4 c 2.9,1.4 6.3,-2.9 3.4,-5.8 -1.5,-1.5 -3.3,-4 -5.7,-4.3 -1.4,-0.2 -2.3,0.6 -2.6,1.6 -0.3,0.8 -0.2,1.7 0.2,2.5 0.5,1.1 1.5,1.9 2.1,3 0.7,1.1 1.4,2.3 2.6,3 z"
               id="path150"
               inkscape:connector-curvature="0"
               style="fill:#f8d9c7" /></g><g
             id="g158"><path
               d="m 654,317.6 c 0.7,1.7 2.2,4.2 2.9,5.8 l 12.3,-2.6 c 1.9,-7.7 -6,-14.4 -10.6,-17.1 -4.7,-2.7 -8.1,0.5 -8.1,0.5 -2.1,1 -3.4,3.9 -2.2,6 0.2,0.3 0.4,0.6 0.6,0.9 1.7,2.1 4.1,4.1 5.1,6.5 z"
               id="path154"
               inkscape:connector-curvature="0"
               style="fill:#e6ba9f" /><path
               d="m 655,314.7 c 2.5,1.3 5.4,-2.5 2.9,-5.1 -1.3,-1.3 -2.9,-3.4 -4.9,-3.7 -1.2,-0.2 -2,0.5 -2.3,1.4 -0.2,0.7 -0.2,1.5 0.2,2.2 0.4,0.9 1.3,1.6 1.8,2.6 0.7,1 1.2,2 2.3,2.6 z"
               id="path156"
               inkscape:connector-curvature="0"
               style="fill:#f8d9c7" /></g><g
             id="g164"><path
               d="m 640.7,323.7 c 1,2.1 1.6,4.3 2.6,6.4 2.1,4.5 9.8,0.5 12,-2 2.6,-3 0,-8.6 -1.9,-11.2 -2.1,-2.9 -5,-5.3 -8.1,-7.1 -4.7,-2.7 -8.1,0.5 -8.1,0.5 -2.1,1 -3.4,3.9 -2.2,6 0.2,0.3 0.4,0.6 0.6,0.9 1.8,2.2 3.9,4 5.1,6.5 z"
               id="path160"
               inkscape:connector-curvature="0"
               style="fill:#e6ba9f" /><path
               d="m 641.7,320.8 c 2.5,1.3 5.4,-2.5 2.9,-5.1 -1.3,-1.3 -2.9,-3.4 -4.9,-3.7 -1.2,-0.2 -2,0.5 -2.3,1.4 -0.2,0.7 -0.2,1.5 0.2,2.2 0.4,0.9 1.3,1.6 1.8,2.6 0.7,1 1.2,2.1 2.3,2.6 z"
               id="path162"
               inkscape:connector-curvature="0"
               style="fill:#f8d9c7" /></g><g
             id="g170"><path
               d="m 769.6,271.5 c 1.6,2.9 4.7,7.3 6.4,10.1 l 22.2,-6.9 c 2.1,-14.5 -13.4,-25.5 -22.4,-29.6 -9,-4.1 -14.7,2.3 -14.7,2.3 -3.6,2.2 -5.6,7.8 -3.1,11.4 0.4,0.6 0.8,1 1.3,1.5 3.2,3.6 8,7 10.3,11.2 z"
               id="path166"
               inkscape:connector-curvature="0"
               style="fill:#e6ba9f" /><path
               d="m 770.9,266 c 4.8,1.9 9.5,-5.5 4.5,-9.8 -2.6,-2.2 -5.9,-5.8 -9.6,-6 -2.2,-0.1 -3.5,1.2 -3.9,2.9 -0.3,1.3 0,2.7 0.7,4 1,1.6 2.7,2.8 3.8,4.4 1.2,1.8 2.4,3.6 4.5,4.5 z"
               id="path168"
               inkscape:connector-curvature="0"
               style="fill:#f8d9c7" /></g><g
             id="g176"><path
               d="m 796,260.8 c 1.5,2.7 4.3,6.7 5.9,9.4 l 20.5,-6.4 c 2,-13.4 -12.4,-23.6 -20.7,-27.4 -8.3,-3.8 -13.6,2.2 -13.6,2.2 -3.3,2 -5.1,7.2 -2.9,10.5 0.3,0.5 0.8,1 1.2,1.4 3.1,3.3 7.5,6.4 9.6,10.3 z"
               id="path172"
               inkscape:connector-curvature="0"
               style="fill:#e6ba9f" /><path
               d="m 797.3,255.7 c 4.4,1.7 8.8,-5.1 4.2,-9 -2.4,-2.1 -5.5,-5.4 -8.9,-5.5 -2.1,-0.1 -3.3,1.1 -3.6,2.7 -0.3,1.2 0,2.5 0.7,3.7 0.9,1.5 2.5,2.6 3.5,4.1 1,1.5 2.1,3.2 4.1,4 z"
               id="path174"
               inkscape:connector-curvature="0"
               style="fill:#f8d9c7" /></g><g
             id="g182"><path
               d="m 820.5,251.4 c 1,1.9 3,4.7 4.2,6.6 l 14.4,-4.5 c 1.4,-9.4 -8.7,-16.6 -14.6,-19.2 -5.8,-2.7 -9.5,1.5 -9.5,1.5 -2.3,1.4 -3.6,5 -2,7.4 0.2,0.4 0.5,0.7 0.8,1 2.1,2.3 5.2,4.4 6.7,7.2 z"
               id="path178"
               inkscape:connector-curvature="0"
               style="fill:#e6ba9f" /><path
               d="m 821.4,247.8 c 3.1,1.2 6.2,-3.6 2.9,-6.4 -1.7,-1.5 -3.8,-3.8 -6.3,-3.9 -1.5,-0.1 -2.3,0.8 -2.5,1.9 -0.2,0.8 0,1.8 0.5,2.6 0.6,1.1 1.7,1.8 2.5,2.9 0.7,1.2 1.5,2.4 2.9,2.9 z"
               id="path180"
               inkscape:connector-curvature="0"
               style="fill:#f8d9c7" /></g><path
             d="m 680.2,310.3 c -5.5,1.5 -6.7,5.8 -6.7,5.8 -4.3,-6.2 -8.7,-5 -11.4,-4.5 -2.7,0.5 -4.7,3.4 -4.7,3.4 -1.9,-2.4 -4.6,-4.1 -7.8,-3.7 -1.2,0.1 -2.4,0.6 -3.4,1.3 -1.1,0.8 -1.9,1.9 -2.2,3.3 -0.2,0.8 -0.1,1.6 -0.1,2.4 0.2,2.2 1.9,3.5 2.9,5.4 0.9,1.9 1,4.7 1.5,6.7 0.3,1.2 0.6,2.6 1.6,3.2 0.4,0.3 0.9,0.4 1.4,0.5 6.6,1.7 13.2,1.7 19.8,2.6 5.3,0.8 10.6,1.5 15.9,2.3 3.4,0.5 6.9,1 10.3,1.5 1.2,0.2 3.7,0.1 4.7,0.9 0.7,0.5 42.4,-8.5 42.4,-8.5 L 785,323.1 838.8,289 c -0.4,-1.6 -0.9,-3.1 -1.3,-4.7 -0.6,-2.3 -1.9,-5 -0.9,-7.3 0.8,-2 2.8,-3.4 4.2,-4.8 1.9,-1.9 4.6,-4.6 5.1,-7.3 0.3,-1.7 -0.4,-3.4 -1.2,-4.8 -1.6,-2.9 -3.8,-5.5 -6.6,-7.4 -1.6,-1 -3.3,-1.8 -5.1,-2.5 -6.3,-2.5 -12.8,-5.6 -18.6,-0.3 -6.6,6 -2,11.1 -2,11.1 -9.4,1.1 -11.1,9.6 -11.1,9.6 0,0 -6.8,-3.2 -14.3,0.2 -7.5,3.4 -8.2,8.5 -8.2,8.5 -4.1,-3 -12.3,-4.3 -19.3,-1.1 -7,3.2 -8,10 -8,10 0,0 -9,-2.4 -15.2,0.9 -6.2,3.3 -7.3,9.9 -7.3,9.9 0,0 -6.7,-2.2 -12.7,0.5 -6,2.8 -6.7,6 -6.7,6 -5.6,-5.3 -13.9,-1.3 -13.9,-1.3 -7.5,2.7 -6.3,8.1 -6.3,8.1 -4.5,-3.4 -9.2,-2 -9.2,-2 z"
             id="path184"
             inkscape:connector-curvature="0"
             style="fill:#b87f61" /><g
             id="g190"><path
               d="m 718.6,320 c 0.6,2.5 1.7,4.9 2.4,7.4 l 18.5,0.4 c 4.4,-10.5 -5.1,-21.7 -11.1,-26.5 -6,-4.8 -11.5,-1 -11.5,-1 -3.1,1 -5.7,4.8 -4.5,8 0.2,0.5 0.4,0.9 0.7,1.4 1.6,3.3 4.6,6.7 5.5,10.3 z"
               id="path186"
               inkscape:connector-curvature="0"
               style="fill:#e6ba9f" /><path
               d="m 720.6,316.1 c 3.3,2.3 8.3,-2.3 5.3,-6.5 -1.5,-2.2 -3.3,-5.5 -6.1,-6.3 -1.7,-0.5 -2.9,0.2 -3.5,1.4 -0.5,0.9 -0.6,2.1 -0.3,3.2 0.4,1.4 1.5,2.6 2,4 0.7,1.5 1.2,3.2 2.6,4.2 z"
               id="path188"
               inkscape:connector-curvature="0"
               style="fill:#f8d9c7" /></g><g
             id="g196"><path
               d="m 810.9,283.4 c 0.9,2.5 2.3,4.8 3.3,7.2 l 18.9,-1.7 c 3.3,-11.2 -7.8,-21.5 -14.4,-25.7 -6.6,-4.2 -11.8,0.3 -11.8,0.3 -3.1,1.3 -5.2,5.5 -3.7,8.7 0.2,0.5 0.5,0.9 0.8,1.3 2.2,3.2 5.6,6.3 6.9,9.9 z"
               id="path192"
               inkscape:connector-curvature="0"
               style="fill:#e6ba9f" /><path
               d="m 812.6,279.2 c 3.6,2 8.1,-3.3 4.6,-7.2 -1.8,-2 -4,-5.2 -6.9,-5.7 -1.8,-0.3 -2.9,0.6 -3.4,1.9 -0.4,1 -0.3,2.2 0.1,3.2 0.6,1.4 1.8,2.5 2.5,3.9 0.8,1.4 1.5,3 3.1,3.9 z"
               id="path194"
               inkscape:connector-curvature="0"
               style="fill:#f8d9c7" /></g><g
             id="g202"><path
               d="m 739.2,312.6 c 0.7,2.9 2.4,7.3 3.3,10.1 l 20.7,-1.2 c 5.1,-12.1 -5.9,-24.9 -12.8,-30.4 -6.9,-5.5 -13.2,-1.2 -13.2,-1.2 -3.6,1.1 -6.5,5.5 -5.2,9.2 0.2,0.6 0.5,1.1 0.8,1.6 2,3.9 5.4,7.8 6.4,11.9 z"
               id="path198"
               inkscape:connector-curvature="0"
               style="fill:#e6ba9f" /><path
               d="m 741.6,308.2 c 3.7,2.7 9.5,-2.7 6.1,-7.5 -1.8,-2.5 -3.8,-6.3 -7,-7.2 -1.9,-0.6 -3.3,0.3 -4,1.6 -0.5,1 -0.7,2.4 -0.3,3.6 0.5,1.6 1.7,3 2.3,4.6 0.6,1.8 1.2,3.7 2.9,4.9 z"
               id="path200"
               inkscape:connector-curvature="0"
               style="fill:#f8d9c7" /></g><g
             id="g208"><path
               d="m 788.8,295.1 c 0.7,3 2.5,7.6 3.4,10.5 l 21.6,-1.2 c 5.3,-12.6 -6.1,-26 -13.3,-31.7 -7.1,-5.7 -13.8,-1.2 -13.8,-1.2 -3.8,1.2 -6.8,5.7 -5.4,9.6 0.2,0.6 0.5,1.1 0.8,1.7 2.1,3.9 5.6,8 6.7,12.3 z"
               id="path204"
               inkscape:connector-curvature="0"
               style="fill:#e6ba9f" /><path
               d="m 791.3,290.4 c 3.9,2.8 9.9,-2.8 6.3,-7.8 -1.8,-2.6 -4,-6.6 -7.3,-7.5 -2,-0.6 -3.5,0.3 -4.2,1.7 -0.6,1.1 -0.7,2.5 -0.3,3.8 0.5,1.7 1.7,3.1 2.4,4.8 0.7,1.9 1.4,3.8 3.1,5 z"
               id="path206"
               inkscape:connector-curvature="0"
               style="fill:#f8d9c7" /></g><g
             id="g214"><path
               d="m 762.7,303.9 c 0.8,3.2 2.7,8.2 3.7,11.4 l 23.2,-1.3 c 5.7,-13.5 -6.6,-28 -14.3,-34.1 -7.7,-6.2 -14.8,-1.3 -14.8,-1.3 -4,1.2 -7.3,6.2 -5.8,10.3 0.2,0.6 0.5,1.2 0.9,1.8 2.1,4.2 5.9,8.6 7.1,13.2 z"
               id="path210"
               inkscape:connector-curvature="0"
               style="fill:#e6ba9f" /><path
               d="m 765.3,298.9 c 4.2,3 10.6,-3 6.8,-8.4 -2,-2.8 -4.3,-7.1 -7.9,-8.1 -2.2,-0.6 -3.7,0.3 -4.5,1.8 -0.6,1.2 -0.7,2.7 -0.3,4.1 0.5,1.8 1.9,3.3 2.6,5.2 0.8,2 1.5,4.1 3.3,5.4 z"
               id="path212"
               inkscape:connector-curvature="0"
               style="fill:#f8d9c7" /></g><g
             id="g220"><path
               d="m 696.8,324.7 c 0.6,2.6 1.7,5 2.4,7.5 l 18.9,0.4 c 4.5,-10.8 -5.3,-22.2 -11.4,-27.1 -6.1,-4.9 -11.8,-1 -11.8,-1 -3.2,1 -5.8,4.9 -4.6,8.2 0.2,0.5 0.4,1 0.7,1.4 1.9,3.5 4.9,7 5.8,10.6 z"
               id="path216"
               inkscape:connector-curvature="0"
               style="fill:#e6ba9f" /><path
               d="m 699,320.8 c 3.3,2.4 8.4,-2.4 5.4,-6.7 -1.6,-2.2 -3.4,-5.6 -6.2,-6.5 -1.7,-0.5 -3,0.2 -3.6,1.5 -0.5,0.9 -0.6,2.1 -0.3,3.2 0.4,1.4 1.5,2.7 2,4.1 0.6,1.7 1.2,3.3 2.7,4.4 z"
               id="path218"
               inkscape:connector-curvature="0"
               style="fill:#f8d9c7" /></g><g
             id="g226"><path
               d="m 822.6,267.2 c 1.5,1.8 3.3,3.4 4.8,5.2 0,0 15.5,-6.5 15.5,-6.5 -0.4,-10.4 -12.6,-16.1 -19.5,-17.9 -6.9,-1.8 -9.9,3.5 -9.9,3.5 -2.2,2 -2.9,6.1 -0.7,8.3 0.3,0.3 0.7,0.6 1.1,0.9 2.8,2.1 6.6,3.8 8.7,6.5 z"
               id="path222"
               inkscape:connector-curvature="0"
               style="fill:#e6ba9f" /><path
               d="m 822.9,263.1 c 3.6,0.7 6,-5 1.9,-7.4 -2.1,-1.2 -4.9,-3.3 -7.5,-3 -1.6,0.2 -2.3,1.3 -2.4,2.5 0,0.9 0.3,1.9 1,2.7 0.9,1 2.2,1.6 3.2,2.6 1.1,1.2 2.2,2.3 3.8,2.6 z"
               id="path224"
               inkscape:connector-curvature="0"
               style="fill:#f8d9c7" /></g><g
             id="g232"><path
               d="m 697.3,342 c 0.5,-0.1 1,-0.2 1.3,-0.6 0.2,-0.2 0.2,-0.5 0.2,-0.8 0.3,-2.8 -0.6,-4.9 -1.1,-7.5 -0.5,-2.6 -0.4,-5 -1.5,-7.6 -1.8,-4.3 -4.8,-8.2 -8.3,-11.3 -4.7,-4.1 -9,-0.9 -9,-0.9 -2.5,0.8 -4.4,4.1 -3.5,6.8 0.1,0.4 0.3,0.8 0.5,1.2 1.4,2.8 3.7,5.8 4.5,8.9 0.5,2.1 1.6,4.2 1.7,6.3 0.2,2.5 0,5.1 0,7.6 5.1,-0.6 10.2,-1.3 15.2,-2.1 z"
               id="path228"
               inkscape:connector-curvature="0"
               style="fill:#e6ba9f" /><path
               d="m 682,326.8 c 2.6,2 6.5,-2 4.1,-5.5 -1.2,-1.9 -2.6,-4.7 -4.8,-5.4 -1.3,-0.4 -2.3,0.2 -2.7,1.2 -0.4,0.8 -0.4,1.8 -0.2,2.7 0.3,1.2 1.2,2.2 1.6,3.5 0.4,1.2 0.8,2.6 2,3.5 z"
               id="path230"
               inkscape:connector-curvature="0"
               style="fill:#f8d9c7" /></g><g
             id="g238"><path
               d="m 680.9,340.1 c 0,-2.5 -0.4,-4.9 -1.2,-7.3 -0.7,-2.3 -2,-4.3 -3,-6.5 -1.8,-4.1 -3.7,-7.6 -7.1,-10.7 -3.8,-3.4 -7.3,-0.8 -7.3,-0.8 -2,0.7 -3.6,3.4 -2.8,5.6 0.1,0.3 0.3,0.7 0.4,1 1.8,3.7 3.8,6.2 3.6,10.5 -0.2,3.8 -0.3,7.7 -1.2,11.4 6.3,-0.4 12.5,-1.5 18.6,-3.2 z"
               id="path234-2"
               inkscape:connector-curvature="0"
               style="fill:#e6ba9f" /><path
               d="m 664.8,326.2 c 2.1,1.7 5.2,-1.6 3.3,-4.6 -1,-1.6 -2.1,-3.9 -3.9,-4.5 -1.1,-0.4 -1.8,0.2 -2.2,1 -0.3,0.6 -0.3,1.5 -0.1,2.2 0.3,1 0.9,1.8 1.3,2.9 0.4,1.1 0.7,2.3 1.6,3 z"
               id="path236"
               inkscape:connector-curvature="0"
               style="fill:#f8d9c7" /></g><g
             id="g244"><path
               d="m 648.4,332.3 c -0.2,0.3 -1.3,3.2 -1.1,3.2 4.6,1.6 9.6,2.3 14.4,2.1 0.8,-2.7 0.9,-5.6 0.3,-8.3 -0.5,-2.6 -1.9,-4.9 -2.5,-7.5 -0.8,-3.4 -3.6,-6.5 -6.2,-8.6 -3.2,-2.6 -6.2,-0.5 -6.2,-0.5 -1.7,0.5 -3.1,2.6 -2.4,4.3 0.1,0.3 0.2,0.5 0.4,0.8 1,1.8 2.5,3.6 3,5.6 0.3,1.2 0.7,2.3 1.1,3.4 0.4,1.1 0.3,1.9 0.3,3.1 -0.1,1.1 -0.5,1.5 -1.1,2.4 z"
               id="path240-2"
               inkscape:connector-curvature="0"
               style="fill:#e6ba9f" /><path
               d="m 649.1,321.2 c 1.8,1.3 4.5,-1.3 2.9,-3.5 -0.8,-1.2 -1.8,-3 -3.3,-3.4 -0.9,-0.3 -1.6,0.1 -1.9,0.8 -0.2,0.5 -0.3,1.1 -0.1,1.7 0.2,0.8 0.8,1.4 1.1,2.2 0.3,0.8 0.5,1.6 1.3,2.2 z"
               id="path242-6"
               inkscape:connector-curvature="0"
               style="fill:#f8d9c7" /></g></g></g><g
         transform="translate(-961.69187,-105.93801)"
         id="g2564"><path
           inkscape:connector-curvature="0"
           id="path24"
           style="fill:#8d632c;fill-opacity:1;fill-rule:nonzero;stroke:none;stroke-width:0.1"
           d="m 2692.7355,470.55747 c 0.027,0.022 -1.529,4.683 -6.2419,6.918 -4.686,2.227 -9.1541,1.138 -9.1541,1.167 1.4531,2.767 2.7691,5.583 3.9501,8.443 5.357,-2.212 10.717,-4.421 16.074,-6.633 -1.382,-3.349 -2.926,-6.652 -4.6281,-9.895" /><path
           inkscape:connector-curvature="0"
           id="path232"
           style="fill:#fcf390;fill-opacity:1;fill-rule:nonzero;stroke:none;stroke-width:0.1"
           d="m 2505.0386,385.12347 c 0,0 -14.521,115.629 263.256,115.264 l -263.256,-115.264" /><path
           inkscape:connector-curvature="0"
           id="path234"
           style="fill:#f3e680;fill-opacity:1;fill-rule:nonzero;stroke:none;stroke-width:0.1"
           d="m 2509.6826,381.14547 c 0,0 -14.52,115.629 263.2559,115.263 l -263.2559,-115.263" /><path
           inkscape:connector-curvature="0"
           id="path240"
           style="fill:#fbfcde;fill-opacity:1;fill-rule:nonzero;stroke:none;stroke-width:0.1"
           d="m 2242.0386,496.40947 c 0,0 -11.3031,-8.95 -18.356,-19.801 0,0 -18.7169,-12.207 -29.5677,-29.297 0,0 269.6387,-20.887 315.2107,-83.821 l 0.226,13.247 -10.534,19.57 c 0,0 -21.159,76.232 -189.344,96.848 l -67.635,3.254" /><path
           inkscape:connector-curvature="0"
           id="path242"
           style="fill:#fbfcde;fill-opacity:1;fill-rule:nonzero;stroke:none;stroke-width:0.1"
           d="m 2773.5106,496.40947 c 0,0 11.302,-8.95 18.355,-19.801 0,0 18.7179,-12.207 29.5679,-29.297 0,0 -269.6369,-20.887 -315.2109,-83.821 l -0.2261,13.247 10.535,19.57 c 0,0 21.1581,76.232 189.3431,96.848 l 67.636,3.254" /><path
           inkscape:connector-curvature="0"
           id="path244"
           style="fill:#b88736;fill-opacity:1;fill-rule:nonzero;stroke:none;stroke-width:0.1"
           d="m 2509.2986,370.92947 -6.4581,0.835 c 0.02,0.165 1.7771,16.546 -15.304,35.817 -26.4859,29.881 -95.8789,65.501 -276.0599,65.501 v 6.51 c 183.1539,0 254.042,-37.013 281.259,-68.063 18.839,-21.493 16.664,-39.83 16.563,-40.6" /><path
           inkscape:connector-curvature="0"
           id="path246"
           style="fill:#b88736;fill-opacity:1;fill-rule:nonzero;stroke:none;stroke-width:0.1"
           d="m 2509.3256,371.32047 -6.5101,0.063 c 0,0.297 -0.2239,30.064 -33.451,59.872 -31.007,27.816 -97.73,61.323 -239.5079,62.986 l 0.076,6.511 c 63.619,-0.747 117.842,-7.889 161.1619,-21.228 34.877,-10.738 62.8541,-25.511 83.154,-43.907 35.0341,-31.746 35.091,-62.983 35.0771,-64.297" /><path
           inkscape:connector-curvature="0"
           id="path248"
           style="fill:#fcf390;fill-opacity:1;fill-rule:nonzero;stroke:none;stroke-width:0.1"
           d="m 2502.5876,376.73747 c 0,0 -26.972,74.503 -316.1665,74.503 0,0 -10.4152,-9.435 -21.1585,-26.782 249.601,-2.4 308.4209,-43.178 319.056,-53.102 5.4539,2.168 11.5149,4.007 18.269,5.381" /><path
           inkscape:connector-curvature="0"
           id="path250"
           style="fill:#fcf390;fill-opacity:1;fill-rule:nonzero;stroke:none;stroke-width:0.1"
           d="m 2145.9582,378.09047 c -2.2066,-9.41 -3.625,-19.639 -3.8921,-30.61 23.4527,0.425 83.3865,1.387 143.8804,1.353 113.567,-0.115 149.0861,-3.72 161.1271,-6.689 2.299,3.41 5.1049,6.953 8.5199,10.443 -14.883,6.861 -76.531,25.505 -306.8299,25.505 -0.9301,0 -1.8699,-10e-4 -2.8054,-0.002" /><path
           inkscape:connector-curvature="0"
           id="path252"
           style="fill:#fcf390;fill-opacity:1;fill-rule:nonzero;stroke:none;stroke-width:0.1"
           d="m 2141.9882,340.45347 v -20.86 h 295.1153 c 0,0 1.2051,7.046 6.1901,16.304 -12.365,2.525 -49.392,5.807 -158.0471,5.904 -60.3789,0.07 -120.0711,-0.913 -143.2582,-1.348" /><path
           inkscape:connector-curvature="0"
           id="path254"
           style="fill:#fcf390;fill-opacity:1;fill-rule:nonzero;stroke:none;stroke-width:0.1"
           d="m 2161.1718,417.46047 c -5.0245,-9.114 -9.8276,-19.938 -13.376,-32.337 239.0118,0.044 299.3328,-20.276 313.2248,-27.509 4.5049,3.791 9.832,7.394 16.1279,10.543 -6.1239,4.703 -21.3769,13.976 -54.7489,23.167 -41.571,11.448 -120.25,24.999 -261.2278,26.136" /><path
           inkscape:connector-curvature="0"
           id="path256"
           style="fill:#b88736;fill-opacity:1;fill-rule:nonzero;stroke:none;stroke-width:0.1"
           d="m 2142.0661,347.48047 c -0.031,-1.233 -0.078,-2.458 -0.078,-3.711 v -3.316 c 23.1872,0.435 82.8794,1.418 143.2583,1.348 108.655,-0.097 145.682,-3.379 158.047,-5.904 1.0751,1.995 2.327,4.094 3.7801,6.247 -12.041,2.969 -47.5601,6.574 -161.1271,6.689 -60.4939,0.034 -120.4278,-0.928 -143.8804,-1.353" /><path
           inkscape:connector-curvature="0"
           id="path258"
           style="fill:#b88736;fill-opacity:1;fill-rule:nonzero;stroke:none;stroke-width:0.1"
           d="m 2147.7958,385.12347 c -0.6563,-2.293 -1.2743,-4.633 -1.8375,-7.033 0.9355,0.001 1.8753,0.002 2.8053,0.002 230.299,0 291.9469,-18.644 306.83,-25.505 1.661,1.696 3.467,3.379 5.427,5.027 -13.892,7.233 -74.213,27.553 -313.2248,27.509" /><path
           inkscape:connector-curvature="0"
           id="path260"
           style="fill:#b88736;fill-opacity:1;fill-rule:nonzero;stroke:none;stroke-width:0.1"
           d="m 2165.2626,424.45847 c -1.3673,-2.205 -2.7348,-4.539 -4.0908,-6.998 140.9778,-1.137 219.6568,-14.688 261.2278,-26.136 33.372,-9.191 48.625,-18.464 54.7489,-23.167 2.2621,1.131 4.6531,2.198 7.1701,3.199 -10.6351,9.924 -69.455,50.702 -319.056,53.102" /><path
           inkscape:connector-curvature="0"
           id="path262"
           style="fill:#fcf390;fill-opacity:1;fill-rule:nonzero;stroke:none;stroke-width:0.1"
           d="m 2509.5516,376.73747 c 0,0 26.9719,74.503 316.1679,74.503 0,0 10.413,-9.435 21.1591,-26.782 -249.602,-2.4 -308.4221,-43.178 -319.0571,-53.102 -5.4539,2.168 -11.515,4.007 -18.2699,5.381" /><path
           inkscape:connector-curvature="0"
           id="path264"
           style="fill:#fcf390;fill-opacity:1;fill-rule:nonzero;stroke:none;stroke-width:0.1"
           d="m 2866.1806,378.09047 c 2.207,-9.41 3.625,-19.639 3.895,-30.61 -23.453,0.425 -83.3891,1.387 -143.884,1.353 -113.565,-0.115 -149.086,-3.72 -161.125,-6.689 -2.3001,3.41 -5.1061,6.953 -8.52,10.443 14.8829,6.861 76.5299,25.505 306.831,25.505 0.928,0 1.87,-10e-4 2.803,-0.002" /><path
           inkscape:connector-curvature="0"
           id="path266"
           style="fill:#fcf390;fill-opacity:1;fill-rule:nonzero;stroke:none;stroke-width:0.1"
           d="m 2870.1505,340.45347 v -20.86 h -295.1149 c 0,0 -1.2041,7.046 -6.19,16.304 12.366,2.525 49.393,5.807 158.0479,5.904 60.3771,0.07 120.0711,-0.913 143.257,-1.348" /><path
           inkscape:connector-curvature="0"
           id="path268"
           style="fill:#fcf390;fill-opacity:1;fill-rule:nonzero;stroke:none;stroke-width:0.1"
           d="m 2850.9675,417.46047 c 5.0251,-9.114 9.83,-19.938 13.3781,-32.337 -239.013,0.044 -299.335,-20.276 -313.2261,-27.509 -4.507,3.791 -9.8319,7.394 -16.128,10.543 6.1241,4.703 21.378,13.976 54.7491,23.167 41.5709,11.448 120.249,24.999 261.2269,26.136" /><path
           inkscape:connector-curvature="0"
           id="path270"
           style="fill:#b88736;fill-opacity:1;fill-rule:nonzero;stroke:none;stroke-width:0.1"
           d="m 2870.0756,347.48047 c 0.029,-1.233 0.075,-2.458 0.075,-3.711 v -3.316 c -23.1859,0.435 -82.8799,1.418 -143.257,1.348 -108.6549,-0.097 -145.6819,-3.379 -158.0479,-5.904 -1.075,1.995 -2.3271,4.094 -3.779,6.247 12.0389,2.969 47.56,6.574 161.125,6.689 60.4949,0.034 120.431,-0.928 143.884,-1.353" /><path
           inkscape:connector-curvature="0"
           id="path272"
           style="fill:#b88736;fill-opacity:1;fill-rule:nonzero;stroke:none;stroke-width:0.1"
           d="m 2864.3456,385.12347 c 0.6549,-2.293 1.273,-4.633 1.835,-7.033 -0.933,0.001 -1.875,0.002 -2.803,0.002 -230.3011,0 -291.9481,-18.644 -306.831,-25.505 -1.661,1.696 -3.467,3.379 -5.4271,5.027 13.8911,7.233 74.2131,27.553 313.2261,27.509" /><path
           inkscape:connector-curvature="0"
           id="path274"
           style="fill:#b88736;fill-opacity:1;fill-rule:nonzero;stroke:none;stroke-width:0.1"
           d="m 2846.8786,424.45847 c 1.367,-2.205 2.7339,-4.539 4.0889,-6.998 -140.978,-1.137 -219.656,-14.688 -261.2269,-26.136 -33.3711,-9.191 -48.625,-18.464 -54.7491,-23.167 -2.261,1.131 -4.6529,2.198 -7.1699,3.199 10.6349,9.924 69.455,50.702 319.057,53.102" /><path
           inkscape:connector-curvature="0"
           id="path276"
           style="fill:#b88736;fill-opacity:1;fill-rule:nonzero;stroke:none;stroke-width:0.1"
           d="m 2506.1215,370.92947 6.4571,0.835 c -0.019,0.165 -1.7761,16.546 15.305,35.817 26.485,29.881 95.878,65.501 276.06,65.501 v 6.51 c -183.154,0 -254.0431,-37.013 -281.258,-68.063 -18.84,-21.493 -16.666,-39.83 -16.5641,-40.6" /><path
           inkscape:connector-curvature="0"
           id="path278"
           style="fill:#b88736;fill-opacity:1;fill-rule:nonzero;stroke:none;stroke-width:0.1"
           d="m 2506.0936,371.32047 6.5099,0.063 c -9e-4,0.297 0.2251,30.064 33.451,59.872 31.0081,27.816 97.73,61.323 239.5081,62.986 l -0.076,6.511 c -63.618,-0.747 -117.842,-7.889 -161.161,-21.228 -34.877,-10.738 -62.854,-25.511 -83.1531,-43.907 -35.034,-31.746 -35.0939,-62.983 -35.0789,-64.297" /><path
           inkscape:connector-curvature="0"
           id="path280"
           style="fill:#414957;fill-opacity:1;fill-rule:nonzero;stroke:none;stroke-width:0.1"
           d="m 2574.7246,328.38347 c -7.616,35.324 -38.1631,52.998 -68.7281,53.027 h -9e-4 c -30.565,-0.029 -61.112,-17.703 -68.728,-53.027 H 2119.005 v -17.5799 h 316.4416 17.5809 c 0,9.6989 1.5661,18.2929 5.449,25.0999 9.8941,17.345 25.8421,-9.125 25.8421,-9.125 h -10.8001 v -10.551 c 0,-1.387 0.5301,-2.777 1.5891,-3.836 1.06,-1.059 2.448,-1.5879 3.836,-1.5879 h 54.2539 c 1.3881,0 2.7761,0.5289 3.8351,1.5879 1.06,1.059 1.59,2.449 1.59,3.836 v 10.551 h -10.949 c 0,0 15.947,26.47 25.842,9.125 3.882,-6.807 5.449,-15.401 5.449,-25.0999 h 17.5809 316.442 v 17.5799 h -318.2629" /><path
           inkscape:connector-curvature="0"
           id="path282"
           style="fill:#e83735;fill-opacity:1;fill-rule:nonzero;stroke:none;stroke-width:0.1"
           d="m 2181.3434,328.38347 -62.3384,8.249 v -25.8289 h 62.3384 v 17.5799" /><path
           inkscape:connector-curvature="0"
           id="path284"
           style="fill:#e83735;fill-opacity:1;fill-rule:nonzero;stroke:none;stroke-width:0.1"
           d="m 2830.6496,328.38347 62.3379,8.249 v -25.8289 h -62.3379 v 17.5799" /></g></g></g></svg>