<?xml version="1.0" encoding="UTF-8" standalone="no"?>
<!-- Created with Inkscape (http://www.inkscape.org/) -->

<svg
   xmlns:dc="http://purl.org/dc/elements/1.1/"
   xmlns:cc="http://creativecommons.org/ns#"
   xmlns:rdf="http://www.w3.org/1999/02/22-rdf-syntax-ns#"
   xmlns:svg="http://www.w3.org/2000/svg"
   xmlns="http://www.w3.org/2000/svg"
   xmlns:sodipodi="http://sodipodi.sourceforge.net/DTD/sodipodi-0.dtd"
   xmlns:inkscape="http://www.inkscape.org/namespaces/inkscape"
   version="1.1"
   id="svg2"
   xml:space="preserve"
   width="1200"
   height="845"
   viewBox="0 0 1200 845"
   sodipodi:docname="tar cred y debito.svg"
   inkscape:version="0.92+devel unknown"><metadata
     id="metadata8"><rdf:RDF><cc:Work
         rdf:about=""><dc:format>image/svg+xml</dc:format><dc:type
           rdf:resource="http://purl.org/dc/dcmitype/StillImage" /><dc:title></dc:title></cc:Work></rdf:RDF></metadata><defs
     id="defs6" /><sodipodi:namedview
     pagecolor="#ffffff"
     bordercolor="#666666"
     inkscape:document-rotation="0"
     borderopacity="1"
     objecttolerance="10"
     gridtolerance="10"
     guidetolerance="10"
     inkscape:pageopacity="0"
     inkscape:pageshadow="2"
     inkscape:window-width="1920"
     inkscape:window-height="1011"
     id="namedview4"
     showgrid="false"
     inkscape:zoom="0.61560002"
     inkscape:cx="339.95412"
     inkscape:cy="410.95652"
     inkscape:window-x="0"
     inkscape:window-y="36"
     inkscape:window-maximized="1"
     inkscape:current-layer="g10"
     fit-margin-top="0"
     fit-margin-left="0"
     fit-margin-right="0"
     fit-margin-bottom="0" /><g
     id="g10"
     inkscape:groupmode="layer"
     inkscape:label="ink_ext_XXXXXX"
     transform="matrix(1.3333333,0,0,-1.3333333,-12742.058,2917.0177)"><g
       transform="matrix(0.306748,0,0,0.306748,-144.44511,-241.15698)"
       id="g14"><path
         inkscape:connector-curvature="0"
         id="path16"
         style="fill:#4672a2;fill-opacity:1;fill-rule:nonzero;stroke:none"
         d="M 8150,8150 H 0 v 8150 H 8150 V 8150" /></g><g
       transform="matrix(0.306748,0,0,0.306748,-144.44511,-241.15698)"
       id="g22"><path
         inkscape:connector-curvature="0"
         id="path24"
         style="fill:#35938e;fill-opacity:1;fill-rule:nonzero;stroke:none"
         d="M 16300,0 H 8150 v 8150 h 8150 V 0" /></g><g
       transform="matrix(0.153374,0,0,0.153374,-144.44511,-241.15698)"
       id="g26"><path
         inkscape:connector-curvature="0"
         id="path28"
         style="fill:#2b7060;fill-opacity:1;fill-rule:nonzero;stroke:none"
         d="M 16300,0 H 0 V 16300 H 16300 V 0" /></g><g
       transform="matrix(0.294356,0,0,0.294356,-144.44511,-241.15698)"
       id="g30"><path
         inkscape:connector-curvature="0"
         id="path32"
         style="fill:#969797;fill-opacity:1;fill-rule:nonzero;stroke:none"
         d="M 7473.95,10813.4 H 1155.06 V 16300 h 6318.89 v -5486.6" /></g><g
       transform="matrix(0.279509,0,0,0.279509,-144.44511,-241.15698)"
       id="g34"><path
         inkscape:connector-curvature="0"
         id="path36"
         style="fill:#2b5571;fill-opacity:1;fill-rule:nonzero;stroke:none"
         d="M 7577.57,15863.5 H 5981.91 v 436.5 h 1595.66 v -436.5" /></g><g
       transform="matrix(0.223436,0,0,0.223436,-144.44511,-241.15698)"
       id="g42"><path
         inkscape:connector-curvature="0"
         id="path44"
         style="fill:#2b5571;fill-opacity:1;fill-rule:nonzero;stroke:none"
         d="M 9689.59,15776.4 H 6444.81 v 523.6 h 3244.78 v -523.6" /></g><g
       transform="matrix(0.28681,0,0,0.28681,-144.44511,-241.15698)"
       id="g46"><path
         inkscape:connector-curvature="0"
         id="path48"
         style="fill:#68cde3;fill-opacity:1;fill-rule:nonzero;stroke:none"
         d="m 5233.43,13858.9 c 0,-138.4 -112.2,-250.6 -250.58,-250.6 H 2150.8 c -138.39,0 -250.59,112.2 -250.59,250.6 v 2190.5 c 0,138.4 112.2,250.6 250.59,250.6 h 2832.05 c 138.38,0 250.58,-112.2 250.58,-250.6 v -2190.5" /></g><g
       transform="matrix(0.287669,0,0,0.287669,-144.44511,-241.15698)"
       id="g50"><path
         inkscape:connector-curvature="0"
         id="path52"
         style="fill:#141211;fill-opacity:1;fill-rule:nonzero;stroke:none"
         d="M 4964.32,16300 H 2144.04 c -79.57,0 -154.52,-30.7 -210.78,-87 -56.26,-56.2 -87.39,-130.8 -87.39,-210.3 v -2186.1 c 0,-79.6 31.13,-156 87.39,-212.2 56.26,-56.3 131.21,-88.9 210.78,-88.9 h 2820.28 c 79.57,0 154.76,32.6 211.04,88.9 56.25,56.2 87.64,132.6 87.64,212.2 v 2186.1 c 0,79.5 -31.39,154.1 -87.64,210.3 -56.28,56.3 -131.47,87 -211.04,87 z m -2.33,-48.7 c 137.97,0 248.87,-110.7 248.87,-248.6 v -2186.1 c 0,-138 -108.53,-248.9 -246.54,-248.9 H 2144.04 c -137.99,0 -249.5,110.9 -249.5,248.9 v 2186.1 c 0,137.9 111.51,248.6 249.5,248.6 h 2816.53" /></g><g
       transform="matrix(0.230982,0,0,0.230982,-144.44511,-241.15698)"
       id="g54"><path
         inkscape:connector-curvature="0"
         id="path56"
         style="fill:#555658;fill-opacity:1;fill-rule:nonzero;stroke:none"
         d="m 6104.38,14298.3 c 0,-21.8 -23.63,-37.4 -51.6,-37.4 H 2755.69 c -27.96,0 -49.85,15.6 -49.85,37.4 v 1961.5 c 0,21.8 21.89,40.2 49.85,40.2 h 3297.09 c 27.97,0 51.6,-18.4 51.6,-40.2 v -1961.5" /></g><g
       transform="matrix(0.228037,0,0,0.228037,-144.44511,-241.15698)"
       id="g58"><path
         inkscape:connector-curvature="0"
         id="path60"
         style="fill:#d4d7d3;fill-opacity:1;fill-rule:nonzero;stroke:none"
         d="m 3604.68,15998 c 0,-22 -24.96,-40 -53.27,-40 h -485.27 c -28.31,0 -53.47,18 -53.47,40 v 255.9 c 0,22 25.16,46.1 53.47,46.1 h 485.27 c 28.31,0 53.27,-24.1 53.27,-46.1 V 15998" /></g><g
       transform="matrix(0.228037,0,0,0.228037,-144.44511,-241.15698)"
       id="g62"><path
         inkscape:connector-curvature="0"
         id="path64"
         style="fill:#d4d7d3;fill-opacity:1;fill-rule:nonzero;stroke:none"
         d="m 4337.02,15998 c 0,-22 -25.73,-40 -54.04,-40 h -485.26 c -28.32,0 -52.71,18 -52.71,40 v 255.9 c 0,22 24.39,46.1 52.71,46.1 h 485.26 c 28.31,0 54.04,-24.1 54.04,-46.1 V 15998" /></g><g
       transform="matrix(0.228037,0,0,0.228037,-144.44511,-241.15698)"
       id="g66"><path
         inkscape:connector-curvature="0"
         id="path68"
         style="fill:#d4d7d3;fill-opacity:1;fill-rule:nonzero;stroke:none"
         d="m 5047.43,15998 c 0,-22 -21.49,-40 -49.77,-40 h -485.27 c -28.33,0 -52.58,18 -52.58,40 v 255.9 c 0,22 24.25,46.1 52.58,46.1 h 485.27 c 28.28,0 49.77,-24.1 49.77,-46.1 V 15998" /></g><g
       transform="matrix(0.221841,0,0,0.221841,-144.44511,-241.15698)"
       id="g70"><path
         inkscape:connector-curvature="0"
         id="path72"
         style="fill:#d4d7d3;fill-opacity:1;fill-rule:nonzero;stroke:none"
         d="m 3696.35,16000.4 c 0,-22.7 -20.41,-43 -49.52,-43 h -498.81 c -29.11,0 -46.69,20.3 -46.69,43 v 263 c 0,22.7 17.58,36.6 46.69,36.6 h 498.81 c 29.11,0 49.52,-13.9 49.52,-36.6 v -263" /></g><g
       transform="matrix(0.221841,0,0,0.221841,-144.44511,-241.15698)"
       id="g74"><path
         inkscape:connector-curvature="0"
         id="path76"
         style="fill:#d4d7d3;fill-opacity:1;fill-rule:nonzero;stroke:none"
         d="m 4453.65,16000.4 c 0,-22.7 -23.82,-43 -52.93,-43 h -498.81 c -29.11,0 -52.3,20.3 -52.3,43 v 263 c 0,22.7 23.19,36.6 52.3,36.6 h 498.81 c 29.11,0 52.93,-13.9 52.93,-36.6 v -263" /></g><g
       transform="matrix(0.221841,0,0,0.221841,-144.44511,-241.15698)"
       id="g78"><path
         inkscape:connector-curvature="0"
         id="path80"
         style="fill:#d4d7d3;fill-opacity:1;fill-rule:nonzero;stroke:none"
         d="m 5188.41,16000.4 c 0,-22.7 -22.72,-43 -51.84,-43 h -498.82 c -29.08,0 -57.88,20.3 -57.88,43 v 263 c 0,22.7 28.8,36.6 57.88,36.6 h 498.82 c 29.12,0 51.84,-13.9 51.84,-36.6 v -263" /></g><g
       transform="matrix(0.216012,0,0,0.216012,-144.44511,-241.15698)"
       id="g82"><path
         inkscape:connector-curvature="0"
         id="path84"
         style="fill:#d4d7d3;fill-opacity:1;fill-rule:nonzero;stroke:none"
         d="m 3800.71,15990.9 c 0,-23.2 -26.26,-47.4 -56.15,-47.4 h -512.28 c -29.89,0 -51.91,24.2 -51.91,47.4 v 270.1 c 0,23.3 22.02,39 51.91,39 h 512.28 c 29.89,0 56.15,-15.7 56.15,-39 v -270.1" /></g><g
       transform="matrix(0.216012,0,0,0.216012,-144.44511,-241.15698)"
       id="g86"><path
         inkscape:connector-curvature="0"
         id="path88"
         style="fill:#d4d7d3;fill-opacity:1;fill-rule:nonzero;stroke:none"
         d="m 4573.81,15990.9 c 0,-23.2 -21.93,-47.4 -51.82,-47.4 h -512.27 c -29.89,0 -56.24,24.2 -56.24,47.4 v 270.1 c 0,23.3 26.35,39 56.24,39 h 512.27 c 29.89,0 51.82,-15.7 51.82,-39 v -270.1" /></g><g
       transform="matrix(0.216012,0,0,0.216012,-144.44511,-241.15698)"
       id="g90"><path
         inkscape:connector-curvature="0"
         id="path92"
         style="fill:#d4d7d3;fill-opacity:1;fill-rule:nonzero;stroke:none"
         d="m 5323.77,15990.9 c 0,-23.2 -22.59,-47.4 -52.49,-47.4 h -512.24 c -29.91,0 -50.97,24.2 -50.97,47.4 v 270.1 c 0,23.3 21.06,39 50.97,39 h 512.24 c 29.9,0 52.49,-15.7 52.49,-39 v -270.1" /></g><g
       transform="matrix(0.209939,0,0,0.209939,-144.44511,-241.15698)"
       id="g94"><path
         inkscape:connector-curvature="0"
         id="path96"
         style="fill:#d4d7d3;fill-opacity:1;fill-rule:nonzero;stroke:none"
         d="m 3910.67,15978.1 c 0,-23.9 -25.73,-44.9 -56.48,-44.9 H 3327.1 c -30.76,0 -54.72,21 -54.72,44.9 v 277.9 c 0,24 23.96,44 54.72,44 h 527.09 c 30.75,0 56.48,-20 56.48,-44 v -277.9" /></g><g
       transform="matrix(0.209939,0,0,0.209939,-144.44511,-241.15698)"
       id="g98"><path
         inkscape:connector-curvature="0"
         id="path100"
         style="fill:#d4d7d3;fill-opacity:1;fill-rule:nonzero;stroke:none"
         d="m 4706.14,15978.1 c 0,-23.9 -21.27,-44.9 -52.03,-44.9 h -527.09 c -30.76,0 -59.16,21 -59.16,44.9 v 277.9 c 0,24 28.4,44 59.16,44 h 527.09 c 30.76,0 52.03,-20 52.03,-44 v -277.9" /></g><g
       transform="matrix(0.209939,0,0,0.209939,-144.44511,-241.15698)"
       id="g102"><path
         inkscape:connector-curvature="0"
         id="path104"
         style="fill:#d4d7d3;fill-opacity:1;fill-rule:nonzero;stroke:none"
         d="m 5482.55,15978.1 c 0,-23.9 -26.72,-44.9 -57.44,-44.9 H 4898 c -30.77,0 -53.73,21 -53.73,44.9 v 277.9 c 0,24 22.96,44 53.73,44 h 527.11 c 30.72,0 57.44,-20 57.44,-44 v -277.9" /></g><g
       transform="matrix(0.228037,0,0,0.228037,-144.44511,-241.15698)"
       id="g106"><path
         inkscape:connector-curvature="0"
         id="path108"
         style="fill:#d4d7d3;fill-opacity:1;fill-rule:nonzero;stroke:none"
         d="m 6016.57,15998 c 0,-22 -22.23,-40 -50.56,-40 h -633.27 c -28.29,0 -48.51,18 -48.51,40 v 255.9 c 0,22 20.22,46.1 48.51,46.1 h 633.27 c 28.33,0 50.56,-24.1 50.56,-46.1 V 15998" /></g><g
       transform="matrix(0.221841,0,0,0.221841,-144.44511,-241.15698)"
       id="g110"><path
         inkscape:connector-curvature="0"
         id="path112"
         style="fill:#d4d7d3;fill-opacity:1;fill-rule:nonzero;stroke:none"
         d="m 6184.62,16000.4 c 0,-22.7 -22.85,-43 -51.97,-43 h -650.96 c -29.08,0 -49.86,20.3 -49.86,43 v 263 c 0,22.7 20.78,36.6 49.86,36.6 h 650.96 c 29.12,0 51.97,-13.9 51.97,-36.6 v -263" /></g><g
       transform="matrix(0.216012,0,0,0.216012,-144.44511,-241.15698)"
       id="g114"><path
         inkscape:connector-curvature="0"
         id="path116"
         style="fill:#d4d7d3;fill-opacity:1;fill-rule:nonzero;stroke:none"
         d="m 6351.49,15990.9 c 0,-23.2 -23.47,-47.4 -53.38,-47.4 h -668.52 c -29.86,0 -51.2,24.2 -51.2,47.4 v 270.1 c 0,23.3 21.34,39 51.2,39 h 668.52 c 29.91,0 53.38,-15.7 53.38,-39 v -270.1" /></g><g
       transform="matrix(0.209939,0,0,0.209939,-144.44511,-241.15698)"
       id="g118"><path
         inkscape:connector-curvature="0"
         id="path120"
         style="fill:#d4d7d3;fill-opacity:1;fill-rule:nonzero;stroke:none"
         d="m 6535.24,15978.1 c 0,-23.9 -24.15,-44.9 -54.92,-44.9 h -687.86 c -30.73,0 -52.69,21 -52.69,44.9 v 277.9 c 0,24 21.96,44 52.69,44 h 687.86 c 30.77,0 54.92,-20 54.92,-44 v -277.9" /></g><g
       transform="matrix(0.227423,0,0,0.227423,-144.44511,-241.15698)"
       id="g122"><path
         inkscape:connector-curvature="0"
         id="path124"
         style="fill:#db2337;fill-opacity:1;fill-rule:nonzero;stroke:none"
         d="m 5966.85,16262.8 c 0,-16.9 -14.56,-28.8 -36.32,-28.8 h -527.52 c -21.77,0 -38.56,11.9 -38.56,28.8 v 1.4 c 0,16.9 16.79,35.8 38.56,35.8 h 527.52 c 21.76,0 36.32,-18.9 36.32,-35.8 v -1.4" /></g><g
       transform="matrix(0.22135,0,0,0.22135,-144.44511,-241.15698)"
       id="g126"><path
         inkscape:connector-curvature="0"
         id="path128"
         style="fill:#d2e10f;fill-opacity:1;fill-rule:nonzero;stroke:none"
         d="m 6130.57,16267 c 0,-17.4 -14.95,-30.2 -37.31,-30.2 h -542 c -22.36,0 -39.62,12.8 -39.62,30.2 v 1.4 c 0,17.4 17.26,31.6 39.62,31.6 h 542 c 22.36,0 37.31,-14.2 37.31,-31.6 v -1.4" /></g><g
       transform="matrix(0.215521,0,0,0.215521,-144.44511,-241.15698)"
       id="g130"><path
         inkscape:connector-curvature="0"
         id="path132"
         style="fill:#2d9f4b;fill-opacity:1;fill-rule:nonzero;stroke:none"
         d="m 6296.36,16268.2 c 0,-17.9 -15.36,-33.2 -38.33,-33.2 h -556.65 c -22.97,0 -40.69,15.3 -40.69,33.2 v 1.4 c 0,17.9 17.72,30.4 40.69,30.4 h 556.65 c 22.97,0 38.33,-12.5 38.33,-30.4 v -1.4" /></g><g
       transform="matrix(0.276748,0,0,0.276748,-144.44511,-241.15698)"
       id="g134"><path
         inkscape:connector-curvature="0"
         id="path136"
         style="fill:#d4d7d3;fill-opacity:1;fill-rule:nonzero;stroke:none"
         d="m 7562.82,16156.8 c 0,-20.7 -16.76,-37.5 -37.47,-37.5 H 6162.17 c -20.71,0 -37.47,16.8 -37.47,37.5 v 105.7 c 0,20.7 16.76,37.5 37.47,37.5 h 1363.18 c 20.71,0 37.47,-16.8 37.47,-37.5 v -105.7" /></g><g
       transform="matrix(0.27589,0,0,0.27589,-144.44511,-241.15698)"
       id="g138"><path
         inkscape:connector-curvature="0"
         id="path140"
         style="fill:#555658;fill-opacity:1;fill-rule:nonzero;stroke:none"
         d="m 7524.75,16264.5 c 0,-18.4 -14.93,-33.4 -33.38,-33.4 H 6242.39 c -18.45,0 -33.38,15 -33.38,33.4 v 2.1 c 0,18.5 14.93,33.4 33.38,33.4 h 1248.98 c 18.45,0 33.38,-14.9 33.38,-33.4 v -2.1" /></g><g
       transform="matrix(0.220859,0,0,0.220859,-144.44511,-241.15698)"
       id="g150"><path
         inkscape:connector-curvature="0"
         id="path152"
         style="fill:#d4d7d3;fill-opacity:1;fill-rule:nonzero;stroke:none"
         d="m 9671.33,16120.2 c 0,-25.9 -38.26,-46.6 -81.63,-46.6 H 6730.77 c -43.38,0 -79.46,20.7 -79.46,46.6 v 131.4 c 0,26 36.08,48.4 79.46,48.4 H 9589.7 c 43.37,0 81.63,-22.4 81.63,-48.4 v -131.4" /></g><g
       transform="matrix(0.219877,0,0,0.219877,-144.44511,-241.15698)"
       id="g154"><path
         inkscape:connector-curvature="0"
         id="path156"
         style="fill:#555658;fill-opacity:1;fill-rule:nonzero;stroke:none"
         d="m 9591.71,16252.9 c 0,-23.1 -28.33,-39.3 -67.03,-39.3 h -2621.1 c -38.71,0 -67.95,16.2 -67.95,39.3 v 1.2 c 0,23.1 29.24,45.9 67.95,45.9 h 2621.1 c 38.7,0 67.03,-22.8 67.03,-45.9 v -1.2" /></g><g
       transform="matrix(0.140429,0,0,0.140429,-144.44511,-241.15698)"
       id="g286"><path
         inkscape:connector-curvature="0"
         id="path288"
         style="fill:#969797;fill-opacity:1;fill-rule:nonzero;stroke:none"
         d="M 15666.2,4799.56 H 2421.14 V 16300 H 15666.2 V 4799.56" /></g><g
       transform="matrix(0.129939,0,0,0.129939,-144.44511,-241.15698)"
       id="g290"><path
         inkscape:connector-curvature="0"
         id="path292"
         style="fill:#2b5571;fill-opacity:1;fill-rule:nonzero;stroke:none"
         d="m 16300,14814.7 h -3432.4 v 938.9 H 16300 v -938.9" /></g><g
       transform="matrix(0.129939,0,0,0.129939,-144.44511,-241.15698)"
       id="g294"><path
         inkscape:connector-curvature="0"
         id="path296"
         style="fill:#2b5571;fill-opacity:1;fill-rule:nonzero;stroke:none"
         d="m 16300,11597.8 h -3432.4 v 1046.6 H 16300 v -1046.6" /></g><g
       transform="matrix(0.132822,0,0,0.132822,-144.44511,-241.15698)"
       id="g298"><path
         inkscape:connector-curvature="0"
         id="path300"
         style="fill:#2b5571;fill-opacity:1;fill-rule:nonzero;stroke:none"
         d="M 16300,7129.84 H 10841.6 V 8530.21 H 16300 V 7129.84" /></g><g
       transform="matrix(0.132883,0,0,0.132883,-144.44511,-241.15698)"
       id="g302"><path
         inkscape:connector-curvature="0"
         id="path304"
         style="fill:#68cde3;fill-opacity:1;fill-rule:nonzero;stroke:none"
         d="m 11295.6,11031.2 c 0,-298.6 -242.2,-540.8 -540.8,-540.8 H 4642.2 c -298.71,0 -540.86,242.2 -540.86,540.8 v 4727.9 c 0,298.7 242.15,540.9 540.86,540.9 h 6112.6 c 298.6,0 540.8,-242.2 540.8,-540.9 v -4727.9" /></g><g
       transform="matrix(0.133742,0,0,0.133742,-144.44511,-241.15698)"
       id="g306"><path
         inkscape:connector-curvature="0"
         id="path308"
         style="fill:#141211;fill-opacity:1;fill-rule:nonzero;stroke:none"
         d="M 10677.8,16300 H 4611.64 c -171.14,0 -332.34,-66.1 -453.35,-187.1 -121.02,-121 -187.97,-281.3 -187.97,-452.5 v -4702.1 c 0,-171.1 66.95,-335.4 187.97,-456.4 121.01,-121 282.21,-191 453.35,-191 h 6066.16 c 171.2,0 332.9,70 454,191 121,121 188.5,285.3 188.5,456.4 v 4702.1 c 0,171.2 -67.5,331.5 -188.5,452.5 -121.1,121 -282.8,187.1 -454,187.1 z m -5,-104.7 c 296.8,0 535.3,-238 535.3,-534.9 v -4702.1 c 0,-296.8 -233.4,-535.3 -530.3,-535.3 H 4611.64 c -296.78,0 -536.64,238.5 -536.64,535.3 v 4702.1 c 0,296.9 239.86,534.9 536.64,534.9 h 6058.16" /></g><path
       inkscape:connector-curvature="0"
       id="path310"
       style="fill:#555658;fill-opacity:1;fill-rule:nonzero;stroke:none;stroke-width:0.1"
       d="m 1265.5549,552.49302 c 0,-5.03 -5.46,-8.65 -11.92,-8.65 H 492.06789 c -6.457,0 -11.513,3.62 -11.513,8.65 V 1005.563 c 0,5.02 5.056,9.28 11.513,9.28 h 761.56701 c 6.46,0 11.92,-4.26 11.92,-9.28 V 552.49302" /><path
       inkscape:connector-curvature="0"
       id="path312"
       style="fill:#d4d7d3;fill-opacity:1;fill-rule:nonzero;stroke:none;stroke-width:0.1"
       d="m 677.55489,897.98302 c 0,-5.02 -5.693,-9.14 -12.149,-9.14 h -110.658 c -6.456,0 -12.193,4.12 -12.193,9.14 v 58.35 c 0,5.02 5.737,10.51 12.193,10.51 h 110.658 c 6.456,0 12.149,-5.49 12.149,-10.51 v -58.35" /><path
       inkscape:connector-curvature="0"
       id="path314"
       style="fill:#d4d7d3;fill-opacity:1;fill-rule:nonzero;stroke:none;stroke-width:0.1"
       d="m 844.55489,897.98302 c 0,-5.02 -5.867,-9.14 -12.323,-9.14 h -110.658 c -6.457,0 -12.019,4.12 -12.019,9.14 v 58.35 c 0,5.02 5.562,10.51 12.019,10.51 h 110.658 c 6.456,0 12.323,-5.49 12.323,-10.51 v -58.35" /><path
       inkscape:connector-curvature="0"
       id="path316"
       style="fill:#d4d7d3;fill-opacity:1;fill-rule:nonzero;stroke:none;stroke-width:0.1"
       d="m 1006.5549,897.98302 c 0,-5.02 -4.9,-9.14 -11.35001,-9.14 h -110.66 c -6.46,0 -11.99,4.12 -11.99,9.14 v 58.35 c 0,5.02 5.53,10.51 11.99,10.51 h 110.66 c 6.45001,0 11.35001,-5.49 11.35001,-10.51 v -58.35" /><path
       inkscape:connector-curvature="0"
       id="path318"
       style="fill:#d4d7d3;fill-opacity:1;fill-rule:nonzero;stroke:none;stroke-width:0.1"
       d="m 675.55489,799.38302 c 0,-5.03 -4.528,-9.54 -10.985,-9.54 h -110.657 c -6.457,0 -10.358,4.51 -10.358,9.54 v 58.34 c 0,5.03 3.901,8.12 10.358,8.12 h 110.657 c 6.457,0 10.985,-3.09 10.985,-8.12 v -58.34" /><path
       inkscape:connector-curvature="0"
       id="path320"
       style="fill:#d4d7d3;fill-opacity:1;fill-rule:nonzero;stroke:none;stroke-width:0.1"
       d="m 843.55489,799.38302 c 0,-5.03 -5.285,-9.54 -11.741,-9.54 h -110.658 c -6.456,0 -11.601,4.51 -11.601,9.54 v 58.34 c 0,5.03 5.145,8.12 11.601,8.12 h 110.658 c 6.456,0 11.741,-3.09 11.741,-8.12 v -58.34" /><path
       inkscape:connector-curvature="0"
       id="path322"
       style="fill:#d4d7d3;fill-opacity:1;fill-rule:nonzero;stroke:none;stroke-width:0.1"
       d="m 1006.5549,799.38302 c 0,-5.03 -5.04,-9.54 -11.50001,-9.54 h -110.66 c -6.45,0 -12.84,4.51 -12.84,9.54 v 58.34 c 0,5.03 6.39,8.12 12.84,8.12 h 110.66 c 6.46001,0 11.50001,-3.09 11.50001,-8.12 v -58.34" /><path
       inkscape:connector-curvature="0"
       id="path324"
       style="fill:#d4d7d3;fill-opacity:1;fill-rule:nonzero;stroke:none;stroke-width:0.1"
       d="m 676.55489,704.07302 c 0,-5.02 -5.673,-10.23 -12.13,-10.23 h -110.657 c -6.457,0 -11.213,5.21 -11.213,10.23 v 58.35 c 0,5.02 4.756,8.42 11.213,8.42 h 110.657 c 6.457,0 12.13,-3.4 12.13,-8.42 v -58.35" /><path
       inkscape:connector-curvature="0"
       id="path326"
       style="fill:#d4d7d3;fill-opacity:1;fill-rule:nonzero;stroke:none;stroke-width:0.1"
       d="m 843.55489,704.07302 c 0,-5.02 -4.738,-10.23 -11.195,-10.23 h -110.657 c -6.457,0 -12.148,5.21 -12.148,10.23 v 58.35 c 0,5.02 5.691,8.42 12.148,8.42 h 110.657 c 6.457,0 11.195,-3.4 11.195,-8.42 v -58.35" /><path
       inkscape:connector-curvature="0"
       id="path328"
       style="fill:#d4d7d3;fill-opacity:1;fill-rule:nonzero;stroke:none;stroke-width:0.1"
       d="m 1005.5549,704.07302 c 0,-5.02 -4.88,-10.23 -11.34001,-10.23 h -110.65 c -6.46,0 -11.01,5.21 -11.01,10.23 v 58.35 c 0,5.02 4.55,8.42 11.01,8.42 h 110.65 c 6.46001,0 11.34001,-3.4 11.34001,-8.42 v -58.35" /><path
       inkscape:connector-curvature="0"
       id="path330"
       style="fill:#d4d7d3;fill-opacity:1;fill-rule:nonzero;stroke:none;stroke-width:0.1"
       d="m 676.55489,604.26302 c 0,-5.02 -5.4,-9.42 -11.856,-9.42 h -110.658 c -6.456,0 -11.486,4.4 -11.486,9.42 v 58.35 c 0,5.03 5.03,9.23 11.486,9.23 h 110.658 c 6.456,0 11.856,-4.2 11.856,-9.23 v -58.35" /><path
       inkscape:connector-curvature="0"
       id="path332"
       style="fill:#d4d7d3;fill-opacity:1;fill-rule:nonzero;stroke:none;stroke-width:0.1"
       d="m 843.55489,604.26302 c 0,-5.02 -4.465,-9.42 -10.922,-9.42 h -110.657 c -6.457,0 -12.421,4.4 -12.421,9.42 v 58.35 c 0,5.03 5.964,9.23 12.421,9.23 h 110.657 c 6.457,0 10.922,-4.2 10.922,-9.23 v -58.35" /><path
       inkscape:connector-curvature="0"
       id="path334"
       style="fill:#d4d7d3;fill-opacity:1;fill-rule:nonzero;stroke:none;stroke-width:0.1"
       d="m 1006.5549,604.26302 c 0,-5.02 -5.61,-9.42 -12.06001,-9.42 h -110.66 c -6.46,0 -11.28,4.4 -11.28,9.42 v 58.35 c 0,5.03 4.82,9.23 11.28,9.23 h 110.66 c 6.45001,0 12.06001,-4.2 12.06001,-9.23 v -58.35" /><path
       inkscape:connector-curvature="0"
       id="path336"
       style="fill:#d4d7d3;fill-opacity:1;fill-rule:nonzero;stroke:none;stroke-width:0.1"
       d="m 1227.5549,897.98302 c 0,-5.02 -5.07,-9.14 -11.53,-9.14 h -144.41 c -6.45,0 -11.06,4.12 -11.06,9.14 v 58.35 c 0,5.02 4.61,10.51 11.06,10.51 h 144.41 c 6.46,0 11.53,-5.49 11.53,-10.51 v -58.35" /><path
       inkscape:connector-curvature="0"
       id="path338"
       style="fill:#d4d7d3;fill-opacity:1;fill-rule:nonzero;stroke:none;stroke-width:0.1"
       d="m 1227.5549,799.38302 c 0,-5.03 -5.07,-9.54 -11.53,-9.54 h -144.41 c -6.45,0 -11.06,4.51 -11.06,9.54 v 58.34 c 0,5.03 4.61,8.12 11.06,8.12 h 144.41 c 6.46,0 11.53,-3.09 11.53,-8.12 v -58.34" /><path
       inkscape:connector-curvature="0"
       id="path340"
       style="fill:#d4d7d3;fill-opacity:1;fill-rule:nonzero;stroke:none;stroke-width:0.1"
       d="m 1227.5549,704.07302 c 0,-5.02 -5.07,-10.23 -11.53,-10.23 h -144.41 c -6.45,0 -11.06,5.21 -11.06,10.23 v 58.35 c 0,5.02 4.61,8.42 11.06,8.42 h 144.41 c 6.46,0 11.53,-3.4 11.53,-8.42 v -58.35" /><path
       inkscape:connector-curvature="0"
       id="path342"
       style="fill:#d4d7d3;fill-opacity:1;fill-rule:nonzero;stroke:none;stroke-width:0.1"
       d="m 1227.5549,604.26302 c 0,-5.02 -5.07,-9.42 -11.53,-9.42 h -144.41 c -6.45,0 -11.06,4.4 -11.06,9.42 v 58.35 c 0,5.03 4.61,9.23 11.06,9.23 h 144.41 c 6.46,0 11.53,-4.2 11.53,-9.23 v -58.35" /><path
       inkscape:connector-curvature="0"
       id="path344"
       style="fill:#db2337;fill-opacity:1;fill-rule:nonzero;stroke:none;stroke-width:0.1"
       d="m 1212.5549,948.39302 c 0,-3.86 -3.31,-6.55 -8.26,-6.55 h -119.97 c -4.95,0 -8.77,2.69 -8.77,6.55 v 0.31 c 0,3.85 3.82,8.14 8.77,8.14 h 119.97 c 4.95,0 8.26,-4.29 8.26,-8.14 v -0.31" /><path
       inkscape:connector-curvature="0"
       id="path346"
       style="fill:#fbfcfa;fill-opacity:1;fill-rule:nonzero;stroke:none;stroke-width:0.1"
       d="m 1212.5549,850.53302 c 0,-3.85 -3.31,-6.69 -8.26,-6.69 h -119.97 c -4.95,0 -8.77,2.84 -8.77,6.69 v 0.31 c 0,3.85 3.82,7 8.77,7 h 119.97 c 4.95,0 8.26,-3.15 8.26,-7 v -0.31" /><path
       inkscape:connector-curvature="0"
       id="path348"
       style="fill:#2d9f4b;fill-opacity:1;fill-rule:nonzero;stroke:none;stroke-width:0.1"
       d="m 1212.5549,755.98302 c 0,-3.85 -3.31,-7.14 -8.26,-7.14 h -119.97 c -4.95,0 -8.77,3.29 -8.77,7.14 v 0.31 c 0,3.85 3.82,6.55 8.77,6.55 h 119.97 c 4.95,0 8.26,-2.7 8.26,-6.55 v -0.31" /><g
       transform="matrix(0.128405,0,0,0.128405,-144.44511,-241.15698)"
       id="g350"><path
         inkscape:connector-curvature="0"
         id="path352"
         style="fill:#d4d7d3;fill-opacity:1;fill-rule:nonzero;stroke:none"
         d="m 16300,15282.7 c 0,-44.7 -36.1,-80.8 -80.8,-80.8 h -2938 c -44.6,0 -80.8,36.1 -80.8,80.8 v 227.8 c 0,44.7 36.2,80.8 80.8,80.8 h 2938 c 44.7,0 80.8,-36.1 80.8,-80.8 v -227.8" /></g><g
       transform="matrix(0.127362,0,0,0.127362,-144.44511,-241.15698)"
       id="g354"><path
         inkscape:connector-curvature="0"
         id="path356"
         style="fill:#555658;fill-opacity:1;fill-rule:nonzero;stroke:none"
         d="m 16300,15532.2 c 0,-40 -32.3,-72.3 -72.3,-72.3 h -2705.5 c -40,0 -72.3,32.3 -72.3,72.3 v 4.5 c 0,40 32.3,72.4 72.3,72.4 h 2705.5 c 40,0 72.3,-32.4 72.3,-72.4 v -4.5" /></g><g
       transform="matrix(0.128405,0,0,0.128405,-144.44511,-241.15698)"
       id="g358"><path
         inkscape:connector-curvature="0"
         id="path360"
         style="fill:#d4d7d3;fill-opacity:1;fill-rule:nonzero;stroke:none"
         d="m 16300,12042.9 c 0,-44.6 -36.1,-80.7 -80.8,-80.7 h -2938 c -44.6,0 -80.8,36.1 -80.8,80.7 v 227.9 c 0,44.6 36.2,80.8 80.8,80.8 h 2938 c 44.7,0 80.8,-36.2 80.8,-80.8 v -227.9" /></g><g
       transform="matrix(0.12773,0,0,0.12773,-144.44511,-241.15698)"
       id="g362"><path
         inkscape:connector-curvature="0"
         id="path364"
         style="fill:#555658;fill-opacity:1;fill-rule:nonzero;stroke:none"
         d="m 16300,12214.9 c 0,-39.8 -32.3,-72.1 -72.1,-72.1 h -2697.7 c -39.9,0 -72.1,32.3 -72.1,72.1 v 4.5 c 0,39.9 32.2,72.1 72.1,72.1 h 2697.7 c 39.8,0 72.1,-32.2 72.1,-72.1 v -4.5" /></g><g
       transform="matrix(0.131043,0,0,0.131043,-144.44511,-241.15698)"
       id="g366"><path
         inkscape:connector-curvature="0"
         id="path368"
         style="fill:#d4d7d3;fill-opacity:1;fill-rule:nonzero;stroke:none"
         d="m 16300,8022.56 c 0,-43.73 -64.5,-78.6 -137.6,-78.6 H 11344 c -73.1,0 -133.9,34.87 -133.9,78.6 v 221.45 c 0,43.73 60.8,81.5 133.9,81.5 h 4818.4 c 73.1,0 137.6,-37.77 137.6,-81.5 v -221.45" /></g><g
       transform="matrix(0.129387,0,0,0.129387,-144.44511,-241.15698)"
       id="g370"><path
         inkscape:connector-curvature="0"
         id="path372"
         style="fill:#555658;fill-opacity:1;fill-rule:nonzero;stroke:none"
         d="m 16300,8228.45 c 0,-39.27 -48.2,-66.86 -113.9,-66.86 h -4454.3 c -65.7,0 -115.4,27.59 -115.4,66.86 v 1.93 c 0,39.26 49.7,78.06 115.4,78.06 h 4454.3 c 65.7,0 113.9,-38.8 113.9,-78.06 v -1.93" /></g><g
       transform="matrix(0.288896,0,0,0.288896,-144.44511,-241.15698)"
       id="g374"><path
         inkscape:connector-curvature="0"
         id="path376"
         style="fill:#969797;fill-opacity:1;fill-rule:nonzero;stroke:none"
         d="M 16300,2305.33 H 9861.69 V 7895.58 H 16300 V 2305.33" /></g><g
       transform="matrix(0.283865,0,0,0.283865,-144.44511,-241.15698)"
       id="g378"><path
         inkscape:connector-curvature="0"
         id="path380"
         style="fill:#2b5571;fill-opacity:1;fill-rule:nonzero;stroke:none"
         d="m 16300,6753.21 h -1571.2 v 429.78 H 16300 v -429.78" /></g><g
       transform="matrix(0.283865,0,0,0.283865,-144.44511,-241.15698)"
       id="g382"><path
         inkscape:connector-curvature="0"
         id="path384"
         style="fill:#2b5571;fill-opacity:1;fill-rule:nonzero;stroke:none"
         d="m 16300,5280.68 h -1571.2 v 479.1 H 16300 v -479.1" /></g><g
       transform="matrix(0.286748,0,0,0.286748,-144.44511,-241.15698)"
       id="g386"><path
         inkscape:connector-curvature="0"
         id="path388"
         style="fill:#2b5571;fill-opacity:1;fill-rule:nonzero;stroke:none"
         d="M 16300,3515.28 H 13771.7 V 3923.3 H 16300 v -408.02" /></g><g
       transform="matrix(0.246012,0,0,0.246012,-144.44511,-241.15698)"
       id="g390"><path
         inkscape:connector-curvature="0"
         id="path392"
         style="fill:#68cde3;fill-opacity:1;fill-rule:nonzero;stroke:none"
         d="m 16300,5926.01 c 0,-161.34 -130.8,-292.14 -292.1,-292.14 h -3301.7 c -161.4,0 -292.2,130.8 -292.2,292.14 v 2553.77 c 0,161.34 130.8,292.14 292.2,292.14 h 3301.7 c 161.3,0 292.1,-130.8 292.1,-292.14 V 5926.01" /></g><g
       transform="matrix(0.24681,0,0,0.24681,-378.36324,-328.87628)"
       id="g394"><path
         inkscape:connector-curvature="0"
         id="path396"
         style="fill:#141211;fill-opacity:1;fill-rule:nonzero;stroke:none"
         d="m 15951.9,8800.3 h -3287.2 c -92.8,0 -180.1,-35.82 -245.7,-101.38 -65.6,-65.59 -101.8,-152.46 -101.8,-245.2 v -2548 c 0,-92.74 36.2,-181.76 101.8,-247.31 65.6,-65.6 152.9,-103.53 245.7,-103.53 h 3287.2 c 92.7,0 180.4,37.93 246,103.53 65.6,65.55 102.1,154.57 102.1,247.31 v 2548 c 0,92.74 -36.5,179.61 -102.1,245.2 -65.6,65.56 -153.3,101.38 -246,101.38 z m -2.7,-56.73 c 160.8,0 290,-129 290,-289.85 v -2548 c 0,-160.81 -126.5,-290.06 -287.3,-290.06 h -3287.2 c -160.8,0 -290.8,129.25 -290.8,290.06 v 2548 c 0,160.85 130,289.85 290.8,289.85 h 3282.8" /></g><g
       transform="matrix(0.240429,0,0,0.240429,-144.44511,-241.15698)"
       id="g398"><path
         inkscape:connector-curvature="0"
         id="path400"
         style="fill:#555658;fill-opacity:1;fill-rule:nonzero;stroke:none"
         d="m 16300,3267.69 c 0,-20.92 -22.7,-35.97 -49.6,-35.97 h -3167.5 c -26.8,0 -47.9,15.05 -47.9,35.97 v 1884.42 c 0,20.88 21.1,38.6 47.9,38.6 h 3167.5 c 26.9,0 49.6,-17.72 49.6,-38.6 V 3267.69" /></g><g
       transform="matrix(0.204356,0,0,0.204356,-144.44511,-241.15698)"
       id="g402"><path
         inkscape:connector-curvature="0"
         id="path404"
         style="fill:#d4d7d3;fill-opacity:1;fill-rule:nonzero;stroke:none"
         d="m 16300,5535.15 c 0,-24.56 -27.8,-44.73 -59.5,-44.73 H 15699 c -31.5,0 -59.6,20.17 -59.6,44.73 v 285.53 c 0,24.57 28.1,51.43 59.6,51.43 h 541.5 c 31.7,0 59.5,-26.86 59.5,-51.43 v -285.53" /></g><g
       transform="matrix(0.214601,0,0,0.214601,-144.44511,-241.15698)"
       id="g406"><path
         inkscape:connector-curvature="0"
         id="path408"
         style="fill:#d4d7d3;fill-opacity:1;fill-rule:nonzero;stroke:none"
         d="m 16300,5270.89 c 0,-23.39 -27.4,-42.59 -57.4,-42.59 h -515.7 c -30.1,0 -56,19.2 -56,42.59 v 271.9 c 0,23.4 25.9,48.98 56,48.98 h 515.7 c 30,0 57.4,-25.58 57.4,-48.98 v -271.9" /></g><g
       transform="matrix(0.22454,0,0,0.22454,-144.44511,-241.15698)"
       id="g410"><path
         inkscape:connector-curvature="0"
         id="path412"
         style="fill:#d4d7d3;fill-opacity:1;fill-rule:nonzero;stroke:none"
         d="m 16300,5037.59 c 0,-22.35 -21.8,-40.7 -50.5,-40.7 h -492.9 c -28.7,0 -53.4,18.35 -53.4,40.7 v 259.86 c 0,22.36 24.7,46.81 53.4,46.81 h 492.9 c 28.7,0 50.5,-24.45 50.5,-46.81 v -259.86" /></g><g
       transform="matrix(0.204233,0,0,0.204233,-144.44511,-241.15698)"
       id="g414"><path
         inkscape:connector-curvature="0"
         id="path416"
         style="fill:#d4d7d3;fill-opacity:1;fill-rule:nonzero;stroke:none"
         d="m 16300,5055.69 c 0,-24.62 -22.2,-46.71 -53.8,-46.71 h -541.8 c -31.6,0 -50.7,22.09 -50.7,46.71 v 285.66 c 0,24.62 19.1,39.76 50.7,39.76 h 541.8 c 31.6,0 53.8,-15.14 53.8,-39.76 v -285.66" /></g><g
       transform="matrix(0.21454,0,0,0.21454,-144.44511,-241.15698)"
       id="g418"><path
         inkscape:connector-curvature="0"
         id="path420"
         style="fill:#d4d7d3;fill-opacity:1;fill-rule:nonzero;stroke:none"
         d="m 16300,4812.81 c 0,-23.44 -24.6,-44.47 -54.7,-44.47 h -515.8 c -30.1,0 -54.1,21.03 -54.1,44.47 v 271.93 c 0,23.45 24,37.85 54.1,37.85 h 515.8 c 30.1,0 54.7,-14.4 54.7,-37.85 v -271.93" /></g><g
       transform="matrix(0.22454,0,0,0.22454,-144.44511,-241.15698)"
       id="g422"><path
         inkscape:connector-curvature="0"
         id="path424"
         style="fill:#d4d7d3;fill-opacity:1;fill-rule:nonzero;stroke:none"
         d="m 16300,4598.47 c 0,-22.4 -22.4,-42.49 -51.2,-42.49 H 15756 c -28.8,0 -57.2,20.09 -57.2,42.49 v 259.82 c 0,22.4 28.4,36.16 57.2,36.16 h 492.8 c 28.8,0 51.2,-13.76 51.2,-36.16 v -259.82" /></g><g
       transform="matrix(0.204294,0,0,0.204294,-144.44511,-241.15698)"
       id="g426"><path
         inkscape:connector-curvature="0"
         id="path428"
         style="fill:#d4d7d3;fill-opacity:1;fill-rule:nonzero;stroke:none"
         d="m 16300,4587.64 c 0,-24.57 -27.8,-50.07 -59.4,-50.07 H 15699 c -31.6,0 -54.9,25.5 -54.9,50.07 v 285.62 c 0,24.57 23.3,41.21 54.9,41.21 h 541.6 c 31.6,0 59.4,-16.64 59.4,-41.21 v -285.62" /></g><g
       transform="matrix(0.21454,0,0,0.21454,-144.44511,-241.15698)"
       id="g430"><path
         inkscape:connector-curvature="0"
         id="path432"
         style="fill:#d4d7d3;fill-opacity:1;fill-rule:nonzero;stroke:none"
         d="m 16300,4368.56 c 0,-23.4 -22.1,-47.69 -52.2,-47.69 H 15732 c -30.1,0 -56.6,24.29 -56.6,47.69 v 271.98 c 0,23.39 26.5,39.24 56.6,39.24 h 515.8 c 30.1,0 52.2,-15.85 52.2,-39.24 v -271.98" /></g><g
       transform="matrix(0.224479,0,0,0.224479,-144.44511,-241.15698)"
       id="g434"><path
         inkscape:connector-curvature="0"
         id="path436"
         style="fill:#d4d7d3;fill-opacity:1;fill-rule:nonzero;stroke:none"
         d="m 16300,4175.14 c 0,-22.36 -21.7,-45.57 -50.5,-45.57 h -492.9 c -28.8,0 -49.1,23.21 -49.1,45.57 v 259.94 c 0,22.36 20.3,37.51 49.1,37.51 h 492.9 c 28.8,0 50.5,-15.15 50.5,-37.51 v -259.94" /></g><g
       transform="matrix(0.204294,0,0,0.204294,-144.44511,-241.15698)"
       id="g438"><path
         inkscape:connector-curvature="0"
         id="path440"
         style="fill:#d4d7d3;fill-opacity:1;fill-rule:nonzero;stroke:none"
         d="m 16300,4099.08 c 0,-24.57 -26.4,-46.11 -58.1,-46.11 h -541.6 c -31.6,0 -56.2,21.54 -56.2,46.11 v 285.62 c 0,24.62 24.6,45.18 56.2,45.18 h 541.6 c 31.7,0 58.1,-20.56 58.1,-45.18 v -285.62" /></g><g
       transform="matrix(0.21454,0,0,0.21454,-144.44511,-241.15698)"
       id="g442"><path
         inkscape:connector-curvature="0"
         id="path444"
         style="fill:#d4d7d3;fill-opacity:1;fill-rule:nonzero;stroke:none"
         d="m 16300,3903.33 c 0,-23.4 -20.8,-43.91 -50.9,-43.91 h -515.8 c -30.1,0 -57.9,20.51 -57.9,43.91 v 271.98 c 0,23.44 27.8,43.02 57.9,43.02 h 515.8 c 30.1,0 50.9,-19.58 50.9,-43.02 v -271.98" /></g><g
       transform="matrix(0.22454,0,0,0.22454,-144.44511,-241.15698)"
       id="g446"><path
         inkscape:connector-curvature="0"
         id="path448"
         style="fill:#d4d7d3;fill-opacity:1;fill-rule:nonzero;stroke:none"
         d="m 16300,3729.49 c 0,-22.35 -25,-41.95 -53.7,-41.95 h -492.8 c -28.8,0 -50.3,19.6 -50.3,41.95 v 259.87 c 0,22.4 21.5,41.1 50.3,41.1 h 492.8 c 28.7,0 53.7,-18.7 53.7,-41.1 v -259.87" /></g><g
       transform="matrix(0.238098,0,0,0.238098,-144.44511,-241.15698)"
       id="g450"><path
         inkscape:connector-curvature="0"
         id="path452"
         style="fill:#d4d7d3;fill-opacity:1;fill-rule:nonzero;stroke:none"
         d="m 16300,4750.73 c 0,-21.08 -21.3,-38.39 -48.4,-38.39 h -606.5 c -27.1,0 -46.5,17.31 -46.5,38.39 v 245.07 c 0,21.08 19.4,44.14 46.5,44.14 h 606.5 c 27.1,0 48.4,-23.06 48.4,-44.14 v -245.07" /></g><g
       transform="matrix(0.238098,0,0,0.238098,-144.44511,-241.15698)"
       id="g454"><path
         inkscape:connector-curvature="0"
         id="path456"
         style="fill:#d4d7d3;fill-opacity:1;fill-rule:nonzero;stroke:none"
         d="m 16300,4336.61 c 0,-21.12 -21.3,-40.06 -48.4,-40.06 h -606.5 c -27.1,0 -46.5,18.94 -46.5,40.06 v 245.03 c 0,21.12 19.4,34.1 46.5,34.1 h 606.5 c 27.1,0 48.4,-12.98 48.4,-34.1 v -245.03" /></g><g
       transform="matrix(0.238098,0,0,0.238098,-144.44511,-241.15698)"
       id="g458"><path
         inkscape:connector-curvature="0"
         id="path460"
         style="fill:#d4d7d3;fill-opacity:1;fill-rule:nonzero;stroke:none"
         d="m 16300,3936.32 c 0,-21.09 -21.3,-42.97 -48.4,-42.97 h -606.5 c -27.1,0 -46.5,21.88 -46.5,42.97 v 245.06 c 0,21.09 19.4,35.37 46.5,35.37 h 606.5 c 27.1,0 48.4,-14.28 48.4,-35.37 v -245.06" /></g><g
       transform="matrix(0.238098,0,0,0.238098,-144.44511,-241.15698)"
       id="g462"><path
         inkscape:connector-curvature="0"
         id="path464"
         style="fill:#d4d7d3;fill-opacity:1;fill-rule:nonzero;stroke:none"
         d="m 16300,3517.12 c 0,-21.08 -21.3,-39.56 -48.4,-39.56 h -606.5 c -27.1,0 -46.5,18.48 -46.5,39.56 v 245.07 c 0,21.12 19.4,38.76 46.5,38.76 h 606.5 c 27.1,0 48.4,-17.64 48.4,-38.76 v -245.07" /></g><g
       transform="matrix(0.237178,0,0,0.237178,-144.44511,-241.15698)"
       id="g466"><path
         inkscape:connector-curvature="0"
         id="path468"
         style="fill:#db2337;fill-opacity:1;fill-rule:nonzero;stroke:none"
         d="m 16300,4981.7 c 0,-16.27 -14,-27.61 -34.8,-27.61 h -505.8 c -21,0 -37,11.34 -37,27.61 v 1.31 c 0,16.23 16,34.32 37,34.32 h 505.8 c 20.8,0 34.8,-18.09 34.8,-34.32 v -1.31" /></g><g
       transform="matrix(0.237178,0,0,0.237178,-144.44511,-241.15698)"
       id="g470"><path
         inkscape:connector-curvature="0"
         id="path472"
         style="fill:#d2e10f;fill-opacity:1;fill-rule:nonzero;stroke:none"
         d="m 16300,4569.1 c 0,-16.23 -14,-28.21 -34.8,-28.21 h -505.8 c -21,0 -37,11.98 -37,28.21 v 1.31 c 0,16.23 16,29.51 37,29.51 h 505.8 c 20.8,0 34.8,-13.28 34.8,-29.51 v -1.31" /></g><g
       transform="matrix(0.237178,0,0,0.237178,-144.44511,-241.15698)"
       id="g474"><path
         inkscape:connector-curvature="0"
         id="path476"
         style="fill:#2d9f4b;fill-opacity:1;fill-rule:nonzero;stroke:none"
         d="m 16300,4170.45 c 0,-16.23 -14,-30.1 -34.8,-30.1 h -505.8 c -21,0 -37,13.87 -37,30.1 v 1.31 c 0,16.24 16,27.62 37,27.62 h 505.8 c 20.8,0 34.8,-11.38 34.8,-27.62 v -1.31" /></g><g
       transform="matrix(0.282331,0,0,0.282331,-144.44511,-241.15698)"
       id="g478"><path
         inkscape:connector-curvature="0"
         id="path480"
         style="fill:#d4d7d3;fill-opacity:1;fill-rule:nonzero;stroke:none"
         d="m 16300,6922.26 c 0,-20.3 -16.4,-36.73 -36.7,-36.73 H 14927 c -20.3,0 -36.7,16.43 -36.7,36.73 v 103.64 c 0,20.29 16.4,36.72 36.7,36.72 h 1336.3 c 20.3,0 36.7,-16.43 36.7,-36.72 v -103.64" /></g><g
       transform="matrix(0.281288,0,0,0.281288,-144.44511,-241.15698)"
       id="g482"><path
         inkscape:connector-curvature="0"
         id="path484"
         style="fill:#555658;fill-opacity:1;fill-rule:nonzero;stroke:none"
         d="m 16300,7004.24 c 0,-18.1 -14.6,-32.75 -32.7,-32.75 h -1225 c -18.1,0 -32.8,14.65 -32.8,32.75 v 2.06 c 0,18.09 14.7,32.74 32.8,32.74 h 1225 c 18.1,0 32.7,-14.65 32.7,-32.74 v -2.06" /></g><g
       transform="matrix(0.282331,0,0,0.282331,-144.44511,-241.15698)"
       id="g486"><path
         inkscape:connector-curvature="0"
         id="path488"
         style="fill:#d4d7d3;fill-opacity:1;fill-rule:nonzero;stroke:none"
         d="m 16300,5448.81 c 0,-20.29 -16.4,-36.73 -36.7,-36.73 H 14927 c -20.3,0 -36.7,16.44 -36.7,36.73 v 103.64 c 0,20.29 16.4,36.73 36.7,36.73 h 1336.3 c 20.3,0 36.7,-16.44 36.7,-36.73 v -103.64" /></g><g
       transform="matrix(0.281656,0,0,0.281656,-144.44511,-241.15698)"
       id="g490"><path
         inkscape:connector-curvature="0"
         id="path492"
         style="fill:#555658;fill-opacity:1;fill-rule:nonzero;stroke:none"
         d="m 16300,5511.01 c 0,-18.08 -14.6,-32.7 -32.7,-32.7 h -1223.4 c -18.1,0 -32.7,14.62 -32.7,32.7 v 2.05 c 0,18.07 14.6,32.7 32.7,32.7 h 1223.4 c 18.1,0 32.7,-14.63 32.7,-32.7 v -2.05" /></g><g
       transform="matrix(0.284969,0,0,0.284969,-144.44511,-241.15698)"
       id="g494"><path
         inkscape:connector-curvature="0"
         id="path496"
         style="fill:#d4d7d3;fill-opacity:1;fill-rule:nonzero;stroke:none"
         d="m 16300,3661.1 c 0,-20.11 -29.7,-36.15 -63.3,-36.15 H 14021 c -33.6,0 -61.6,16.04 -61.6,36.15 v 101.83 c 0,20.11 28,37.48 61.6,37.48 h 2215.7 c 33.6,0 63.3,-17.37 63.3,-37.48 V 3661.1" /></g><g
       transform="matrix(0.283313,0,0,0.283313,-144.44511,-241.15698)"
       id="g498"><path
         inkscape:connector-curvature="0"
         id="path500"
         style="fill:#555658;fill-opacity:1;fill-rule:nonzero;stroke:none"
         d="m 16300,3729.62 c 0,-17.93 -22,-30.53 -52,-30.53 h -2034.2 c -30.1,0 -52.8,12.6 -52.8,30.53 v 0.88 c 0,17.94 22.7,35.65 52.8,35.65 H 16248 c 30,0 52,-17.71 52,-35.65 v -0.88" /></g><g
       transform="matrix(0.228538,0,0,0.228538,-144.44511,-241.15698)"
       id="g550"><path
         inkscape:connector-curvature="0"
         id="path552"
         style="fill:#f57615;fill-opacity:1;fill-rule:nonzero;stroke:none"
         d="m 8872.22,16157.8 -142.16,-148.6 -148.69,142.2 142.17,148.6 148.68,-142.2" /></g><g
       transform="matrix(0.231664,0,0,0.231664,-144.44511,-241.15698)"
       id="g554"><path
         inkscape:connector-curvature="0"
         id="path556"
         style="fill:#2e4f4e;fill-opacity:1;fill-rule:nonzero;stroke:none"
         d="m 8742.58,16159.8 -140.24,-146.7 -146.68,140.3 140.25,146.6 146.67,-140.2" /></g><g
       transform="matrix(0.232563,0,0,0.232563,-144.44511,-241.15698)"
       id="g558"><path
         inkscape:connector-curvature="0"
         id="path560"
         style="fill:#ce2a24;fill-opacity:1;fill-rule:nonzero;stroke:none"
         d="m 8460.95,16296.3 c 10.66,3.7 65.14,-125.8 121.64,-289.2 56.55,-163.4 93.66,-298.9 82.99,-302.6 -10.7,-3.7 -65.18,125.8 -121.68,289.2 -56.51,163.5 -93.66,298.9 -82.95,302.6" /></g><g
       transform="matrix(0.12855,0,0,0.12855,-144.44511,-241.15698)"
       id="g638"><path
         inkscape:connector-curvature="0"
         id="path640"
         style="fill:#51b037;fill-opacity:1;fill-rule:nonzero;stroke:none"
         d="M 11801.5,6555.49 H 16300 l -0.4,1731.85 h -4498.4 l 0.3,-1731.85" /></g><g
       transform="matrix(0.126999,0,0,0.126999,-144.44511,-241.15698)"
       id="g642"><path
         inkscape:connector-curvature="0"
         id="path644"
         style="fill:#448e35;fill-opacity:1;fill-rule:nonzero;stroke:none"
         d="m 12190.2,8259.45 0.3,-1481.43 H 16300 v 1610.57 h -4109.8 z m 130.5,129.14 h 3840.6 l 8.1,-1478.05 h -3848.3 l -0.4,1189.85" /></g><g
       transform="matrix(0.115442,0,0,0.115442,-144.44511,-241.15698)"
       id="g646"><path
         inkscape:connector-curvature="0"
         id="path648"
         style="fill:#448e35;fill-opacity:1;fill-rule:nonzero;stroke:none"
         d="m 15134.1,8413.94 c 0,-282.91 229.6,-513.07 511.7,-513.07 282.2,0 511.8,230.16 511.8,513.07 0,282.92 -229.6,513.08 -511.8,513.08 -282.1,0 -511.7,-230.16 -511.7,-513.08 z m -142.4,0 c 0,361.66 293.4,655.92 654.1,655.92 360.8,0 654.2,-294.26 654.2,-655.92 0,-361.65 -293.4,-655.91 -654.2,-655.91 -360.7,0 -654.1,294.26 -654.1,655.91" /></g><g
       transform="matrix(0.112137,0,0,0.112137,-144.44511,-241.15698)"
       id="g650"><path
         inkscape:connector-curvature="0"
         id="path652"
         style="fill:#448e35;fill-opacity:1;fill-rule:nonzero;stroke:none"
         d="m 16000.2,8604.22 c -12.4,-21.58 -12.4,-43.16 0,-64.74 8.4,-14.18 24.8,-23.72 49.3,-28.54 v 124.85 c -24.5,-6.86 -40.9,-17.39 -49.3,-31.57 z m 102.5,149.55 c 19.9,6.33 33.9,14.18 41.7,23.54 12.6,15.25 12.6,33.62 0,55.2 -7.8,13.2 -21.8,22.3 -41.7,27.38 z m -53.2,255.67 h 53.2 v -39.15 c 37.4,-4.55 74,-19.44 109.6,-44.5 43.3,-30.76 65,-71.34 65,-121.81 0,-55.83 -19,-95.15 -56.9,-117.98 -36,-21.58 -75.2,-35.23 -117.7,-41.12 v -136.97 c 56.7,5.8 97.2,23.36 121.4,52.52 l 75.9,-76.15 c -25.2,-25.33 -55.6,-45.66 -91.1,-60.82 -29.3,-12.75 -64.7,-20.06 -106.2,-22.12 v -38.79 h -53.2 v 39.6 c -44.5,4.28 -84.4,20.24 -119.5,47.89 -41.7,32.99 -62.7,72.32 -62.7,117.97 0,58.42 19.6,100.86 58.9,127.53 37.2,25.14 78.3,40.66 123.3,46.82 v 122.53 c -42,-1.79 -74.8,-17.04 -98.6,-45.66 l -75.9,76.06 c 25.2,25.42 52.4,44.41 81.6,57.08 23.3,10.16 54.2,16.23 92.9,18.28 v 38.79" /></g><g
       transform="matrix(0.128197,0,0,0.128197,-144.44511,-241.15698)"
       id="g654"><path
         inkscape:connector-curvature="0"
         id="path656"
         style="fill:#c69185;fill-opacity:1;fill-rule:nonzero;stroke:none"
         d="m 15371.6,5740.93 c 51.2,-187.6 -79.6,184.49 -169,415.46 -89.3,230.97 -127.8,911.1 -127.8,911.1 0,0 -51.2,1116.32 -587.4,975.21 -536.1,-141.19 -140.5,-1206.19 -140.5,-1206.19 0,0 165.9,-962.34 -159.6,-1347.3 -325.5,-384.95 -363.8,-1899.26 -159.6,-2104.57 204.3,-205.31 200.2,-659.54 200.2,-659.54 h 1699.7 c 0,0 -48.8,557.04 40.5,788.01 89.4,230.97 331.9,2245.53 280.9,2438.05 -51.1,192.43 -256.3,622.4 -256.3,622.4 h -810.8 c 31.6,-206.48 129.5,-613.04 189.7,-832.63" /></g><g
       transform="matrix(0.117658,0,0,0.117658,-144.44511,-241.15698)"
       id="g658"><path
         inkscape:connector-curvature="0"
         id="path660"
         style="fill:#ebdbcc;fill-opacity:1;fill-rule:nonzero;stroke:none"
         d="m 15616.5,8139.16 c 61.4,-249.7 263.9,-449.86 435.7,-407.19 171.8,42.66 247.8,312 186.4,561.71 -61.3,249.79 -229.3,319.82 -401,277.16 -171.9,-42.67 -282.6,-181.88 -221.1,-431.68" /></g><g
       transform="matrix(0.118542,0,0,0.118542,-144.44511,-241.15698)"
       id="g662"><path
         inkscape:connector-curvature="0"
         id="path664"
         style="fill:#bfbfc2;fill-opacity:1;fill-rule:nonzero;stroke:none"
         d="m 16300,3055.8 h -1064.1 c -126.2,0 -230.1,5.57 -230.1,-215.79 v -860.79 c 0,-221.36 103.9,-397.92 230.1,-397.92 H 16300 v 1474.5" /></g><g
       transform="matrix(0.128248,0,0,0.128248,-144.44511,-241.15698)"
       id="g666"><path
         inkscape:connector-curvature="0"
         id="path668"
         style="fill:#d2d3d9;fill-opacity:1;fill-rule:nonzero;stroke:none"
         d="M 16091.8,2824.53 H 15062.2 V 1461.62 h 1029.6 c 116.7,0 208.2,163.2 208.2,367.81 v 769.83 c 0,204.61 -91.5,225.27 -208.2,225.27" /></g><g
       transform="matrix(0.11859,0,0,0.11859,-144.44511,-241.15698)"
       id="g670"><path
         inkscape:connector-curvature="0"
         id="path672"
         style="fill:#275080;fill-opacity:1;fill-rule:nonzero;stroke:none"
         d="m 16300,0 -6.6,2086.86 h -1241.6 c -126.1,0 -227.2,-1.52 -227.2,-222.78 L 14836.9,0 h 1446.2" /></g><g
       transform="matrix(0.129228,0,0,0.129228,-144.44511,-241.15698)"
       id="g674"><path
         inkscape:connector-curvature="0"
         id="path676"
         style="fill:#1a3552;fill-opacity:1;fill-rule:nonzero;stroke:none"
         d="M 16091.6,1915.06 H 14947.9 L 14958.1,0 h 1336.6 l 5.3,1744.98 c 0,203.05 -92.6,170.08 -208.4,170.08" /></g><g
       transform="matrix(0.113014,0,0,0.113014,-144.44511,-241.15698)"
       id="g678"><path
         inkscape:connector-curvature="0"
         id="path680"
         style="fill:#16272f;fill-opacity:1;fill-rule:nonzero;stroke:none"
         d="m 16042.2,1359.21 c -142.3,0 -257.7,115.38 -257.7,257.76 0,142.37 115.4,257.75 257.7,257.75 142.4,0 257.8,-115.38 257.8,-257.75 0,-142.38 -115.4,-257.76 -257.8,-257.76" /></g><g
       transform="matrix(0.113014,0,0,0.113014,-144.44511,-241.15698)"
       id="g682"><path
         inkscape:connector-curvature="0"
         id="path684"
         style="fill:#16272f;fill-opacity:1;fill-rule:nonzero;stroke:none"
         d="m 16042.2,731.062 c -142.3,0 -257.7,115.382 -257.7,257.753 0,142.365 115.4,257.755 257.7,257.755 142.4,0 257.8,-115.39 257.8,-257.755 0,-142.371 -115.4,-257.753 -257.8,-257.753" /></g><g
       transform="matrix(0.113014,0,0,0.113014,-144.44511,-241.15698)"
       id="g686"><path
         inkscape:connector-curvature="0"
         id="path688"
         style="fill:#16272f;fill-opacity:1;fill-rule:nonzero;stroke:none"
         d="m 16042.2,107.246 c -142.3,0 -257.7,115.382 -257.7,257.753 0,142.37 115.4,257.752 257.7,257.752 142.4,0 257.8,-115.382 257.8,-257.752 0,-142.371 -115.4,-257.753 -257.8,-257.753" /></g><g
       transform="matrix(0.282515,0,0,0.282515,-144.44511,-241.15698)"
       id="g690"><path
         inkscape:connector-curvature="0"
         id="path692"
         style="fill:#fbfcfa;fill-opacity:1;fill-rule:nonzero;stroke:none"
         d="m 16186.7,6201.43 v 771.64 h -1189.3 v -771.64 h -0.4 c 0,0 9.4,-106.19 115.7,-106.19 106.3,0 1187.3,0 1187.3,0 0,0 -113.3,0 -113.3,106.19" /></g><g
       transform="matrix(0.284233,0,0,0.284233,-144.44511,-241.15698)"
       id="g694"><path
         inkscape:connector-curvature="0"
         id="path696"
         style="fill:#e7e7e4;fill-opacity:1;fill-rule:nonzero;stroke:none"
         d="m 16202.8,6057.74 c 0,0 93.7,-2.89 97.2,102.84 v 161.7 h -211.1 v -158.33 c 0,0 -2.5,-99.49 113.9,-106.21" /></g><g
       transform="matrix(0.279386,0,0,0.279386,-144.44511,-241.15698)"
       id="g698"><path
         inkscape:connector-curvature="0"
         id="path700"
         style="fill:#bbbab8;fill-opacity:1;fill-rule:nonzero;stroke:none"
         d="m 16300,6968.84 h -1055.9 v 39.37 H 16300 v -39.37" /></g><g
       transform="matrix(0.279386,0,0,0.279386,-144.44511,-241.15698)"
       id="g702"><path
         inkscape:connector-curvature="0"
         id="path704"
         style="fill:#bbbab8;fill-opacity:1;fill-rule:nonzero;stroke:none"
         d="m 16300,6850.72 h -1055.9 v 39.38 H 16300 v -39.38" /></g><g
       transform="matrix(0.279386,0,0,0.279386,-144.44511,-241.15698)"
       id="g706"><path
         inkscape:connector-curvature="0"
         id="path708"
         style="fill:#bbbab8;fill-opacity:1;fill-rule:nonzero;stroke:none"
         d="m 16300,6725.45 h -1055.9 v 39.37 H 16300 v -39.37" /></g><g
       transform="matrix(0.279386,0,0,0.279386,-144.44511,-241.15698)"
       id="g710"><path
         inkscape:connector-curvature="0"
         id="path712"
         style="fill:#bbbab8;fill-opacity:1;fill-rule:nonzero;stroke:none"
         d="m 16300,6603.76 h -1055.9 v 39.37 H 16300 v -39.37" /></g><g
       transform="matrix(0.279386,0,0,0.279386,-144.44511,-241.15698)"
       id="g714"><path
         inkscape:connector-curvature="0"
         id="path716"
         style="fill:#bbbab8;fill-opacity:1;fill-rule:nonzero;stroke:none"
         d="m 16300,6482.06 h -1055.9 v 39.37 H 16300 v -39.37" /></g><g
       transform="matrix(0.279386,0,0,0.279386,-144.44511,-241.15698)"
       id="g718"><path
         inkscape:connector-curvature="0"
         id="path720"
         style="fill:#bbbab8;fill-opacity:1;fill-rule:nonzero;stroke:none"
         d="m 16300,6356.79 h -1055.9 v 39.37 H 16300 v -39.37" /></g><g
       transform="matrix(0.273738,0,0,0.273738,-144.44511,-241.15698)"
       id="g722"><path
         inkscape:connector-curvature="0"
         id="path724"
         style="fill:#fbfcfa;fill-opacity:1;fill-rule:nonzero;stroke:none"
         d="m 2618.74,16300 h 88 v -441.8 h -88 v 441.8" /></g><g
       transform="matrix(0.273733,0,0,0.273733,-144.44511,-241.15698)"
       id="g726"><path
         inkscape:connector-curvature="0"
         id="path728"
         style="fill:#fbfcfa;fill-opacity:1;fill-rule:nonzero;stroke:none"
         d="m 2795.38,15858.5 v 441.5 h 29.43 l 276.67,-276.7 v 276.7 h 88.29 v -441.5 h -32.37 l -273.73,273.7 v -273.7 h -88.29" /></g><g
       transform="matrix(0.273733,0,0,0.273733,-144.44511,-241.15698)"
       id="g730"><path
         inkscape:connector-curvature="0"
         id="path732"
         style="fill:#fbfcfa;fill-opacity:1;fill-rule:nonzero;stroke:none"
         d="m 3520.3,16285.3 c 22.56,-9.8 43.66,-24.6 63.28,-44.2 l -58.87,-58.8 c -19.62,23.5 -47.09,35.3 -82.41,35.3 -35.32,0 -57.88,-8.4 -67.69,-25 -9.81,-16.7 -9.81,-30.9 0,-42.7 9.81,-11.8 32.37,-20.6 67.69,-26.5 37.28,-3.9 71.13,-16.2 101.55,-36.8 30.41,-20.6 45.62,-53.5 45.62,-98.6 0,-35.3 -16.24,-65.7 -48.72,-91.2 -32.47,-25.5 -70.29,-38.3 -113.46,-38.3 -41.01,0 -75.25,5.9 -102.72,17.7 -27.47,11.7 -51.02,27.4 -70.63,47.1 l 58.86,58.8 c 19.62,-23.5 52.98,-37.3 100.07,-41.2 39.24,0 63.72,8.4 73.43,25 9.72,16.7 9.72,33.4 0,50.1 -9.71,16.6 -34.19,27 -73.43,30.9 -35.32,3.9 -67.69,14.7 -97.13,32.4 -29.43,17.6 -44.14,48 -44.14,91.2 0,39 16.72,70.4 50.18,94 33.45,23.7 67.84,35.5 103.16,35.5 41.01,0 72.79,-4.9 95.36,-14.7" /></g><g
       transform="matrix(0.273733,0,0,0.273733,-144.44511,-241.15698)"
       id="g734"><path
         inkscape:connector-curvature="0"
         id="path736"
         style="fill:#fbfcfa;fill-opacity:1;fill-rule:nonzero;stroke:none"
         d="m 3667.19,15858.5 v 441.2 l 324.33,0.3 v -82.4 h -236.04 v -94.2 h 176.89 v -82.1 h -176.89 v -100.4 h 235.45 v -82.4 h -323.74" /></g><g
       transform="matrix(0.273733,0,0,0.273733,-144.44511,-241.15698)"
       id="g738"><path
         inkscape:connector-curvature="0"
         id="path740"
         style="fill:#fbfcfa;fill-opacity:1;fill-rule:nonzero;stroke:none"
         d="m 4168.7,16123.4 h 123.62 c 35.51,0.6 53.74,16.8 54.72,48.6 -0.98,29 -18.92,44.1 -53.84,45.3 h -124.5 z m 177.47,-72.4 110.07,-192.5 h -101.23 l -105.65,182.5 h -80.66 v -182.5 h -88.3 v 441.5 h 192.48 c 103.02,0 154.53,-42.4 154.53,-127.2 0,-63.7 -27.07,-104.3 -81.24,-121.8" /></g><g
       transform="matrix(0.273733,0,0,0.273733,-144.44511,-241.15698)"
       id="g742"><path
         inkscape:connector-curvature="0"
         id="path744"
         style="fill:#fbfcfa;fill-opacity:1;fill-rule:nonzero;stroke:none"
         d="m 4862.44,16300 v -82.4 h -147.19 v -359.1 h -88.3 v 359.1 H 4479.8 v 82.4 h 382.64" /></g><g
       transform="matrix(0.261586,0,0,0.261586,-144.44511,-241.15698)"
       id="g746"><path
         inkscape:connector-curvature="0"
         id="path748"
         style="fill:#fbfcfa;fill-opacity:1;fill-rule:nonzero;stroke:none"
         d="m 3033.44,15904.4 c -44.24,44 -66.37,99.2 -66.37,165.5 0.2,64.9 22.38,119.5 66.53,163.7 44.14,44.3 98.87,66.4 164.16,66.4 65.91,0 122.47,-20.5 169.7,-61.6 l -61.59,-67.4 c -31.42,24.6 -67.45,36.9 -108.11,36.9 -41.48,-0.2 -74.9,-13.1 -100.25,-38.8 -25.36,-25.7 -38.04,-58.5 -38.04,-98.6 0.2,-42.9 13.04,-77 38.5,-102.2 25.46,-25.3 58.93,-37.9 100.41,-37.9 41.47,0 77.3,12.2 107.49,36.7 l 61.59,-67.5 c -47.02,-41.1 -103.59,-61.6 -169.7,-61.6 -65.29,0.2 -120.07,22.3 -164.32,66.4" /></g><g
       transform="matrix(0.261586,0,0,0.261586,-144.44511,-241.15698)"
       id="g750"><path
         inkscape:connector-curvature="0"
         id="path752"
         style="fill:#fbfcfa;fill-opacity:1;fill-rule:nonzero;stroke:none"
         d="m 3676.07,16176.8 -70.22,-175.6 h 138.6 z m -233.46,-338.8 184.8,462 h 92.4 l 184.49,-461.7 -98.26,-0.3 -27.72,70.8 h -209.43 l -27.72,-70.8 h -98.56" /></g><g
       transform="matrix(0.261586,0,0,0.261586,-144.44511,-241.15698)"
       id="g754"><path
         inkscape:connector-curvature="0"
         id="path756"
         style="fill:#fbfcfa;fill-opacity:1;fill-rule:nonzero;stroke:none"
         d="m 4065.66,16115.2 h 129.37 c 37.16,0.6 56.27,17.6 57.3,50.8 -1.03,30.4 -19.84,46.2 -56.38,47.5 h -130.29 z m 185.76,-75.8 115.18,-201.4 h -105.97 l -110.56,191 h -84.41 v -191 h -92.4 v 462 h 201.47 c 107.77,0 161.67,-44.4 161.67,-133.1 0,-66.7 -28.33,-109.2 -84.98,-127.5" /></g><g
       transform="matrix(0.261591,0,0,0.261591,-144.44511,-241.15698)"
       id="g758"><path
         inkscape:connector-curvature="0"
         id="path760"
         style="fill:#fbfcfa;fill-opacity:1;fill-rule:nonzero;stroke:none"
         d="m 4592.55,15929.8 c 81.93,0.2 123.02,46.5 123.21,138.9 -0.19,92.4 -41.28,138.6 -123.21,138.6 h -85.59 v -277.5 z m -177.98,-92.1 v 462.3 h 177.98 c 143.74,0 215.61,-77.1 215.61,-231.3 0,-154 -71.87,-231 -215.61,-231 h -177.98" /></g><g
       id="g2410"
       transform="translate(-2422.307,1020.2888)"><g
         id="g598"
         transform="matrix(0.225247,0,0,0.225247,7872.1746,-924.19481)"><path
           d="m 16176.8,13666.7 c 65.9,0.4 122.7,-3.5 120.6,-71.8 l 2.1,-362.3 c 0.5,-89.5 -53.4,-161.1 -119.3,-161.5 l -555.5,-3.5 -3.5,595.6 555.6,3.5"
           style="fill:#d2d3d9;fill-opacity:1;fill-rule:nonzero;stroke:none"
           id="path600"
           inkscape:connector-curvature="0" /></g><g
         id="g602"
         transform="matrix(0.215947,0,0,0.215947,7872.1746,-924.19481)"><path
           d="m 15689.8,14252.4 606.6,-0.8 3.6,-621.3 -606.6,-3.8 c -68.7,-0.4 -123.1,73.6 -123.7,166.9 l 0.3,380.8 c -0.3,77.4 51,77.7 119.8,78.2"
           style="fill:#bfbfc2;fill-opacity:1;fill-rule:nonzero;stroke:none"
           id="path604"
           inkscape:connector-curvature="0" /></g><g
         id="g606"
         transform="matrix(0.226883,0,0,0.226883,7872.1746,-924.19481)"><path
           d="m 16154.6,13180.5 c 65.5,0.4 144.9,29.5 145.4,-59.2 l -4.6,-2128.3 -789.2,-1.9 4.6,2185.3 643.8,4.1"
           style="fill:#dcad34;fill-opacity:1;fill-rule:nonzero;stroke:none"
           id="path608"
           inkscape:connector-curvature="0" /></g><g
         id="g610"
         transform="matrix(0.215931,0,0,0.215931,7872.1746,-924.19481)"><path
           d="m 15621,13840.5 679,4.2 -7.3,-2296.1 h -810.2 l 7.4,2213 c -0.6,93.3 62.3,78.4 131.1,78.9"
           style="fill:#ebbf3c;fill-opacity:1;fill-rule:nonzero;stroke:none"
           id="path612"
           inkscape:connector-curvature="0" /></g><g
         id="g614"
         transform="matrix(0.236283,0,0,0.236283,7872.1746,-924.19481)"><path
           d="m 14249.9,14320.4 c 0.9,48.7 46.8,138.6 129.9,136.8 h 0.3 c 83.2,-1.9 148.2,-79.2 147.2,-127.9 l -0.4,-21.9 12.5,-0.3 2.3,111.4 c 1.2,61.3 71,131.2 154.2,129.4 h 0.3 c 83.1,-1.8 145.4,-74.6 144.2,-136 l -2.2,-111.3 12.5,-0.3 2.7,135.8 c 1.3,61.4 70.6,147.9 153.7,146 h 0.3 c 83.2,-1.8 150.2,-91.2 148.9,-152.6 l -2.7,-135.8 18.8,-0.4 11.9,1220.9 c 1.7,80 82.5,188 181.6,185.8 h 0.6 c 99.1,-2.1 143.6,-113.9 141.9,-193.9 l -0.7,-1384 c 1.8,-13.6 6.8,-170.9 10.9,-263.1 4.1,-92.1 369.5,186.7 369.5,186.7 69.7,45.5 122.1,87.8 276.3,68.4 l 81.9,-42.3 c 53.7,-52.2 -26.5,-119.1 -103.7,-192.2 l -682.1,-694.3 c -65.5,-58.5 -210.7,-157.8 -210.7,-157.8 l -752.3,0.9 c 0,0 -201.7,523.1 -224.6,646.2 l -26.5,177.1 c 0.2,7.2 -7.4,238.1 -7.2,245.7 l 10.7,223"
           style="fill:#c69185;fill-opacity:1;fill-rule:nonzero;stroke:none"
           id="path616"
           inkscape:connector-curvature="0" /></g><g
         id="g618"
         transform="matrix(0.235499,0,0,0.235499,7872.1746,-924.19481)"><path
           d="m 16051.6,13836.1 c 32,-31.1 97.3,26.5 157.1,93 59.8,66.6 91.3,117 59.4,148.1 -32,31.1 -106.4,2.3 -166.1,-64.3 -59.8,-66.5 -82.3,-145.7 -50.4,-176.8"
           style="fill:#ebdbcc;fill-opacity:1;fill-rule:nonzero;stroke:none"
           id="path620"
           inkscape:connector-curvature="0" /></g><g
         id="g622"
         transform="matrix(0.22654,0,0,0.22654,7872.1746,-924.19481)"><path
           d="m 16003.1,16300 c -70.6,0 -127.9,-18.4 -127.9,-110.9 0,-92.5 57.3,-224 127.9,-224 70.7,0 128,131.5 128,224 0,92.5 -57.3,110.9 -128,110.9"
           style="fill:#ebdbcc;fill-opacity:1;fill-rule:nonzero;stroke:none"
           id="path624"
           inkscape:connector-curvature="0" /></g><g
         id="g626"
         transform="matrix(0.209189,0,0,0.209189,7872.1746,-924.19481)"><path
           d="m 16300,14064.3 c 0,-68.7 -55.7,-124.4 -124.4,-124.4 -68.7,0 -124.4,55.7 -124.4,124.4 0,68.7 55.7,124.4 124.4,124.4 68.7,0 124.4,-55.7 124.4,-124.4"
           style="fill:#16272f;fill-opacity:1;fill-rule:nonzero;stroke:none"
           id="path628"
           inkscape:connector-curvature="0" /></g><g
         id="g630"
         transform="matrix(0.209189,0,0,0.209189,7872.1746,-924.19481)"><path
           d="m 16300,13765.4 c 0,-68.7 -55.7,-124.4 -124.4,-124.4 -68.7,0 -124.4,55.7 -124.4,124.4 0,68.7 55.7,124.4 124.4,124.4 68.7,0 124.4,-55.7 124.4,-124.4"
           style="fill:#16272f;fill-opacity:1;fill-rule:nonzero;stroke:none"
           id="path632"
           inkscape:connector-curvature="0" /></g><g
         id="g634"
         transform="matrix(0.209189,0,0,0.209189,7872.1746,-924.19481)"><path
           d="m 16300,13479.1 c 0,-68.7 -55.7,-124.4 -124.4,-124.4 -68.7,0 -124.4,55.7 -124.4,124.4 0,68.7 55.7,124.4 124.4,124.4 68.7,0 124.4,-55.7 124.4,-124.4"
           style="fill:#16272f;fill-opacity:1;fill-rule:nonzero;stroke:none"
           id="path636"
           inkscape:connector-curvature="0" /></g></g><g
       transform="matrix(0.121486,0,0,0.121486,-144.44511,-241.15698)"
       id="g794"><path
         inkscape:connector-curvature="0"
         id="path796"
         style="fill:#fbfcfa;fill-opacity:1;fill-rule:nonzero;stroke:none"
         d="m 5368.2,16027.4 -174.86,-749.9 H 5018.48 L 4784.75,16300 h 186.52 l 152.12,-695.3 157.38,695.3 h 180.68 l 151.54,-695.3 151.55,695.3 h 186.51 l -233.14,-1022.5 h -174.86 l -174.85,749.9" /></g><g
       transform="matrix(0.121491,0,0,0.121491,-144.44511,-241.15698)"
       id="g798"><path
         inkscape:connector-curvature="0"
         id="path800"
         style="fill:#fbfcfa;fill-opacity:1;fill-rule:nonzero;stroke:none"
         d="m 6080.17,16300 h 174.26 V 15276.8 H 6080.17 V 16300" /></g><g
       transform="matrix(0.121486,0,0,0.121486,-144.44511,-241.15698)"
       id="g802"><path
         inkscape:connector-curvature="0"
         id="path804"
         style="fill:#fbfcfa;fill-opacity:1;fill-rule:nonzero;stroke:none"
         d="m 7143.58,16300 v -190.8 h -291.43 v -831.7 h -174.86 v 831.7 h -291.43 v 190.8 h 757.72" /></g><g
       transform="matrix(0.121491,0,0,0.121491,-144.44511,-241.15698)"
       id="g806"><path
         inkscape:connector-curvature="0"
         id="path808"
         style="fill:#fbfcfa;fill-opacity:1;fill-rule:nonzero;stroke:none"
         d="m 7273.22,15276.8 v 1022.5 h 174.85 v -409 h 407.41 v 409.7 h 174.84 v -1022.5 l -174.84,-0.7 v 422.7 h -407.41 v -422.7 h -174.85" /></g><g
       transform="matrix(0.121491,0,0,0.121491,-144.44511,-241.15698)"
       id="g810"><path
         inkscape:connector-curvature="0"
         id="path812"
         style="fill:#fbfcfa;fill-opacity:1;fill-rule:nonzero;stroke:none"
         d="m 8556,15480.6 c 155.07,0.5 232.77,103 233.18,307.4 -0.41,204.6 -78.11,306.8 -233.18,306.8 h -161.99 v -614.2 z m -336.84,-203.8 V 16300 H 8556 c 272.03,0 408.01,-170.7 408.01,-512 0,-340.8 -135.98,-511.2 -408.01,-511.2 h -336.84" /></g><g
       transform="matrix(0.121486,0,0,0.121486,-144.44511,-241.15698)"
       id="g814"><path
         inkscape:connector-curvature="0"
         id="path816"
         style="fill:#fbfcfa;fill-opacity:1;fill-rule:nonzero;stroke:none"
         d="m 9326.93,15891 h 244.8 c 70.38,1.4 106.51,38.8 108.41,112.5 -1.9,67.3 -37.46,102.2 -106.6,105 h -246.61 z m 351.48,-167.7 217.97,-445.8 h -200.44 l -209.24,422.7 h -159.77 v -422.7 H 9152.09 V 16300 h 381.2 c 203.97,0 305.96,-98.1 305.96,-294.4 0,-147.8 -53.59,-241.8 -160.84,-282.3" /></g><g
       transform="matrix(0.121486,0,0,0.121486,-144.44511,-241.15698)"
       id="g818"><path
         inkscape:connector-curvature="0"
         id="path820"
         style="fill:#fbfcfa;fill-opacity:1;fill-rule:nonzero;stroke:none"
         d="m 10383.1,16027.4 -132.9,-388.6 h 262.3 z M 9941.32,15277.5 10291,16300 h 174.8 l 349.2,-1021.8 -185.9,-0.7 -52.5,156.8 h -396.3 l -52.5,-156.8 h -186.48" /></g><g
       transform="matrix(0.121486,0,0,0.121486,-144.44511,-241.15698)"
       id="g822"><path
         inkscape:connector-curvature="0"
         id="path824"
         style="fill:#fbfcfa;fill-opacity:1;fill-rule:nonzero;stroke:none"
         d="m 11477.1,16027.4 -174.8,-749.9 h -174.9 l -233.7,1022.5 h 186.5 l 152.1,-695.3 157.4,695.3 h 180.7 l 151.5,-695.3 151.6,695.3 h 186.5 l -233.2,-1022.5 H 11652 l -174.9,749.9" /></g><g
       transform="matrix(0.109,0,0,0.109,-144.44511,-241.15698)"
       id="g826"><path
         inkscape:connector-curvature="0"
         id="path828"
         style="fill:#fbfcfa;fill-opacity:1;fill-rule:nonzero;stroke:none"
         d="m 6749.35,15996.1 -148.11,-433.2 h 292.32 z m -492.42,-835.8 389.78,1139.7 h 194.89 l 389.12,-1139 -207.23,-0.7 -58.46,174.7 h -441.75 l -58.47,-174.7 h -207.88" /></g><g
       transform="matrix(0.109,0,0,0.109,-144.44511,-241.15698)"
       id="g830"><path
         inkscape:connector-curvature="0"
         id="path832"
         style="fill:#fbfcfa;fill-opacity:1;fill-rule:nonzero;stroke:none"
         d="M 7376.23,15160.3 V 16300 h 64.96 l 422.26,-562.3 422.9,562.3 h 64.96 v -1139.7 h -194.88 l -0.65,661 -292.33,-379.9 -292.33,379.9 v -661 h -194.89" /></g><g
       transform="matrix(0.109,0,0,0.109,-144.44511,-241.15698)"
       id="g834"><path
         inkscape:connector-curvature="0"
         id="path836"
         style="fill:#fbfcfa;fill-opacity:1;fill-rule:nonzero;stroke:none"
         d="m 8984.05,15373 c 86.18,0 156.33,34.2 210.45,102.6 54.12,68.3 81.19,153.2 81.19,254.5 0,101.3 -27.07,186.1 -81.19,254.6 -54.12,68.3 -124.7,102.5 -211.75,102.5 -86.18,0 -156.35,-34.2 -210.47,-102.5 -54.15,-68.5 -81.21,-153.3 -81.21,-254.6 0,-101.3 27.06,-186.2 81.21,-254.5 54.12,-68.4 124.72,-102.6 211.77,-102.6 z m -348.2,-49 c -93.11,109.1 -139.67,244.5 -139.67,406.1 0,162.1 46.56,297.6 139.67,406.5 93.11,108.9 208.96,163.4 347.55,163.4 138.58,0 254.4,-54.5 347.52,-163.4 93.12,-108.9 139.72,-244.4 139.72,-406.5 0,-162.1 -46.6,-297.5 -139.72,-406.4 -93.12,-108.9 -208.94,-163.4 -347.52,-163.4 -138.59,0 -254.44,54.6 -347.55,163.7" /></g><g
       transform="matrix(0.109,0,0,0.109,-144.44511,-241.15698)"
       id="g838"><path
         inkscape:connector-curvature="0"
         id="path840"
         style="fill:#fbfcfa;fill-opacity:1;fill-rule:nonzero;stroke:none"
         d="m 9795.41,16300 v -661.1 c 0,-86.1 21.66,-149.4 64.96,-189.9 43.3,-40.6 97.43,-60.7 162.43,-60.7 65,0 119.1,20.1 162.4,60.7 43.3,40.5 65,103.8 65,189.9 v 661.1 h 194.8 v -721.8 c 0,-116.5 -40,-215.4 -120.1,-296.4 -80.1,-81 -180.9,-121.5 -302.1,-121.5 -121.24,0 -221.97,40.5 -302.06,121.5 -80.1,81 -120.19,179.9 -120.19,296.4 v 721.8 h 194.86" /></g><g
       transform="matrix(0.109,0,0,0.109,-144.44511,-241.15698)"
       id="g842"><path
         inkscape:connector-curvature="0"
         id="path844"
         style="fill:#fbfcfa;fill-opacity:1;fill-rule:nonzero;stroke:none"
         d="M 10655.5,15160.3 V 16300 h 65 l 610.6,-714.2 v 714.2 h 195 v -1139.7 h -71.5 l -604.1,706.6 v -706.6 h -195" /></g><g
       transform="matrix(0.109,0,0,0.109,-144.44511,-241.15698)"
       id="g846"><path
         inkscape:connector-curvature="0"
         id="path848"
         style="fill:#fbfcfa;fill-opacity:1;fill-rule:nonzero;stroke:none"
         d="m 12523.2,16300 v -212.8 h -324.9 v -926.9 h -194.8 v 926.9 h -324.8 v 212.8 h 844.5" /></g><g
       transform="matrix(0.204782,0,0,0.204782,-144.44511,-241.15698)"
       id="g850"><path
         inkscape:connector-curvature="0"
         id="path852"
         style="fill:#fbfcfa;fill-opacity:1;fill-rule:nonzero;stroke:none"
         d="m 16300,9487.4 v -110.17 h -196.7 v -479.97 h -118 v 479.97 h -196.7 v 110.17 h 511.4" /></g><g
       transform="matrix(0.212305,0,0,0.212305,-144.44511,-241.15698)"
       id="g854"><path
         inkscape:connector-curvature="0"
         id="path856"
         style="fill:#fbfcfa;fill-opacity:1;fill-rule:nonzero;stroke:none"
         d="m 15807.1,8582 v 569.23 h 113.8 v -227.7 h 265.3 v 228.07 h 113.8 v -569.23 l -113.8,-0.37 v 235.27 h -265.3 V 8582 h -113.8" /></g><g
       transform="matrix(0.220925,0,0,0.220925,-144.44511,-241.15698)"
       id="g858"><path
         inkscape:connector-curvature="0"
         id="path860"
         style="fill:#fbfcfa;fill-opacity:1;fill-rule:nonzero;stroke:none"
         d="m 16029.8,8648.27 -83.2,-207.86 h 164.1 z m -276.5,-401.13 218.9,547.01 h 109.4 l 218.4,-546.65 -116.3,-0.36 -32.8,83.87 h -248 l -32.9,-83.87 h -116.7" /></g><g
       transform="matrix(0.228656,0,0,0.228656,-144.44511,-241.15698)"
       id="g862"><path
         inkscape:connector-curvature="0"
         id="path864"
         style="fill:#fbfcfa;fill-opacity:1;fill-rule:nonzero;stroke:none"
         d="m 15827.8,7968.31 v 528.52 h 35.3 l 331.2,-331.19 v 331.19 h 105.7 v -528.52 h -38.8 l -327.6,327.7 v -327.7 h -105.8" /></g><g
       transform="matrix(0.236436,0,0,0.236436,-144.44511,-241.15698)"
       id="g866"><path
         inkscape:connector-curvature="0"
         id="path868"
         style="fill:#fbfcfa;fill-opacity:1;fill-rule:nonzero;stroke:none"
         d="m 15870.7,8217.25 h 102.2 V 8012.8 l 170.4,204.45 h 114.8 l -200,-238.54 241.9,-272.59 h -132.9 l -194.2,220.82 v -220.82 h -102.2 v 511.13" /></g><g
       transform="matrix(0.212698,0,0,0.212698,-144.44511,-241.15698)"
       id="g870"><path
         inkscape:connector-curvature="0"
         id="path872"
         style="fill:#fbfcfa;fill-opacity:1;fill-rule:nonzero;stroke:none"
         d="m 15769.7,8203.41 h 133.3 l 131.8,-185.62 134.9,185.62 H 16300 L 16091.7,7919.3 V 7635.23 H 15978 v 284.07 l -208.3,284.11" /></g><g
       transform="matrix(0.220834,0,0,0.220834,-144.44511,-241.15698)"
       id="g874"><path
         inkscape:connector-curvature="0"
         id="path876"
         style="fill:#fbfcfa;fill-opacity:1;fill-rule:nonzero;stroke:none"
         d="m 16026.8,7456.11 c 48.3,0 87.7,16.39 118.2,49.26 30.3,32.83 45.5,73.54 45.5,122.18 0,48.68 -15.2,89.39 -45.5,122.22 -30.5,32.87 -70.1,49.26 -119,49.26 -48.4,0 -87.8,-16.39 -118.2,-49.26 -30.4,-32.83 -45.6,-73.54 -45.6,-122.22 0,-48.64 15.2,-89.35 45.6,-122.18 30.4,-32.87 70.1,-49.26 119,-49.26 z m -195.6,-23.55 c -52.3,52.44 -78.4,117.42 -78.4,194.99 0,77.84 26.1,142.91 78.4,195.21 52.3,52.3 117.4,78.43 195.2,78.43 77.8,0 142.9,-26.13 195.2,-78.43 52.3,-52.3 78.4,-117.37 78.4,-195.21 0,-77.8 -26.1,-142.87 -78.4,-195.17 -52.3,-52.3 -117.4,-78.43 -195.2,-78.43 -77.8,0 -142.9,26.22 -195.2,78.61" /></g><g
       transform="matrix(0.228248,0,0,0.228248,-144.44511,-241.15698)"
       id="g878"><path
         inkscape:connector-curvature="0"
         id="path880"
         style="fill:#fbfcfa;fill-opacity:1;fill-rule:nonzero;stroke:none"
         d="m 15947,7644.54 v -307.08 c 0,-40.04 11.8,-69.44 35.3,-88.23 23.5,-18.84 52.9,-28.26 88.3,-28.26 35.3,0 64.7,9.42 88.2,28.26 23.5,18.79 35.3,48.19 35.3,88.23 v 307.08 H 16300 V 7309.2 c 0,-54.1 -21.8,-100.02 -65.3,-137.65 -43.5,-37.64 -98.2,-56.48 -164.1,-56.48 -65.9,0 -120.7,18.84 -164.2,56.48 -43.5,37.63 -65.3,83.55 -65.3,137.65 v 335.34 h 105.9" /></g><g
       id="g4745"
       inkscape:export-xdpi="96"
       inkscape:export-ydpi="96"><g
         id="g18"
         transform="matrix(0.11042945,0,0,0.07776074,8656.5439,920.26324)"><path
           d="M 16300,8150 H 8150 v 8150 h 8150 V 8150"
           style="fill:#275080;fill-opacity:1;fill-rule:nonzero;stroke:none"
           id="path20"
           inkscape:connector-curvature="0" /></g><g
         id="g158"
         transform="matrix(0.11878269,0,0,0.08356118,8479.0383,787.61141)"><path
           d="M 16024.4,10804.3 H 9694.93 V 16300 h 6329.47 v -5495.7"
           style="fill:#969797;fill-opacity:1;fill-rule:nonzero;stroke:none"
           id="path160"
           inkscape:connector-curvature="0" /></g><g
         inkscape:export-ydpi="96"
         inkscape:export-xdpi="96"
         transform="matrix(1.6778409,0,0,1.3889989,-6821.3584,-813.51144)"
         id="g3307"><g
           transform="matrix(0.08127832,0,0,0.08127832,8959.759,789.90578)"
           id="g174"><path
             inkscape:connector-curvature="0"
             id="path176"
             style="fill:#68cde3;fill-opacity:1;fill-rule:nonzero;stroke:none"
             d="m 14005.4,13854.7 c 0,-138.6 -112.4,-251 -251.1,-251 h -2836.9 c -138.6,0 -251,112.4 -251,251 V 16049 c 0,138.6 112.4,251 251,251 h 2836.9 c 138.7,0 251.1,-112.4 251.1,-251 v -2194.3" /></g><g
           transform="matrix(0.08152216,0,0,0.08152216,8959.759,789.90578)"
           id="g178"><path
             inkscape:connector-curvature="0"
             id="path180"
             style="fill:#141211;fill-opacity:1;fill-rule:nonzero;stroke:none"
             d="m 13709.6,16300 h -2825.2 c -79.7,0 -154.7,-30.8 -211.1,-87.1 -56.4,-56.4 -87.5,-131 -87.5,-210.7 v -2189.9 c 0,-79.7 31.1,-156.2 87.5,-212.5 56.4,-56.4 131.4,-89 211.1,-89 h 2825.2 c 79.7,0 155,32.6 211.4,89 56.3,56.3 87.7,132.8 87.7,212.5 v 2189.9 c 0,79.7 -31.4,154.3 -87.7,210.7 -56.4,56.3 -131.7,87.1 -211.4,87.1 z m -2.4,-48.8 c 138.2,0 249.3,-110.8 249.3,-249 v -2189.9 c 0,-138.2 -108.7,-249.3 -246.9,-249.3 h -2825.2 c -138.2,0 -249.9,111.1 -249.9,249.3 v 2189.9 c 0,138.2 111.7,249 249.9,249 h 2821.4" /></g></g><g
         id="g182"
         transform="matrix(0.07006632,0,0,0.05000369,8866.0267,1020.6088)"><path
           d="m 16300,13703.2 c 0,-20.9 -22.7,-36 -49.6,-36 h -3167.5 c -26.8,0 -47.9,15.1 -47.9,36 v 1884.4 c 0,20.9 21.1,38.6 47.9,38.6 h 3167.5 c 26.9,0 49.6,-17.7 49.6,-38.6 v -1884.4"
           style="fill:#555658;fill-opacity:1;fill-rule:nonzero;stroke:none"
           id="path184"
           inkscape:connector-curvature="0" /></g><g
         transform="matrix(1.1040024,0,0,1,-1031.051,-48.806319)"
         id="g6770"><g
           transform="matrix(0.0814001,0,0,0.0814001,8959.759,789.90578)"
           id="g170"><path
             inkscape:connector-curvature="0"
             id="path172"
             style="fill:#2b5571;fill-opacity:1;fill-rule:nonzero;stroke:none"
             d="m 16300,12265.1 h -2528.3 v 408 H 16300 v -408" /></g><g
           transform="matrix(0.08089509,0,0,0.08089509,8959.759,789.90578)"
           id="g278"><path
             inkscape:connector-curvature="0"
             id="path280"
             style="fill:#d4d7d3;fill-opacity:1;fill-rule:nonzero;stroke:none"
             d="m 16300,12465.6 c 0,-20.2 -29.7,-36.2 -63.3,-36.2 H 14021 c -33.6,0 -61.6,16 -61.6,36.2 v 101.8 c 0,20.1 28,37.5 61.6,37.5 h 2215.7 c 33.6,0 63.3,-17.4 63.3,-37.5 v -101.8" /></g><g
           transform="matrix(0.08042499,0,0,0.08042499,8959.759,789.90578)"
           id="g282"><path
             inkscape:connector-curvature="0"
             id="path284"
             style="fill:#555658;fill-opacity:1;fill-rule:nonzero;stroke:none"
             d="m 16300,12585.6 c 0,-18 -22,-30.6 -52,-30.6 h -2034.2 c -30.1,0 -52.8,12.6 -52.8,30.6 v 0.8 c 0,18 22.7,35.7 52.8,35.7 H 16248 c 30,0 52,-17.7 52,-35.7 v -0.8" /></g></g><g
         transform="matrix(0.25159874,0,0,0.25159874,9804.6191,1106.7566)"
         id="g457"><g
           transform="matrix(0.254724,0,0,0.254724,-144.44511,-241.15698)"
           id="g38"><path
             inkscape:connector-curvature="0"
             id="path40"
             style="fill:#2b5571;fill-opacity:1;fill-rule:nonzero;stroke:none"
             d="M 8314.88,15766.1 H 6563.97 v 533.9 h 1750.91 v -533.9" /></g><g
           transform="matrix(0.251227,0,0,0.251227,-144.44511,-241.15698)"
           id="g142"><path
             inkscape:connector-curvature="0"
             id="path144"
             style="fill:#d4d7d3;fill-opacity:1;fill-rule:nonzero;stroke:none"
             d="m 8331.11,16142.2 c 0,-22.8 -18.47,-41.2 -41.28,-41.2 H 6788.16 c -22.8,0 -41.27,18.4 -41.27,41.2 v 116.5 c 0,22.8 18.47,41.3 41.27,41.3 h 1501.67 c 22.81,0 41.28,-18.5 41.28,-41.3 v -116.5" /></g><g
           transform="matrix(0.250245,0,0,0.250245,-144.44511,-241.15698)"
           id="g146"><path
             inkscape:connector-curvature="0"
             id="path148"
             style="fill:#555658;fill-opacity:1;fill-rule:nonzero;stroke:none"
             d="m 8319.83,16260.9 c 0,-20.4 -16.46,-36.8 -36.8,-36.8 H 6906.06 c -20.34,0 -36.8,16.4 -36.8,36.8 v 2.3 c 0,20.3 16.46,36.8 36.8,36.8 h 1376.97 c 20.34,0 36.8,-16.5 36.8,-36.8 v -2.3" /></g></g><g
         transform="translate(-342.39658,-26.837041)"
         id="g2132"><g
           id="g2120"><path
             sodipodi:nodetypes="ccccc"
             d="m 10549.171,2096.7267 v -46.8997 c 10.402,-10.1383 32.141,-20.8543 77.83,-41.0933 v 87.993 h -77.831"
             style="fill:#00593b;fill-opacity:1;fill-rule:nonzero;stroke:#002d1e;stroke-width:0.06281489;stroke-opacity:1"
             id="path512"
             inkscape:connector-curvature="0" /><path
             inkscape:connector-curvature="0"
             id="path504"
             style="fill:#00593b;fill-opacity:1;fill-rule:nonzero;stroke:#002d1e;stroke-width:0.05993761;stroke-opacity:1"
             d="m 10549.17,1999.6772 c 0,-5.9099 4.788,-10.6989 10.696,-10.6989 h 56.333 c 5.908,0 10.801,4.789 10.801,10.6989 v 9.0565 c -39.727,31.8629 -63.662,40.5119 -77.83,41.0933 v -50.1498" /></g><path
           d="m 10579.688,2032.3196 v -33.046 h -7.224 v 33.046 h 7.224"
           style="fill:#fafaf8;fill-opacity:1;fill-rule:nonzero;stroke:none;stroke-width:0.05886354"
           id="path524"
           inkscape:connector-curvature="0" /><path
           d="m 10579.687,2051.8201 v -16.7928 h -7.223 v 16.7928 h 7.223"
           style="fill:#fafaf8;fill-opacity:1;fill-rule:nonzero;stroke:none;stroke-width:0.06005989"
           id="path528"
           inkscape:connector-curvature="0" /><path
           d="m 10579.687,2071.3247 v -17.1579 h -7.223 v 17.1579 h 7.223"
           style="fill:#fafaf8;fill-opacity:1;fill-rule:nonzero;stroke:none;stroke-width:0.06125649"
           id="path532"
           inkscape:connector-curvature="0" /><path
           d="m 10579.686,2095.7506 v -20.9978 h -7.223 v 20.9978 h 7.223"
           style="fill:#fafaf8;fill-opacity:1;fill-rule:nonzero;stroke:none;stroke-width:0.06275501"
           id="path536"
           inkscape:connector-curvature="0" /><path
           d="m 10564.699,2095.7506 v -96.4795 h -2.166 v 96.4795 h 2.166"
           style="fill:#a7a8a0;fill-opacity:1;fill-rule:nonzero;stroke:none;stroke-width:0.06275501"
           id="path540"
           inkscape:connector-curvature="0" /><path
           d="m 10568.853,2095.7506 v -96.4795 h -1.988 v 96.4795 h 1.988"
           style="fill:#a7a8a0;fill-opacity:1;fill-rule:nonzero;stroke:none;stroke-width:0.06275501"
           id="path544"
           inkscape:connector-curvature="0" /><path
           d="m 10615.904,2096.8538 c 1.489,0 2.697,-1.2062 2.697,-2.6951 v -19.8896 c 0,-1.4889 -1.208,-2.6951 -2.697,-2.6951 h -13.748 c -1.487,0 -2.694,1.2062 -2.694,2.6951 v 19.8896 c 0,1.4889 1.207,2.6951 2.694,2.6951 h 13.748"
           style="fill:#8c8d23;fill-opacity:1;fill-rule:nonzero;stroke:none;stroke-width:0.0628227"
           id="path548"
           inkscape:connector-curvature="0" /></g><g
         id="g1753"
         transform="matrix(0.702455,0,0,0.702455,3047.5208,603.51317)"><g
           transform="matrix(0.25159874,0,0,0.25159874,7341.7053,1290.201)"
           id="g1624"><g
             transform="matrix(0.198234,0,0,0.198234,9706.6592,-984.60025)"
             id="g566"><path
               inkscape:connector-curvature="0"
               id="path568"
               style="fill:#d2d3d9;fill-opacity:1;fill-rule:nonzero;stroke:none"
               d="m 10923.4,16300 h -633.9 v -839.2 h 633.9 c 71.8,0 128.2,100.5 128.2,226.5 v 474 c 0,126 -56.4,138.7 -128.2,138.7" /></g><g
             transform="matrix(0.198273,0,0,0.198273,9709.1588,-984.60148)"
             id="g562"
             style="fill:#d2d3d9;fill-opacity:1"><path
               inkscape:connector-curvature="0"
               id="path564"
               style="fill:#d2d3d9;fill-opacity:1;fill-rule:nonzero;stroke:none"
               d="m 10290,16296.8 h -605.42 c -71.77,0 -130.93,3.2 -130.93,-122.7 v -489.9 c 0,-125.9 59.16,-226.4 130.93,-226.4 H 10290 v 839" /></g></g><g
           style="fill:#275080;fill-opacity:1"
           id="g570"
           transform="matrix(0.04818971,0,0,0.04818971,9785.2722,1042.4765)"><path
             d="m 10638.9,13052.5 13.2,3247.5 h -731.6 c -74.35,0 -133.92,-0.9 -133.92,-131.3 l 0.1,-3116.2 h 852.22"
             style="fill:#275080;fill-opacity:1;fill-rule:nonzero;stroke:none"
             id="path572"
             inkscape:connector-curvature="0" /></g><g
           style="fill:#275080;fill-opacity:1"
           id="g574"
           transform="matrix(0.04825236,0,0,0.04825236,9784.5174,1042.4765)"><path
             d="m 11369,16278.8 h -733.4 l -10.6,-3243.2 h 867.1 l 10.5,3134.2 c 0,130.2 -59.3,109 -133.6,109"
             style="fill:#275080;fill-opacity:1;fill-rule:nonzero;stroke:none"
             id="path576"
             inkscape:connector-curvature="0" /></g><g
           id="g578"
           transform="matrix(0.06020481,0,0,0.06020481,9784.5174,1042.4765)"><path
             d="m 8673.07,15022.7 c 25.83,-94.5 -40.08,93 -85.13,209.3 -45.01,116.4 -64.4,459 -64.4,459 0,0 -25.78,562.4 -295.87,491.3 -270.14,-71.1 -70.8,-607.7 -70.8,-607.7 0,0 83.58,-484.8 -80.4,-678.7 -163.99,-193.9 -183.29,-956.8 -80.41,-1060.2 102.93,-103.4 100.84,-332.3 100.84,-332.3 h 856.25 c 0,0 -24.57,280.6 20.44,397 45,116.4 167.2,1131.3 141.5,1228.2 -25.74,97 -509.68,1171.4 -509.68,1171.4 l -0.79,-1022.8 c 15.96,-104 38.15,-143.8 68.45,-254.5"
             style="fill:#c69185;fill-opacity:1;fill-rule:nonzero;stroke:none"
             id="path580"
             inkscape:connector-curvature="0" /></g><g
           id="g582"
           transform="matrix(0.05951468,0,0,0.05951468,9784.5174,1042.4765)"><path
             d="m 8244.19,16078.1 c 28.75,-116.8 123.44,-210.4 203.81,-190.4 80.36,19.9 115.92,145.9 87.21,262.7 -28.7,116.8 -107.25,149.6 -187.62,129.6 -80.32,-19.9 -132.11,-85.1 -103.4,-201.9"
             style="fill:#ebdbcc;fill-opacity:1;fill-rule:nonzero;stroke:none"
             id="path584"
             inkscape:connector-curvature="0" /></g><g
           id="g586"
           transform="matrix(0.04773256,0,0,0.04773256,9784.5174,1042.4765)"><path
             d="m 11330.6,16007.7 c -80.7,0 -146.1,65.4 -146.1,146.1 0,80.8 65.4,146.2 146.1,146.2 80.7,0 146.1,-65.4 146.1,-146.2 0,-80.7 -65.4,-146.1 -146.1,-146.1"
             style="fill:#16272f;fill-opacity:1;fill-rule:nonzero;stroke:none"
             id="path588"
             inkscape:connector-curvature="0" /></g><g
           id="g590"
           transform="matrix(0.04668968,0,0,0.04668968,9784.5174,1042.4765)"><path
             d="m 11583.7,16001.2 c -82.5,0 -149.4,66.9 -149.4,149.4 0,82.5 66.9,149.4 149.4,149.4 82.5,0 149.3,-66.9 149.3,-149.4 0,-82.5 -66.8,-149.4 -149.3,-149.4"
             style="fill:#16272f;fill-opacity:1;fill-rule:nonzero;stroke:none"
             id="path592"
             inkscape:connector-curvature="0" /></g><g
           id="g594"
           transform="matrix(0.0456541,0,0,0.0456541,9784.5174,1042.4765)"><path
             d="m 11846.5,15994.5 c -84.4,0 -152.8,68.4 -152.8,152.7 0,84.4 68.4,152.8 152.8,152.8 84.3,0 152.7,-68.4 152.7,-152.8 0,-84.3 -68.4,-152.7 -152.7,-152.7"
             style="fill:#16272f;fill-opacity:1;fill-rule:nonzero;stroke:none"
             id="path596"
             inkscape:connector-curvature="0" /></g></g></g></g></svg>