<?xml version="1.0" encoding="UTF-8" standalone="no"?>
<!-- Created with Inkscape (http://www.inkscape.org/) -->

<svg
   xmlns:dc="http://purl.org/dc/elements/1.1/"
   xmlns:cc="http://creativecommons.org/ns#"
   xmlns:rdf="http://www.w3.org/1999/02/22-rdf-syntax-ns#"
   xmlns:svg="http://www.w3.org/2000/svg"
   xmlns="http://www.w3.org/2000/svg"
   xmlns:sodipodi="http://sodipodi.sourceforge.net/DTD/sodipodi-0.dtd"
   xmlns:inkscape="http://www.inkscape.org/namespaces/inkscape"
   width="14.552084mm"
   height="14.552085mm"
   viewBox="0 0 14.552084 14.552085"
   version="1.1"
   id="svg8"
   inkscape:version="0.92.1 r15371"
   sodipodi:docname="icono.svg">
  <defs
     id="defs2">
    <clipPath
       clipPathUnits="userSpaceOnUse"
       id="clipPath300">
      <path
         d="m 244.632,287.056 c 8.426,-1.031 22.109,-5.305 29.603,-21.543 v 0 H 292.2 c 0,0 -4.125,10.15 -13.842,18.141 v 0 c -10.164,2.375 -20.736,3.419 -31.352,3.419 v 0 c -0.791,0 -1.583,-0.006 -2.374,-0.017"
         id="path298"
         inkscape:connector-curvature="0" />
    </clipPath>
    <clipPath
       clipPathUnits="userSpaceOnUse"
       id="clipPath576">
      <path
         d="M 0,500 H 500 V 0 H 0 Z"
         id="path574"
         inkscape:connector-curvature="0" />
    </clipPath>
    <clipPath
       clipPathUnits="userSpaceOnUse"
       id="clipPath600">
      <path
         d="M 0,500 H 500 V 0 H 0 Z"
         id="path598"
         inkscape:connector-curvature="0" />
    </clipPath>
    <clipPath
       clipPathUnits="userSpaceOnUse"
       id="clipPath624">
      <path
         d="M 0,500 H 500 V 0 H 0 Z"
         id="path622"
         inkscape:connector-curvature="0" />
    </clipPath>
  </defs>
  <sodipodi:namedview
     id="base"
     pagecolor="#ffffff"
     bordercolor="#666666"
     borderopacity="1.0"
     inkscape:pageopacity="0.0"
     inkscape:pageshadow="2"
     inkscape:zoom="5.6"
     inkscape:cx="38.88396"
     inkscape:cy="25.999304"
     inkscape:document-units="mm"
     inkscape:current-layer="layer1"
     showgrid="false"
     fit-margin-top="0"
     fit-margin-left="0"
     fit-margin-right="0"
     fit-margin-bottom="0"
     inkscape:window-width="1366"
     inkscape:window-height="740"
     inkscape:window-x="0"
     inkscape:window-y="0"
     inkscape:window-maximized="1" />
  <metadata
     id="metadata5">
    <rdf:RDF>
      <cc:Work
         rdf:about="">
        <dc:format>image/svg+xml</dc:format>
        <dc:type
           rdf:resource="http://purl.org/dc/dcmitype/StillImage" />
        <dc:title></dc:title>
      </cc:Work>
    </rdf:RDF>
  </metadata>
  <g
     inkscape:label="Capa 1"
     inkscape:groupmode="layer"
     id="layer1"
     transform="translate(-11.339285,-95.302451)">
    <g
       id="g1438"
       transform="matrix(0.03864614,0,0,-0.03752245,65.009013,122.45556)"
       inkscape:export-xdpi="96"
       inkscape:export-ydpi="96">
      <ellipse
         style="fill:#029800;fill-opacity:1;stroke:none;stroke-width:1.04462969;stroke-miterlimit:4;stroke-dasharray:none;stroke-opacity:1"
         id="path5079-2"
         cx="-1200.474"
         cy="-529.73798"
         transform="scale(1,-1)"
         rx="188.27345"
         ry="193.91171" />
      <g
         transform="translate(-1444.1003,292.43218)"
         id="g2167">
        <path
           inkscape:connector-curvature="0"
           id="path224"
           style="fill:#ed9498;fill-opacity:1;fill-rule:nonzero;stroke:none"
           d="m 176.8496,100.3242 c 0.859,-11.347 0.859,-22.692 2.578,-32.777 8.596,-6.303 24.068,-2.522 34.382,0 0,11.346 0,23.953 0.86,35.298 -11.174,0 -21.488,0 -32.663,1.26 -1.719,-2.52 -2.579,-5.042 -2.579,-8.824" />
        <path
           inkscape:connector-curvature="0"
           id="path228"
           style="fill:#ed9498;fill-opacity:1;fill-rule:nonzero;stroke:none"
           d="m 215.6147,100.3242 c 0.859,-11.347 0.859,-22.692 2.579,-32.777 8.595,-6.303 24.067,-2.522 34.382,0 0,11.346 0,23.953 0.859,35.298 -11.174,0 -21.488,0 -32.663,1.26 -1.719,-2.52 -2.578,-5.042 -2.578,-8.824" />
        <path
           inkscape:connector-curvature="0"
           id="path232"
           style="fill:#ef8077;fill-opacity:1;fill-rule:nonzero;stroke:none"
           d="m 314.5117,240.1436 c 10.657,-10.327 23.465,-19.406 31.76,-31.89 2.173,-3.269 6.053,-1.737 7.435,1.084 4.465,6.664 7.285,14.717 9.174,22.448 1.462,5.978 4.386,16.974 -0.684,22.162 -5.418,5.543 -16.27,2.161 -22.627,0.424 -8.019,-2.192 -15.837,-4.997 -23.644,-7.836 -2.354,-0.857 -3.239,-4.623 -1.414,-6.392" />
        <path
           inkscape:connector-curvature="0"
           id="path236"
           style="fill:#ffa9a2;fill-opacity:1;fill-rule:nonzero;stroke:none"
           d="m 325.8574,257.584 c -22.818,23.583 -54.987,30.795 -86.736,29.302 -60.448,-2.844 -107.114,-47.752 -105.12,-110.864 1.403,-44.386 32.555,-81.661 73.806,-95.47 35.484,-11.881 78.122,-7.744 108.098,15.448 24.166,18.696 37.144,48.886 39.166,78.844 2.033,30.118 -8.116,60.935 -29.214,82.74" />
        <path
           inkscape:connector-curvature="0"
           id="path240"
           style="fill:#ef8077;fill-opacity:1;fill-rule:nonzero;stroke:none"
           d="m 319.8252,192.2861 c -9.304,8.508 -22.42,11.109 -35.364,10.57 -24.647,-1.025 -43.674,-17.225 -42.861,-39.993 0.573,-16.012 13.274,-29.459 30.092,-34.44 14.468,-4.286 31.854,-2.793 44.075,5.573 9.853,6.744 15.145,17.635 15.969,28.442 0.828,10.865 -3.31,21.982 -11.911,29.848" />
        <path
           inkscape:connector-curvature="0"
           id="path244"
           style="fill:#852438;fill-opacity:1;fill-rule:nonzero;stroke:none"
           d="m 279.5459,176.9834 c -6.178,-3.681 -5.092,-15.061 -5.369,-21.148 -0.283,-6.191 9.946,-6.157 9.573,0 -0.194,3.199 -0.559,6.38 -0.788,9.577 -0.228,3.172 0.636,6.237 0.484,9.333 -0.093,1.92 -2.142,3.286 -3.9,2.238" />
        <path
           inkscape:connector-curvature="0"
           id="path248"
           style="fill:#852438;fill-opacity:1;fill-rule:nonzero;stroke:none"
           d="m 303.6377,174.7451 c -0.132,-2.69 0.596,-5.421 0.542,-8.165 -0.07,-3.584 -0.627,-7.166 -0.845,-10.745 -0.374,-6.156 9.857,-6.191 9.574,0 -0.278,6.088 0.808,17.468 -5.37,21.148 -1.757,1.048 -3.806,-0.318 -3.901,-2.238" />
        <path
           inkscape:connector-curvature="0"
           id="path252"
           style="fill:#852438;fill-opacity:1;fill-rule:nonzero;stroke:none"
           d="m 238.6538,204.6533 c 3.109,3.946 7.236,5.52 12.181,5.211 5.732,-0.357 7.265,-5.189 11.468,-7.759 0.659,-0.403 1.491,-0.009 1.709,0.694 1.951,6.304 -6.594,10.875 -11.551,11.789 -6.585,1.212 -13.5,-1.811 -16.678,-7.719 -0.943,-1.752 1.539,-3.907 2.871,-2.216" />
        <path
           inkscape:connector-curvature="0"
           id="path256"
           style="fill:#852438;fill-opacity:1;fill-rule:nonzero;stroke:none"
           d="m 334.6191,206.4316 c -2.048,5.279 -6.984,9.184 -12.896,8.271 -4.865,-0.75 -12.596,-6.516 -9.727,-12.18 0.286,-0.566 1.069,-0.723 1.592,-0.417 3.327,1.946 3.875,6.199 7.941,7.543 4.053,1.341 7.655,-1.391 9.748,-4.626 1.073,-1.658 4.123,-0.607 3.342,1.409" />
        <path
           inkscape:connector-curvature="0"
           id="path260"
           style="fill:#ef8077;fill-opacity:1;fill-rule:nonzero;stroke:none"
           d="m 231.2412,246.5352 c -7.807,2.84 -15.625,5.645 -23.644,7.836 -6.357,1.738 -17.209,5.12 -22.627,-0.424 -5.07,-5.187 -2.146,-16.183 -0.684,-22.162 1.89,-7.73 4.709,-15.783 9.175,-22.447 1.382,-2.822 5.261,-4.354 7.435,-1.084 8.294,12.483 21.103,21.562 31.759,31.889 1.826,1.769 0.94,5.536 -1.414,6.392" />
        <path
           inkscape:connector-curvature="0"
           id="path264"
           style="fill:#ffa9a2;fill-opacity:1;fill-rule:nonzero;stroke:none"
           d="m 231.688,85.8682 c 0.645,-8.51 0.645,-17.019 1.934,-24.583 6.447,-4.728 18.051,-1.891 25.786,0 0,8.51 0,17.965 0.645,26.474 -8.38,0 -16.116,0 -24.497,0.946 -1.289,-1.892 -1.934,-3.782 -1.934,-6.619" />
        <path
           inkscape:connector-curvature="0"
           id="path268"
           style="fill:#ffa9a2;fill-opacity:1;fill-rule:nonzero;stroke:none"
           d="m 228.896,85.8682 c 0.214,-5.968 0.051,-11.922 0.13,-17.89 0.069,-5.24 -0.729,-9.089 4.298,-11.96 7.723,-4.411 19.444,-2.038 27.396,0.512 1.99,0.638 3.773,2.522 3.62,4.755 -0.302,4.386 -0.075,8.843 0.008,13.237 0.083,4.394 -0.191,8.917 0.333,13.237 0.311,2.568 -2.343,4.552 -4.628,4.628 -8.169,0.273 -16.368,0.469 -24.497,1.364 -1.741,0.19 -3.498,-1.105 -4.357,-2.5 -1.479,-2.403 -2.116,-4.766 -2.279,-7.57 -0.095,-1.643 0.976,-3.326 2.368,-4.125 5.276,-3.035 6.627,3.292 8.625,6.602 -1.452,-0.833 -2.905,-1.667 -4.357,-2.5 8.185,-0.827 16.286,-0.798 24.497,-0.526 -1.543,1.542 -3.086,3.084 -4.627,4.627 -0.089,-4.394 -0.719,-8.801 -0.795,-13.237 -0.075,-4.402 0.149,-8.844 -0.154,-13.237 1.207,1.586 2.414,3.171 3.621,4.755 -7.166,-1.217 -15.223,-4.428 -22.189,-0.844 0.694,-0.901 1.387,-1.804 2.081,-2.707 -2.03,7.701 -2.675,15.472 -3.51,23.379 -0.37,3.5 -5.715,3.663 -5.584,0" />
        <path
           inkscape:connector-curvature="0"
           id="path272"
           style="fill:#ffa9a2;fill-opacity:1;fill-rule:nonzero;stroke:none"
           d="m 271.3994,85.8682 c 0.645,-8.51 0.645,-17.019 1.933,-24.583 6.447,-4.728 18.051,-1.891 25.787,0 0,8.51 0,17.965 0.644,26.474 -8.38,0 -16.115,0 -24.497,0.946 -1.29,-1.892 -1.934,-3.782 -1.934,-6.619" />
        <path
           inkscape:connector-curvature="0"
           id="path276"
           style="fill:#ffa9a2;fill-opacity:1;fill-rule:nonzero;stroke:none"
           d="m 268.6064,85.8682 c 0.215,-5.968 0.051,-11.922 0.13,-17.89 0.07,-5.24 -0.729,-9.089 4.299,-11.96 7.722,-4.411 19.443,-2.038 27.395,0.512 1.99,0.638 3.774,2.522 3.62,4.755 -0.301,4.386 -0.075,8.843 0.008,13.237 0.083,4.394 -0.19,8.917 0.333,13.237 0.312,2.568 -2.344,4.552 -4.628,4.628 -8.17,0.273 -16.368,0.469 -24.497,1.364 -1.74,0.19 -3.498,-1.105 -4.357,-2.5 -1.479,-2.403 -2.116,-4.766 -2.279,-7.57 -0.094,-1.643 0.975,-3.326 2.368,-4.125 5.276,-3.035 6.628,3.292 8.626,6.602 -1.453,-0.833 -2.906,-1.667 -4.358,-2.5 8.186,-0.827 16.286,-0.798 24.497,-0.526 -1.543,1.542 -3.086,3.084 -4.628,4.627 -0.088,-4.394 -0.717,-8.801 -0.794,-13.237 -0.075,-4.402 0.149,-8.844 -0.154,-13.237 1.207,1.586 2.414,3.171 3.621,4.755 -7.166,-1.217 -15.223,-4.428 -22.189,-0.844 0.693,-0.901 1.388,-1.804 2.083,-2.707 -2.032,7.701 -2.677,15.472 -3.511,23.379 -0.369,3.5 -5.716,3.663 -5.585,0" />
        <path
           inkscape:connector-curvature="0"
           id="path280"
           style="fill:#ffa9a2;fill-opacity:1;fill-rule:nonzero;stroke:none"
           d="m 126.6221,283.1523 c -4.96,-9.647 -8.292,-28.776 4.408,-33.898 6.987,-2.819 13.651,1.144 16.931,7.226 2.188,4.054 4.054,12.364 -2.097,14.093 -11.742,3.301 -17.362,-7.865 -17.977,-17.878 -0.705,-11.467 4.576,-24.305 14.896,-30.048 4.236,-2.357 9.354,-2.876 14.082,-2.22 4.833,0.671 13.046,3.264 15.116,8.133 0.612,1.438 -0.093,2.944 -1.75,3.051 -3.136,0.202 -6.435,-1.859 -9.397,-2.814 -2.849,-0.918 -5.809,-1.327 -8.794,-1.163 -4.569,0.25 -8.562,3.035 -11.472,6.37 -5.842,6.699 -8.196,18.063 -5.546,26.506 1.119,3.564 3.727,6.056 7.373,6.863 4.744,1.049 4.717,-3.608 3.302,-6.591 -1.348,-2.845 -3.764,-5.433 -6.593,-6.82 -6.922,-3.394 -11.614,3.127 -12.784,8.943 -1.234,6.135 -0.115,13.324 2.426,19.005 0.634,1.419 -1.388,2.674 -2.124,1.242" />
        <g
           id="g294">
          <g
             id="g296"
             clip-path="url(#clipPath300)">
            <g
               id="g302"
               transform="translate(232.6338,285.3677)">
              <path
                 d="m 0,0 c 0,0 25.528,2.836 36.874,-21.747 h 17.965 c 0,0 -12.292,30.256 -44.439,27.42 z"
                 style="fill:#852438;fill-opacity:1;fill-rule:nonzero;stroke:none"
                 id="path304"
                 inkscape:connector-curvature="0" />
            </g>
          </g>
        </g>
        <g
           id="g570">
          <g
             id="g572"
             clip-path="url(#clipPath576)">
            <g
               id="g578"
               transform="translate(288.334,324.8477)">
              <path
                 d="m 0,0 c 0,-15.346 -12.44,-27.786 -27.786,-27.786 -15.346,0 -27.787,12.44 -27.787,27.786 0,15.346 12.441,27.786 27.787,27.786 C -12.44,27.786 0,15.346 0,0"
                 style="fill:#f19238;fill-opacity:1;fill-rule:nonzero;stroke:none"
                 id="path580"
                 inkscape:connector-curvature="0" />
            </g>
            <g
               id="g582"
               transform="translate(285.1934,322.6499)">
              <path
                 d="m 0,0 c 0,-15.346 -12.439,-27.786 -27.786,-27.786 -15.346,0 -27.786,12.44 -27.786,27.786 0,15.346 12.44,27.786 27.786,27.786 C -12.439,27.786 0,15.346 0,0"
                 style="fill:#fdc65c;fill-opacity:1;fill-rule:nonzero;stroke:none"
                 id="path584"
                 inkscape:connector-curvature="0" />
            </g>
            <g
               id="g586"
               transform="translate(279.542,322.6499)">
              <path
                 d="m 0,0 c 0,-12.225 -9.91,-22.135 -22.135,-22.135 -12.224,0 -22.134,9.91 -22.134,22.135 0,12.225 9.91,22.134 22.134,22.134 C -9.91,22.134 0,12.225 0,0"
                 style="fill:#fda73a;fill-opacity:1;fill-rule:nonzero;stroke:none"
                 id="path588"
                 inkscape:connector-curvature="0" />
            </g>
          </g>
        </g>
        <text
           transform="matrix(1,0,0,-1,244.2822,309.415)"
           style="font-variant:normal;font-weight:bold;font-stretch:normal;font-size:37.7118988px;font-family:Quicksand;-inkscape-font-specification:Quicksand-Bold;writing-mode:lr-tb;fill:#f3e898;fill-opacity:1;fill-rule:nonzero;stroke:none"
           id="text592">
          <tspan
             x="0"
             y="0"
             id="tspan590">$</tspan>
        </text>
        <g
           id="g594">
          <g
             id="g596"
             clip-path="url(#clipPath600)">
            <g
               id="g602"
               transform="translate(242.1191,373.6831)">
              <path
                 d="m 0,0 c 0,-13.344 -10.817,-24.162 -24.161,-24.162 -13.345,0 -24.163,10.818 -24.163,24.162 0,13.344 10.818,24.162 24.163,24.162 C -10.817,24.162 0,13.344 0,0"
                 style="fill:#f19238;fill-opacity:1;fill-rule:nonzero;stroke:none"
                 id="path604"
                 inkscape:connector-curvature="0" />
            </g>
            <g
               id="g606"
               transform="translate(239.3887,371.772)">
              <path
                 d="m 0,0 c 0,-13.344 -10.817,-24.162 -24.162,-24.162 -13.344,0 -24.161,10.818 -24.161,24.162 0,13.344 10.817,24.162 24.161,24.162 C -10.817,24.162 0,13.344 0,0"
                 style="fill:#fdc65c;fill-opacity:1;fill-rule:nonzero;stroke:none"
                 id="path608"
                 inkscape:connector-curvature="0" />
            </g>
            <g
               id="g610"
               transform="translate(234.4746,371.772)">
              <path
                 d="m 0,0 c 0,-10.63 -8.618,-19.248 -19.248,-19.248 -10.629,0 -19.247,8.618 -19.247,19.248 0,10.63 8.618,19.247 19.247,19.247 C -8.618,19.247 0,10.63 0,0"
                 style="fill:#fda73a;fill-opacity:1;fill-rule:nonzero;stroke:none"
                 id="path612"
                 inkscape:connector-curvature="0" />
            </g>
          </g>
        </g>
        <text
           transform="matrix(1,0,0,-1,203.8125,360.2642)"
           style="font-variant:normal;font-weight:bold;font-stretch:normal;font-size:32.79299927px;font-family:Quicksand;-inkscape-font-specification:Quicksand-Bold;writing-mode:lr-tb;fill:#f3e898;fill-opacity:1;fill-rule:nonzero;stroke:none"
           id="text616">
          <tspan
             x="0"
             y="0"
             id="tspan614">$</tspan>
        </text>
        <g
           id="g618">
          <g
             id="g620"
             clip-path="url(#clipPath624)">
            <g
               id="g626"
               transform="translate(250.1885,410.7173)">
              <path
                 d="M 0,0 C 0.031,-12.778 -0.809,-25.927 0.809,-38.618 1.01,-40.2 3.068,-40.2 3.27,-38.618 4.887,-25.927 4.047,-12.778 4.078,0 4.085,2.63 -0.006,2.63 0,0"
                 style="fill:#f6ae4b;fill-opacity:1;fill-rule:nonzero;stroke:none"
                 id="path628"
                 inkscape:connector-curvature="0" />
            </g>
            <g
               id="g630"
               transform="translate(261.6387,420.1362)">
              <path
                 d="m 0,0 c -0.562,-9.528 -1.301,-19.025 0.067,-28.5 0.127,-0.876 1.637,-0.876 1.764,0 C 3.199,-19.025 2.46,-9.528 1.898,0 1.826,1.223 0.072,1.223 0,0"
                 style="fill:#f6ae4b;fill-opacity:1;fill-rule:nonzero;stroke:none"
                 id="path632"
                 inkscape:connector-curvature="0" />
            </g>
            <g
               id="g634"
               transform="translate(281.9736,382.4604)">
              <path
                 d="m 0,0 c -0.027,-5.181 -0.055,-10.361 -0.082,-15.542 -0.027,-5.208 -0.579,-10.679 0.469,-15.803 0.192,-0.943 1.706,-0.943 1.898,0 0.925,4.524 0.503,9.264 0.479,13.861 C 2.733,-11.656 2.702,-5.828 2.672,0 2.663,1.723 0.009,1.723 0,0"
                 style="fill:#f6ae4b;fill-opacity:1;fill-rule:nonzero;stroke:none"
                 id="path636"
                 inkscape:connector-curvature="0" />
            </g>
            <g
               id="g638"
               transform="translate(220.2583,339.1328)">
              <path
                 d="m 0,0 c -0.195,-6.436 -0.556,-12.871 -0.573,-19.309 -0.016,-6.258 -0.993,-13.699 1.045,-19.683 0.456,-1.338 2.257,-1.338 2.712,0 1.854,5.443 1.066,12.082 1.05,17.776 C 4.215,-14.139 3.871,-7.074 3.656,0 3.585,2.357 0.071,2.357 0,0"
                 style="fill:#f6ae4b;fill-opacity:1;fill-rule:nonzero;stroke:none"
                 id="path640"
                 inkscape:connector-curvature="0" />
            </g>
            <g
               id="g642"
               transform="translate(211.5425,329.7139)">
              <path
                 d="m 0,0 c 0.041,-3.694 -0.494,-7.895 0.549,-11.461 0.166,-0.571 0.986,-0.571 1.152,0 C 2.744,-7.895 2.209,-3.694 2.25,0 2.266,1.451 -0.016,1.451 0,0"
                 style="fill:#f6ae4b;fill-opacity:1;fill-rule:nonzero;stroke:none"
                 id="path644"
                 inkscape:connector-curvature="0" />
            </g>
            <g
               id="g646"
               transform="translate(200.4697,330.2871)">
              <path
                 d="m 0,0 c -3.603,1.946 -6.543,5.359 -8.517,8.75 -1.052,1.806 -1.38,4.011 -2.113,5.924 -0.388,1.014 -2.526,5.191 -2.102,6.128 -1.068,-2.365 -1.281,-4.92 -2.42,-7.22 -1.135,-2.291 -2.518,-4.347 -4.331,-6.163 -1.668,-1.669 -3.707,-2.914 -5.348,-4.586 -1.675,-1.708 -3.582,-2.293 -5.779,-3.016 2.462,-1.154 4.76,-1.818 6.786,-3.691 2.53,-2.338 4.75,-4.925 6.467,-7.92 1.54,-2.687 2.038,-6.164 3.071,-9.108 0.38,5.957 4.395,10.763 9.196,14.101 1.449,1.007 2.804,2.134 4.41,2.822 1.757,0.754 3.644,1.175 5.124,2.468 C 2.876,-1.282 1.389,-0.75 0,0"
                 style="fill:#ffffff;fill-opacity:1;fill-rule:nonzero;stroke:none"
                 id="path648"
                 inkscape:connector-curvature="0" />
            </g>
            <g
               id="g650"
               transform="translate(295.2422,404.9473)">
              <path
                 d="M 0,0 C -1.743,0.942 -3.167,2.594 -4.122,4.235 -4.631,5.109 -4.791,6.177 -5.146,7.103 -5.333,7.594 -6.367,9.616 -6.162,10.069 -6.68,8.924 -6.783,7.687 -7.334,6.574 -7.883,5.465 -8.553,4.47 -9.43,3.591 c -0.808,-0.808 -1.795,-1.41 -2.589,-2.22 -0.81,-0.827 -1.734,-1.11 -2.797,-1.46 1.192,-0.558 2.304,-0.88 3.285,-1.786 1.224,-1.132 2.299,-2.384 3.13,-3.833 0.746,-1.301 0.986,-2.984 1.486,-4.409 0.185,2.883 2.128,5.209 4.451,6.825 0.702,0.488 1.358,1.033 2.135,1.366 0.85,0.365 1.765,0.569 2.48,1.195 C 1.393,-0.621 0.672,-0.363 0,0"
                 style="fill:#ffffff;fill-opacity:1;fill-rule:nonzero;stroke:none"
                 id="path652"
                 inkscape:connector-curvature="0" />
            </g>
            <g
               id="g654"
               transform="translate(310.0703,299.1538)">
              <path
                 d="m 0,0 c -2.163,1.168 -3.93,3.219 -5.115,5.255 -0.631,1.085 -0.83,2.409 -1.27,3.558 -0.233,0.61 -1.515,3.119 -1.261,3.681 -0.642,-1.42 -0.771,-2.955 -1.455,-4.337 -0.681,-1.376 -1.512,-2.61 -2.6,-3.7 -1.004,-1.003 -2.228,-1.751 -3.212,-2.756 -1.006,-1.026 -2.152,-1.377 -3.472,-1.811 1.479,-0.693 2.86,-1.092 4.076,-2.217 1.52,-1.404 2.853,-2.958 3.884,-4.756 0.926,-1.614 1.224,-3.703 1.844,-5.471 0.229,3.577 2.641,6.464 5.523,8.47 0.871,0.604 1.685,1.281 2.65,1.694 1.054,0.454 2.189,0.706 3.077,1.483 C 1.729,-0.77 0.834,-0.45 0,0"
                 style="fill:#ffffff;fill-opacity:1;fill-rule:nonzero;stroke:none"
                 id="path656"
                 inkscape:connector-curvature="0" />
            </g>
          </g>
        </g>
      </g>
    </g>
  </g>
</svg>
